<svg fill="none" xmlns="http://www.w3.org/2000/svg" viewBox="0 0 795 458">
  <ellipse cx="397.5" cy="229" rx="201.5" ry="200" fill="#EEFCFF"/>
  <ellipse cx="397.5" cy="229" rx="201.5" ry="200" stroke="#E6FAFF" stroke-width="7" stroke-linecap="round" stroke-linejoin="round" stroke-dasharray="16 32 48 64"/>
  <rect x="258.465" y="41" width="280.085" height="376" rx="16" fill="#F2F2F2"/>
  <path fill="#BDBDBD" d="M372.807 55.862h51.401v5.945h-51.401z"/>
  <path d="M277.596 63.824c.235-.234.211-.586 0-.82l-2.836-2.696h6.75a.555.555 0 00.563-.562v-.75a.57.57 0 00-.563-.563h-6.75l2.836-2.672c.211-.234.235-.586 0-.82l-.515-.516a.581.581 0 00-.797 0l-4.547 4.57a.514.514 0 000 .774l4.547 4.57c.211.212.562.212.797 0l.515-.515z" fill="#4F4F4F"/>
  <rect x="269.479" y="78.154" width="259.105" height="22.293" rx="4" fill="#E0E0E0"/>
  <rect x="269.479" y="107.878" width="259.105" height="298.719" rx="4" fill="#fff"/>
  <path d="M286.546 127.876h-5.15v5.423h-2.224v-12.797h8.13v1.793h-5.906v3.806h5.15v1.775zm7.699 5.423c-.094-.182-.176-.477-.246-.888a3.326 3.326 0 01-2.496 1.064c-.955 0-1.734-.273-2.338-.818-.603-.544-.905-1.218-.905-2.021 0-1.014.375-1.79 1.125-2.329.756-.545 1.834-.817 3.234-.817h1.31v-.625c0-.492-.138-.884-.413-1.177-.276-.299-.695-.448-1.257-.448-.487 0-.885.123-1.196.369-.31.24-.465.547-.465.922h-2.136c0-.521.173-1.007.518-1.458.346-.458.815-.815 1.407-1.073.597-.258 1.262-.386 1.995-.386 1.113 0 2.001.281 2.663.843.662.557 1.002 1.342 1.019 2.356v4.289c0 .855.121 1.538.361 2.048v.149h-2.18zm-2.347-1.538c.422 0 .818-.103 1.187-.308a2.05 2.05 0 00.844-.826v-1.793h-1.152c-.791 0-1.385.138-1.784.413-.398.276-.597.665-.597 1.169 0 .41.134.739.404.985.275.24.641.36 1.098.36zm10.31.009c.533 0 .976-.155 1.327-.466.352-.311.539-.694.563-1.151h2.012a3.164 3.164 0 01-.553 1.661 3.657 3.657 0 01-1.407 1.213 4.197 4.197 0 01-1.916.448c-1.33 0-2.384-.431-3.164-1.292-.779-.861-1.169-2.051-1.169-3.568v-.22c0-1.447.387-2.605 1.161-3.472.773-.873 1.828-1.309 3.164-1.309 1.13 0 2.05.331 2.759.993.715.656 1.09 1.52 1.125 2.592h-2.012c-.024-.544-.211-.993-.563-1.344-.346-.352-.788-.528-1.327-.528-.691 0-1.225.252-1.6.756-.375.498-.565 1.257-.571 2.277v.342c0 1.032.185 1.802.554 2.312.375.504.914.756 1.617.756zm8.191-10.292v2.311h1.679v1.582h-1.679v5.309c0 .363.071.627.211.791.147.158.405.237.774.237.246 0 .495-.029.747-.088v1.653a5.288 5.288 0 01-1.406.202c-1.641 0-2.461-.905-2.461-2.716v-5.388h-1.565v-1.582h1.565v-2.311h2.135zm9.08 10.889c-.627.739-1.518 1.108-2.672 1.108-1.032 0-1.814-.302-2.347-.905-.527-.604-.791-1.477-.791-2.62v-6.161h2.136v6.135c0 1.207.501 1.811 1.503 1.811 1.037 0 1.737-.372 2.1-1.117v-6.829h2.136v9.51h-2.013l-.052-.932zm9.219-6.627a5.377 5.377 0 00-.87-.07c-.978 0-1.638.375-1.977 1.125v6.504h-2.136v-9.51h2.039l.053 1.064c.515-.826 1.23-1.239 2.144-1.239.305 0 .557.041.756.123l-.009 2.003zm6.768 7.559c-.094-.182-.176-.477-.246-.888a3.326 3.326 0 01-2.496 1.064c-.955 0-1.735-.273-2.338-.818-.604-.544-.906-1.218-.906-2.021 0-1.014.375-1.79 1.125-2.329.756-.545 1.834-.817 3.235-.817h1.309v-.625c0-.492-.137-.884-.413-1.177-.275-.299-.694-.448-1.257-.448-.486 0-.884.123-1.195.369-.31.24-.466.547-.466.922h-2.135c0-.521.172-1.007.518-1.458.346-.458.815-.815 1.406-1.073.598-.258 1.263-.386 1.996-.386 1.113 0 2.001.281 2.663.843.662.557 1.002 1.342 1.019 2.356v4.289c0 .855.12 1.538.361 2.048v.149h-2.18zm-2.347-1.538c.422 0 .818-.103 1.187-.308.375-.205.656-.48.843-.826v-1.793h-1.151c-.791 0-1.386.138-1.784.413-.399.276-.598.665-.598 1.169 0 .41.135.739.405.985.275.24.641.36 1.098.36z" fill="#004B5F"/>
  <rect x="278.922" y="148.004" width="237.6" height="86.693" rx="1" fill="#F2F2F2"/>
  <rect x="278.922" y="306.528" width="237.6" height="15.357" rx="1" fill="#E0E0E0"/>
  <path d="M296.492 215.787h-2.217v6.113h-1.225v-6.113h-2.197v-.996h5.639v.996zm2.71 6.211c-.752 0-1.362-.236-1.831-.708-.465-.476-.698-1.107-.698-1.895v-.146c0-.528.101-.998.303-1.412.205-.416.491-.74.859-.971a2.267 2.267 0 011.23-.347c.72 0 1.275.23 1.665.689.394.459.591 1.108.591 1.948v.478h-3.452c.036.436.181.782.435 1.035.257.254.579.381.967.381.543 0 .986-.219 1.328-.659l.639.61a2.152 2.152 0 01-.849.738 2.666 2.666 0 01-1.187.259zm-.141-4.527c-.326 0-.59.114-.791.342-.199.228-.326.545-.381.952h2.26v-.088c-.026-.397-.131-.696-.317-.898-.186-.205-.443-.308-.771-.308zm4.448 4.429h-1.187v-7.5h1.187v7.5zm3.623.098c-.752 0-1.362-.236-1.831-.708-.466-.476-.698-1.107-.698-1.895v-.146c0-.528.1-.998.302-1.412.205-.416.492-.74.86-.971a2.264 2.264 0 011.23-.347c.72 0 1.275.23 1.665.689.394.459.591 1.108.591 1.948v.478h-3.452c.036.436.18.782.434 1.035.258.254.58.381.967.381.544 0 .987-.219 1.328-.659l.64.61a2.155 2.155 0 01-.85.738 2.662 2.662 0 01-1.186.259zm-.142-4.527c-.325 0-.589.114-.791.342-.198.228-.325.545-.381.952h2.261v-.088c-.026-.397-.132-.696-.317-.898-.186-.205-.443-.308-.772-.308zm.269-3.071h1.352l-1.352 1.479h-.952l.952-1.479zm3.335 7.5v-4.404h-.806v-.879h.806v-.484c0-.586.163-1.038.488-1.357.326-.319.781-.479 1.367-.479.209 0 .43.03.664.088l-.029.928a2.342 2.342 0 00-.454-.039c-.567 0-.85.291-.85.874v.469h1.074v.879h-1.074v4.404h-1.186zm2.905-2.691a3.1 3.1 0 01.308-1.396c.205-.417.493-.736.864-.957a2.416 2.416 0 011.279-.337c.713 0 1.291.23 1.734.689.446.459.686 1.067.722 1.826l.005.278c0 .521-.101.986-.303 1.396a2.197 2.197 0 01-.859.953 2.446 2.446 0 01-1.289.337c-.745 0-1.343-.248-1.792-.743-.446-.498-.669-1.16-.669-1.987v-.059zm1.187.103c0 .544.112.97.336 1.279.225.306.538.459.938.459.4 0 .711-.156.933-.468.224-.313.336-.77.336-1.373 0-.533-.115-.957-.346-1.269a1.093 1.093 0 00-.933-.469c-.387 0-.695.155-.923.464-.228.306-.341.765-.341 1.377zm5.83-2.695l.034.61c.39-.472.903-.708 1.538-.708 1.1 0 1.66.63 1.68 1.89v3.491h-1.187v-3.423c0-.335-.073-.583-.22-.742-.143-.163-.379-.244-.708-.244-.478 0-.835.216-1.069.649v3.76h-1.187v-5.283h1.119zm4.243 2.592a3.1 3.1 0 01.307-1.396c.205-.417.494-.736.865-.957a2.416 2.416 0 011.279-.337c.713 0 1.291.23 1.733.689.446.459.687 1.067.723 1.826l.005.278c0 .521-.101.986-.303 1.396a2.197 2.197 0 01-.859.953 2.446 2.446 0 01-1.289.337c-.746 0-1.343-.248-1.792-.743-.446-.498-.669-1.16-.669-1.987v-.059zm1.186.103c0 .544.113.97.337 1.279.225.306.537.459.938.459.4 0 .711-.156.932-.468.225-.313.337-.77.337-1.373 0-.533-.115-.957-.346-1.269a1.093 1.093 0 00-.933-.469c-.387 0-.695.155-.923.464-.228.306-.342.765-.342 1.377zm4.776 2.114a.57.57 0 01.136-.39c.095-.105.235-.157.42-.157.186 0 .326.052.42.157a.547.547 0 01.147.39c0 .15-.049.275-.147.376-.094.101-.234.152-.42.152-.185 0-.325-.051-.42-.152a.54.54 0 01-.136-.376zm.005-4.311c0-.157.045-.287.136-.391.095-.104.235-.156.42-.156.186 0 .326.052.42.156a.547.547 0 01.147.391.52.52 0 01-.147.376c-.094.101-.234.151-.42.151-.185 0-.325-.05-.42-.151a.542.542 0 01-.136-.376zm7.514.971h1.983v.855h-1.983v2.246h-.908v-2.246h-1.982v-.855h1.982v-2.075h.908v2.075zm4.307-.18h.679c.426-.007.761-.119 1.005-.337.245-.218.367-.513.367-.884 0-.833-.415-1.25-1.245-1.25-.391 0-.704.112-.938.337-.231.221-.347.516-.347.884h-.903c0-.563.205-1.031.615-1.402.414-.374.938-.561 1.573-.561.67 0 1.196.177 1.577.532.381.355.571.848.571 1.48 0 .309-.101.608-.303.898a1.79 1.79 0 01-.815.649c.39.124.692.329.903.616.215.286.322.636.322 1.049 0 .639-.208 1.145-.625 1.519-.416.374-.958.562-1.626.562-.667 0-1.211-.181-1.63-.542-.417-.362-.625-.839-.625-1.431h.908c0 .374.122.674.366.898.244.225.571.337.981.337.437 0 .77-.114 1.001-.342.232-.227.347-.555.347-.981 0-.413-.127-.731-.381-.952-.254-.221-.62-.335-1.098-.342h-.679v-.737zm8.115 1.606h.986v.738h-.986v1.65h-.908v-1.65h-3.237v-.533l3.183-4.926h.962v4.721zm-3.12 0h2.212v-3.486l-.108.195-2.104 3.291zm10.947-4.726v.766h-.166c-.703.013-1.263.222-1.679.625-.417.404-.658.972-.723 1.704.374-.429.885-.644 1.533-.644.619 0 1.112.218 1.48.654.371.436.556.999.556 1.69 0 .732-.2 1.318-.6 1.757-.397.44-.931.66-1.602.66-.68 0-1.232-.261-1.655-.782-.423-.524-.635-1.198-.635-2.021v-.347c0-1.308.278-2.308.835-2.998.56-.693 1.392-1.048 2.495-1.064h.161zm-1.186 3.203c-.31 0-.594.093-.855.278-.26.186-.441.418-.542.698v.332c0 .586.132 1.058.396 1.416.263.358.592.537.986.537.407 0 .726-.149.957-.449.234-.299.352-.691.352-1.176 0-.489-.119-.883-.357-1.182a1.124 1.124 0 00-.937-.454zm7.846-2.691l-2.944 6.602h-.947l2.934-6.367h-3.847v-.742h4.804v.507zm4.571-.512v.766h-.166c-.703.013-1.263.222-1.68.625-.417.404-.658.972-.723 1.704.375-.429.886-.644 1.534-.644.618 0 1.111.218 1.479.654.371.436.557.999.557 1.69 0 .732-.2 1.318-.601 1.757-.397.44-.931.66-1.601.66-.681 0-1.233-.261-1.656-.782-.423-.524-.634-1.198-.634-2.021v-.347c0-1.308.278-2.308.834-2.998.56-.693 1.392-1.048 2.496-1.064h.161zm-1.187 3.203c-.309 0-.594.093-.854.278a1.449 1.449 0 00-.542.698v.332c0 .586.132 1.058.395 1.416.264.358.593.537.987.537.406 0 .725-.149.957-.449.234-.299.351-.691.351-1.176 0-.489-.119-.883-.356-1.182a1.126 1.126 0 00-.938-.454zm10.327-2.691l-2.944 6.602h-.947l2.934-6.367h-3.847v-.742h4.804v.507zm5.616 0l-2.945 6.602h-.947l2.935-6.367h-3.848v-.742h4.805v.507zm7.05-.512v.766h-.166c-.703.013-1.263.222-1.679.625-.417.404-.658.972-.723 1.704.374-.429.885-.644 1.533-.644.619 0 1.112.218 1.48.654.371.436.556.999.556 1.69 0 .732-.2 1.318-.6 1.757-.397.44-.931.66-1.602.66-.68 0-1.232-.261-1.655-.782-.423-.524-.635-1.198-.635-2.021v-.347c0-1.308.278-2.308.835-2.998.56-.693 1.392-1.048 2.495-1.064h.161zm-1.186 3.203c-.309 0-.594.093-.855.278-.26.186-.441.418-.542.698v.332c0 .586.132 1.058.396 1.416.264.358.592.537.986.537.407 0 .726-.149.957-.449.235-.299.352-.691.352-1.176 0-.489-.119-.883-.357-1.182a1.124 1.124 0 00-.937-.454zm4.57-.083h.679c.426-.007.762-.119 1.006-.337.244-.218.366-.513.366-.884 0-.833-.415-1.25-1.245-1.25-.391 0-.703.112-.938.337-.231.221-.346.516-.346.884h-.904c0-.563.205-1.031.616-1.402.413-.374.937-.561 1.572-.561.67 0 1.196.177 1.577.532.381.355.571.848.571 1.48 0 .309-.101.608-.302.898-.199.29-.471.506-.816.649.391.124.692.329.903.616.215.286.323.636.323 1.049 0 .639-.209 1.145-.625 1.519-.417.374-.959.562-1.626.562-.668 0-1.211-.181-1.631-.542-.417-.362-.625-.839-.625-1.431h.908c0 .374.122.674.366.898.244.225.572.337.982.337.436 0 .77-.114 1.001-.342.231-.227.346-.555.346-.981 0-.413-.127-.731-.38-.952-.254-.221-.621-.335-1.099-.342h-.679v-.737zm10.244.869a2.207 2.207 0 01-.678.542 1.82 1.82 0 01-.86.205c-.41 0-.768-.101-1.074-.303a1.977 1.977 0 01-.703-.849 2.922 2.922 0 01-.249-1.216c0-.475.089-.904.268-1.284.183-.381.44-.673.772-.874a2.19 2.19 0 011.162-.303c.703 0 1.257.264 1.66.791.407.524.61 1.24.61 2.148v.264c0 1.383-.273 2.394-.82 3.032-.547.635-1.372.961-2.475.977h-.176v-.762h.19c.746-.013 1.319-.207 1.719-.581.4-.378.618-.973.654-1.787zm-1.391 0c.302 0 .581-.093.835-.278.257-.186.444-.415.561-.689v-.361c0-.593-.128-1.074-.386-1.446-.257-.371-.582-.556-.976-.556-.397 0-.716.153-.957.459-.241.303-.361.703-.361 1.201 0 .485.115.885.346 1.201.235.313.547.469.938.469zm7.358.737h.986v.738h-.986v1.65h-.908v-1.65h-3.237v-.533l3.183-4.926h.962v4.721zm-3.12 0h2.212v-3.486l-.108.195-2.104 3.291zm-120.782 91.709h-1.552v4.28h-.858v-4.28h-1.538v-.697h3.948v.697zm2.286 1.34a2.075 2.075 0 00-.338-.027c-.381 0-.637.146-.769.437v2.53h-.831v-3.699h.793l.021.414c.2-.321.478-.482.834-.482a.78.78 0 01.294.048l-.004.779zm2.632 2.94a1.297 1.297 0 01-.095-.346 1.294 1.294 0 01-.971.414c-.372 0-.675-.106-.909-.318a1.016 1.016 0 01-.352-.786c0-.394.145-.696.437-.906.294-.212.713-.318 1.258-.318h.509v-.242a.64.64 0 00-.16-.458c-.108-.117-.271-.175-.489-.175a.725.725 0 00-.465.144.433.433 0 00-.181.359h-.831c0-.203.067-.392.202-.568a1.35 1.35 0 01.547-.417c.232-.1.491-.15.776-.15.433 0 .778.109 1.035.328.258.217.39.522.397.916v1.668c0 .333.046.598.14.797v.058h-.848zm-.912-.599a.932.932 0 00.461-.119.8.8 0 00.328-.321v-.698h-.448c-.307 0-.538.054-.693.161a.521.521 0 00-.233.455c0 .159.053.287.157.382.107.094.25.14.428.14zm3.53-3.999v.899h.653v.616h-.653v2.064c0 .141.028.244.082.308.057.061.158.092.301.092.096 0 .193-.011.291-.034v.642a2.026 2.026 0 01-.547.079c-.638 0-.957-.352-.957-1.056v-2.095h-.609v-.616h.609v-.899h.83zm3.5 4.598a1.297 1.297 0 01-.095-.346 1.294 1.294 0 01-.971.414c-.371 0-.675-.106-.909-.318a1.016 1.016 0 01-.352-.786c0-.394.146-.696.437-.906.294-.212.713-.318 1.258-.318h.509v-.242a.64.64 0 00-.16-.458c-.107-.117-.27-.175-.489-.175a.725.725 0 00-.465.144.433.433 0 00-.181.359h-.831a.92.92 0 01.202-.568 1.35 1.35 0 01.547-.417c.232-.1.491-.15.776-.15.433 0 .778.109 1.035.328.258.217.39.522.397.916v1.668c0 .333.047.598.14.797v.058h-.848zm-.912-.599a.93.93 0 00.461-.119.8.8 0 00.328-.321v-.698h-.447c-.308 0-.539.054-.694.161a.521.521 0 00-.233.455c0 .159.053.287.158.382.107.094.249.14.427.14zm3.271-3.1l.024.387c.259-.303.615-.455 1.066-.455.495 0 .833.189 1.015.567.269-.378.647-.567 1.135-.567.408 0 .711.113.909.338.201.226.303.559.308.998v2.431h-.831v-2.407c0-.234-.051-.406-.154-.516-.102-.109-.272-.164-.509-.164a.692.692 0 00-.465.154.798.798 0 00-.249.396l.003 2.537h-.83v-2.434c-.012-.435-.234-.653-.667-.653-.333 0-.568.136-.707.407v2.68h-.831v-3.699h.783zm6.193 3.699h-.83v-3.699h.83v3.699zm-.882-4.659c0-.128.04-.234.12-.318.082-.084.198-.126.349-.126.15 0 .266.042.348.126.082.084.123.19.123.318 0 .125-.041.23-.123.314a.47.47 0 01-.348.123c-.151 0-.267-.041-.349-.123a.438.438 0 01-.12-.314zm3.418 4.727c-.526 0-.953-.165-1.281-.496-.326-.332-.489-.774-.489-1.326v-.102c0-.369.07-.699.212-.988.143-.292.344-.519.601-.68.258-.162.545-.243.862-.243.503 0 .892.161 1.165.482.276.321.414.776.414 1.364v.335h-2.417c.025.305.127.547.304.724.18.178.406.267.677.267.381 0 .691-.154.93-.462l.448.428a1.514 1.514 0 01-.595.516 1.858 1.858 0 01-.831.181zm-.099-3.168a.704.704 0 00-.554.239c-.139.159-.227.381-.266.666h1.582v-.061c-.018-.278-.092-.488-.222-.629-.13-.144-.31-.215-.54-.215zm3.001-.599l.024.428c.273-.331.632-.496 1.077-.496.77 0 1.162.441 1.175 1.323v2.444h-.83v-2.396c0-.235-.051-.408-.154-.52-.1-.114-.265-.171-.495-.171-.335 0-.585.152-.749.455v2.632h-.831v-3.699h.783zm4.167-.899v.899h.652v.616h-.652v2.064c0 .141.027.244.082.308.057.061.157.092.3.092.096 0 .193-.011.291-.034v.642a2.02 2.02 0 01-.547.079c-.638 0-.957-.352-.957-1.056v-2.095h-.608v-.616h.608v-.899h.831zm1.032 2.714c0-.362.072-.688.215-.977a1.56 1.56 0 01.605-.67c.26-.157.558-.236.896-.236.499 0 .903.161 1.213.482.312.321.481.747.506 1.278l.003.195c0 .365-.07.691-.212.978a1.537 1.537 0 01-.601.666c-.26.157-.561.236-.902.236-.522 0-.94-.173-1.255-.52-.312-.348-.468-.812-.468-1.391v-.041zm.83.072c0 .381.079.679.236.896a.768.768 0 00.657.321c.28 0 .497-.109.652-.328.158-.219.236-.539.236-.961 0-.373-.081-.67-.243-.888a.763.763 0 00-.652-.328.761.761 0 00-.646.324c-.16.214-.24.536-.24.964zm61.859 1.812v-4.977h1.47c.439 0 .829.098 1.168.294.342.196.607.474.793.834.187.36.281.772.281 1.237v.25c0 .471-.095.886-.284 1.244a1.97 1.97 0 01-.803.827 2.401 2.401 0 01-1.193.291h-1.432zm.865-4.28v3.589h.564c.453 0 .8-.141 1.042-.424.244-.284.368-.692.373-1.223v-.277c0-.54-.118-.953-.352-1.237-.235-.285-.576-.428-1.022-.428h-.605zm4.511 4.28h-.83v-3.699h.83v3.699zm-.882-4.659c0-.128.04-.234.12-.318.082-.084.198-.126.349-.126.15 0 .266.042.348.126.082.084.123.19.123.318 0 .125-.041.23-.123.314a.47.47 0 01-.348.123c-.151 0-.267-.041-.349-.123a.438.438 0 01-.12-.314zm3.418 4.727c-.526 0-.953-.165-1.281-.496-.326-.332-.489-.774-.489-1.326v-.102c0-.369.071-.699.212-.988.143-.292.344-.519.601-.68.258-.162.545-.243.862-.243.503 0 .892.161 1.165.482.276.321.414.776.414 1.364v.335h-2.417c.025.305.127.547.305.724.18.178.405.267.676.267.381 0 .691-.154.93-.462l.448.428a1.508 1.508 0 01-.595.516 1.858 1.858 0 01-.831.181zm-.099-3.168a.7.7 0 00-.553.239c-.139.159-.228.381-.267.666h1.582v-.061c-.018-.278-.092-.488-.222-.629-.13-.144-.31-.215-.54-.215zm3.001-.599l.024.428a1.33 1.33 0 011.077-.496c.77 0 1.162.441 1.176 1.323v2.444h-.831v-2.396c0-.235-.051-.408-.154-.52-.1-.114-.265-.171-.495-.171-.335 0-.585.152-.749.455v2.632h-.83v-3.699h.782zm4.167-.899v.899h.653v.616h-.653v2.064c0 .141.027.244.082.308.057.061.157.092.301.092.095 0 .192-.011.29-.034v.642a2.02 2.02 0 01-.547.079c-.638 0-.957-.352-.957-1.056v-2.095h-.608v-.616h.608v-.899h.831zm2.919 4.666c-.527 0-.954-.165-1.282-.496-.326-.332-.489-.774-.489-1.326v-.102c0-.369.071-.699.212-.988.144-.292.344-.519.602-.68.257-.162.544-.243.861-.243.504 0 .892.161 1.166.482.275.321.413.776.413 1.364v.335H397.1c.025.305.126.547.304.724.18.178.405.267.677.267.38 0 .69-.154.929-.462l.448.428a1.5 1.5 0 01-.595.516 1.856 1.856 0 01-.83.181zm-.099-3.168a.703.703 0 00-.554.239c-.139.159-.228.381-.267.666h1.583v-.061c-.018-.278-.092-.488-.222-.629-.13-.144-.31-.215-.54-.215zm4.303 2.095a.378.378 0 00-.185-.339c-.121-.077-.322-.145-.605-.205a3.117 3.117 0 01-.707-.225c-.415-.201-.622-.491-.622-.872 0-.319.134-.586.403-.8.269-.214.611-.321 1.025-.321.442 0 .799.109 1.07.328.274.219.41.503.41.851h-.83a.505.505 0 00-.178-.396.677.677 0 00-.472-.161.737.737 0 00-.447.127.4.4 0 00-.171.338c0 .128.053.227.16.297.107.071.324.143.65.216.326.07.581.156.765.256.187.098.325.216.414.355a.905.905 0 01.137.506.967.967 0 01-.414.81c-.276.205-.637.308-1.083.308-.303 0-.573-.055-.81-.164a1.333 1.333 0 01-.554-.451 1.071 1.071 0 01-.198-.619h.806a.595.595 0 00.222.455c.137.104.318.157.544.157.219 0 .385-.041.499-.123a.39.39 0 00.171-.328zm49.044-1.34v1.849h-.865v-4.976h1.904c.556 0 .997.145 1.323.434.328.289.492.672.492 1.148 0 .488-.161.867-.482 1.139-.319.271-.767.406-1.343.406h-1.029zm0-.694h1.039c.307 0 .542-.071.704-.215.162-.146.243-.355.243-.629 0-.269-.082-.483-.246-.642-.165-.162-.39-.245-.677-.25h-1.063v1.736zm5.469-.396a2.096 2.096 0 00-.339-.027c-.38 0-.637.145-.769.437v2.529h-.83v-3.698h.792l.021.414c.201-.322.479-.482.834-.482a.78.78 0 01.294.048l-.003.779zm2.084 3.008c-.526 0-.953-.165-1.281-.496-.326-.333-.489-.775-.489-1.326v-.103c0-.369.071-.698.212-.987.143-.292.344-.519.601-.681.258-.161.545-.242.862-.242.503 0 .892.16 1.165.482.276.321.414.776.414 1.363v.335h-2.417c.025.306.127.547.305.725.18.178.405.267.676.267.381 0 .691-.154.93-.462l.448.427a1.51 1.51 0 01-.595.517c-.246.12-.523.181-.831.181zm-.099-3.169a.702.702 0 00-.553.24c-.139.159-.228.381-.267.666h1.583v-.061c-.019-.278-.093-.488-.223-.629-.129-.144-.31-.216-.54-.216zm3.75 2.506a.751.751 0 00.516-.182c.137-.12.21-.27.219-.447h.782c-.009.23-.08.445-.215.646a1.415 1.415 0 01-.547.471c-.23.117-.478.175-.745.175-.517 0-.927-.168-1.23-.503-.303-.335-.455-.797-.455-1.387v-.086c0-.563.15-1.013.451-1.35.301-.339.711-.509 1.231-.509.439 0 .797.129 1.073.386.278.255.424.591.437 1.008h-.782a.756.756 0 00-.219-.523.695.695 0 00-.516-.205c-.269 0-.476.098-.622.294-.146.194-.22.489-.222.885v.134c0 .401.071.7.215.899.146.196.355.294.629.294zm3.028.594h-.83v-3.698h.83v3.698zm-.882-4.658c0-.128.04-.234.12-.318.082-.085.198-.127.349-.127.15 0 .266.042.348.127.082.084.123.19.123.318 0 .125-.041.23-.123.314a.47.47 0 01-.348.123c-.151 0-.267-.041-.349-.123a.438.438 0 01-.12-.314zm1.634 2.775c0-.362.072-.688.215-.977.144-.292.346-.515.605-.67.26-.158.559-.236.896-.236.499 0 .903.16 1.213.482.313.321.481.747.506 1.278l.004.195c0 .364-.071.69-.212.977-.139.287-.34.51-.602.667a1.71 1.71 0 01-.902.236c-.522 0-.94-.173-1.255-.52-.312-.348-.468-.812-.468-1.391v-.041zm.831.072c0 .38.078.679.236.895a.766.766 0 00.656.322c.28 0 .498-.11.653-.328.157-.219.235-.539.235-.961 0-.374-.08-.67-.242-.889a.767.767 0 00-.653-.328.762.762 0 00-.646.325c-.16.214-.239.535-.239.964zm-178.944 16.994c0 .558-.093 1.045-.281 1.461a2.131 2.131 0 01-.797.95 2.2 2.2 0 01-1.203.328c-.448 0-.845-.11-1.191-.328a2.214 2.214 0 01-.809-.942c-.19-.409-.288-.881-.293-1.418v-.41c0-.547.095-1.03.285-1.449.19-.42.459-.74.805-.961a2.163 2.163 0 011.195-.336c.456 0 .857.111 1.203.332.349.219.618.538.805.957.188.417.281.902.281 1.457v.359zm-.746-.367c0-.674-.135-1.191-.406-1.551-.271-.362-.65-.543-1.137-.543-.474 0-.847.181-1.121.543-.271.36-.41.86-.418 1.5v.418c0 .654.137 1.168.41 1.543.276.373.655.559 1.137.559.484 0 .859-.176 1.125-.527.266-.355.402-.861.41-1.52v-.422zm5.336.961c0 .646-.148 1.165-.445 1.559-.297.39-.695.586-1.195.586-.534 0-.947-.189-1.239-.567l-.035.489h-.664v-6h.723v2.238c.291-.362.694-.543 1.207-.543.513 0 .915.194 1.207.582.294.388.441.919.441 1.594v.062zm-.722-.082c0-.492-.096-.872-.286-1.141-.19-.268-.463-.402-.82-.402-.476 0-.819.221-1.027.664v1.828c.221.443.566.664 1.035.664.346 0 .616-.134.808-.402.193-.268.29-.672.29-1.211zm2.617-3.101v1.023h.789v.559h-.789v2.621c0 .169.035.297.105.382.07.084.19.125.36.125.083 0 .197-.015.343-.046v.586c-.19.052-.375.078-.554.078-.323 0-.567-.098-.731-.293-.164-.196-.246-.473-.246-.832v-2.621h-.769v-.559h.769v-1.023h.723zm4.246 4.832c-.281.33-.694.496-1.238.496-.451 0-.795-.131-1.032-.391-.234-.263-.353-.651-.355-1.164v-2.75h.722v2.73c0 .641.261.961.782.961.552 0 .919-.205 1.101-.617v-3.074h.723v4.227h-.688l-.015-.418zm3.847-3.161a2.18 2.18 0 00-.355-.027c-.474 0-.796.202-.965.606v3h-.722v-4.227h.703l.011.488c.237-.377.573-.566 1.008-.566.141 0 .248.018.32.055v.671zm3.122 3.579c-.042-.084-.076-.232-.102-.446a1.613 1.613 0 01-1.203.524c-.417 0-.759-.118-1.027-.352a1.15 1.15 0 01-.399-.898c0-.44.167-.782.5-1.024.336-.245.807-.367 1.414-.367h.703v-.332c0-.253-.075-.453-.226-.602-.151-.151-.374-.226-.668-.226-.258 0-.474.065-.649.195-.174.13-.261.288-.261.473h-.727c0-.211.074-.414.223-.61.151-.197.354-.354.609-.468.258-.115.54-.172.848-.172.487 0 .868.122 1.144.367.276.242.42.577.43 1.004v1.945c0 .388.049.697.148.926v.063h-.757zm-1.2-.551c.227 0 .442-.059.645-.176.203-.117.35-.27.441-.457v-.867h-.566c-.886 0-1.328.259-1.328.777 0 .227.075.404.226.531a.869.869 0 00.582.192zm4.637.039c.258 0 .483-.078.676-.235a.822.822 0 00.32-.586h.684a1.316 1.316 0 01-.25.692c-.154.219-.36.393-.617.523a1.757 1.757 0 01-.813.196c-.575 0-1.034-.192-1.375-.575-.338-.385-.508-.911-.508-1.578v-.121c0-.411.076-.777.227-1.097.151-.321.367-.569.648-.747a1.86 1.86 0 011.004-.265c.474 0 .867.142 1.18.426.315.283.483.652.504 1.105h-.684a.99.99 0 00-1-.937c-.367 0-.652.132-.855.398-.201.263-.301.645-.301 1.145v.136c0 .487.1.862.301 1.125.2.263.487.395.859.395zm3.277.512h-.722v-4.227h.722v4.227zm-.781-5.348c0-.117.035-.216.106-.297.073-.081.179-.121.32-.121.141 0 .247.04.32.121.073.081.11.18.11.297a.413.413 0 01-.11.293c-.073.078-.179.117-.32.117-.141 0-.247-.039-.32-.117a.419.419 0 01-.106-.293zm1.75 3.195c0-.414.081-.786.242-1.117a1.84 1.84 0 01.68-.766c.292-.179.624-.269.996-.269.576 0 1.04.199 1.395.597.356.399.535.929.535 1.59v.051c0 .412-.08.781-.238 1.109-.157.326-.382.58-.676.762a1.866 1.866 0 01-1.008.274c-.573 0-1.038-.2-1.395-.598-.354-.398-.531-.926-.531-1.582v-.051zm.727.086c0 .469.108.845.324 1.129.219.284.51.426.875.426.367 0 .659-.143.875-.43.216-.289.324-.693.324-1.211 0-.463-.111-.838-.332-1.125a1.042 1.042 0 00-.875-.433c-.357 0-.644.142-.863.425-.219.284-.328.69-.328 1.219zm1.519-3.933h.875l-1.047 1.148h-.582l.754-1.148zm3.192 1.773l.023.531a1.541 1.541 0 011.266-.609c.893 0 1.343.504 1.351 1.512v2.793h-.722v-2.797c-.003-.305-.073-.53-.211-.676-.136-.146-.348-.219-.637-.219-.234 0-.44.063-.617.188a1.274 1.274 0 00-.414.492v3.012h-.723v-4.227h.684zm8.175 3.105a.526.526 0 00-.222-.453c-.146-.109-.403-.203-.77-.281a3.697 3.697 0 01-.871-.281 1.267 1.267 0 01-.476-.391.94.94 0 01-.153-.539c0-.346.146-.639.438-.879.294-.239.669-.359 1.125-.359.479 0 .867.124 1.164.371.299.247.449.564.449.949h-.727a.652.652 0 00-.253-.512.939.939 0 00-.633-.214c-.263 0-.469.057-.617.171a.542.542 0 00-.223.45c0 .174.069.306.207.394.138.089.387.173.746.254.362.081.655.177.879.289.224.112.389.248.496.406a.982.982 0 01.164.575c0 .377-.151.681-.453.91-.302.226-.694.34-1.176.34-.338 0-.638-.06-.898-.18a1.489 1.489 0 01-.614-.5 1.23 1.23 0 01-.218-.699h.722c.013.242.11.435.289.578.183.14.422.211.719.211.274 0 .492-.055.656-.164a.514.514 0 00.25-.446zm2.45 1.122h-.723v-4.227h.723v4.227zm-.782-5.348a.44.44 0 01.106-.297c.073-.081.18-.121.32-.121.141 0 .248.04.32.121.073.081.11.18.11.297a.413.413 0 01-.11.293c-.072.078-.179.117-.32.117-.14 0-.247-.039-.32-.117a.424.424 0 01-.106-.293zm2.622 1.121l.019.469c.31-.365.728-.547 1.254-.547.591 0 .993.226 1.207.68.141-.204.323-.368.547-.493a1.63 1.63 0 01.801-.187c.927 0 1.398.491 1.414 1.472v2.833h-.723v-2.79c0-.302-.069-.527-.207-.675-.138-.151-.37-.227-.695-.227a.954.954 0 00-.668.242.97.97 0 00-.309.645v2.805h-.726v-2.77c0-.615-.301-.922-.903-.922-.474 0-.798.202-.972.606v3.086h-.723v-4.227h.684zm9.906 2.16c0 .643-.147 1.162-.442 1.555-.294.393-.692.59-1.195.59-.513 0-.917-.163-1.211-.489v2.036h-.723v-5.852h.661l.035.469c.294-.365.703-.547 1.226-.547.508 0 .909.191 1.203.574.297.383.446.915.446 1.598v.066zm-.723-.082c0-.476-.101-.853-.305-1.129a.98.98 0 00-.836-.414c-.437 0-.765.194-.984.582v2.02c.216.385.547.578.992.578a.973.973 0 00.824-.41c.206-.276.309-.685.309-1.227zm2.43 2.149h-.723v-6h.723v6zm2.914.078c-.573 0-1.039-.188-1.399-.563-.359-.377-.539-.881-.539-1.512v-.132c0-.42.08-.793.239-1.121a1.87 1.87 0 01.672-.774c.289-.187.601-.281.937-.281.549 0 .977.181 1.281.543.305.362.457.88.457 1.554v.301h-2.863c.01.417.132.754.363 1.012.235.255.532.383.891.383.255 0 .471-.052.648-.156.177-.105.332-.243.465-.415l.442.344c-.355.545-.886.817-1.594.817zm-.09-3.789a.958.958 0 00-.734.32c-.198.211-.321.508-.368.891h2.118v-.055c-.021-.367-.12-.651-.297-.852-.177-.203-.417-.304-.719-.304zm36.6 3.711h-.727v-4.817l-1.457.535v-.656l2.07-.777h.114v5.715zm4.492 0h-.727v-4.817l-1.457.535v-.656l2.071-.777h.113v5.715zm2.168 1.132l-.41-.281c.244-.341.372-.693.382-1.055v-.652h.707v.566c0 .263-.065.526-.195.79a1.821 1.821 0 01-.484.632zm5.879-1.132h-.727v-4.817l-1.457.535v-.656l2.07-.777h.114v5.715zm5.843 0h-3.726v-.52l1.969-2.188c.291-.33.492-.598.601-.804.112-.209.168-.423.168-.645 0-.297-.09-.54-.269-.73-.18-.19-.42-.285-.719-.285-.36 0-.639.103-.84.308-.198.203-.297.487-.297.852h-.723c0-.524.168-.947.504-1.27.339-.323.791-.484 1.356-.484.529 0 .946.139 1.254.418.307.276.461.644.461 1.105 0 .56-.357 1.227-1.071 2l-1.523 1.653h2.855v.59zm.817 1.132l-.41-.281c.244-.341.372-.693.382-1.055v-.652h.708v.566c0 .263-.066.526-.196.79a1.821 1.821 0 01-.484.632zm5.879-1.132h-.727v-4.817l-1.457.535v-.656l2.07-.777h.114v5.715zm3.168-3.196h.543c.341-.005.609-.095.804-.269.196-.175.293-.41.293-.707 0-.667-.332-1-.996-1-.312 0-.562.089-.75.269-.185.177-.277.413-.277.707h-.723c0-.45.164-.824.492-1.121.331-.299.75-.449 1.258-.449.537 0 .957.142 1.262.426.305.284.457.678.457 1.183 0 .248-.081.487-.242.719a1.443 1.443 0 01-.653.52c.313.099.554.263.723.492.172.229.258.509.258.84 0 .51-.167.915-.5 1.214-.333.3-.767.45-1.301.45-.534 0-.969-.145-1.305-.434-.333-.289-.5-.671-.5-1.144h.727c0 .299.098.539.293.718.195.18.457.27.785.27.349 0 .616-.091.801-.274.185-.182.277-.444.277-.785 0-.331-.101-.584-.304-.762-.204-.177-.497-.268-.879-.273h-.543v-.59zm43.388 2.7h-3.726v-.52l1.969-2.187c.291-.331.492-.599.601-.805.112-.208.168-.423.168-.644 0-.297-.09-.541-.269-.731-.18-.19-.42-.285-.719-.285-.36 0-.64.103-.84.309-.198.203-.297.487-.297.851h-.723c0-.523.168-.946.504-1.269.339-.323.791-.485 1.356-.485.528 0 .946.14 1.254.418.307.276.461.645.461 1.106 0 .56-.357 1.226-1.071 2l-1.523 1.652h2.855v.59zm3.141 0h-.727v-4.816l-1.457.535v-.656l2.071-.778h.113v5.715zm5.684-2.426c0 .847-.145 1.476-.434 1.887-.289.411-.741.617-1.355.617-.607 0-1.056-.2-1.348-.601-.292-.404-.443-1.006-.453-1.805v-.965c0-.836.144-1.457.433-1.863.289-.406.743-.61 1.36-.61.612 0 1.062.197 1.351.59.289.391.438.995.446 1.813v.937zm-.723-.988c0-.612-.086-1.057-.258-1.336-.172-.281-.444-.422-.816-.422-.37 0-.64.139-.809.418-.169.279-.256.707-.262 1.285v1.157c0 .614.089 1.069.266 1.363.18.291.451.437.813.437.356 0 .621-.138.793-.414.174-.276.265-.711.273-1.304v-1.184zm1.738 3.035c0-.125.037-.229.11-.312.075-.084.187-.125.336-.125.148 0 .26.041.335.125a.434.434 0 01.118.312c0 .12-.039.22-.118.301-.075.081-.187.121-.335.121-.149 0-.261-.04-.336-.121a.433.433 0 01-.11-.301zm5.586-2.047c0 .847-.144 1.476-.433 1.887-.29.411-.741.617-1.356.617-.607 0-1.056-.2-1.348-.601-.291-.404-.442-1.006-.453-1.805v-.965c0-.836.145-1.457.434-1.863.289-.406.742-.61 1.359-.61.612 0 1.063.197 1.352.59.289.391.437.995.445 1.813v.937zm-.723-.988c0-.612-.085-1.057-.257-1.336-.172-.281-.444-.422-.817-.422-.37 0-.639.139-.808.418-.17.279-.257.707-.262 1.285v1.157c0 .614.089 1.069.266 1.363.179.291.45.437.812.437.357 0 .621-.138.793-.414.175-.276.266-.711.273-1.304v-1.184zm5.215.988c0 .847-.144 1.476-.433 1.887-.289.411-.741.617-1.356.617-.606 0-1.056-.2-1.347-.601-.292-.404-.443-1.006-.453-1.805v-.965c0-.836.144-1.457.433-1.863.289-.406.742-.61 1.359-.61.612 0 1.063.197 1.352.59.289.391.438.995.445 1.813v.937zm-.722-.988c0-.612-.086-1.057-.258-1.336-.172-.281-.444-.422-.817-.422-.369 0-.639.139-.808.418-.169.279-.257.707-.262 1.285v1.157c0 .614.089 1.069.266 1.363.179.291.45.437.812.437.357 0 .621-.138.793-.414.175-.276.266-.711.274-1.304v-1.184zm6.476 1.301h-1.5c.011.508.133.898.367 1.172.235.273.567.41.997.41.302 0 .585-.044.851-.133l.078.625a3.854 3.854 0 01-.937.117c-.646 0-1.155-.19-1.528-.57-.369-.383-.562-.923-.578-1.621h-.695v-.485h.695v-.535h-.695v-.488h.695c.026-.682.224-1.21.594-1.582.372-.375.875-.563 1.508-.563.276 0 .59.041.941.121l-.078.633a2.787 2.787 0 00-.855-.136c-.427 0-.757.132-.989.398-.229.263-.351.639-.367 1.129h1.496v.488h-1.5v.535h1.5v.485zm-193.918 17.646h-1.336v2.301h-.754V344.5h1.883c.641 0 1.133.146 1.477.437.346.292.519.716.519 1.274 0 .354-.096.662-.289.925-.19.263-.455.46-.797.59l1.336 2.414v.047h-.804l-1.235-2.301zm-1.336-.613h1.153c.372 0 .668-.096.886-.289.222-.193.332-.45.332-.773 0-.352-.105-.621-.316-.809-.208-.187-.51-.282-.906-.285h-1.149v2.156zm5.821 2.992c-.573 0-1.039-.187-1.399-.562-.359-.378-.539-.882-.539-1.512v-.133c0-.419.08-.793.238-1.121.162-.33.386-.588.672-.773.289-.188.602-.281.938-.281.549 0 .976.181 1.281.543.305.362.457.88.457 1.554v.301h-2.863c.01.417.131.754.363 1.012.234.255.531.383.891.383.255 0 .471-.053.648-.157.177-.104.332-.242.465-.414l.441.344c-.354.544-.885.816-1.593.816zm-.09-3.789a.961.961 0 00-.735.321c-.197.211-.32.507-.367.89h2.117v-.054c-.02-.368-.119-.651-.296-.852-.178-.203-.417-.305-.719-.305zm4.273 3.2c.258 0 .483-.079.676-.235a.819.819 0 00.32-.586h.684a1.31 1.31 0 01-.25.692 1.647 1.647 0 01-.617.523c-.255.13-.526.195-.813.195-.575 0-1.034-.191-1.375-.574-.338-.385-.508-.911-.508-1.578v-.121c0-.412.076-.777.227-1.098.151-.32.367-.569.648-.746a1.86 1.86 0 011.004-.265c.474 0 .868.141 1.18.425.315.284.483.653.504 1.106h-.684a.981.981 0 00-.312-.672.956.956 0 00-.688-.266c-.367 0-.652.133-.855.399-.201.263-.301.644-.301 1.144v.137c0 .487.1.862.301 1.125.2.263.487.395.859.395zm2.301-1.641c0-.414.081-.787.242-1.117a1.84 1.84 0 01.68-.766c.292-.18.624-.269.996-.269.576 0 1.04.199 1.395.597.356.399.535.929.535 1.59v.051c0 .411-.08.781-.239 1.109-.156.326-.381.58-.675.762a1.866 1.866 0 01-1.008.273c-.573 0-1.038-.199-1.395-.597-.354-.399-.531-.926-.531-1.582v-.051zm.727.086c0 .469.108.845.324 1.129.219.284.51.426.875.426.367 0 .659-.144.875-.43.216-.289.324-.693.324-1.211 0-.464-.111-.839-.332-1.125a1.043 1.043 0 00-.875-.434c-.357 0-.645.142-.863.426-.219.284-.328.69-.328 1.219zm4.711-2.16l.023.531a1.541 1.541 0 011.266-.609c.893 0 1.343.503 1.351 1.511v2.793h-.722v-2.797c-.003-.304-.073-.53-.211-.675-.136-.146-.348-.219-.637-.219-.235 0-.44.062-.617.187a1.27 1.27 0 00-.414.493v3.011h-.723v-4.226h.684zm6.191 3.105a.525.525 0 00-.223-.453c-.146-.109-.402-.203-.769-.281a3.681 3.681 0 01-.871-.281 1.263 1.263 0 01-.477-.391.948.948 0 01-.152-.539c0-.347.146-.639.437-.879.295-.24.67-.359 1.125-.359.479 0 .867.123 1.164.371.3.247.45.563.45.949h-.727a.652.652 0 00-.254-.512.94.94 0 00-.633-.215c-.263 0-.469.058-.617.172a.544.544 0 00-.223.449.44.44 0 00.207.395c.138.088.387.173.747.254a3.9 3.9 0 01.878.289c.224.112.39.247.497.406a.979.979 0 01.164.574c0 .378-.151.681-.454.911-.302.226-.694.339-1.175.339-.339 0-.638-.06-.899-.179a1.486 1.486 0 01-.613-.5 1.227 1.227 0 01-.219-.7h.723a.757.757 0 00.289.579c.182.14.422.211.719.211.273 0 .492-.055.656-.165a.513.513 0 00.25-.445zm2.644-4.129v1.024h.79v.558h-.79v2.621c0 .17.036.297.106.383.07.084.19.125.359.125.084 0 .198-.015.344-.047v.586c-.19.052-.375.078-.555.078-.323 0-.566-.097-.73-.293-.164-.195-.246-.472-.246-.832v-2.621h-.77v-.558h.77v-1.024h.722zm3.68 1.672a2.189 2.189 0 00-.355-.027c-.474 0-.796.202-.965.605v3h-.723v-4.226h.703l.012.488c.237-.378.573-.566 1.008-.566.14 0 .247.018.32.054v.672zm3.277 3.16c-.281.331-.694.496-1.238.496-.45 0-.794-.13-1.031-.39-.234-.263-.353-.651-.355-1.164v-2.75h.722v2.73c0 .641.261.961.781.961.552 0 .92-.206 1.102-.617v-3.074h.723v4.226h-.688l-.016-.418zm3.5-.093c.258 0 .484-.079.676-.235a.823.823 0 00.321-.586h.683a1.31 1.31 0 01-.25.692 1.64 1.64 0 01-.617.523c-.255.13-.526.195-.813.195-.575 0-1.033-.191-1.374-.574-.339-.385-.508-.911-.508-1.578v-.121c0-.412.075-.777.226-1.098.151-.32.367-.569.649-.746a1.857 1.857 0 011.004-.265c.474 0 .867.141 1.179.425.315.284.483.653.504 1.106h-.683a.982.982 0 00-.313-.672.956.956 0 00-.687-.266c-.368 0-.653.133-.856.399-.2.263-.301.644-.301 1.144v.137c0 .487.101.862.301 1.125.201.263.487.395.859.395zm4.188 0c.258 0 .483-.079.676-.235a.826.826 0 00.32-.586h.684a1.319 1.319 0 01-.25.692 1.65 1.65 0 01-.618.523c-.255.13-.526.195-.812.195-.576 0-1.034-.191-1.375-.574-.339-.385-.508-.911-.508-1.578v-.121c0-.412.076-.777.227-1.098.151-.32.367-.569.648-.746a1.86 1.86 0 011.004-.265c.474 0 .867.141 1.18.425.315.284.483.653.504 1.106h-.684a.985.985 0 00-.312-.672.956.956 0 00-.688-.266c-.367 0-.652.133-.855.399-.201.263-.301.644-.301 1.144v.137c0 .487.1.862.301 1.125.2.263.487.395.859.395zm3.277.511h-.722v-4.226h.722v4.226zm-.781-5.347a.43.43 0 01.106-.297c.072-.081.179-.121.32-.121.14 0 .247.04.32.121.073.08.11.179.11.297a.415.415 0 01-.11.293c-.073.078-.18.117-.32.117-.141 0-.248-.039-.32-.117a.42.42 0 01-.106-.293zm1.75 3.195c0-.414.081-.787.242-1.117a1.84 1.84 0 01.68-.766c.292-.18.624-.269.996-.269.576 0 1.04.199 1.395.597.356.399.535.929.535 1.59v.051c0 .411-.08.781-.239 1.109-.156.326-.381.58-.675.762a1.866 1.866 0 01-1.008.273c-.573 0-1.038-.199-1.395-.597-.354-.399-.531-.926-.531-1.582v-.051zm.727.086c0 .469.108.845.324 1.129.219.284.51.426.875.426.367 0 .659-.144.875-.43.216-.289.324-.693.324-1.211 0-.464-.111-.839-.332-1.125a1.043 1.043 0 00-.875-.434c-.357 0-.644.142-.863.426-.219.284-.328.69-.328 1.219zm1.519-3.934h.875l-1.047 1.149h-.582l.754-1.149zm3.192 1.774l.023.531a1.541 1.541 0 011.266-.609c.893 0 1.343.503 1.351 1.511v2.793h-.722v-2.797c-.003-.304-.073-.53-.211-.675-.136-.146-.348-.219-.637-.219-.234 0-.44.062-.617.187a1.27 1.27 0 00-.414.493v3.011h-.723v-4.226h.684zm45.716 1.031h.543c.342-.005.61-.095.805-.27.195-.174.293-.41.293-.707 0-.666-.332-1-.996-1-.313 0-.563.09-.75.27-.185.177-.277.413-.277.707h-.723c0-.451.164-.824.492-1.121.331-.3.75-.449 1.258-.449.536 0 .957.142 1.262.425.304.284.457.679.457 1.184 0 .247-.081.487-.243.719a1.427 1.427 0 01-.652.519c.313.099.554.263.723.492.172.23.258.51.258.84 0 .511-.167.916-.5 1.215-.334.3-.767.449-1.301.449-.534 0-.969-.144-1.305-.433-.333-.289-.5-.671-.5-1.145h.727c0 .3.097.539.293.719.195.18.457.27.785.27.349 0 .616-.092.801-.274.185-.182.277-.444.277-.785 0-.331-.102-.585-.305-.762-.203-.177-.496-.268-.879-.273h-.543v-.59zm4.493 0h.543c.341-.005.609-.095.804-.27.196-.174.293-.41.293-.707 0-.666-.332-1-.996-1-.312 0-.562.09-.75.27-.185.177-.277.413-.277.707h-.723c0-.451.164-.824.492-1.121.331-.3.75-.449 1.258-.449.537 0 .957.142 1.262.425.305.284.457.679.457 1.184 0 .247-.081.487-.242.719a1.435 1.435 0 01-.653.519c.313.099.554.263.723.492.172.23.258.51.258.84 0 .511-.167.916-.5 1.215-.334.3-.767.449-1.301.449-.534 0-.969-.144-1.305-.433-.333-.289-.5-.671-.5-1.145h.727c0 .3.098.539.293.719.195.18.457.27.785.27.349 0 .616-.092.801-.274.185-.182.277-.444.277-.785 0-.331-.101-.585-.305-.762-.203-.177-.496-.268-.878-.273h-.543v-.59zm3.492 4.328l-.41-.281c.244-.341.372-.693.382-1.055v-.652h.707v.566c0 .263-.065.526-.195.789a1.825 1.825 0 01-.484.633zm4.554-4.328h.543c.342-.005.61-.095.805-.27.195-.174.293-.41.293-.707 0-.666-.332-1-.996-1-.313 0-.563.09-.75.27-.185.177-.277.413-.277.707h-.723c0-.451.164-.824.492-1.121.331-.3.75-.449 1.258-.449.536 0 .957.142 1.262.425.304.284.457.679.457 1.184 0 .247-.081.487-.242.719a1.435 1.435 0 01-.653.519c.313.099.554.263.723.492.172.23.258.51.258.84 0 .511-.167.916-.5 1.215-.334.3-.767.449-1.301.449-.534 0-.969-.144-1.305-.433-.333-.289-.5-.671-.5-1.145h.727c0 .3.097.539.293.719.195.18.457.27.785.27.349 0 .616-.092.801-.274.185-.182.277-.444.277-.785 0-.331-.102-.585-.305-.762-.203-.177-.496-.268-.879-.273h-.543v-.59zm6.493 1.285h.789v.59h-.789v1.32h-.727v-1.32h-2.59v-.426l2.547-3.941h.77v3.777zm-2.496 0h1.769v-2.789l-.086.156-1.683 2.633zm55.072 1.415h-.727v-4.817l-1.457.536v-.657l2.071-.777h.113v5.715zm5.566-4.203c0 .284-.075.536-.226.757a1.516 1.516 0 01-.606.52c.297.128.531.314.703.559.175.244.262.522.262.832 0 .492-.167.884-.5 1.175-.331.292-.767.438-1.309.438-.546 0-.985-.146-1.316-.438-.328-.294-.492-.686-.492-1.175 0-.308.083-.585.25-.832.169-.248.402-.435.699-.563a1.492 1.492 0 01-.598-.519 1.348 1.348 0 01-.218-.754c0-.48.153-.86.461-1.141.307-.281.712-.422 1.214-.422.5 0 .904.141 1.211.422.31.281.465.661.465 1.141zm-.59 2.652c0-.318-.101-.577-.304-.777-.201-.201-.464-.301-.789-.301-.326 0-.588.099-.786.297-.195.198-.293.458-.293.781s.096.577.286.762c.192.185.459.277.8.277.339 0 .605-.092.797-.277.193-.188.289-.442.289-.762zm-1.086-3.621c-.283 0-.514.088-.691.266-.174.174-.262.412-.262.714 0 .289.086.524.258.703.175.178.406.266.695.266.29 0 .52-.088.692-.266.174-.179.262-.414.262-.703s-.09-.524-.27-.707a.922.922 0 00-.684-.273zm6.286 2.746c0 .846-.145 1.475-.434 1.887-.289.411-.741.617-1.355.617-.607 0-1.056-.201-1.348-.602-.292-.403-.443-1.005-.453-1.804v-.965c0-.836.144-1.457.433-1.863.289-.407.743-.61 1.36-.61.612 0 1.062.197 1.351.59.289.391.438.995.446 1.812v.938zm-.723-.988c0-.612-.086-1.058-.258-1.336-.172-.281-.444-.422-.816-.422-.37 0-.64.139-.809.418-.169.279-.256.707-.262 1.285v1.156c0 .615.089 1.069.266 1.364.18.291.451.437.813.437.356 0 .621-.138.793-.414.174-.276.265-.711.273-1.305v-1.183zm1.738 3.035a.46.46 0 01.11-.313c.075-.083.187-.125.336-.125.148 0 .26.042.335.125a.438.438 0 01.118.313c0 .12-.039.22-.118.301-.075.08-.187.121-.335.121-.149 0-.261-.041-.336-.121a.433.433 0 01-.11-.301zm5.586-2.047c0 .846-.144 1.475-.433 1.887-.29.411-.741.617-1.356.617-.607 0-1.056-.201-1.348-.602-.291-.403-.442-1.005-.453-1.804v-.965c0-.836.145-1.457.434-1.863.289-.407.742-.61 1.359-.61.612 0 1.063.197 1.352.59.289.391.437.995.445 1.812v.938zm-.723-.988c0-.612-.085-1.058-.257-1.336-.172-.281-.444-.422-.817-.422-.37 0-.639.139-.808.418-.17.279-.257.707-.262 1.285v1.156c0 .615.089 1.069.266 1.364.179.291.45.437.812.437.357 0 .621-.138.793-.414.175-.276.266-.711.273-1.305v-1.183zm5.215.988c0 .846-.144 1.475-.433 1.887-.289.411-.741.617-1.356.617-.606 0-1.056-.201-1.347-.602-.292-.403-.443-1.005-.453-1.804v-.965c0-.836.144-1.457.433-1.863.289-.407.742-.61 1.359-.61.612 0 1.063.197 1.352.59.289.391.438.995.445 1.812v.938zm-.722-.988c0-.612-.086-1.058-.258-1.336-.172-.281-.444-.422-.817-.422-.369 0-.639.139-.808.418-.169.279-.257.707-.262 1.285v1.156c0 .615.089 1.069.266 1.364.179.291.45.437.812.437.357 0 .621-.138.793-.414.175-.276.266-.711.274-1.305v-1.183zm6.476 1.3h-1.5c.011.508.133.899.367 1.172.235.274.567.411.997.411.302 0 .585-.045.851-.133l.078.625a3.854 3.854 0 01-.937.117c-.646 0-1.155-.19-1.528-.57-.369-.383-.562-.924-.578-1.622h-.695v-.484h.695v-.535h-.695v-.488h.695c.026-.683.224-1.21.594-1.582.372-.375.875-.563 1.508-.563.276 0 .59.041.941.121l-.078.633a2.788 2.788 0 00-.855-.137c-.427 0-.757.133-.989.399-.229.263-.351.639-.367 1.129h1.496v.488h-1.5v.535h1.5v.484zm-200.136-90.01v-7.109h2.099c.628 0 1.185.14 1.67.42.488.279.866.677 1.133 1.191s.4 1.103.4 1.768v.356c0 .674-.135 1.266-.405 1.777a2.812 2.812 0 01-1.147 1.182c-.495.277-1.063.415-1.705.415h-2.045zm1.235-6.113v5.127h.806c.647 0 1.144-.202 1.489-.606.348-.407.526-.989.532-1.748v-.395c0-.772-.168-1.361-.503-1.768-.335-.407-.822-.61-1.46-.61h-.864zm4.961 3.423a3.1 3.1 0 01.307-1.397c.206-.417.494-.736.865-.957a2.416 2.416 0 011.279-.337c.713 0 1.291.23 1.733.689.446.459.687 1.067.723 1.826l.005.278c0 .521-.101.986-.303 1.397a2.2 2.2 0 01-.859.952 2.446 2.446 0 01-1.289.337c-.746 0-1.343-.248-1.792-.743-.446-.498-.669-1.16-.669-1.987v-.058zm1.186.102c0 .544.113.97.337 1.279.225.306.537.459.938.459.4 0 .711-.156.932-.468.225-.313.337-.77.337-1.372 0-.534-.115-.957-.346-1.27a1.095 1.095 0 00-.933-.469c-.387 0-.695.155-.923.464-.228.306-.342.765-.342 1.377zm6.9 1.738c.296 0 .542-.086.737-.258a.887.887 0 00.313-.64h1.118a1.758 1.758 0 01-.308.923 2.025 2.025 0 01-.781.674 2.33 2.33 0 01-1.065.249c-.739 0-1.324-.24-1.757-.718-.433-.479-.65-1.139-.65-1.983v-.122c0-.804.215-1.447.645-1.928.429-.485 1.015-.728 1.758-.728.628 0 1.139.184 1.533.552.397.364.605.845.625 1.44h-1.118a1.086 1.086 0 00-.313-.747.99.99 0 00-.737-.293c-.384 0-.681.14-.889.42-.208.277-.314.698-.317 1.265v.19c0 .573.102 1.001.307 1.284.209.28.508.42.899.42zm4.551-5.717v1.284h.932v.879h-.932v2.949c0 .202.039.348.117.439.081.088.224.132.429.132.137 0 .275-.016.415-.049v.918c-.27.075-.53.113-.781.113-.911 0-1.367-.503-1.367-1.509v-2.993h-.869v-.879h.869v-1.284h1.187zm1.474 3.877a3.1 3.1 0 01.308-1.397c.205-.417.493-.736.864-.957a2.419 2.419 0 011.279-.337c.713 0 1.291.23 1.734.689.446.459.687 1.067.722 1.826l.005.278c0 .521-.101.986-.302 1.397-.199.41-.486.727-.86.952a2.446 2.446 0 01-1.289.337c-.745 0-1.343-.248-1.792-.743-.446-.498-.669-1.16-.669-1.987v-.058zm1.187.102c0 .544.112.97.337 1.279.224.306.537.459.937.459s.711-.156.933-.468c.224-.313.337-.77.337-1.372 0-.534-.116-.957-.347-1.27a1.095 1.095 0 00-.933-.469c-.387 0-.695.155-.923.464-.227.306-.341.765-.341 1.377zm7.495-1.611a2.946 2.946 0 00-.484-.039c-.543 0-.909.208-1.098.625v3.613h-1.187v-5.283h1.133l.029.591c.287-.459.684-.689 1.192-.689.169 0 .309.023.42.068l-.005 1.114zm1.084 4.809h-.933l2.798-7.719h.933l-2.798 7.719zm6.777-.61a1.828 1.828 0 01-.137-.493 1.844 1.844 0 01-1.386.591c-.531 0-.964-.152-1.299-.454a1.456 1.456 0 01-.503-1.123c0-.564.208-.995.625-1.294.42-.303 1.019-.455 1.797-.455h.727v-.346c0-.274-.076-.492-.229-.655-.153-.166-.386-.249-.698-.249-.271 0-.492.069-.664.206a.618.618 0 00-.259.512h-1.187c0-.289.096-.56.288-.81.192-.254.453-.453.782-.596a2.772 2.772 0 011.108-.215c.618 0 1.112.156 1.479.469.368.309.557.745.567 1.308v2.383c0 .476.067.855.2 1.138v.083h-1.211zm-1.304-.854c.235 0 .455-.057.66-.171.208-.114.364-.267.468-.459v-.996h-.639c-.44 0-.77.076-.992.229a.743.743 0 00-.332.649c0 .228.075.411.225.547.153.134.357.201.61.201zm3.604.38c0-.156.045-.286.137-.39.094-.104.234-.157.42-.157.185 0 .325.053.419.157a.547.547 0 01.147.39c0 .15-.049.275-.147.376-.094.101-.234.152-.419.152-.186 0-.326-.051-.42-.152a.536.536 0 01-.137-.376zm.005-4.311c0-.156.045-.287.137-.391.094-.104.234-.156.419-.156.186 0 .326.052.42.156a.549.549 0 01.147.391c0 .15-.049.275-.147.376-.094.101-.234.151-.42.151-.185 0-.325-.05-.419-.151a.536.536 0 01-.137-.376zm6.006 2.002v2.783h-.938v-7.109h2.622c.778 0 1.387.198 1.826.595.443.397.664.923.664 1.577 0 .691-.216 1.223-.649 1.597-.43.371-1.046.557-1.851.557h-1.674zm0-.767h1.684c.502 0 .886-.117 1.153-.351.267-.238.4-.58.4-1.026 0-.423-.133-.761-.4-1.015-.267-.254-.634-.386-1.099-.396h-1.738v2.788zm4.922.86c0-.518.1-.984.302-1.397.205-.413.489-.732.85-.957.364-.225.78-.337 1.245-.337.719 0 1.3.249 1.743.747.446.498.669 1.161.669 1.988v.063c0 .514-.099.977-.298 1.387a2.227 2.227 0 01-.844.952 2.328 2.328 0 01-1.26.342c-.716 0-1.297-.249-1.743-.747-.443-.498-.664-1.158-.664-1.978v-.063zm.908.107c0 .586.135 1.056.405 1.411a1.31 1.31 0 001.094.532 1.3 1.3 0 001.094-.537c.27-.361.405-.866.405-1.513 0-.58-.139-1.049-.415-1.407a1.305 1.305 0 00-1.094-.542c-.446 0-.806.178-1.079.533-.274.354-.41.862-.41 1.523zm6.015 2.583h-.903v-7.5h.903v7.5zm4.912 0h-.903v-7.5h.903v7.5zm4.712 0c-.052-.104-.094-.29-.127-.557-.419.437-.921.655-1.503.655-.521 0-.949-.147-1.285-.44a1.439 1.439 0 01-.498-1.123c0-.55.209-.976.625-1.279.42-.306 1.009-.459 1.768-.459h.879v-.415c0-.316-.095-.567-.283-.752-.189-.189-.468-.283-.835-.283-.323 0-.593.081-.811.244-.218.163-.327.36-.327.591h-.908c0-.264.092-.518.278-.762.189-.247.443-.443.762-.586a2.58 2.58 0 011.059-.215c.609 0 1.086.153 1.431.459.345.303.524.721.537 1.255v2.432c0 .485.062.87.186 1.157v.078h-.948zm-1.499-.688c.284 0 .552-.074.806-.22.254-.147.438-.337.552-.571v-1.084h-.708c-1.107 0-1.66.323-1.66.971 0 .283.094.505.283.664.189.16.431.24.727.24zm5.328-.635l1.23-3.96h.967l-2.124 6.098c-.329.879-.851 1.319-1.568 1.319l-.171-.015-.336-.063v-.733l.244.02c.306 0 .543-.062.713-.186.172-.123.314-.35.424-.678l.201-.538-1.885-5.224h.986l1.319 3.96zm2.69-1.367c0-.518.101-.984.303-1.397.205-.413.488-.732.849-.957.365-.225.78-.337 1.245-.337.72 0 1.301.249 1.744.747.446.498.669 1.161.669 1.988v.063c0 .514-.1.977-.298 1.387a2.229 2.229 0 01-.845.952 2.328 2.328 0 01-1.26.342c-.716 0-1.297-.249-1.743-.747-.443-.498-.664-1.158-.664-1.978v-.063zm.908.107c0 .586.135 1.056.405 1.411.274.355.638.532 1.094.532a1.3 1.3 0 001.094-.537c.27-.361.405-.866.405-1.513 0-.58-.138-1.049-.415-1.407a1.304 1.304 0 00-1.094-.542c-.446 0-.805.178-1.079.533-.273.354-.41.862-.41 1.523zm6.016 2.583h-.904v-7.5h.904v7.5zm4.712 0c-.052-.104-.095-.29-.127-.557-.42.437-.921.655-1.504.655-.521 0-.949-.147-1.284-.44a1.439 1.439 0 01-.498-1.123c0-.55.208-.976.625-1.279.42-.306 1.009-.459 1.767-.459h.879v-.415c0-.316-.094-.567-.283-.752-.189-.189-.467-.283-.835-.283-.322 0-.593.081-.811.244-.218.163-.327.36-.327.591h-.908c0-.264.093-.518.278-.762.189-.247.443-.443.762-.586a2.585 2.585 0 011.06-.215c.608 0 1.085.153 1.43.459.345.303.524.721.537 1.255v2.432c0 .485.062.87.186 1.157v.078h-.947zm-1.499-.688c.283 0 .551-.074.805-.22.254-.147.438-.337.552-.571v-1.084h-.708c-1.107 0-1.66.323-1.66.971 0 .283.094.505.283.664.189.16.431.24.728.24zm-82.051 15.88v2.642h-1.235v-7.11h2.719c.795 0 1.424.207 1.89.621.469.413.703.96.703 1.64 0 .697-.229 1.239-.688 1.626-.456.388-1.096.581-1.919.581h-1.47zm0-.991h1.484c.44 0 .775-.102 1.006-.308.231-.208.347-.507.347-.898 0-.384-.117-.69-.352-.918-.234-.231-.556-.35-.967-.356h-1.518v2.48zm8.144 3.633a1.835 1.835 0 01-.136-.493c-.378.394-.84.591-1.387.591-.531 0-.964-.152-1.299-.455a1.453 1.453 0 01-.503-1.123c0-.563.209-.994.625-1.294.42-.302 1.019-.454 1.797-.454h.728v-.346c0-.274-.077-.492-.23-.655-.153-.166-.386-.249-.698-.249-.27 0-.492.069-.664.205a.621.621 0 00-.259.513h-1.186c0-.29.096-.56.288-.81.192-.254.452-.453.781-.596a2.772 2.772 0 011.108-.215c.619 0 1.112.156 1.48.469.368.309.556.745.566 1.308v2.383c0 .475.067.855.2 1.138v.083h-1.211zm-1.303-.855c.234 0 .454-.057.659-.171.208-.113.364-.266.469-.459v-.996h-.64c-.439 0-.77.077-.991.23a.741.741 0 00-.332.649c0 .228.075.41.224.547.153.134.357.2.611.2zm5.727.005c.296 0 .542-.086.738-.259a.882.882 0 00.312-.639h1.118a1.757 1.757 0 01-.307.923 2.025 2.025 0 01-.782.673c-.328.167-.683.25-1.064.25-.739 0-1.325-.24-1.758-.718-.433-.479-.649-1.14-.649-1.983v-.122c0-.804.215-1.447.644-1.928.43-.485 1.016-.728 1.758-.728.628 0 1.139.184 1.533.552.397.364.606.844.625 1.44h-1.118a1.081 1.081 0 00-.312-.747.993.993 0 00-.738-.293c-.384 0-.68.14-.888.42-.209.277-.315.698-.318 1.265v.19c0 .573.103 1.001.308 1.284.208.28.508.42.898.42zm4.326.85h-1.186v-5.283h1.186v5.283zm-1.259-6.655c0-.183.057-.334.171-.455.117-.12.283-.18.498-.18.214 0 .38.06.498.18a.627.627 0 01.175.455.62.62 0 01-.175.449c-.118.117-.284.176-.498.176-.215 0-.381-.059-.498-.176a.629.629 0 01-.171-.449zm4.882 6.753c-.751 0-1.362-.236-1.831-.708-.465-.476-.698-1.107-.698-1.895v-.147c0-.527.101-.997.303-1.411.205-.416.491-.74.859-.971a2.268 2.268 0 011.231-.347c.719 0 1.274.229 1.665.688.394.459.591 1.109.591 1.949v.478h-3.453c.036.436.181.781.435 1.035.257.254.579.381.967.381.543 0 .986-.219 1.328-.659l.64.61a2.155 2.155 0 01-.85.738 2.666 2.666 0 01-1.187.259zm-.141-4.527c-.326 0-.589.114-.791.342-.199.228-.326.545-.381.952h2.261v-.088c-.026-.397-.132-.696-.318-.898-.185-.205-.442-.308-.771-.308zm4.287-.854l.034.61c.391-.472.903-.708 1.538-.708 1.1 0 1.66.63 1.68 1.89v3.491h-1.187v-3.423c0-.335-.073-.583-.219-.742-.144-.163-.38-.244-.708-.244-.479 0-.835.216-1.07.649v3.76h-1.186v-5.283h1.118zm5.952-1.285v1.285h.933v.879h-.933v2.949c0 .202.039.348.117.439.082.088.225.132.43.132.137 0 .275-.016.415-.049v.918a2.92 2.92 0 01-.781.113c-.912 0-1.367-.503-1.367-1.509v-2.993h-.87v-.879h.87v-1.285h1.186zm4.17 6.666c-.752 0-1.362-.236-1.831-.708-.466-.476-.698-1.107-.698-1.895v-.147c0-.527.101-.997.302-1.411.206-.416.492-.74.86-.971a2.267 2.267 0 011.23-.347c.72 0 1.275.229 1.665.688.394.459.591 1.109.591 1.949v.478h-3.452c.036.436.181.781.435 1.035.257.254.579.381.966.381.544 0 .987-.219 1.329-.659l.639.61a2.152 2.152 0 01-.849.738 2.67 2.67 0 01-1.187.259zm-.142-4.527c-.325 0-.589.114-.791.342-.198.228-.325.545-.38.952h2.26v-.088c-.026-.397-.132-.696-.317-.898-.186-.205-.443-.308-.772-.308zm3.233 3.955c0-.156.045-.286.137-.39.094-.105.234-.157.419-.157.186 0 .326.052.42.157a.547.547 0 01.147.39c0 .15-.049.275-.147.376-.094.101-.234.152-.42.152-.185 0-.325-.051-.419-.152a.536.536 0 01-.137-.376zm.005-4.311c0-.157.045-.287.136-.391.095-.104.235-.156.42-.156.186 0 .326.052.42.156a.547.547 0 01.147.391.52.52 0 01-.147.376c-.094.101-.234.151-.42.151-.185 0-.325-.05-.42-.151a.542.542 0 01-.136-.376zm8.994 2.929h-2.979l-.669 1.856h-.966l2.714-7.11h.821l2.72 7.11h-.962l-.679-1.856zm-2.695-.771h2.417l-1.211-3.325-1.206 3.325zm6.005-2.656l.03.664a1.924 1.924 0 011.582-.762c1.116 0 1.679.63 1.689 1.89v3.491h-.903v-3.496c-.003-.381-.091-.663-.264-.845-.169-.182-.434-.273-.796-.273-.293 0-.55.078-.771.234a1.586 1.586 0 00-.518.615v3.765h-.903v-5.283h.854zm7.925 5.283c-.052-.104-.094-.29-.127-.557-.42.436-.921.655-1.504.655-.52 0-.949-.147-1.284-.44a1.44 1.44 0 01-.498-1.123c0-.55.208-.977.625-1.279.42-.306 1.009-.459 1.768-.459h.879v-.415c0-.316-.095-.567-.284-.752-.188-.189-.467-.283-.835-.283-.322 0-.592.081-.81.244-.218.162-.327.359-.327.59h-.908c0-.263.092-.517.278-.761.189-.248.443-.443.762-.586a2.58 2.58 0 011.059-.215c.609 0 1.086.153 1.431.459.345.303.524.721.537 1.255v2.432c0 .485.062.87.186 1.157v.078h-.948zm-1.499-.689c.283 0 .552-.073.806-.219a1.33 1.33 0 00.552-.572v-1.084h-.708c-1.107 0-1.661.324-1.661.972 0 .283.095.505.284.664.188.16.431.239.727.239zm9.278-6.421h.942v5.035c0 .68-.205 1.212-.615 1.596-.407.384-.951.577-1.631.577-.707 0-1.257-.181-1.651-.542-.393-.362-.59-.868-.59-1.519h.937c0 .407.111.724.332.952.225.228.549.342.972.342.387 0 .7-.122.937-.366.241-.244.363-.586.367-1.026v-5.049zm3.378 7.11h-.903v-5.283h.903v5.283zm-.976-6.685c0-.146.044-.27.132-.371.091-.101.224-.151.4-.151.176 0 .309.05.401.151a.534.534 0 01.136.371.514.514 0 01-.136.366c-.092.098-.225.147-.401.147-.176 0-.309-.049-.4-.147a.524.524 0 01-.132-.366zm3.276 1.402l.025.586c.387-.456.91-.684 1.567-.684.739 0 1.242.283 1.509.85.176-.254.403-.459.683-.616a2.045 2.045 0 011.001-.234c1.159 0 1.748.614 1.768 1.841v3.54h-.903v-3.486c0-.378-.087-.66-.259-.845-.173-.189-.462-.283-.869-.283-.336 0-.614.101-.835.302-.222.199-.35.467-.386.806v3.506h-.908v-3.462c0-.768-.376-1.152-1.128-1.152-.593 0-.998.252-1.216.756v3.858h-.903v-5.283h.854zm10.113 5.381c-.717 0-1.299-.235-1.748-.704-.45-.472-.674-1.102-.674-1.889v-.166c0-.524.099-.991.298-1.402.201-.413.481-.735.839-.966a2.11 2.11 0 011.172-.352c.687 0 1.221.226 1.602.679.381.452.571 1.1.571 1.943v.376h-3.579c.013.521.164.942.454 1.265.293.319.664.478 1.113.478.319 0 .59-.065.811-.195.221-.13.415-.303.581-.518l.552.43c-.443.68-1.107 1.021-1.992 1.021zm-.113-4.737c-.364 0-.67.134-.918.401-.247.263-.4.634-.459 1.113h2.647v-.069c-.026-.458-.15-.813-.371-1.064-.222-.254-.521-.381-.899-.381zm.44-2.861h1.093l-1.308 1.435h-.728l.943-1.435zm3.637 2.217l.03.664a1.924 1.924 0 011.582-.762c1.116 0 1.679.63 1.689 1.89v3.491h-.903v-3.496c-.003-.381-.091-.663-.264-.845-.169-.182-.434-.273-.796-.273-.293 0-.55.078-.771.234a1.586 1.586 0 00-.518.615v3.765h-.903v-5.283h.854zm6.856 5.381c-.716 0-1.299-.235-1.748-.704-.449-.472-.674-1.102-.674-1.889v-.166c0-.524.099-.991.298-1.402.202-.413.482-.735.84-.966a2.108 2.108 0 011.172-.352c.686 0 1.22.226 1.601.679.381.452.571 1.1.571 1.943v.376h-3.579c.013.521.165.942.454 1.265.293.319.664.478 1.114.478.319 0 .589-.065.81-.195.222-.13.415-.303.581-.518l.552.43c-.443.68-1.107 1.021-1.992 1.021zm-.112-4.737a1.2 1.2 0 00-.918.401c-.248.263-.401.634-.459 1.113h2.646v-.069c-.026-.458-.15-.813-.371-1.064-.221-.254-.521-.381-.898-.381zm4.072 3.902h3.091v.737h-4.195v-.664l2.915-3.872h-2.871v-.747h4.004v.639l-2.944 3.907zm-93.599 15.558h-2.861v3.013h-1.235v-7.11h4.516v.997h-3.281v2.114h2.861v.986zm3.506 3.11c-.752 0-1.362-.236-1.831-.708-.465-.475-.698-1.106-.698-1.894v-.147c0-.527.101-.997.303-1.411.205-.416.491-.74.859-.971a2.267 2.267 0 011.23-.347c.72 0 1.275.229 1.665.688.394.459.591 1.109.591 1.949v.478h-3.452c.036.436.181.781.435 1.035.257.254.579.381.966.381.544 0 .987-.219 1.329-.659l.639.61a2.152 2.152 0 01-.849.738 2.666 2.666 0 01-1.187.258zm-.142-4.526c-.325 0-.589.114-.791.342-.198.228-.325.545-.38.952h2.26v-.088c-.026-.397-.132-.696-.317-.898-.186-.205-.443-.308-.772-.308zm5.357 3.579c.296 0 .542-.086.737-.259a.88.88 0 00.313-.639h1.118a1.758 1.758 0 01-.308.923 2.022 2.022 0 01-.781.673 2.33 2.33 0 01-1.064.249c-.739 0-1.325-.239-1.758-.717-.433-.479-.65-1.14-.65-1.983v-.122c0-.804.215-1.447.645-1.928.43-.486 1.015-.728 1.758-.728.628 0 1.139.184 1.533.552.397.364.605.844.625 1.44h-1.118a1.077 1.077 0 00-.313-.747.99.99 0 00-.737-.293c-.384 0-.68.14-.889.42-.208.277-.314.698-.317 1.265v.19c0 .573.102 1.001.307 1.284.209.28.508.42.899.42zm4.233-3.857a1.86 1.86 0 011.47-.674c1.126 0 1.698.643 1.714 1.929v3.452h-1.187v-3.408c0-.365-.079-.622-.239-.772-.156-.153-.387-.229-.693-.229-.475 0-.83.211-1.065.634v3.775h-1.186v-7.5h1.186v2.793zm7.544 4.707a1.835 1.835 0 01-.136-.493c-.378.394-.84.59-1.387.59-.531 0-.964-.151-1.299-.454a1.453 1.453 0 01-.503-1.123c0-.563.208-.994.625-1.294.42-.302 1.019-.454 1.797-.454h.727v-.346c0-.274-.076-.492-.229-.655-.153-.166-.386-.249-.698-.249-.27 0-.492.069-.664.205a.621.621 0 00-.259.513h-1.187c0-.29.096-.56.288-.81.193-.254.453-.453.782-.596a2.772 2.772 0 011.108-.215c.619 0 1.112.156 1.48.469.367.309.556.745.566 1.308v2.383c0 .475.067.855.2 1.138v.083h-1.211zm-1.303-.855c.234 0 .454-.057.659-.171.208-.113.364-.266.468-.459v-.996h-.639c-.44 0-.77.077-.991.23a.741.741 0 00-.332.649c0 .228.074.41.224.547.153.134.357.2.611.2zm5.825-1.826c0-.814.189-1.466.566-1.958.378-.495.884-.742 1.519-.742.56 0 1.012.195 1.357.586v-2.705h1.187v7.5h-1.075l-.058-.547c-.355.43-.829.644-1.421.644-.619 0-1.12-.249-1.504-.747-.381-.498-.571-1.175-.571-2.031zm1.186.103c0 .537.103.957.308 1.259.208.3.503.45.884.45.485 0 .84-.217 1.064-.65v-2.256c-.218-.423-.57-.634-1.055-.634-.384 0-.68.153-.888.459-.209.302-.313.76-.313 1.372zm7.007 2.675c-.752 0-1.362-.236-1.831-.708-.465-.475-.698-1.106-.698-1.894v-.147c0-.527.101-.997.303-1.411.205-.416.491-.74.859-.971a2.267 2.267 0 011.23-.347c.72 0 1.275.229 1.665.688.394.459.591 1.109.591 1.949v.478h-3.452c.036.436.181.781.435 1.035.257.254.579.381.966.381.544 0 .987-.219 1.329-.659l.639.61a2.152 2.152 0 01-.849.738 2.666 2.666 0 01-1.187.258zm-.142-4.526c-.325 0-.589.114-.791.342-.198.228-.325.545-.38.952h2.26v-.088c-.026-.397-.131-.696-.317-.898-.186-.205-.443-.308-.772-.308zm7.847 3.579c.296 0 .542-.086.737-.259a.88.88 0 00.313-.639h1.118a1.757 1.757 0 01-.307.923 2.033 2.033 0 01-.782.673 2.324 2.324 0 01-1.064.249c-.739 0-1.325-.239-1.758-.717-.433-.479-.649-1.14-.649-1.983v-.122c0-.804.214-1.447.644-1.928.43-.486 1.016-.728 1.758-.728.628 0 1.139.184 1.533.552.397.364.606.844.625 1.44h-1.118a1.077 1.077 0 00-.313-.747.99.99 0 00-.737-.293c-.384 0-.68.14-.888.42-.209.277-.315.698-.318 1.265v.19c0 .573.103 1.001.308 1.284.208.28.508.42.898.42zm5.83-3.349a2.934 2.934 0 00-.483-.039c-.544 0-.91.208-1.099.625v3.613h-1.186v-5.283h1.133l.029.59c.286-.459.683-.688 1.191-.688.169 0 .309.023.42.068l-.005 1.114zm2.979 4.296c-.752 0-1.363-.236-1.831-.708-.466-.475-.699-1.106-.699-1.894v-.147c0-.527.101-.997.303-1.411.205-.416.492-.74.86-.971a2.264 2.264 0 011.23-.347c.719 0 1.274.229 1.665.688.394.459.591 1.109.591 1.949v.478h-3.452c.036.436.18.781.434 1.035.257.254.58.381.967.381.544 0 .986-.219 1.328-.659l.64.61a2.155 2.155 0 01-.85.738 2.662 2.662 0 01-1.186.258zm-.142-4.526c-.325 0-.589.114-.791.342-.198.228-.325.545-.381.952h2.261v-.088c-.026-.397-.132-.696-.317-.898-.186-.205-.443-.308-.772-.308zm6.343 4.429a1.828 1.828 0 01-.137-.493c-.377.394-.84.59-1.386.59-.531 0-.964-.151-1.299-.454a1.45 1.45 0 01-.503-1.123c0-.563.208-.994.625-1.294.42-.302 1.019-.454 1.797-.454h.727v-.346c0-.274-.076-.492-.229-.655-.153-.166-.386-.249-.699-.249-.27 0-.491.069-.664.205a.623.623 0 00-.258.513h-1.187c0-.29.096-.56.288-.81.192-.254.453-.453.781-.596a2.777 2.777 0 011.109-.215c.618 0 1.111.156 1.479.469.368.309.557.745.567 1.308v2.383c0 .475.066.855.2 1.138v.083h-1.211zm-1.304-.855c.235 0 .454-.057.659-.171.209-.113.365-.266.469-.459v-.996h-.639c-.44 0-.77.077-.992.23a.743.743 0 00-.332.649c0 .228.075.41.225.547.153.134.356.2.61.2zm5.728.005c.296 0 .542-.086.737-.259a.883.883 0 00.313-.639h1.118a1.758 1.758 0 01-.308.923 2.022 2.022 0 01-.781.673 2.33 2.33 0 01-1.065.249c-.739 0-1.324-.239-1.757-.717-.433-.479-.65-1.14-.65-1.983v-.122c0-.804.215-1.447.645-1.928.429-.486 1.015-.728 1.758-.728.628 0 1.139.184 1.533.552.397.364.605.844.625 1.44h-1.118a1.082 1.082 0 00-.313-.747.99.99 0 00-.737-.293c-.384 0-.681.14-.889.42-.208.277-.314.698-.317 1.265v.19c0 .573.102 1.001.307 1.284.209.28.508.42.899.42zm4.326.85h-1.187v-5.283h1.187v5.283zm-1.26-6.655c0-.183.057-.334.171-.455.117-.12.283-.18.498-.18.215 0 .381.06.498.18a.628.628 0 01.176.455.62.62 0 01-.176.449c-.117.117-.283.176-.498.176-.215 0-.381-.059-.498-.176a.629.629 0 01-.171-.449zm2.334 3.964a3.1 3.1 0 01.308-1.396c.205-.417.493-.736.864-.957a2.419 2.419 0 011.279-.337c.713 0 1.291.229 1.734.688.446.459.687 1.068.722 1.827l.005.278c0 .521-.101.986-.302 1.396a2.2 2.2 0 01-.86.953c-.371.224-.801.336-1.289.336-.745 0-1.343-.247-1.792-.742-.446-.498-.669-1.16-.669-1.987v-.059zm1.187.103c0 .544.112.97.337 1.279.224.306.537.459.937.459s.711-.156.933-.469c.224-.312.337-.769.337-1.372 0-.533-.116-.957-.347-1.269a1.093 1.093 0 00-.933-.469c-.387 0-.695.155-.923.464-.227.306-.341.765-.341 1.377zm1.591-4.912h1.353l-1.353 1.479h-.952l.952-1.479zm4.239 2.217l.034.61c.391-.472.903-.708 1.538-.708 1.1 0 1.66.63 1.68 1.89v3.491h-1.187v-3.423c0-.335-.073-.583-.22-.742-.143-.163-.379-.244-.708-.244-.478 0-.835.216-1.069.649v3.76h-1.186v-5.283h1.118zm4.511 4.809c0-.156.046-.286.137-.39.095-.105.235-.157.42-.157.186 0 .326.052.42.157a.547.547 0 01.147.39c0 .15-.049.275-.147.376-.094.101-.234.152-.42.152-.185 0-.325-.051-.42-.152a.54.54 0 01-.137-.376zm.005-4.311c0-.157.046-.287.137-.391.094-.104.234-.156.42-.156.186 0 .326.052.42.156a.547.547 0 01.146.391.519.519 0 01-.146.376c-.094.101-.234.151-.42.151-.186 0-.326-.05-.42-.151a.542.542 0 01-.137-.376zm9.292 1.753c0 1.058-.18 1.844-.542 2.358-.361.514-.926.771-1.694.771-.758 0-1.32-.25-1.685-.751-.364-.505-.553-1.257-.566-2.256v-1.206c0-1.045.181-1.822.542-2.329.361-.508.928-.762 1.699-.762.765 0 1.328.246 1.69.737.361.488.547 1.244.556 2.266v1.172zm-.903-1.236c0-.765-.107-1.321-.322-1.67-.215-.351-.555-.527-1.021-.527-.462 0-.799.174-1.01.522-.212.349-.321.884-.328 1.607v1.445c0 .768.111 1.336.332 1.704.225.365.564.547 1.016.547.446 0 .776-.172.991-.517.218-.345.332-.889.342-1.631v-1.48zm5.029 4.268h-.908v-6.021l-1.821.669v-.82l2.588-.972h.141v7.144zm2.92.61h-.776l2.969-7.72h.771l-2.964 7.72zm8.306-3.642c0 1.058-.181 1.844-.542 2.358-.361.514-.926.771-1.694.771-.759 0-1.32-.25-1.685-.751-.365-.505-.553-1.257-.566-2.256v-1.206c0-1.045.18-1.822.542-2.329.361-.508.927-.762 1.699-.762.765 0 1.328.246 1.689.737.362.488.547 1.244.557 2.266v1.172zm-.903-1.236c0-.765-.108-1.321-.323-1.67-.215-.351-.555-.527-1.02-.527-.462 0-.799.174-1.011.522-.212.349-.321.884-.327 1.607v1.445c0 .768.111 1.336.332 1.704.225.365.563.547 1.016.547.446 0 .776-.172.991-.517.218-.345.332-.889.342-1.631v-1.48zm5.029 4.268h-.908v-6.021l-1.822.669v-.82l2.588-.972h.142v7.144zm2.92.61h-.777l2.969-7.72h.772l-2.964 7.72zm8.506-.61h-4.659v-.65l2.461-2.734c.365-.413.616-.749.752-1.006.14-.26.21-.529.21-.805 0-.372-.112-.676-.337-.914-.224-.237-.524-.356-.898-.356-.449 0-.799.129-1.05.386-.247.254-.371.608-.371 1.064h-.903c0-.654.21-1.183.63-1.587.423-.403.988-.605 1.694-.605.661 0 1.183.174 1.567.522.384.345.577.806.577 1.382 0 .7-.446 1.533-1.338 2.5l-1.905 2.066h3.57v.737zm5.415-3.032c0 1.058-.181 1.844-.542 2.358-.362.514-.926.771-1.695.771-.758 0-1.32-.25-1.684-.751-.365-.505-.554-1.257-.567-2.256v-1.206c0-1.045.181-1.822.542-2.329.362-.508.928-.762 1.7-.762.765 0 1.328.246 1.689.737.361.488.547 1.244.557 2.266v1.172zm-.904-1.236c0-.765-.107-1.321-.322-1.67-.215-.351-.555-.527-1.02-.527-.463 0-.8.174-1.011.522-.212.349-.321.884-.327 1.607v1.445c0 .768.11 1.336.332 1.704.224.365.563.547 1.015.547.446 0 .777-.172.992-.517.218-.345.332-.889.341-1.631v-1.48zm6.719 4.268h-4.658v-.65l2.461-2.734c.364-.413.615-.749.752-1.006.14-.26.21-.529.21-.805 0-.372-.113-.676-.337-.914-.225-.237-.524-.356-.899-.356-.449 0-.799.129-1.049.386-.248.254-.371.608-.371 1.064h-.904c0-.654.21-1.183.63-1.587.423-.403.988-.605 1.694-.605.661 0 1.184.174 1.568.522.384.345.576.806.576 1.382 0 .7-.446 1.533-1.338 2.5l-1.904 2.066h3.569v.737zm3.926 0h-.908v-6.021l-1.822.669v-.82l2.588-.972h.142v7.144zm8.966 71.167h-2.217v6.113h-1.226v-6.113h-2.197v-.996h5.64v.996zm-.415 3.423c0-.518.102-.983.307-1.396a2.22 2.22 0 01.865-.957 2.416 2.416 0 011.279-.337c.713 0 1.291.229 1.733.688.446.459.687 1.068.723 1.826l.005.279c0 .52-.101.986-.303 1.396-.198.41-.485.728-.859.952-.371.225-.801.337-1.289.337-.746 0-1.343-.247-1.792-.742-.446-.498-.669-1.161-.669-1.987v-.059zm1.186.103c0 .543.113.97.337 1.279.225.306.537.459.938.459.4 0 .711-.156.932-.469.225-.312.337-.77.337-1.372 0-.534-.115-.957-.347-1.269a1.09 1.09 0 00-.932-.469c-.387 0-.695.154-.923.464-.228.306-.342.765-.342 1.377zm6.216-3.98v1.284h.933v.879h-.933v2.949c0 .202.039.349.117.44.082.088.225.132.43.132.137 0 .275-.017.415-.049v.918c-.27.075-.531.112-.781.112-.912 0-1.367-.503-1.367-1.509v-2.993h-.87v-.879h.87v-1.284h1.186zm5 6.567a1.817 1.817 0 01-.137-.493c-.377.394-.84.591-1.386.591-.531 0-.964-.151-1.299-.454a1.454 1.454 0 01-.503-1.123c0-.563.208-.994.625-1.294.42-.303 1.019-.454 1.797-.454h.727v-.347c0-.273-.076-.491-.229-.654-.153-.166-.386-.249-.698-.249-.271 0-.492.068-.665.205a.62.62 0 00-.258.513h-1.187c0-.29.096-.56.288-.811a1.92 1.92 0 01.782-.596 2.772 2.772 0 011.108-.214c.618 0 1.112.156 1.479.468.368.31.557.746.567 1.309v2.383c0 .475.067.854.2 1.137v.083h-1.211zm-1.304-.854c.235 0 .454-.057.66-.171.208-.114.364-.267.468-.459v-.996h-.639c-.44 0-.77.077-.992.23a.742.742 0 00-.332.649c0 .228.075.41.225.547.153.133.356.2.61.2zm4.82.854h-1.187v-7.5h1.187v7.5z" fill="#333"/>
  <path d="M451.814 366.42h.723c.365-.003.653-.098.864-.283.215-.186.323-.455.323-.806 0-.339-.09-.601-.269-.786-.176-.189-.446-.283-.81-.283-.319 0-.582.092-.787.278a.913.913 0 00-.307.718h-1.187c0-.365.096-.697.288-.996.196-.3.466-.533.811-.699a2.637 2.637 0 011.167-.254c.71 0 1.266.179 1.67.538.407.354.61.849.61 1.484 0 .319-.102.62-.307.903a1.9 1.9 0 01-.787.635c.391.133.687.343.889.63.205.286.308.628.308 1.025 0 .638-.22 1.146-.659 1.524-.437.377-1.011.566-1.724.566-.684 0-1.244-.182-1.68-.547-.436-.364-.654-.849-.654-1.455h1.186c0 .313.105.567.313.762.212.195.495.293.85.293.367 0 .657-.098.869-.293.211-.195.317-.479.317-.85 0-.374-.111-.662-.332-.864-.221-.202-.55-.303-.986-.303h-.699v-.937zm7.676 1.123c-.397.42-.861.63-1.391.63-.625 0-1.123-.218-1.495-.655-.371-.439-.556-1.015-.556-1.728 0-.469.094-.894.283-1.274.189-.381.457-.678.806-.889a2.282 2.282 0 011.211-.318c.716 0 1.284.267 1.704.801.42.534.63 1.249.63 2.144v.332c0 1.282-.29 2.261-.87 2.934-.579.674-1.443 1.016-2.592 1.026h-.142v-.982h.171c.7-.009 1.237-.177 1.611-.503.375-.328.585-.835.63-1.518zm-1.142-.298c.237 0 .46-.068.669-.205a1.36 1.36 0 00.483-.566v-.464c0-.524-.107-.946-.322-1.265-.215-.319-.493-.479-.835-.479a.967.967 0 00-.821.425c-.201.28-.302.635-.302 1.065 0 .446.102.805.307 1.079.205.273.479.41.821.41zm8.095.278c0 1.022-.192 1.794-.576 2.315-.381.517-.962.776-1.743.776-.768 0-1.348-.252-1.738-.757-.388-.508-.586-1.258-.596-2.251v-1.23c0-1.022.19-1.789.571-2.3.384-.511.969-.767 1.753-.767.778 0 1.358.249 1.739.748.384.498.581 1.243.59 2.236v1.23zm-1.186-1.328c0-.667-.091-1.155-.274-1.465-.182-.312-.472-.468-.869-.468-.387 0-.672.148-.854.444-.183.293-.279.752-.288 1.377v1.611c0 .664.092 1.159.278 1.485.186.325.477.488.874.488.381 0 .662-.15.845-.449.182-.303.278-.775.288-1.416v-1.607zm3.052 3.071c.221 0 .392.064.512.191.121.124.181.28.181.469 0 .185-.06.34-.181.464-.12.12-.291.18-.512.18-.212 0-.38-.06-.503-.18a.62.62 0 01-.186-.464c0-.189.06-.345.181-.469.12-.127.289-.191.508-.191zm6.611-1.743c0 1.022-.192 1.794-.576 2.315-.381.517-.962.776-1.743.776-.769 0-1.348-.252-1.739-.757-.387-.508-.586-1.258-.595-2.251v-1.23c0-1.022.19-1.789.571-2.3.384-.511.968-.767 1.753-.767.778 0 1.357.249 1.738.748.384.498.581 1.243.591 2.236v1.23zm-1.187-1.328c0-.667-.091-1.155-.273-1.465-.182-.312-.472-.468-.869-.468-.388 0-.672.148-.855.444-.182.293-.278.752-.288 1.377v1.611c0 .664.093 1.159.279 1.485.185.325.476.488.874.488.38 0 .662-.15.844-.449.183-.303.279-.775.288-1.416v-1.607zm6.871 1.328c0 1.022-.193 1.794-.577 2.315-.381.517-.962.776-1.743.776-.768 0-1.347-.252-1.738-.757-.387-.508-.586-1.258-.596-2.251v-1.23c0-1.022.191-1.789.571-2.3.385-.511.969-.767 1.753-.767.778 0 1.358.249 1.739.748.384.498.581 1.243.591 2.236v1.23zm-1.187-1.328c0-.667-.091-1.155-.273-1.465-.183-.312-.472-.468-.87-.468-.387 0-.672.148-.854.444-.182.293-.278.752-.288 1.377v1.611c0 .664.093 1.159.278 1.485.186.325.477.488.874.488.381 0 .663-.15.845-.449.182-.303.278-.775.288-1.416v-1.607zm8.462 1.748h-1.738c.019.567.161.99.424 1.27.267.28.648.42 1.143.42a3.04 3.04 0 001.001-.161l.137.996a5.165 5.165 0 01-1.211.141c-.834 0-1.489-.234-1.968-.703-.479-.469-.731-1.123-.757-1.963h-.84v-.688h.84v-.625h-.84v-.689h.845c.042-.83.308-1.474.796-1.933.488-.463 1.144-.694 1.968-.694.345 0 .734.051 1.167.152l-.137 1.001a3.108 3.108 0 00-.991-.166c-.492 0-.869.14-1.133.42-.264.28-.41.686-.439 1.22h1.733v.689h-1.738v.625h1.738v.688z" fill="#007D9E"/>
  <path d="M296.78 201.751c-.071.759-.351 1.351-.84 1.778-.488.423-1.137.634-1.948.634-.566 0-1.066-.133-1.499-.4a2.663 2.663 0 01-.996-1.147c-.234-.495-.356-1.07-.366-1.724v-.664c0-.671.119-1.261.356-1.773a2.688 2.688 0 011.021-1.181c.446-.277.96-.415 1.543-.415.784 0 1.416.213 1.894.639.479.427.757 1.029.835 1.807h-1.23c-.059-.511-.209-.879-.449-1.103-.238-.228-.588-.342-1.05-.342-.537 0-.951.197-1.24.591-.287.39-.433.965-.44 1.723v.63c0 .768.137 1.354.41 1.758.277.404.681.605 1.211.605.485 0 .85-.109 1.094-.327.244-.218.399-.581.464-1.089h1.23zm.772-.376a3.1 3.1 0 01.307-1.396c.205-.417.494-.736.865-.957a2.416 2.416 0 011.279-.337c.713 0 1.291.229 1.733.688.446.459.687 1.068.723 1.827l.005.278c0 .521-.101.986-.303 1.396a2.197 2.197 0 01-.859.953c-.371.224-.801.336-1.289.336-.746 0-1.343-.247-1.792-.742-.446-.498-.669-1.16-.669-1.987v-.059zm1.186.103c0 .544.113.97.337 1.279.225.306.537.459.938.459.4 0 .711-.156.932-.469.225-.312.337-.769.337-1.372 0-.533-.115-.957-.346-1.269a1.093 1.093 0 00-.933-.469c-.387 0-.695.155-.923.464-.228.306-.342.765-.342 1.377zm7.495-1.611a2.934 2.934 0 00-.483-.039c-.544 0-.91.208-1.099.625v3.613h-1.186v-5.283h1.133l.029.59c.286-.459.684-.688 1.191-.688.17 0 .31.023.42.068l-.005 1.114zm3.516 0a2.934 2.934 0 00-.483-.039c-.544 0-.91.208-1.099.625v3.613h-1.187v-5.283h1.133l.03.59c.286-.459.683-.688 1.191-.688.169 0 .309.023.42.068l-.005 1.114zm2.979 4.296c-.752 0-1.363-.236-1.832-.708-.465-.475-.698-1.106-.698-1.894v-.147c0-.527.101-.997.303-1.411.205-.416.492-.74.859-.971a2.26 2.26 0 011.231-.347c.719 0 1.274.229 1.665.688.394.459.591 1.109.591 1.949v.478h-3.452c.035.436.18.781.434 1.035.257.254.58.381.967.381.544 0 .986-.22 1.328-.659l.64.61a2.155 2.155 0 01-.85.738 2.665 2.665 0 01-1.186.258zm-.142-4.526c-.326 0-.589.114-.791.342-.199.228-.326.545-.381.952h2.261v-.088c-.026-.397-.132-.696-.318-.898-.185-.205-.442-.308-.771-.308zm2.964 1.738a3.1 3.1 0 01.307-1.396c.205-.417.494-.736.865-.957a2.416 2.416 0 011.279-.337c.713 0 1.291.229 1.733.688.446.459.687 1.068.723 1.827l.005.278c0 .521-.101.986-.303 1.396a2.197 2.197 0 01-.859.953c-.371.224-.801.336-1.289.336-.746 0-1.343-.247-1.792-.742-.446-.498-.669-1.16-.669-1.987v-.059zm1.186.103c0 .544.113.97.337 1.279.225.306.537.459.938.459.4 0 .711-.156.932-.469.225-.312.337-.769.337-1.372 0-.533-.115-.957-.346-1.269a1.093 1.093 0 00-.933-.469c-.387 0-.695.155-.923.464-.228.306-.342.765-.342 1.377zm9.546 2.685c-.752 0-1.362-.236-1.831-.708-.465-.475-.698-1.106-.698-1.894v-.147c0-.527.101-.997.303-1.411.205-.416.491-.74.859-.971a2.26 2.26 0 011.231-.347c.719 0 1.274.229 1.665.688.393.459.59 1.109.59 1.949v.478h-3.452c.036.436.181.781.435 1.035.257.254.579.381.967.381.543 0 .986-.22 1.328-.659l.639.61a2.145 2.145 0 01-.849.738 2.666 2.666 0 01-1.187.258zm-.141-4.526c-.326 0-.59.114-.791.342-.199.228-.326.545-.381.952h2.26v-.088c-.026-.397-.131-.696-.317-.898-.185-.205-.443-.308-.771-.308zm4.448 4.429h-1.187v-7.5h1.187v7.5zm3.623.097c-.752 0-1.362-.236-1.831-.708-.466-.475-.698-1.106-.698-1.894v-.147c0-.527.101-.997.302-1.411.205-.416.492-.74.86-.971a2.258 2.258 0 011.23-.347c.72 0 1.275.229 1.665.688.394.459.591 1.109.591 1.949v.478h-3.452c.036.436.181.781.434 1.035.258.254.58.381.967.381.544 0 .987-.22 1.328-.659l.64.61a2.155 2.155 0 01-.85.738 2.662 2.662 0 01-1.186.258zm-.142-4.526c-.325 0-.589.114-.791.342-.198.228-.325.545-.381.952h2.261v-.088c-.026-.397-.132-.696-.317-.898-.186-.205-.443-.308-.772-.308zm5.357 3.579c.296 0 .542-.086.737-.259a.883.883 0 00.313-.639h1.118a1.758 1.758 0 01-.308.923 2.022 2.022 0 01-.781.673 2.33 2.33 0 01-1.065.249c-.739 0-1.324-.239-1.757-.717-.433-.479-.65-1.14-.65-1.983v-.122c0-.804.215-1.447.645-1.929.429-.485 1.015-.727 1.758-.727.628 0 1.139.184 1.533.552.397.364.605.844.625 1.44h-1.118a1.082 1.082 0 00-.313-.747.99.99 0 00-.737-.293c-.384 0-.681.14-.889.42-.208.277-.314.698-.317 1.265v.19c0 .573.102 1.001.307 1.284.209.28.508.42.899.42zm4.551-5.718v1.285h.932v.878h-.932v2.95c0 .202.039.348.117.439.081.088.224.132.429.132.137 0 .275-.016.415-.049v.918c-.27.075-.53.112-.781.112-.911 0-1.367-.502-1.367-1.508v-2.994h-.869v-.878h.869v-1.285h1.187zm4.609 2.369a2.934 2.934 0 00-.483-.039c-.544 0-.91.208-1.099.625v3.613h-1.187v-5.283h1.133l.029.59c.287-.459.684-.688 1.192-.688.169 0 .309.023.42.068l-.005 1.114zm.351 1.508a3.1 3.1 0 01.308-1.396c.205-.417.493-.736.864-.957a2.42 2.42 0 011.28-.337c.713 0 1.29.229 1.733.688.446.459.687 1.068.723 1.827l.005.278c0 .521-.101.986-.303 1.396a2.2 2.2 0 01-.86.953c-.371.224-.8.336-1.289.336-.745 0-1.342-.247-1.792-.742-.446-.498-.669-1.16-.669-1.987v-.059zm1.187.103c0 .544.112.97.337 1.279.225.306.537.459.937.459.401 0 .712-.156.933-.469.225-.312.337-.769.337-1.372 0-.533-.116-.957-.347-1.269a1.09 1.09 0 00-.932-.469c-.388 0-.695.155-.923.464-.228.306-.342.765-.342 1.377zm1.592-4.912h1.352l-1.352 1.479h-.952l.952-1.479zm4.238 2.217l.034.61c.391-.472.904-.708 1.538-.708 1.101 0 1.661.63 1.68 1.89v3.491h-1.186v-3.423c0-.335-.074-.583-.22-.742-.143-.163-.379-.244-.708-.244-.479 0-.835.216-1.07.649v3.76h-1.186v-5.283h1.118zm5.728 5.283h-1.187v-5.283h1.187v5.283zm-1.26-6.655c0-.183.057-.334.171-.455.117-.12.283-.18.498-.18.215 0 .381.06.498.18a.628.628 0 01.176.455.62.62 0 01-.176.449c-.117.117-.283.176-.498.176-.215 0-.381-.059-.498-.176a.629.629 0 01-.171-.449zm4.726 5.805c.297 0 .542-.086.738-.259a.882.882 0 00.312-.639h1.118a1.757 1.757 0 01-.307.923 2.03 2.03 0 01-.781.673 2.33 2.33 0 01-1.065.249c-.739 0-1.325-.239-1.758-.717-.433-.479-.649-1.14-.649-1.983v-.122c0-.804.215-1.447.644-1.929.43-.485 1.016-.727 1.758-.727.628 0 1.14.184 1.533.552.398.364.606.844.625 1.44h-1.118a1.081 1.081 0 00-.312-.747.991.991 0 00-.738-.293c-.384 0-.68.14-.888.42-.209.277-.314.698-.318 1.265v.19c0 .573.103 1.001.308 1.284.208.28.508.42.898.42zm2.842-1.841a3.1 3.1 0 01.308-1.396c.205-.417.493-.736.864-.957a2.419 2.419 0 011.279-.337c.713 0 1.291.229 1.734.688.446.459.687 1.068.722 1.827l.005.278c0 .521-.101.986-.302 1.396a2.2 2.2 0 01-.86.953c-.371.224-.801.336-1.289.336-.745 0-1.343-.247-1.792-.742-.446-.498-.669-1.16-.669-1.987v-.059zm1.187.103c0 .544.112.97.337 1.279.224.306.537.459.937.459.401 0 .711-.156.933-.469.224-.312.337-.769.337-1.372 0-.533-.116-.957-.347-1.269a1.093 1.093 0 00-.933-.469c-.387 0-.695.155-.922.464-.228.306-.342.765-.342 1.377zm4.775 2.114c0-.156.046-.286.137-.39.094-.105.234-.157.42-.157.185 0 .325.052.42.157a.55.55 0 01.146.39c0 .15-.049.275-.146.376-.095.101-.235.152-.42.152-.186 0-.326-.051-.42-.152a.54.54 0 01-.137-.376zm.005-4.311c0-.157.046-.287.137-.391.094-.104.234-.156.42-.156.185 0 .325.052.42.156a.55.55 0 01.146.391.523.523 0 01-.146.376c-.095.101-.235.151-.42.151-.186 0-.326-.05-.42-.151a.542.542 0 01-.137-.376zm5.908 4.785h-.903v-5.283h.903v5.283zm-.976-6.685a.55.55 0 01.131-.371c.092-.101.225-.151.401-.151.176 0 .309.05.4.151a.535.535 0 01.137.371.514.514 0 01-.137.366c-.091.098-.224.147-.4.147-.176 0-.309-.049-.401-.147a.528.528 0 01-.131-.366zm3.281 1.402l.029.664a1.925 1.925 0 011.582-.762c1.117 0 1.68.63 1.69 1.89v3.491h-.904v-3.496c-.003-.381-.091-.663-.263-.845-.17-.182-.435-.273-.796-.273-.293 0-.55.078-.772.234a1.584 1.584 0 00-.517.615v3.765h-.904v-5.283h.855zm5.107 5.283v-4.585h-.835v-.698h.835v-.542c0-.567.152-1.005.454-1.314.303-.309.731-.464 1.285-.464.208 0 .415.028.62.083l-.049.733a2.538 2.538 0 00-.488-.044c-.293 0-.52.086-.679.259-.16.169-.239.413-.239.732v.557h1.128v.698h-1.128v4.585h-.904zm2.793-2.691c0-.517.101-.983.303-1.396.205-.414.488-.733.85-.957a2.319 2.319 0 011.245-.337c.719 0 1.3.249 1.743.747.446.498.669 1.16.669 1.987v.064c0 .514-.099.976-.298 1.387a2.228 2.228 0 01-.845.952 2.322 2.322 0 01-1.259.341c-.717 0-1.298-.249-1.744-.747-.442-.498-.664-1.157-.664-1.977v-.064zm.908.108c0 .586.136 1.056.406 1.411a1.31 1.31 0 001.094.532c.459 0 .823-.179 1.093-.537.27-.361.406-.866.406-1.514 0-.579-.139-1.048-.416-1.406a1.303 1.303 0 00-1.093-.542c-.446 0-.806.178-1.079.532-.274.355-.411.863-.411 1.524zm12.837.132c-.039.787-.234 1.409-.586 1.865-.351.456-.821.683-1.411.683-.608 0-.999-.273-1.172-.82a1.854 1.854 0 01-.605.62c-.225.134-.457.2-.698.2-.462 0-.812-.188-1.05-.566-.238-.378-.326-.9-.264-1.567a4.322 4.322 0 01.366-1.436c.199-.423.453-.755.762-.996.313-.241.64-.361.982-.361.263 0 .499.036.708.107.208.068.442.205.703.41l-.254 2.705c-.062.752.146 1.128.625 1.128.368 0 .666-.182.893-.547.228-.364.352-.839.372-1.425.061-1.267-.175-2.232-.708-2.896-.531-.664-1.34-.996-2.427-.996-.655 0-1.236.163-1.743.488-.508.323-.909.79-1.202 1.402-.293.612-.457 1.318-.493 2.119-.039.807.059 1.509.293 2.104.235.593.591 1.045 1.07 1.358.481.315 1.062.473 1.743.473.293 0 .586-.035.879-.107.296-.072.542-.164.737-.278l.181.561c-.202.127-.471.231-.806.313a4.25 4.25 0 01-1.011.122c-.814 0-1.513-.184-2.099-.552-.586-.365-1.026-.892-1.319-1.582-.289-.687-.415-1.491-.376-2.412.039-.895.24-1.699.601-2.412.361-.716.851-1.268 1.47-1.656a3.842 3.842 0 012.094-.586c.811 0 1.506.183 2.085.547.58.365 1.011.891 1.294 1.578.283.686.405 1.49.366 2.412zm-5.009.415c-.046.462-.004.817.127 1.064a.665.665 0 00.629.371c.196 0 .383-.083.562-.249.182-.166.332-.403.449-.713l.005-.044.225-2.456a1.264 1.264 0 00-.586-.141c-.381 0-.697.193-.947.581-.248.387-.403.916-.464 1.587zm5.971-.65c0-.81.192-1.461.576-1.953.385-.495.888-.742 1.509-.742.619 0 1.109.212 1.47.635v-2.754h.903v7.5h-.83l-.044-.567c-.361.443-.864.664-1.508.664-.612 0-1.112-.25-1.5-.752-.384-.501-.576-1.155-.576-1.962v-.069zm.904.103c0 .599.123 1.067.371 1.406.247.339.589.508 1.025.508.573 0 .991-.257 1.255-.772v-2.426c-.27-.498-.685-.747-1.245-.747-.443 0-.788.17-1.035.512-.248.342-.371.848-.371 1.519zm7.153 2.68c-.716 0-1.299-.234-1.748-.703-.449-.472-.674-1.102-.674-1.889v-.166c0-.524.099-.992.298-1.402.202-.413.482-.735.84-.967a2.115 2.115 0 011.172-.351c.687 0 1.22.226 1.601.679.381.452.572 1.1.572 1.943v.376h-3.58c.013.521.165.942.455 1.265.292.319.664.478 1.113.478.319 0 .589-.065.81-.195.222-.13.415-.303.581-.518l.552.43c-.443.68-1.107 1.02-1.992 1.02zm-.112-4.736a1.2 1.2 0 00-.918.401c-.248.263-.401.634-.459 1.113h2.646v-.069c-.026-.459-.15-.813-.371-1.064-.221-.254-.521-.381-.898-.381zm4.077-.644l.029.664a1.925 1.925 0 011.582-.762c1.117 0 1.68.63 1.69 1.89v3.491h-.904v-3.496c-.003-.381-.091-.663-.263-.845-.17-.182-.435-.273-.796-.273-.293 0-.55.078-.772.234a1.584 1.584 0 00-.517.615v3.765h-.904v-5.283h.855zm5.888-1.28v1.28h.987v.698h-.987v3.276c0 .212.044.371.132.479.088.104.238.156.45.156.104 0 .247-.02.429-.059v.733a2.619 2.619 0 01-.693.097c-.404 0-.708-.122-.913-.366-.205-.244-.308-.591-.308-1.04v-3.276h-.962v-.698h.962v-1.28h.903zm3.028 6.563h-.904v-5.283h.904v5.283zm-.977-6.685c0-.146.044-.27.132-.371.091-.101.225-.151.4-.151.176 0 .31.05.401.151a.535.535 0 01.137.371.514.514 0 01-.137.366c-.091.098-.225.147-.401.147-.175 0-.309-.049-.4-.147a.524.524 0 01-.132-.366zm2.188 3.994c0-.517.101-.983.302-1.396a2.3 2.3 0 01.85-.957c.365-.225.78-.337 1.245-.337.72 0 1.301.249 1.743.747.446.498.669 1.16.669 1.987v.064c0 .514-.099.976-.298 1.387a2.226 2.226 0 01-.844.952 2.328 2.328 0 01-1.26.341c-.716 0-1.297-.249-1.743-.747-.443-.498-.664-1.157-.664-1.977v-.064zm.908.108c0 .586.135 1.056.405 1.411.274.355.638.532 1.094.532a1.3 1.3 0 001.094-.537c.27-.361.405-.866.405-1.514 0-.579-.138-1.048-.415-1.406a1.304 1.304 0 00-1.094-.542 1.3 1.3 0 00-1.079.532c-.273.355-.41.863-.41 1.524zm5.889-2.7l.029.664a1.925 1.925 0 011.582-.762c1.116 0 1.68.63 1.689 1.89v3.491h-.903v-3.496c-.003-.381-.091-.663-.264-.845-.169-.182-.434-.273-.795-.273-.293 0-.551.078-.772.234a1.595 1.595 0 00-.518.615v3.765h-.903v-5.283h.855zm4.682 4.809c0-.156.046-.286.137-.39.094-.105.234-.157.42-.157.185 0 .325.052.42.157a.55.55 0 01.146.39c0 .15-.049.275-.146.376-.095.101-.235.152-.42.152-.186 0-.326-.051-.42-.152a.54.54 0 01-.137-.376zm3.599.474h-.903v-5.283h.903v5.283zm-.977-6.685c0-.146.044-.27.132-.371.091-.101.225-.151.401-.151.175 0 .309.05.4.151a.535.535 0 01.137.371.514.514 0 01-.137.366c-.091.098-.225.147-.4.147-.176 0-.31-.049-.401-.147a.524.524 0 01-.132-.366zm2.188 3.994c0-.517.101-.983.303-1.396.205-.414.488-.733.849-.957.365-.225.78-.337 1.245-.337.72 0 1.301.249 1.743.747.446.498.669 1.16.669 1.987v.064c0 .514-.099.976-.297 1.387a2.234 2.234 0 01-.845.952 2.328 2.328 0 01-1.26.341c-.716 0-1.297-.249-1.743-.747-.443-.498-.664-1.157-.664-1.977v-.064zm.908.108c0 .586.135 1.056.405 1.411.274.355.638.532 1.094.532a1.3 1.3 0 001.094-.537c.27-.361.405-.866.405-1.514 0-.579-.138-1.048-.415-1.406a1.304 1.304 0 00-1.094-.542 1.3 1.3 0 00-1.079.532c-.273.355-.41.863-.41 1.524zm-147.129-15.251h-1.235l-3.169-5.044v5.044h-1.236v-7.11h1.236l3.179 5.064v-5.064h1.225v7.11zm1.123-2.691a3.1 3.1 0 01.308-1.396c.205-.417.493-.736.864-.957a2.419 2.419 0 011.279-.337c.713 0 1.291.229 1.734.688.446.459.687 1.068.722 1.827l.005.278c0 .521-.101.986-.302 1.396a2.2 2.2 0 01-.86.953c-.371.224-.801.336-1.289.336-.745 0-1.343-.247-1.792-.742-.446-.498-.669-1.16-.669-1.987v-.059zm1.187.103c0 .544.112.97.337 1.279.224.306.537.459.937.459s.711-.156.933-.469c.224-.312.337-.769.337-1.372 0-.533-.116-.957-.347-1.269a1.093 1.093 0 00-.933-.469c-.387 0-.695.155-.923.464-.227.306-.341.765-.341 1.377zm5.844-2.695l.035.551c.371-.433.878-.649 1.523-.649.706 0 1.19.27 1.45.81.384-.54.925-.81 1.621-.81.583 0 1.016.161 1.299.483.287.323.433.798.44 1.426v3.472h-1.187v-3.438c0-.335-.073-.581-.22-.737-.146-.156-.389-.234-.727-.234-.27 0-.492.073-.664.219-.17.144-.288.332-.357.567l.005 3.623h-1.186v-3.477c-.017-.621-.334-.932-.952-.932-.476 0-.813.193-1.011.581v3.828h-1.187v-5.283h1.118zm12.222 2.695c0 .82-.184 1.473-.552 1.958-.364.485-.867.727-1.508.727-.619 0-1.101-.223-1.446-.668l-.058.571h-1.075v-7.5h1.187v2.724c.342-.403.802-.605 1.382-.605.644 0 1.15.239 1.518.718.368.478.552 1.147.552 2.007v.068zm-1.186-.103c0-.573-.101-1.002-.303-1.289-.202-.286-.495-.429-.879-.429-.514 0-.876.224-1.084.673v2.178c.212.459.576.689 1.094.689.371 0 .657-.139.859-.415.202-.277.306-.695.313-1.255v-.152zm4.951-1.508a2.955 2.955 0 00-.484-.039c-.543 0-.909.208-1.098.625v3.613h-1.187v-5.283h1.133l.029.59c.287-.459.684-.688 1.192-.688.169 0 .309.023.42.068l-.005 1.114zm2.978 4.296c-.752 0-1.362-.236-1.831-.708-.465-.475-.698-1.106-.698-1.894v-.147c0-.527.101-.997.303-1.411.205-.416.491-.74.859-.971a2.268 2.268 0 011.231-.347c.719 0 1.274.229 1.665.688.393.459.59 1.109.59 1.949v.478h-3.452c.036.436.181.781.435 1.035.257.254.579.381.967.381.543 0 .986-.22 1.328-.659l.639.61a2.145 2.145 0 01-.849.738 2.666 2.666 0 01-1.187.258zm-.141-4.526c-.326 0-.59.114-.791.342-.199.228-.326.545-.381.952h2.261v-.088c-.027-.397-.132-.696-.318-.898-.185-.205-.443-.308-.771-.308zm3.232 3.955c0-.156.046-.286.137-.39.094-.105.234-.157.42-.157.185 0 .325.052.42.157a.55.55 0 01.146.39c0 .15-.049.275-.146.376-.095.101-.235.152-.42.152-.186 0-.326-.051-.42-.152a.54.54 0 01-.137-.376zm.005-4.311c0-.157.046-.287.137-.391.094-.104.234-.156.42-.156.185 0 .325.052.42.156a.55.55 0 01.146.391.523.523 0 01-.146.376c-.095.101-.235.151-.42.151-.186 0-.326-.05-.42-.151a.542.542 0 01-.137-.376zm10.298 2.529c-.088.752-.366 1.333-.835 1.743-.466.407-1.086.61-1.861.61-.839 0-1.513-.301-2.021-.903-.505-.602-.757-1.408-.757-2.417v-.683c0-.661.117-1.242.352-1.744a2.64 2.64 0 011.006-1.152c.433-.27.934-.405 1.504-.405.755 0 1.36.211 1.816.635.456.419.721 1.002.796 1.748h-.943c-.081-.567-.258-.977-.532-1.231-.27-.254-.649-.381-1.137-.381-.599 0-1.07.222-1.412.664-.338.443-.507 1.073-.507 1.89v.688c0 .772.161 1.386.483 1.841.322.456.773.684 1.352.684.521 0 .92-.117 1.197-.352.28-.237.465-.649.556-1.235h.943zm2.124 2.256h-.903v-7.5h.903v7.5zm2.431 0h-.908v-5.283h.908v5.283zm.01-7.495h1.094l-1.309 1.435h-.727l.942-1.435zm2.334 2.212l.03.664a1.924 1.924 0 011.582-.762c1.116 0 1.679.63 1.689 1.89v3.491h-.903v-3.496c-.004-.381-.091-.663-.264-.845-.169-.182-.435-.273-.796-.273-.293 0-.55.078-.771.234a1.586 1.586 0 00-.518.615v3.765h-.903v-5.283h.854zm5.645 5.283h-.904v-5.283h.904v5.283zm-.977-6.685c0-.146.044-.27.132-.371.091-.101.225-.151.4-.151.176 0 .31.05.401.151a.535.535 0 01.137.371.514.514 0 01-.137.366c-.091.098-.225.147-.401.147-.175 0-.309-.049-.4-.147a.524.524 0 01-.132-.366zm4.546 6.045c.322 0 .604-.097.845-.293.241-.195.374-.439.4-.732h.855a1.643 1.643 0 01-.313.864 2.05 2.05 0 01-.771.654 2.203 2.203 0 01-1.016.244c-.719 0-1.292-.239-1.719-.717-.423-.482-.634-1.14-.634-1.973v-.151c0-.515.094-.972.283-1.372.189-.401.459-.712.81-.933.355-.221.773-.332 1.255-.332.593 0 1.084.177 1.475.532.394.355.604.816.63 1.382h-.855a1.232 1.232 0 00-.39-.84 1.198 1.198 0 00-.86-.332c-.459 0-.815.166-1.069.498-.251.329-.376.806-.376 1.431v.171c0 .608.125 1.077.376 1.406.251.329.609.493 1.074.493zm6.377.64c-.052-.104-.094-.29-.127-.557-.42.436-.921.654-1.504.654-.521 0-.949-.146-1.284-.439a1.44 1.44 0 01-.498-1.123c0-.55.208-.977.625-1.279.42-.306 1.009-.459 1.768-.459h.878v-.415c0-.316-.094-.567-.283-.752-.189-.189-.467-.284-.835-.284-.322 0-.592.082-.81.245-.218.162-.327.359-.327.59h-.909c0-.263.093-.517.279-.761.189-.248.442-.443.761-.586a2.588 2.588 0 011.06-.215c.609 0 1.086.153 1.431.459.345.303.524.721.537 1.255v2.431c0 .485.062.871.185 1.158v.078h-.947zm-1.499-.689c.283 0 .552-.073.806-.219.254-.147.438-.337.551-.572v-1.084h-.708c-1.106 0-1.66.324-1.66.972 0 .283.095.505.283.664.189.16.432.239.728.239zm5.938-1.997c0-.81.192-1.461.576-1.953.384-.495.887-.742 1.508-.742.619 0 1.109.212 1.47.635v-2.754h.904v7.5h-.831l-.043-.567c-.362.443-.865.664-1.509.664-.612 0-1.112-.25-1.499-.751-.384-.502-.576-1.156-.576-1.963v-.069zm.903.103c0 .599.124 1.068.371 1.406.247.339.589.508 1.025.508.573 0 .992-.257 1.255-.772v-2.426c-.27-.498-.685-.747-1.245-.747-.443 0-.788.17-1.035.512-.247.342-.371.848-.371 1.519zm7.153 2.68c-.716 0-1.299-.234-1.748-.703-.449-.472-.674-1.102-.674-1.889v-.166c0-.524.1-.992.298-1.402.202-.413.482-.735.84-.966a2.108 2.108 0 011.172-.352c.687 0 1.221.226 1.601.679.381.452.572 1.1.572 1.943v.376h-3.579c.013.521.164.942.454 1.265.293.319.664.478 1.113.478.319 0 .589-.065.811-.195.221-.13.415-.303.581-.518l.551.43c-.442.68-1.106 1.02-1.992 1.02zm-.112-4.736a1.2 1.2 0 00-.918.401c-.248.263-.401.634-.459 1.113h2.646v-.069c-.026-.459-.149-.813-.371-1.064-.221-.254-.521-.381-.898-.381zm4.077-.644l.029.664a1.925 1.925 0 011.582-.762c1.117 0 1.68.63 1.69 1.89v3.491h-.904v-3.496c-.003-.381-.091-.663-.263-.845-.169-.182-.435-.273-.796-.273-.293 0-.55.078-.772.234a1.593 1.593 0 00-.517.615v3.765h-.903v-5.283h.854zm5.889-1.28v1.28h.986v.698h-.986v3.276c0 .212.044.371.132.479.087.104.237.156.449.156.104 0 .247-.02.429-.059v.733a2.613 2.613 0 01-.693.097c-.404 0-.708-.122-.913-.366-.205-.244-.308-.591-.308-1.04v-3.276h-.962v-.698h.962v-1.28h.904zm5.307 6.563c-.052-.104-.094-.29-.127-.557-.42.436-.921.654-1.504.654-.52 0-.948-.146-1.284-.439a1.44 1.44 0 01-.498-1.123c0-.55.209-.977.625-1.279.42-.306 1.009-.459 1.768-.459h.879v-.415c0-.316-.095-.567-.284-.752-.188-.189-.467-.284-.834-.284-.323 0-.593.082-.811.245-.218.162-.327.359-.327.59h-.908c0-.263.092-.517.278-.761.189-.248.443-.443.762-.586a2.58 2.58 0 011.059-.215c.609 0 1.086.153 1.431.459.345.303.524.721.537 1.255v2.431c0 .485.062.871.186 1.158v.078h-.948zm-1.499-.689c.283 0 .552-.073.806-.219a1.33 1.33 0 00.552-.572v-1.084h-.708c-1.107 0-1.66.324-1.66.972 0 .283.094.505.283.664.189.16.431.239.727.239zm4.658.689h-.903v-7.5h.903v7.5zm-97.749-18.311h-1.476v-8.531h1.476v8.531zm3.006-6.34l.041.733c.469-.567 1.084-.85 1.846-.85 1.32 0 1.992.756 2.016 2.268v4.189h-1.424v-4.107c0-.403-.088-.7-.264-.891-.172-.195-.455-.293-.849-.293-.575 0-1.002.26-1.284.779v4.512h-1.423v-6.34h1.341zm5.86 6.34v-5.285h-.967v-1.055h.967v-.58c0-.703.195-1.246.586-1.629.39-.383.937-.574 1.64-.574.25 0 .516.035.797.105l-.035 1.114a2.745 2.745 0 00-.545-.047c-.68 0-1.019.349-1.019 1.049v.562h1.289v1.055h-1.289v5.285h-1.424zm3.486-3.228c0-.622.123-1.18.369-1.676.246-.5.592-.883 1.037-1.149.446-.269.957-.404 1.535-.404.856 0 1.549.275 2.081.826.535.551.824 1.281.867 2.192l.006.334c0 .625-.122 1.183-.364 1.675a2.638 2.638 0 01-1.031 1.143c-.445.269-.961.404-1.547.404-.894 0-1.611-.297-2.15-.89-.535-.598-.803-1.393-.803-2.385v-.07zm1.424.123c0 .652.135 1.164.404 1.535.27.367.645.55 1.125.55.481 0 .854-.187 1.119-.562.27-.375.405-.924.405-1.646 0-.641-.139-1.149-.416-1.524a1.313 1.313 0 00-1.12-.562c-.464 0-.834.185-1.107.556-.273.367-.41.918-.41 1.653zm8.994-1.934a3.556 3.556 0 00-.58-.047c-.652 0-1.092.25-1.318.75v4.336h-1.424v-6.34h1.359l.035.709c.344-.551.821-.826 1.43-.826.203 0 .371.027.504.082l-.006 1.336zm2.238-1.301l.041.662c.446-.519 1.055-.779 1.828-.779.848 0 1.428.324 1.741.973.461-.649 1.109-.973 1.945-.973.699 0 1.219.193 1.559.58.343.387.519.957.527 1.711v4.166h-1.424v-4.125c0-.402-.088-.697-.264-.885-.175-.187-.466-.281-.873-.281-.324 0-.59.088-.797.264a1.366 1.366 0 00-.427.679l.006 4.348h-1.424v-4.172c-.02-.746-.401-1.119-1.143-1.119-.57 0-.974.232-1.213.697v4.594h-1.424v-6.34h1.342zm12.891 6.34c-.063-.121-.117-.318-.164-.592a2.215 2.215 0 01-1.664.709c-.637 0-1.156-.181-1.559-.545a1.743 1.743 0 01-.603-1.347c0-.676.25-1.194.75-1.553.504-.363 1.222-.545 2.156-.545h.873v-.416c0-.328-.092-.59-.275-.785-.184-.199-.463-.299-.838-.299-.325 0-.59.082-.797.246a.745.745 0 00-.311.615h-1.424c0-.347.116-.672.346-.972.231-.305.543-.543.938-.715a3.318 3.318 0 011.33-.258c.742 0 1.334.187 1.775.562.442.372.668.895.68 1.571v2.859c0 .57.08 1.026.24 1.365v.1h-1.453zm-1.565-1.025c.282 0 .545-.069.791-.205.25-.137.438-.321.563-.551v-1.196h-.768c-.527 0-.923.092-1.189.276a.89.89 0 00-.399.779c0 .274.09.492.27.656.184.161.428.241.732.241zm6.873.005c.356 0 .651-.103.885-.31.235-.207.36-.463.375-.768h1.342a2.115 2.115 0 01-.369 1.108c-.231.34-.543.609-.938.808-.394.2-.82.299-1.277.299-.887 0-1.59-.287-2.109-.861-.52-.574-.78-1.367-.78-2.379v-.147c0-.964.258-1.736.774-2.314.515-.582 1.219-.873 2.109-.873.754 0 1.367.221 1.84.662.477.438.727 1.014.75 1.729h-1.342a1.293 1.293 0 00-.375-.897c-.23-.234-.525-.351-.885-.351-.46 0-.816.168-1.066.503-.25.333-.377.838-.381 1.518v.229c0 .687.123 1.201.369 1.541.25.336.61.503 1.078.503zm5.192 1.02h-1.424v-6.34h1.424v6.34zm-1.512-7.986c0-.219.069-.401.205-.545.141-.145.34-.217.598-.217.258 0 .457.072.598.217a.75.75 0 01.21.545c0 .215-.07.394-.21.539-.141.14-.34.211-.598.211-.258 0-.457-.071-.598-.211a.757.757 0 01-.205-.539zm2.801 4.758c0-.622.123-1.18.369-1.676.246-.5.592-.883 1.037-1.149.446-.269.957-.404 1.535-.404.856 0 1.549.275 2.08.826.536.551.825 1.281.868 2.192l.005.334c0 .625-.121 1.183-.363 1.675a2.638 2.638 0 01-1.031 1.143c-.445.269-.961.404-1.547.404-.894 0-1.611-.297-2.15-.89-.535-.598-.803-1.393-.803-2.385v-.07zm1.424.123c0 .652.135 1.164.404 1.535.27.367.645.55 1.125.55.481 0 .854-.187 1.119-.562.27-.375.405-.924.405-1.646 0-.641-.139-1.149-.417-1.524-.273-.375-.646-.562-1.119-.562-.464 0-.834.185-1.107.556-.274.367-.41.918-.41 1.653zm1.91-5.895h1.623l-1.623 1.775h-1.143l1.143-1.775zm5.086 2.66l.041.733c.469-.567 1.084-.85 1.846-.85 1.32 0 1.992.756 2.015 2.268v4.189h-1.424v-4.107c0-.403-.088-.7-.263-.891-.172-.195-.455-.293-.85-.293-.574 0-1.002.26-1.283.779v4.512h-1.424v-6.34h1.342zm8.08 3.123c0-.976.227-1.76.68-2.349.453-.594 1.06-.891 1.822-.891.672 0 1.215.234 1.629.703v-3.246h1.424v9h-1.289l-.071-.656c-.426.515-.994.773-1.705.773-.742 0-1.344-.299-1.804-.896-.458-.598-.686-1.41-.686-2.438zm1.424.123c0 .645.123 1.149.369 1.512.25.359.603.539 1.06.539.583 0 1.008-.26 1.278-.779v-2.707c-.262-.508-.684-.762-1.266-.762-.461 0-.816.184-1.066.551-.25.363-.375.912-.375 1.646zm8.408 3.211c-.902 0-1.635-.283-2.197-.849-.559-.571-.838-1.329-.838-2.274v-.176c0-.632.121-1.197.363-1.693.246-.5.59-.889 1.031-1.166a2.724 2.724 0 011.477-.416c.863 0 1.529.275 1.998.826.473.551.709 1.33.709 2.338v.574h-4.143c.043.524.217.938.522 1.242.308.305.695.457 1.16.457.652 0 1.184-.263 1.594-.791l.767.733a2.579 2.579 0 01-1.019.885c-.422.207-.897.31-1.424.31zm-.17-5.431c-.391 0-.707.136-.949.41-.238.273-.391.654-.457 1.142h2.713v-.105c-.032-.477-.159-.836-.381-1.078-.223-.246-.531-.369-.926-.369zm8.326 5.314h-1.424v-9h1.424v9zm5.344 0c-.063-.121-.117-.318-.164-.592a2.215 2.215 0 01-1.664.709c-.637 0-1.156-.181-1.559-.545a1.743 1.743 0 01-.603-1.347c0-.676.25-1.194.75-1.553.504-.363 1.222-.545 2.156-.545h.873v-.416c0-.328-.092-.59-.275-.785-.184-.199-.463-.299-.838-.299-.324 0-.59.082-.797.246a.745.745 0 00-.311.615h-1.423c0-.347.115-.672.345-.972.231-.305.543-.543.938-.715a3.321 3.321 0 011.33-.258c.742 0 1.334.187 1.775.562.442.372.668.895.68 1.571v2.859c0 .57.08 1.026.24 1.365v.1h-1.453zm-1.564-1.025c.281 0 .544-.069.791-.205a1.37 1.37 0 00.562-.551v-1.196h-.768c-.527 0-.923.092-1.189.276-.266.183-.398.443-.398.779 0 .274.089.492.269.656.184.161.428.241.733.241zm9.861.005c.355 0 .65-.103.885-.31.234-.207.359-.463.375-.768h1.341a2.098 2.098 0 01-.369 1.108c-.23.34-.543.609-.937.808-.395.2-.821.299-1.278.299-.886 0-1.589-.287-2.109-.861-.519-.574-.779-1.367-.779-2.379v-.147c0-.964.258-1.736.773-2.314.516-.582 1.219-.873 2.11-.873.753 0 1.367.221 1.839.662.477.438.727 1.014.75 1.729h-1.341a1.302 1.302 0 00-.375-.897c-.231-.234-.526-.351-.885-.351-.461 0-.817.168-1.067.503-.25.333-.376.838-.38 1.518v.229c0 .687.123 1.201.369 1.541.25.336.609.503 1.078.503zm5.191 1.02h-1.424v-9h1.424v9zm3.088 0h-1.424v-6.34h1.424v6.34zm-.269-8.959h1.623l-1.623 1.775h-1.143l1.143-1.775zm3.211 2.619l.041.733c.468-.567 1.084-.85 1.845-.85 1.321 0 1.992.756 2.016 2.268v4.189h-1.424v-4.107c0-.403-.088-.7-.264-.891-.171-.195-.455-.293-.849-.293-.574 0-1.002.26-1.283.779v4.512h-1.424v-6.34h1.342zm6.873 6.34h-1.424v-6.34h1.424v6.34zm-1.512-7.986a.76.76 0 01.205-.545c.141-.145.34-.217.598-.217.257 0 .457.072.597.217a.747.747 0 01.211.545c0 .215-.07.394-.211.539-.14.14-.34.211-.597.211-.258 0-.457-.071-.598-.211a.753.753 0 01-.205-.539zm5.672 6.966c.355 0 .65-.103.885-.31.234-.207.359-.463.375-.768h1.341a2.098 2.098 0 01-.369 1.108c-.23.34-.543.609-.937.808-.395.2-.821.299-1.278.299-.886 0-1.59-.287-2.109-.861-.52-.574-.779-1.367-.779-2.379v-.147c0-.964.257-1.736.773-2.314.516-.582 1.219-.873 2.109-.873.754 0 1.368.221 1.84.662.477.438.727 1.014.75 1.729h-1.341a1.302 1.302 0 00-.375-.897c-.231-.234-.526-.351-.885-.351-.461 0-.817.168-1.067.503-.25.333-.377.838-.38 1.518v.229c0 .687.123 1.201.369 1.541.25.336.609.503 1.078.503zm7.465 1.02c-.063-.121-.118-.318-.164-.592a2.217 2.217 0 01-1.665.709c-.636 0-1.156-.181-1.558-.545a1.744 1.744 0 01-.604-1.347c0-.676.25-1.194.75-1.553.504-.363 1.223-.545 2.157-.545h.873v-.416c0-.328-.092-.59-.276-.785-.183-.199-.463-.299-.838-.299-.324 0-.589.082-.796.246a.742.742 0 00-.311.615h-1.424c0-.347.115-.672.346-.972.23-.305.543-.543.937-.715a3.325 3.325 0 011.33-.258c.743 0 1.334.187 1.776.562.441.372.668.895.679 1.571v2.859c0 .57.081 1.026.241 1.365v.1H420.6zm-1.565-1.025c.281 0 .545-.069.791-.205.25-.137.438-.321.563-.551v-1.196h-.768c-.527 0-.924.092-1.189.276a.89.89 0 00-.399.779c0 .274.09.492.27.656.183.161.427.241.732.241z" fill="#333"/>
  <path d="M389.611 393.296c0 .249-.071.44-.213.571-.14.131-.338.196-.595.196a.791.791 0 01-.616-.257c-.153-.172-.229-.407-.229-.703v-.268c0-.287.077-.515.232-.686a.785.785 0 01.613-.259c.26 0 .46.067.6.2.14.134.21.322.21.564h-.356c0-.161-.039-.276-.117-.344-.077-.07-.189-.105-.337-.105a.436.436 0 00-.362.168c-.088.113-.131.269-.131.469v.276c0 .195.043.349.131.461a.434.434 0 00.362.169c.149 0 .262-.034.337-.103.076-.068.114-.184.114-.349h.357zm-2.229-.322c0 .28.065.539.195.779.13.237.307.424.53.559.225.135.467.202.727.202.261 0 .503-.067.726-.202a1.46 1.46 0 00.529-.559c.131-.24.196-.499.196-.779 0-.277-.065-.533-.193-.769a1.442 1.442 0 00-.53-.557 1.365 1.365 0 00-.728-.205c-.26 0-.502.068-.727.203a1.43 1.43 0 00-.532.556 1.593 1.593 0 00-.193.772zm-.281 0c0-.329.076-.634.227-.916a1.718 1.718 0 011.506-.908c.313 0 .603.082.872.244.269.161.479.383.63.664.153.282.229.587.229.916 0 .321-.073.621-.219.901a1.75 1.75 0 01-.625.676 1.633 1.633 0 01-.887.254c-.32 0-.616-.084-.886-.252a1.75 1.75 0 01-.625-.673 1.91 1.91 0 01-.222-.906zm5.361 1.78v-3.555h1.004c.309 0 .582.068.82.205.238.137.421.331.549.584.131.252.197.542.198.869v.227c0 .335-.065.629-.195.881a1.358 1.358 0 01-.554.581c-.24.135-.519.204-.838.208h-.984zm.469-3.169v2.785h.493c.362 0 .642-.112.843-.337.201-.224.302-.544.302-.959v-.208c0-.403-.095-.717-.285-.939-.189-.225-.458-.339-.806-.342h-.547zm3.838 3.217c-.358 0-.649-.117-.874-.351-.225-.236-.337-.551-.337-.945v-.083c0-.262.05-.496.149-.701a1.18 1.18 0 01.42-.483c.181-.117.376-.176.586-.176.343 0 .61.113.801.34.19.226.285.55.285.971v.188h-1.789c.006.261.082.471.227.633a.723.723 0 00.556.239.79.79 0 00.406-.098c.11-.065.207-.151.29-.259l.276.215c-.221.34-.553.51-.996.51zm-.056-2.368a.6.6 0 00-.459.201c-.124.131-.2.317-.23.556h1.324v-.034c-.013-.23-.075-.407-.186-.532a.565.565 0 00-.449-.191zm2.038-.322l.015.332a.963.963 0 01.791-.381c.558 0 .84.315.845.945v1.746h-.452v-1.748c-.001-.191-.045-.332-.132-.423-.084-.091-.217-.136-.398-.136a.65.65 0 00-.385.117.792.792 0 00-.259.307v1.883h-.452v-2.642h.427zm2.945-.64v.64h.493v.349h-.493v1.638c0 .106.022.186.066.24.044.052.119.078.224.078.052 0 .124-.01.215-.03v.367a1.33 1.33 0 01-.347.048c-.201 0-.354-.061-.456-.183-.103-.122-.154-.295-.154-.52v-1.638h-.481v-.349h.481v-.64h.452zm1.513 3.282h-.451v-2.642h.451v2.642zm-.488-3.343a.27.27 0 01.066-.185c.046-.051.112-.076.2-.076.088 0 .155.025.2.076.046.05.069.112.069.185a.254.254 0 01-.069.183c-.045.049-.112.074-.2.074-.088 0-.154-.025-.2-.074a.26.26 0 01-.066-.183zm1.094 1.997c0-.258.05-.491.151-.698.103-.207.244-.366.425-.478.182-.113.39-.169.623-.169.359 0 .65.125.871.374.223.249.335.58.335.993v.032c0 .257-.05.488-.149.694a1.118 1.118 0 01-1.052.646c-.359 0-.649-.124-.872-.373-.221-.249-.332-.579-.332-.989v-.032zm.454.054c0 .293.068.528.203.706a.656.656 0 00.547.266c.229 0 .411-.09.546-.269.135-.18.203-.433.203-.757 0-.289-.069-.524-.207-.703a.654.654 0 00-.547-.271.65.65 0 00-.54.266c-.137.178-.205.432-.205.762zm2.944-1.35l.015.332a.962.962 0 01.791-.381c.558 0 .84.315.845.945v1.746h-.452v-1.748c-.002-.191-.045-.332-.132-.423-.084-.091-.217-.136-.398-.136a.65.65 0 00-.385.117.792.792 0 00-.259.307v1.883h-.452v-2.642h.427zm5.855 2.642h-2.329v-.325l1.23-1.367c.182-.207.308-.375.376-.503a.842.842 0 00.105-.403.64.64 0 00-.168-.457.593.593 0 00-.45-.178c-.224 0-.399.065-.524.193-.124.127-.186.304-.186.532h-.452c0-.327.105-.591.315-.793.212-.202.494-.303.847-.303.331 0 .592.087.784.261.192.173.288.403.288.691 0 .35-.223.767-.669 1.25l-.952 1.033h1.785v.369zm2.707-1.516c0 .529-.09.922-.271 1.179-.18.257-.463.385-.847.385-.379 0-.66-.125-.842-.375-.182-.253-.277-.629-.283-1.128v-.603c0-.523.09-.911.271-1.165.18-.254.464-.381.849-.381.383 0 .664.123.845.369.181.244.273.622.278 1.133v.586zm-.451-.618c0-.383-.054-.661-.161-.835-.108-.176-.278-.264-.511-.264-.231 0-.399.087-.505.261-.106.175-.16.442-.164.804v.722c0 .384.056.668.166.852a.557.557 0 00.508.274c.223 0 .388-.086.496-.259.109-.172.166-.444.171-.815v-.74zm3.359 2.134h-2.329v-.325l1.23-1.367a2.87 2.87 0 00.376-.503.842.842 0 00.105-.403.64.64 0 00-.168-.457.591.591 0 00-.449-.178c-.225 0-.4.065-.525.193-.124.127-.186.304-.186.532h-.451c0-.327.105-.591.315-.793.211-.202.494-.303.847-.303.33 0 .591.087.783.261.192.173.289.403.289.691 0 .35-.223.767-.669 1.25l-.953 1.033h1.785v.369zm1.963 0h-.454v-3.011l-.911.335v-.41l1.294-.486h.071v3.572z" fill="#828282"/>
  <rect x="278.395" y="85.09" width="21.505" height="8.422" rx="4" fill="#BDBDBD"/>
  <path d="M283.962 91.071h-.469v-3.555h.469v3.555zm1.216-2.641l.014.331a.963.963 0 01.791-.38c.558 0 .84.315.845.945v1.745h-.452v-1.748c-.001-.19-.045-.331-.132-.422-.084-.091-.217-.137-.398-.137a.649.649 0 00-.385.117.794.794 0 00-.259.308v1.882h-.452V88.43h.428zm4.567 1.35c0 .403-.092.728-.278.974a.889.889 0 01-.747.366c-.334 0-.592-.118-.774-.354l-.022.305h-.415v-3.75h.452v1.399c.182-.226.433-.34.754-.34s.572.122.755.364c.183.243.275.575.275.996v.04zm-.451-.052c0-.307-.06-.545-.178-.713a.59.59 0 00-.513-.251c-.298 0-.512.138-.642.415v1.143c.138.276.354.415.647.415a.586.586 0 00.505-.252c.121-.168.181-.42.181-.757zm.903-.002c0-.259.051-.492.151-.698.103-.207.245-.367.425-.479.183-.112.39-.168.623-.168.359 0 .65.124.871.373.223.25.335.58.335.994v.032c0 .257-.05.488-.149.693a1.12 1.12 0 01-1.052.647c-.358 0-.649-.125-.872-.374-.221-.249-.332-.578-.332-.988v-.032zm.454.054c0 .293.068.528.203.705a.656.656 0 00.547.266c.229 0 .411-.09.547-.268.135-.18.202-.433.202-.757 0-.29-.069-.524-.207-.703a.652.652 0 00-.547-.271.65.65 0 00-.54.266c-.136.177-.205.431-.205.762zm3.35-.386l.586-.965h.527l-.864 1.307.891 1.335h-.523l-.61-.989-.61.99h-.525l.891-1.336-.864-1.306h.522l.579.964z" fill="#333"/>
  <path stroke="#E0E0E0" stroke-width=".5" d="M278.922 339.469h237.602m-237.602 17.834h237.602"/>
</svg>
