<svg fill="none" xmlns="http://www.w3.org/2000/svg" viewBox="0 0 584 382">
  <g clip-path="url(#clip0_2182:4710)">
    <circle cx="291.5" cy="191.5" r="187.5" fill="#EEFCFF"/>
    <circle cx="291.5" cy="191.5" r="187.5" stroke="#E6FAFF" stroke-width="7" stroke-linecap="round" stroke-linejoin="round" stroke-dasharray="16 32 48 64"/>
    <rect x="146" y="30" width="291" height="322" rx="2" fill="#fff"/>
    <path d="M164.854 47.191h-3.504v2.625h4.095V51h-5.578v-8.531h5.537v1.195h-4.054v2.355h3.504v1.172zm3.937-.445l1.207-2.086h1.582l-1.939 3.123L171.645 51h-1.571l-1.265-2.168-1.26 2.168h-1.582l2.004-3.217-1.934-3.123h1.57l1.184 2.086zm9.311 1.148c0 .981-.223 1.764-.668 2.35-.446.582-1.043.873-1.793.873-.696 0-1.252-.228-1.67-.685v3.005h-1.424V44.66h1.312l.059.645c.418-.508.986-.762 1.705-.762.773 0 1.379.289 1.816.867.442.574.663 1.373.663 2.397v.087zm-1.418-.122c0-.633-.127-1.135-.381-1.506-.25-.371-.61-.557-1.078-.557-.582 0-1 .24-1.254.72v2.813c.258.492.679.739 1.265.739.453 0 .807-.182 1.061-.546.258-.367.387-.921.387-1.663zm2.361 0c0-.622.123-1.18.369-1.676.246-.5.592-.883 1.037-1.149.445-.27.957-.404 1.535-.404.856 0 1.549.275 2.08.826.536.55.825 1.281.868 2.191l.005.334c0 .626-.121 1.184-.363 1.676a2.638 2.638 0 01-1.031 1.143c-.445.27-.961.404-1.547.404-.894 0-1.611-.297-2.15-.89-.536-.598-.803-1.393-.803-2.385v-.07zm1.424.123c0 .652.135 1.164.404 1.535.27.367.645.55 1.125.55.481 0 .854-.187 1.119-.562.27-.375.404-.924.404-1.646 0-.641-.138-1.149-.416-1.524a1.31 1.31 0 00-1.119-.563c-.465 0-.834.186-1.107.557-.274.367-.41.918-.41 1.653zm8.994-1.934a3.534 3.534 0 00-.58-.047c-.653 0-1.092.25-1.319.75V51h-1.423v-6.34h1.359l.035.71c.344-.552.82-.827 1.43-.827.203 0 .371.027.504.082l-.006 1.336zm2.976-2.842v1.541h1.12v1.055h-1.12v3.539c0 .242.047.418.141.527.098.106.27.159.516.159.164 0 .33-.02.498-.06v1.102c-.324.09-.637.135-.938.135-1.094 0-1.64-.603-1.64-1.81v-3.592h-1.043V44.66h1.043v-1.54h1.423zm6 7.881c-.062-.121-.117-.318-.164-.592a2.215 2.215 0 01-1.664.71c-.636 0-1.156-.183-1.558-.546a1.742 1.742 0 01-.604-1.347c0-.676.25-1.194.75-1.553.504-.363 1.223-.545 2.156-.545h.874v-.416c0-.328-.092-.59-.276-.785-.183-.2-.463-.299-.838-.299-.324 0-.59.082-.797.246a.745.745 0 00-.31.615h-1.424c0-.347.115-.672.346-.972.23-.305.543-.543.937-.715a3.326 3.326 0 011.33-.258c.742 0 1.334.188 1.776.563.441.37.668.894.679 1.57v2.86c0 .57.08 1.024.241 1.364v.1h-1.454zm-1.564-1.025c.281 0 .545-.069.791-.206.25-.136.438-.32.563-.55v-1.196h-.768c-.527 0-.924.092-1.19.276a.893.893 0 00-.398.78c0 .273.09.491.27.655.183.16.427.24.732.24zm7.588-4.014a3.534 3.534 0 00-.58-.047c-.653 0-1.092.25-1.319.75V51h-1.423v-6.34h1.359l.035.71c.344-.552.82-.827 1.43-.827.203 0 .371.027.504.082l-.006 1.336zm3.621 1.822c0-.976.227-1.76.68-2.35.453-.593 1.06-.89 1.822-.89.672 0 1.215.234 1.629.703V42h1.424v9h-1.289l-.071-.656c-.425.515-.994.773-1.705.773-.742 0-1.344-.299-1.804-.896-.458-.598-.686-1.41-.686-2.438zm1.424.123c0 .645.123 1.149.369 1.512.25.36.603.539 1.061.539.582 0 1.007-.26 1.277-.78v-2.706c-.262-.508-.684-.762-1.266-.762-.461 0-.816.184-1.066.55-.25.364-.375.913-.375 1.647zM218.912 51c-.062-.121-.117-.318-.164-.592a2.216 2.216 0 01-1.664.71c-.637 0-1.156-.183-1.559-.546a1.744 1.744 0 01-.603-1.347c0-.676.25-1.194.75-1.553.504-.363 1.223-.545 2.156-.545h.873v-.416c0-.328-.092-.59-.275-.785-.184-.2-.463-.299-.838-.299-.324 0-.59.082-.797.246a.745.745 0 00-.311.615h-1.423c0-.347.115-.672.345-.972.231-.305.543-.543.938-.715a3.323 3.323 0 011.33-.258c.742 0 1.334.188 1.775.563.442.37.668.894.68 1.57v2.86c0 .57.08 1.024.24 1.364v.1h-1.453zm-1.564-1.025c.281 0 .545-.069.791-.206.25-.136.437-.32.562-.55v-1.196h-.767c-.528 0-.924.092-1.19.276a.893.893 0 00-.398.78c0 .273.09.491.269.655.184.16.428.24.733.24zm6.052-6.856v1.541h1.12v1.055h-1.12v3.539c0 .242.047.418.141.527.098.106.27.159.516.159.164 0 .33-.02.498-.06v1.102c-.325.09-.637.135-.938.135-1.094 0-1.64-.603-1.64-1.81v-3.592h-1.043V44.66h1.043v-1.54h1.423zm1.77 4.653c0-.622.123-1.18.369-1.676.246-.5.592-.883 1.037-1.149.445-.27.957-.404 1.535-.404.856 0 1.549.275 2.08.826.536.55.825 1.281.868 2.191l.005.334c0 .626-.121 1.184-.363 1.676a2.638 2.638 0 01-1.031 1.143c-.445.27-.961.404-1.547.404-.894 0-1.611-.297-2.15-.89-.535-.598-.803-1.393-.803-2.385v-.07zm1.424.123c0 .652.135 1.164.404 1.535.27.367.645.55 1.125.55.481 0 .854-.187 1.119-.562.27-.375.404-.924.404-1.646 0-.641-.138-1.149-.416-1.524a1.31 1.31 0 00-1.119-.563c-.465 0-.834.186-1.107.557-.274.367-.41.918-.41 1.653zm9.228 1.382a.643.643 0 00-.316-.58c-.207-.133-.553-.25-1.037-.351a5.338 5.338 0 01-1.213-.387c-.711-.344-1.067-.842-1.067-1.494 0-.547.231-1.004.692-1.371.461-.367 1.047-.551 1.758-.551.757 0 1.369.188 1.834.563.468.374.703.86.703 1.459h-1.424a.87.87 0 00-.305-.68c-.203-.184-.472-.276-.808-.276-.313 0-.569.073-.768.217a.686.686 0 00-.293.58c0 .219.092.389.276.51.183.121.554.244 1.113.37.558.12.996.267 1.312.439.321.168.557.37.709.609.157.238.235.527.235.867 0 .57-.237 1.033-.709 1.389-.473.351-1.092.527-1.858.527-.519 0-.982-.094-1.388-.281a2.286 2.286 0 01-.95-.773 1.834 1.834 0 01-.339-1.061h1.382c.02.336.147.596.381.78.235.179.545.269.932.269.375 0 .66-.07.855-.211a.668.668 0 00.293-.563zm5.367-1.494c0-.976.227-1.76.68-2.35.453-.593 1.061-.89 1.822-.89.672 0 1.215.234 1.629.703V42h1.424v9h-1.289l-.07-.656c-.426.515-.994.773-1.705.773-.742 0-1.344-.299-1.805-.896-.457-.598-.686-1.41-.686-2.438zm1.424.123c0 .645.123 1.149.369 1.512.25.36.604.539 1.061.539.582 0 1.008-.26 1.277-.78v-2.706c-.261-.508-.683-.762-1.265-.762-.461 0-.817.184-1.067.55-.25.364-.375.913-.375 1.647zm8.408 3.211c-.902 0-1.634-.283-2.197-.85-.558-.57-.838-1.328-.838-2.273v-.176c0-.633.121-1.197.364-1.693.246-.5.589-.889 1.031-1.166a2.715 2.715 0 011.476-.416c.864 0 1.53.275 1.998.826.473.55.709 1.33.709 2.338v.574h-4.142c.043.524.217.938.521 1.242.309.305.696.457 1.161.457.652 0 1.183-.263 1.593-.79l.768.732a2.58 2.58 0 01-1.02.885c-.422.207-.896.31-1.424.31zm-.169-5.431c-.391 0-.707.136-.95.41-.238.273-.39.654-.457 1.142h2.713v-.105c-.031-.477-.158-.836-.381-1.078-.222-.246-.531-.37-.925-.37zM258.164 51v-5.285h-.967V44.66h.967v-.58c0-.703.195-1.246.586-1.629.391-.383.938-.574 1.641-.574.25 0 .515.035.797.105l-.036 1.114a2.807 2.807 0 00-.545-.047c-.679 0-1.019.35-1.019 1.049v.562h1.289v1.055h-1.289V51h-1.424zm7.541 0c-.062-.121-.117-.318-.164-.592a2.216 2.216 0 01-1.664.71c-.637 0-1.156-.183-1.559-.546a1.744 1.744 0 01-.603-1.347c0-.676.25-1.194.75-1.553.504-.363 1.223-.545 2.156-.545h.873v-.416c0-.328-.092-.59-.275-.785-.184-.2-.463-.299-.838-.299-.324 0-.59.082-.797.246a.745.745 0 00-.311.615h-1.423c0-.347.115-.672.345-.972.231-.305.543-.543.938-.715a3.323 3.323 0 011.33-.258c.742 0 1.334.188 1.775.563.442.37.668.894.68 1.57v2.86c0 .57.08 1.024.24 1.364v.1h-1.453zm-1.564-1.025c.281 0 .545-.069.791-.206.25-.136.437-.32.562-.55v-1.196h-.767c-.528 0-.924.092-1.19.276a.891.891 0 00-.398.78c0 .273.09.491.269.655.184.16.428.24.733.24zm6.873.005c.355 0 .65-.103.884-.31.235-.207.36-.463.375-.768h1.342a2.097 2.097 0 01-.369 1.108c-.23.34-.543.61-.937.808-.395.2-.821.3-1.278.3-.886 0-1.59-.288-2.109-.862-.52-.574-.779-1.367-.779-2.379v-.147c0-.964.257-1.736.773-2.314.516-.582 1.219-.873 2.109-.873.754 0 1.368.22 1.84.662.477.438.727 1.014.75 1.729h-1.342a1.292 1.292 0 00-.375-.897c-.23-.234-.525-.352-.884-.352-.461 0-.817.168-1.067.505-.25.332-.377.837-.381 1.517v.228c0 .688.123 1.202.37 1.542.25.336.609.504 1.078.504zm5.461-6.86v1.54h1.119v1.055h-1.119v3.539c0 .242.046.418.14.527.098.106.27.159.516.159.164 0 .33-.02.498-.06v1.102c-.324.09-.637.135-.938.135-1.093 0-1.64-.603-1.64-1.81v-3.592h-1.043V44.66h1.043v-1.54h1.424zm6.052 7.259c-.418.492-1.011.738-1.781.738-.687 0-1.209-.201-1.564-.603-.352-.403-.528-.985-.528-1.746V44.66h1.424v4.09c0 .805.334 1.207 1.002 1.207.691 0 1.158-.248 1.4-.744V44.66h1.424V51h-1.342l-.035-.621zm6.147-4.418a3.534 3.534 0 00-.58-.047c-.653 0-1.092.25-1.319.75V51h-1.423v-6.34h1.359l.035.71c.344-.552.82-.827 1.43-.827.203 0 .371.027.504.082l-.006 1.336zM293.186 51c-.063-.121-.118-.318-.165-.592a2.215 2.215 0 01-1.664.71c-.636 0-1.156-.183-1.558-.546a1.742 1.742 0 01-.604-1.347c0-.676.25-1.194.75-1.553.504-.363 1.223-.545 2.157-.545h.873v-.416c0-.328-.092-.59-.276-.785-.183-.2-.463-.299-.838-.299-.324 0-.59.082-.797.246a.745.745 0 00-.31.615h-1.424c0-.347.115-.672.346-.972.23-.305.543-.543.937-.715a3.326 3.326 0 011.33-.258c.743 0 1.334.188 1.776.563.441.37.668.894.679 1.57v2.86c0 .57.081 1.024.241 1.364v.1h-1.453zm-1.565-1.025c.281 0 .545-.069.791-.206.25-.136.438-.32.563-.55v-1.196h-.768c-.527 0-.924.092-1.189.276a.892.892 0 00-.399.78c0 .273.09.491.27.655.183.16.427.24.732.24zm6.873.005c.356 0 .651-.103.885-.31.234-.207.359-.463.375-.768h1.342a2.114 2.114 0 01-.369 1.108 2.42 2.42 0 01-.938.808c-.394.2-.82.3-1.277.3-.887 0-1.59-.288-2.11-.862-.519-.574-.779-1.367-.779-2.379v-.147c0-.964.258-1.736.773-2.314.516-.582 1.219-.873 2.11-.873.754 0 1.367.22 1.84.662.476.438.726 1.014.75 1.729h-1.342a1.301 1.301 0 00-.375-.897c-.231-.234-.525-.352-.885-.352-.461 0-.816.168-1.066.505-.25.332-.377.837-.381 1.517v.228c0 .688.123 1.202.369 1.542.25.336.609.504 1.078.504zm5.192 1.02h-1.424v-6.34h1.424V51zm-1.512-7.986c0-.22.068-.4.205-.545.141-.145.34-.217.598-.217.257 0 .457.072.597.217a.748.748 0 01.211.545.74.74 0 01-.211.539c-.14.14-.34.21-.597.21-.258 0-.457-.07-.598-.21a.753.753 0 01-.205-.54zm2.801 4.758c0-.622.123-1.18.369-1.676.246-.5.592-.883 1.037-1.149.445-.27.957-.404 1.535-.404.855 0 1.549.275 2.08.826.535.55.824 1.281.867 2.191l.006.334c0 .626-.121 1.184-.363 1.676a2.638 2.638 0 01-1.031 1.143c-.446.27-.961.404-1.547.404-.895 0-1.612-.297-2.151-.89-.535-.598-.802-1.393-.802-2.385v-.07zm1.423.123c0 .652.135 1.164.405 1.535.269.367.644.55 1.125.55.48 0 .853-.187 1.119-.562.269-.375.404-.924.404-1.646 0-.641-.139-1.149-.416-1.524a1.31 1.31 0 00-1.119-.563c-.465 0-.834.186-1.107.557-.274.367-.411.918-.411 1.653zM308.309 42h1.623l-1.623 1.775h-1.143L308.309 42zm5.086 2.66l.041.733c.468-.567 1.084-.85 1.845-.85 1.321 0 1.992.756 2.016 2.267V51h-1.424v-4.107c0-.403-.088-.7-.264-.891-.171-.195-.455-.293-.849-.293-.574 0-1.002.26-1.283.78V51h-1.424v-6.34h1.342z" fill="#007D9E"/>
    <path stroke="#BDBDBD" stroke-width=".5" d="M146 62.75h291"/>
    <path d="M162.875 84.371h-2.465v2.016h2.863V87h-3.613v-5.688h3.574v.618h-2.824v1.828h2.465v.613zm3.68 1.508a.527.527 0 00-.223-.453c-.146-.11-.402-.203-.77-.282a3.698 3.698 0 01-.871-.28 1.26 1.26 0 01-.476-.391.94.94 0 01-.153-.54c0-.346.146-.639.438-.878.294-.24.669-.36 1.125-.36.479 0 .867.124 1.164.371.3.248.449.564.449.95h-.726a.651.651 0 00-.254-.512.938.938 0 00-.633-.215c-.263 0-.469.057-.617.172a.54.54 0 00-.223.45c0 .174.069.305.207.394.138.088.387.173.746.254.362.08.655.177.879.289.224.112.39.247.496.406.11.156.164.348.164.574 0 .378-.151.681-.453.91-.302.227-.694.34-1.176.34-.338 0-.638-.06-.898-.18a1.48 1.48 0 01-.613-.5 1.225 1.225 0 01-.219-.699h.723a.755.755 0 00.289.578c.182.141.422.211.718.211.274 0 .493-.054.657-.164a.515.515 0 00.25-.445zm2.644-4.129v1.023h.789v.559h-.789v2.621c0 .17.035.297.106.383.07.083.19.125.359.125.083 0 .198-.016.344-.047V87c-.19.052-.375.078-.555.078-.323 0-.566-.097-.73-.293-.164-.195-.246-.472-.246-.832v-2.621h-.77v-.559h.77V81.75h.722zm4.246 5.25c-.041-.083-.075-.232-.101-.445a1.613 1.613 0 01-1.203.523c-.417 0-.759-.117-1.028-.351a1.154 1.154 0 01-.398-.899c0-.44.167-.781.5-1.023.336-.245.807-.368 1.414-.368h.703v-.331c0-.253-.075-.454-.227-.602-.151-.151-.373-.227-.667-.227-.258 0-.474.065-.649.196-.174.13-.262.287-.262.472h-.726c0-.21.074-.414.222-.61.151-.197.355-.353.61-.468.258-.114.54-.172.847-.172.487 0 .869.123 1.145.368.276.242.419.576.43 1.003v1.946c0 .388.049.696.148.925V87h-.758zm-1.199-.55c.227 0 .442-.06.645-.177.203-.117.35-.27.441-.457v-.867h-.566c-.886 0-1.328.26-1.328.778 0 .226.075.403.226.53a.87.87 0 00.582.192zm2.766-1.598c0-.649.153-1.17.461-1.563a1.455 1.455 0 011.207-.594c.494 0 .886.17 1.175.508V81h.723v6h-.664l-.035-.453c-.289.354-.691.531-1.207.531-.49 0-.889-.2-1.199-.601-.308-.401-.461-.925-.461-1.57v-.055zm.722.082c0 .479.099.854.297 1.125.198.27.472.406.821.406.458 0 .793-.206 1.003-.617v-1.942c-.216-.398-.548-.597-.996-.597-.354 0-.63.136-.828.41-.198.273-.297.678-.297 1.215zm3.778-.086c0-.414.08-.787.242-1.117a1.84 1.84 0 01.68-.766c.291-.18.623-.27.996-.27.575 0 1.04.2 1.394.598.357.398.535.928.535 1.59v.05c0 .412-.079.782-.238 1.11-.156.325-.381.58-.676.762a1.858 1.858 0 01-1.007.273c-.573 0-1.038-.2-1.395-.597-.354-.399-.531-.926-.531-1.583v-.05zm.726.086c0 .468.108.845.324 1.129.219.283.511.425.876.425.367 0 .658-.143.874-.43.217-.289.325-.692.325-1.21 0-.464-.111-.839-.332-1.125a1.044 1.044 0 00-.875-.434 1.04 1.04 0 00-.864.426c-.218.284-.328.69-.328 1.219zm-18.492 53.765h-1.336V141h-.754v-5.688h1.883c.641 0 1.133.146 1.477.438.346.292.519.716.519 1.273 0 .355-.096.663-.289.926-.19.263-.456.46-.797.59l1.336 2.414V141h-.805l-1.234-2.301zm-1.336-.613h1.152c.373 0 .668-.096.887-.289.222-.193.332-.451.332-.774 0-.351-.105-.621-.316-.808-.208-.188-.511-.283-.906-.285h-1.149v2.156zm6.676 2.914c-.042-.083-.076-.232-.102-.445a1.612 1.612 0 01-1.203.523c-.416 0-.759-.117-1.027-.351a1.153 1.153 0 01-.399-.899c0-.44.167-.781.5-1.023.336-.245.808-.367 1.415-.367h.703v-.333c0-.252-.076-.453-.227-.601-.151-.151-.374-.227-.668-.227-.258 0-.474.065-.648.196-.175.13-.262.287-.262.472h-.727c0-.211.075-.414.223-.609.151-.198.354-.354.609-.469.258-.114.541-.172.848-.172.487 0 .869.123 1.145.367.276.243.419.577.429 1.004v1.946c0 .388.05.696.149.926V141h-.758zm-1.199-.551c.226 0 .441-.058.644-.176a1.06 1.06 0 00.442-.457v-.867h-.567c-.885 0-1.328.259-1.328.778 0 .226.076.403.227.531a.874.874 0 00.582.191zm3.625-3.676l.023.532a1.54 1.54 0 011.266-.61c.893 0 1.344.504 1.351 1.512V141h-.722v-2.797c-.003-.305-.073-.53-.211-.676-.136-.145-.348-.218-.637-.218-.234 0-.44.062-.617.187a1.274 1.274 0 00-.414.492V141h-.723v-4.227h.684zm3.558 2.079c0-.659.153-1.183.457-1.571.305-.39.709-.586 1.211-.586.516 0 .918.183 1.207.547l.035-.469h.661v4.125c0 .547-.163.978-.489 1.293-.323.316-.757.473-1.304.473-.305 0-.603-.065-.895-.195a1.542 1.542 0 01-.668-.535l.375-.434c.31.383.689.574 1.137.574.351 0 .625-.099.82-.297.198-.198.297-.476.297-.836v-.363c-.289.333-.684.5-1.184.5a1.45 1.45 0 01-1.203-.598c-.304-.398-.457-.941-.457-1.628zm.727.082c0 .476.098.851.293 1.125.195.27.469.406.82.406.456 0 .791-.207 1.004-.621v-1.93c-.221-.404-.553-.605-.996-.605-.352 0-.626.136-.824.41-.198.273-.297.678-.297 1.215zm3.746-.086c0-.414.081-.787.242-1.118.164-.33.391-.585.68-.765.292-.18.624-.27.996-.27.575 0 1.04.2 1.394.598.357.398.536.928.536 1.59v.051c0 .411-.08.781-.239 1.109a1.786 1.786 0 01-.675.762 1.866 1.866 0 01-1.008.273c-.573 0-1.038-.199-1.395-.598-.354-.398-.531-.925-.531-1.582v-.05zm.727.086c0 .468.108.845.324 1.128.218.284.51.426.875.426.367 0 .659-.143.875-.429.216-.289.324-.693.324-1.211 0-.464-.111-.839-.332-1.125a1.043 1.043 0 00-.875-.434c-.357 0-.645.142-.863.426-.219.284-.328.69-.328 1.219zm5.835-.082c0-.649.154-1.17.461-1.563.308-.396.71-.594 1.207-.594.495 0 .887.17 1.176.508V135h.723v6h-.664l-.035-.453c-.289.354-.692.531-1.207.531-.49 0-.89-.2-1.2-.601-.307-.401-.461-.925-.461-1.571v-.054zm.723.082c0 .479.099.854.297 1.125.198.27.471.406.82.406.459 0 .793-.206 1.004-.617v-1.942c-.216-.398-.548-.597-.996-.597-.354 0-.63.136-.828.41-.198.273-.297.678-.297 1.215zm5.723 2.144c-.573 0-1.039-.187-1.399-.562-.359-.378-.539-.882-.539-1.512v-.133c0-.419.08-.793.239-1.121.161-.331.385-.589.671-.773.289-.188.602-.282.938-.282.549 0 .977.181 1.281.543.305.362.457.88.457 1.555v.301h-2.863c.01.416.131.754.363 1.011.235.256.531.383.891.383.255 0 .471-.052.648-.156.177-.104.332-.242.465-.414l.442.344c-.355.544-.886.816-1.594.816zm-.09-3.789a.96.96 0 00-.734.32c-.198.211-.321.508-.368.891h2.118v-.055c-.021-.367-.12-.651-.297-.851-.177-.203-.417-.305-.719-.305zm4.918 3.711v-3.668h-.668v-.559h.668v-.433c0-.453.121-.804.363-1.051.242-.247.585-.371 1.028-.371.166 0 .332.022.496.066l-.039.586a2.122 2.122 0 00-.391-.035c-.234 0-.415.069-.543.207-.128.136-.191.331-.191.586v.445h.902v.559h-.902V141h-.723zm4.086.078c-.573 0-1.039-.187-1.399-.562-.359-.378-.539-.882-.539-1.512v-.133c0-.419.08-.793.239-1.121.161-.331.385-.589.672-.773.289-.188.601-.282.937-.282.549 0 .977.181 1.281.543.305.362.457.88.457 1.555v.301h-2.863c.01.416.132.754.363 1.011.235.256.532.383.891.383.255 0 .471-.052.648-.156.177-.104.332-.242.465-.414l.442.344c-.355.544-.886.816-1.594.816zm-.09-3.789a.962.962 0 00-.734.32c-.198.211-.321.508-.368.891h2.118v-.055c-.021-.367-.12-.651-.297-.851-.177-.203-.417-.305-.719-.305zm4.273 3.199c.258 0 .484-.078.676-.234a.825.825 0 00.321-.586h.683a1.304 1.304 0 01-.25.691 1.64 1.64 0 01-.617.524c-.255.13-.526.195-.813.195-.575 0-1.033-.191-1.375-.574-.338-.386-.507-.912-.507-1.578v-.121c0-.412.075-.778.226-1.098.151-.32.367-.569.649-.746a1.855 1.855 0 011.004-.266c.473 0 .867.142 1.179.426.315.284.483.652.504 1.106h-.683a.982.982 0 00-.313-.672.956.956 0 00-.687-.266c-.368 0-.653.133-.856.399-.2.263-.301.644-.301 1.144v.137c0 .487.101.862.301 1.125.201.263.487.394.859.394zm3.215-3.203c.321-.393.737-.59 1.25-.59.894 0 1.344.504 1.352 1.512V141h-.723v-2.797c-.002-.305-.073-.53-.211-.676-.135-.145-.347-.218-.636-.218-.235 0-.441.062-.618.187a1.274 1.274 0 00-.414.492V141h-.722v-6h.722v2.285zm6.293 3.715c-.041-.083-.075-.232-.101-.445a1.612 1.612 0 01-1.203.523c-.417 0-.76-.117-1.028-.351a1.155 1.155 0 01-.398-.899c0-.44.166-.781.5-1.023.336-.245.807-.367 1.414-.367h.703v-.333c0-.252-.076-.453-.227-.601-.151-.151-.373-.227-.668-.227-.257 0-.474.065-.648.196-.174.13-.262.287-.262.472h-.726c0-.211.074-.414.222-.609a1.55 1.55 0 01.61-.469c.258-.114.54-.172.847-.172.487 0 .869.123 1.145.367.276.243.419.577.43 1.004v1.946c0 .388.049.696.148.926V141h-.758zm-1.199-.551c.227 0 .441-.058.645-.176.203-.117.35-.269.441-.457v-.867h-.566c-.886 0-1.329.259-1.329.778 0 .226.076.403.227.531a.874.874 0 00.582.191zm5.402-.57a.526.526 0 00-.222-.453c-.146-.11-.403-.203-.77-.281-.364-.079-.655-.172-.871-.282a1.256 1.256 0 01-.476-.39.94.94 0 01-.153-.539c0-.347.146-.64.438-.879.294-.24.669-.36 1.125-.36.479 0 .867.124 1.164.371.299.248.449.564.449.95h-.727a.649.649 0 00-.254-.512.935.935 0 00-.632-.215c-.263 0-.469.057-.618.172a.542.542 0 00-.222.449.44.44 0 00.207.395c.138.088.387.173.746.254.362.08.655.177.879.289.224.112.389.247.496.406a.979.979 0 01.164.574c0 .378-.151.681-.453.91-.302.227-.694.34-1.176.34-.338 0-.638-.06-.898-.18a1.474 1.474 0 01-.614-.5 1.23 1.23 0 01-.218-.699h.722c.013.242.11.435.289.578.183.141.422.211.719.211.274 0 .492-.054.656-.164a.513.513 0 00.25-.445zM189.031 164h-.754v-2.629h-2.867V164h-.75v-5.688h.75v2.446h2.867v-2.446h.754V164zm1.028-2.152c0-.414.08-.787.242-1.118.164-.33.39-.585.679-.765.292-.18.624-.27.997-.27.575 0 1.04.2 1.394.598.357.398.535.928.535 1.59v.051c0 .411-.079.781-.238 1.109a1.788 1.788 0 01-.676.762 1.86 1.86 0 01-1.008.273c-.573 0-1.037-.199-1.394-.598-.354-.398-.531-.925-.531-1.582v-.05zm.726.086c0 .468.108.845.324 1.128.219.284.511.426.875.426.368 0 .659-.143.875-.429.217-.289.325-.693.325-1.211 0-.464-.111-.839-.332-1.125a1.044 1.044 0 00-.875-.434c-.357 0-.645.142-.864.426-.218.284-.328.69-.328 1.219zm5.348 1.007l.984-3.168h.774l-1.7 4.879c-.263.703-.681 1.055-1.253 1.055l-.137-.012-.27-.05v-.586l.196.015c.244 0 .434-.049.57-.148.138-.099.251-.28.34-.543l.16-.43-1.508-4.18h.789l1.055 3.168zm-10.504 18.371l1.859 4.641 1.86-4.641h.972V187h-.75v-2.215l.071-2.39-1.868 4.605h-.574l-1.863-4.594.074 2.379V187h-.75v-5.688h.969zm7.656 5.766c-.573 0-1.039-.187-1.398-.562-.36-.378-.539-.882-.539-1.512v-.133c0-.419.079-.793.238-1.121.161-.331.385-.589.672-.773.289-.188.601-.282.937-.282.55 0 .977.181 1.282.543.304.362.457.88.457 1.555v.301h-2.864c.011.416.132.754.364 1.011.234.256.531.383.89.383.255 0 .472-.052.649-.156.177-.104.332-.242.465-.414l.441.344c-.354.544-.886.816-1.594.816zm-.09-3.789a.963.963 0 00-.734.32c-.198.211-.32.508-.367.891h2.117v-.055c-.021-.367-.12-.651-.297-.851-.177-.203-.417-.305-.719-.305zm5.039 2.59a.526.526 0 00-.222-.453c-.146-.11-.403-.203-.77-.281-.364-.079-.655-.172-.871-.282a1.256 1.256 0 01-.476-.39.94.94 0 01-.153-.539c0-.347.146-.64.438-.879.294-.24.669-.36 1.125-.36.479 0 .867.124 1.164.371.299.248.449.564.449.95h-.727a.65.65 0 00-.253-.512.94.94 0 00-.633-.215c-.263 0-.469.057-.617.172a.54.54 0 00-.223.449.44.44 0 00.207.395c.138.088.387.173.746.254.362.08.655.177.879.289.224.112.389.247.496.406a.979.979 0 01.164.574c0 .378-.151.681-.453.91-.302.227-.694.34-1.176.34-.338 0-.638-.06-.898-.18a1.474 1.474 0 01-.614-.5 1.23 1.23 0 01-.218-.699h.722c.013.242.11.435.289.578.183.141.422.211.719.211.274 0 .492-.054.656-.164a.513.513 0 00.25-.445zm6.258 1.121c-.041-.083-.075-.232-.101-.445a1.612 1.612 0 01-1.203.523c-.417 0-.76-.117-1.028-.351a1.155 1.155 0 01-.398-.899c0-.44.166-.781.5-1.023.336-.245.807-.367 1.414-.367h.703v-.333c0-.252-.076-.453-.227-.601-.151-.151-.373-.227-.668-.227-.257 0-.474.065-.648.196-.175.13-.262.287-.262.472h-.726c0-.211.074-.414.222-.609.151-.198.354-.354.61-.469.258-.114.54-.172.847-.172.487 0 .869.123 1.145.367.276.243.419.577.43 1.004v1.946c0 .388.049.696.148.926V187h-.758zm-1.199-.551c.227 0 .441-.058.645-.176.203-.117.35-.269.441-.457v-.867h-.567c-.885 0-1.328.259-1.328.778 0 .226.076.403.227.531a.874.874 0 00.582.191zm4.637.039c.258 0 .483-.078.675-.234a.825.825 0 00.321-.586h.683a1.304 1.304 0 01-.25.691 1.633 1.633 0 01-.617.524c-.255.13-.526.195-.812.195-.576 0-1.034-.191-1.375-.574-.339-.386-.508-.912-.508-1.578v-.121c0-.412.075-.778.226-1.098.151-.32.368-.569.649-.746a1.858 1.858 0 011.004-.266c.474 0 .867.142 1.179.426.316.284.484.652.504 1.106h-.683a.982.982 0 00-.313-.672.956.956 0 00-.687-.266c-.367 0-.653.133-.856.399-.2.263-.3.644-.3 1.144v.137c0 .487.1.862.3 1.125.201.263.487.394.86.394zm3.472-4.738v1.023h.789v.559h-.789v2.621c0 .169.036.297.106.383.07.083.19.125.359.125.084 0 .198-.016.344-.047V187c-.19.052-.375.078-.555.078-.323 0-.566-.098-.73-.293-.164-.195-.246-.473-.246-.832v-2.621h-.77v-.559h.77v-1.023h.722zm4.246 4.832c-.281.331-.694.496-1.238.496-.45 0-.794-.13-1.031-.39-.234-.264-.353-.652-.356-1.165v-2.75h.723v2.731c0 .641.261.961.781.961.552 0 .92-.206 1.102-.617v-3.075h.723V187h-.688l-.016-.418zm4.414.418c-.041-.083-.075-.232-.101-.445a1.612 1.612 0 01-1.203.523c-.417 0-.759-.117-1.028-.351a1.155 1.155 0 01-.398-.899c0-.44.167-.781.5-1.023.336-.245.807-.367 1.414-.367h.703v-.333c0-.252-.075-.453-.226-.601-.151-.151-.374-.227-.668-.227-.258 0-.474.065-.649.196-.174.13-.261.287-.261.472h-.727a.99.99 0 01.223-.609c.151-.198.354-.354.609-.469.258-.114.54-.172.848-.172.487 0 .868.123 1.144.367.276.243.419.577.43 1.004v1.946c0 .388.049.696.148.926V187h-.758zm-1.199-.551c.227 0 .442-.058.645-.176.203-.117.35-.269.441-.457v-.867h-.566c-.886 0-1.328.259-1.328.778 0 .226.075.403.226.531a.874.874 0 00.582.191zm3.727.551h-.723v-6h.723v6zm-36.961 17.312l1.859 4.641 1.86-4.641h.972V210h-.75v-2.215l.071-2.39-1.868 4.605h-.574l-1.863-4.594.074 2.379V210h-.75v-5.688h.969zm7.656 5.766c-.573 0-1.039-.187-1.398-.562-.36-.378-.539-.882-.539-1.512v-.133c0-.419.079-.793.238-1.121.161-.331.385-.589.672-.773.289-.188.601-.282.937-.282.55 0 .977.181 1.282.543.304.362.457.88.457 1.555v.301h-2.864c.011.416.132.754.364 1.011.234.256.531.383.89.383.255 0 .472-.052.649-.156.177-.104.332-.242.465-.414l.441.344c-.354.544-.886.816-1.594.816zm-.09-3.789a.963.963 0 00-.734.32c-.198.211-.32.508-.367.891h2.117v-.055c-.021-.367-.12-.651-.297-.851-.177-.203-.417-.305-.719-.305zm5.039 2.59a.526.526 0 00-.222-.453c-.146-.11-.403-.203-.77-.281-.364-.079-.655-.172-.871-.282a1.256 1.256 0 01-.476-.39.94.94 0 01-.153-.539c0-.347.146-.64.438-.879.294-.24.669-.36 1.125-.36.479 0 .867.124 1.164.371.299.248.449.564.449.95h-.727a.65.65 0 00-.253-.512.94.94 0 00-.633-.215c-.263 0-.469.057-.617.172a.54.54 0 00-.223.449.44.44 0 00.207.395c.138.088.387.173.746.254.362.08.655.177.879.289.224.112.389.247.496.406a.979.979 0 01.164.574c0 .378-.151.681-.453.91-.302.227-.694.34-1.176.34-.338 0-.638-.06-.898-.18a1.474 1.474 0 01-.614-.5 1.23 1.23 0 01-.218-.699h.722c.013.242.11.435.289.578.183.141.422.211.719.211.274 0 .492-.054.656-.164a.513.513 0 00.25-.445zm6.258 1.121c-.041-.083-.075-.232-.101-.445a1.612 1.612 0 01-1.203.523c-.417 0-.76-.117-1.028-.351a1.155 1.155 0 01-.398-.899c0-.44.166-.781.5-1.023.336-.245.807-.367 1.414-.367h.703v-.333c0-.252-.076-.453-.227-.601-.151-.151-.373-.227-.668-.227-.257 0-.474.065-.648.196-.175.13-.262.287-.262.472h-.726c0-.211.074-.414.222-.609.151-.198.354-.354.61-.469.258-.114.54-.172.847-.172.487 0 .869.123 1.145.367.276.243.419.577.43 1.004v1.946c0 .388.049.696.148.926V210h-.758zm-1.199-.551c.227 0 .441-.058.645-.176.203-.117.35-.269.441-.457v-.867h-.567c-.885 0-1.328.259-1.328.778 0 .226.076.403.227.531a.874.874 0 00.582.191zm3.625-3.676l.023.532a1.54 1.54 0 011.266-.61c.893 0 1.344.504 1.352 1.512V210h-.723v-2.797c-.003-.305-.073-.53-.211-.676-.135-.145-.348-.218-.637-.218-.234 0-.44.062-.617.187a1.274 1.274 0 00-.414.492V210h-.723v-4.227h.684zm4.711-1.023v1.023h.789v.559h-.789v2.621c0 .169.035.297.105.383.071.083.19.125.36.125.083 0 .198-.016.344-.047V210a2.11 2.11 0 01-.555.078c-.323 0-.567-.098-.731-.293-.164-.195-.246-.473-.246-.832v-2.621h-.769v-.559h.769v-1.023h.723zm3.391 5.328c-.573 0-1.04-.187-1.399-.562-.359-.378-.539-.882-.539-1.512v-.133c0-.419.079-.793.238-1.121.162-.331.386-.589.672-.773.289-.188.602-.282.938-.282.549 0 .976.181 1.281.543.305.362.457.88.457 1.555v.301h-2.863c.01.416.131.754.363 1.011.234.256.531.383.891.383.255 0 .471-.052.648-.156.177-.104.332-.242.465-.414l.441.344c-.354.544-.885.816-1.593.816zm-.09-3.789a.964.964 0 00-.735.32c-.198.211-.32.508-.367.891h2.117v-.055c-.021-.367-.119-.651-.297-.851-.177-.203-.416-.305-.718-.305zm4.621.133a2.201 2.201 0 00-.356-.027c-.474 0-.795.201-.965.605v3h-.722v-4.227h.703l.012.489c.237-.378.573-.567 1.007-.567.141 0 .248.019.321.055v.672zm1.453 3.578h-.723v-4.227h.723V210zm-.781-5.348c0-.117.035-.216.105-.297.073-.08.18-.121.32-.121.141 0 .248.041.321.121.073.081.109.18.109.297a.41.41 0 01-.109.293c-.073.078-.18.117-.321.117-.14 0-.247-.039-.32-.117a.421.421 0 01-.105-.293zm1.75 3.196c0-.414.08-.787.242-1.118.164-.33.39-.585.68-.765.291-.18.623-.27.996-.27.575 0 1.04.2 1.394.598.357.398.535.928.535 1.59v.051c0 .411-.079.781-.238 1.109a1.782 1.782 0 01-.676.762 1.86 1.86 0 01-1.008.273c-.572 0-1.037-.199-1.394-.598-.354-.398-.531-.925-.531-1.582v-.05zm.726.086c0 .468.108.845.324 1.128.219.284.511.426.875.426.368 0 .659-.143.875-.429.217-.289.325-.693.325-1.211 0-.464-.111-.839-.332-1.125a1.044 1.044 0 00-.875-.434c-.357 0-.645.142-.864.426-.218.284-.328.69-.328 1.219zm6.071-1.512a2.201 2.201 0 00-.356-.027c-.474 0-.796.201-.965.605v3h-.722v-4.227h.703l.011.489c.237-.378.573-.567 1.008-.567.141 0 .248.019.321.055v.672zm-40.18 21.508h-1.828V233h-.746v-5.07h-1.825v-.618h4.399v.618zm.148 2.918c0-.414.081-.787.242-1.118a1.85 1.85 0 01.68-.765c.292-.18.624-.27.996-.27.576 0 1.041.2 1.395.598.357.398.535.928.535 1.59v.051c0 .411-.079.781-.238 1.109a1.795 1.795 0 01-1.684 1.035c-.573 0-1.038-.199-1.394-.598-.355-.398-.532-.925-.532-1.582v-.05zm.727.086c0 .468.108.845.324 1.128.219.284.51.426.875.426.367 0 .659-.143.875-.429.216-.289.324-.693.324-1.211 0-.464-.11-.839-.332-1.125a1.043 1.043 0 00-.875-.434c-.357 0-.644.142-.863.426-.219.284-.328.69-.328 1.219zm3.851-.082c0-.649.154-1.17.461-1.563.308-.396.71-.594 1.207-.594.495 0 .887.17 1.176.508V227h.723v6h-.664l-.035-.453c-.289.354-.692.531-1.207.531-.49 0-.89-.2-1.2-.601-.307-.401-.461-.925-.461-1.571v-.054zm.723.082c0 .479.099.854.297 1.125.198.27.471.406.82.406.459 0 .793-.206 1.004-.617v-1.942c-.216-.398-.548-.597-.996-.597-.354 0-.63.136-.828.41-.198.273-.297.678-.297 1.215zm3.777-.086c0-.414.081-.787.243-1.118.164-.33.39-.585.679-.765.292-.18.624-.27.996-.27.576 0 1.041.2 1.395.598.357.398.535.928.535 1.59v.051c0 .411-.079.781-.238 1.109a1.788 1.788 0 01-.676.762 1.866 1.866 0 01-1.008.273c-.573 0-1.038-.199-1.394-.598-.355-.398-.532-.925-.532-1.582v-.05zm.727.086c0 .468.108.845.324 1.128.219.284.511.426.875.426.367 0 .659-.143.875-.429.216-.289.324-.693.324-1.211 0-.464-.11-.839-.332-1.125a1.042 1.042 0 00-.875-.434c-.356 0-.644.142-.863.426-.219.284-.328.69-.328 1.219zm-13.133 22.839V256h-.75v-5.688h2.098c.622 0 1.109.159 1.461.477.354.318.531.738.531 1.262 0 .552-.173.978-.52 1.277-.343.297-.837.445-1.48.445h-1.34zm0-.613h1.348c.401 0 .708-.094.922-.281.213-.19.32-.464.32-.82 0-.339-.107-.61-.32-.813-.214-.203-.507-.308-.879-.316h-1.391v2.23zm5.883 2.918c-.573 0-1.039-.187-1.398-.562-.36-.378-.54-.882-.54-1.512v-.133c0-.419.08-.793.239-1.121.161-.331.385-.589.672-.773.289-.188.601-.282.937-.282.55 0 .977.181 1.281.543.305.362.457.88.457 1.555v.301h-2.863c.011.416.132.754.363 1.011.235.256.532.383.891.383.255 0 .471-.052.648-.156.178-.104.332-.242.465-.414l.442.344c-.354.544-.886.816-1.594.816zm-.09-3.789a.962.962 0 00-.734.32c-.198.211-.321.508-.367.891h2.117v-.055c-.021-.367-.12-.651-.297-.851-.177-.203-.417-.305-.719-.305zm4.621.133a2.189 2.189 0 00-.355-.027c-.474 0-.796.201-.965.605v3h-.723v-4.227h.703l.012.489c.237-.378.573-.567 1.008-.567.141 0 .247.019.32.055v.672zm3.129 2.457a.525.525 0 00-.223-.453c-.145-.11-.402-.203-.769-.281-.365-.079-.655-.172-.871-.282a1.252 1.252 0 01-.477-.39.948.948 0 01-.152-.539c0-.347.146-.64.437-.879.295-.24.67-.36 1.125-.36.48 0 .868.124 1.165.371.299.248.449.564.449.95h-.727a.649.649 0 00-.254-.512.936.936 0 00-.633-.215c-.263 0-.468.057-.617.172a.542.542 0 00-.222.449.44.44 0 00.207.395c.138.088.386.173.746.254.362.08.655.177.879.289.224.112.389.247.496.406a.979.979 0 01.164.574c0 .378-.151.681-.453.91-.302.227-.694.34-1.176.34-.339 0-.638-.06-.899-.18a1.477 1.477 0 01-.613-.5 1.224 1.224 0 01-.219-.699h.723a.755.755 0 00.289.578c.182.141.422.211.719.211.273 0 .492-.054.656-.164a.513.513 0 00.25-.445zm1.473-1.031c0-.414.081-.787.242-1.118.164-.33.391-.585.68-.765.291-.18.623-.27.996-.27.575 0 1.04.2 1.394.598.357.398.535.928.535 1.59v.051c0 .411-.079.781-.238 1.109a1.782 1.782 0 01-.676.762 1.86 1.86 0 01-1.007.273c-.573 0-1.038-.199-1.395-.598-.354-.398-.531-.925-.531-1.582v-.05zm.726.086c0 .468.108.845.325 1.128.218.284.51.426.875.426.367 0 .658-.143.875-.429.216-.289.324-.693.324-1.211 0-.464-.111-.839-.332-1.125a1.044 1.044 0 00-.875-.434c-.357 0-.645.142-.864.426-.218.284-.328.69-.328 1.219zm4.711-2.161l.024.532c.323-.407.745-.61 1.265-.61.894 0 1.344.504 1.352 1.512V256h-.723v-2.797c-.002-.305-.073-.53-.211-.676-.135-.145-.347-.218-.636-.218-.235 0-.441.062-.618.187a1.274 1.274 0 00-.414.492V256h-.722v-4.227h.683zm6.34 4.227c-.042-.083-.075-.232-.101-.445a1.612 1.612 0 01-1.204.523c-.416 0-.759-.117-1.027-.351a1.152 1.152 0 01-.398-.899c0-.44.166-.781.5-1.023.336-.245.807-.367 1.414-.367h.703v-.333c0-.252-.076-.453-.227-.601-.151-.151-.373-.227-.668-.227-.257 0-.474.065-.648.196-.175.13-.262.287-.262.472h-.726c0-.211.074-.414.222-.609.151-.198.354-.354.61-.469.257-.114.54-.172.847-.172.487 0 .869.123 1.145.367.276.243.419.577.429 1.004v1.946c0 .388.05.696.149.926V256h-.758zm-1.199-.551c.226 0 .441-.058.644-.176.204-.117.351-.269.442-.457v-.867h-.567c-.885 0-1.328.259-1.328.778 0 .226.076.403.227.531a.874.874 0 00.582.191zm3.726.551h-.722v-6h.722v6zm1.946 0h-.723v-4.227h.723V256zm-.781-5.348c0-.117.035-.216.105-.297.073-.08.18-.121.32-.121.141 0 .248.041.321.121.073.081.109.18.109.297a.41.41 0 01-.109.293c-.073.078-.18.117-.321.117-.14 0-.247-.039-.32-.117a.421.421 0 01-.105-.293zm2.621 4.758h2.472v.59h-3.355v-.531l2.332-3.098h-2.297v-.598h3.203v.512l-2.355 3.125zm5.898.59c-.042-.083-.075-.232-.102-.445a1.609 1.609 0 01-1.203.523c-.416 0-.759-.117-1.027-.351a1.152 1.152 0 01-.398-.899c0-.44.166-.781.5-1.023.336-.245.807-.367 1.414-.367h.703v-.333c0-.252-.076-.453-.227-.601-.151-.151-.373-.227-.668-.227-.258 0-.474.065-.648.196-.175.13-.262.287-.262.472h-.726c0-.211.074-.414.222-.609.151-.198.354-.354.61-.469.257-.114.54-.172.847-.172.487 0 .869.123 1.145.367.276.243.419.577.429 1.004v1.946c0 .388.05.696.149.926V256h-.758zm-1.199-.551c.226 0 .441-.058.644-.176a1.06 1.06 0 00.442-.457v-.867h-.567c-.885 0-1.328.259-1.328.778 0 .226.076.403.227.531a.874.874 0 00.582.191zm2.765-1.597c0-.649.154-1.17.461-1.563.308-.396.71-.594 1.207-.594.495 0 .887.17 1.176.508V250h.723v6h-.664l-.035-.453c-.289.354-.692.531-1.207.531-.49 0-.89-.2-1.2-.601-.307-.401-.461-.925-.461-1.571v-.054zm.723.082c0 .479.099.854.297 1.125.198.27.471.406.82.406.459 0 .793-.206 1.004-.617v-1.942c-.216-.398-.548-.597-.996-.597-.354 0-.63.136-.828.41-.198.273-.297.678-.297 1.215zm3.777-.086c0-.414.081-.787.243-1.118.164-.33.39-.585.679-.765.292-.18.624-.27.996-.27.576 0 1.041.2 1.395.598.357.398.535.928.535 1.59v.051c0 .411-.079.781-.238 1.109a1.788 1.788 0 01-.676.762 1.866 1.866 0 01-1.008.273c-.573 0-1.038-.199-1.394-.598-.354-.398-.532-.925-.532-1.582v-.05zm.727.086c0 .468.108.845.324 1.128.219.284.511.426.875.426.367 0 .659-.143.875-.429.216-.289.324-.693.324-1.211 0-.464-.11-.839-.332-1.125a1.042 1.042 0 00-.875-.434c-.356 0-.644.142-.863.426-.219.284-.328.69-.328 1.219z" fill="#333"/>
    <path d="M301.844 164.078c-.479-.01-.839-.18-1.078-.508-.24-.33-.349-.806-.328-1.425.005-.193.019-.383.042-.571l.141-.949c.125-.81.363-1.414.715-1.813.352-.398.815-.591 1.391-.578.484.011.845.177 1.082.5.239.321.35.787.332 1.399a7.088 7.088 0 01-.047.574l-.137.918c-.138.857-.381 1.483-.73 1.879-.349.396-.81.587-1.383.574zm1.566-3.5c.037-.315.054-.56.051-.734-.013-.662-.27-1.002-.77-1.02a1.03 1.03 0 00-.886.406c-.224.282-.381.724-.469 1.329l-.168 1.132a5.981 5.981 0 00-.051.739c.013.69.268 1.044.766 1.062a.997.997 0 00.855-.383c.227-.27.388-.7.485-1.289l.187-1.242zm1.844.559l.723-2.825h2.835l-.105.668h-2.227l-.437 1.555c.286-.169.596-.251.93-.246.471.005.833.184 1.086.535.252.349.355.794.308 1.336-.049.583-.256 1.052-.621 1.406-.364.355-.819.526-1.363.516-.453-.005-.819-.151-1.098-.437-.278-.287-.426-.668-.441-1.145h.66c.018.312.107.555.266.727.158.171.373.26.644.265.333.011.613-.108.84-.355.229-.248.364-.572.406-.973.037-.352-.025-.641-.183-.867-.159-.229-.392-.349-.7-.359a1.202 1.202 0 00-.507.085 1.925 1.925 0 00-.438.27l-.578-.156zm7.453 2.941c-.526-.01-.937-.204-1.234-.582-.297-.378-.422-.861-.375-1.449l.019-.168c.044-.419.168-.802.371-1.149.206-.346.456-.606.75-.781.295-.177.612-.261.953-.254.435.011.776.155 1.024.434.247.279.383.656.406 1.133a3.2 3.2 0 01-.016.508l-.043.324h-2.761c-.047.383.015.708.187.976.175.269.434.408.778.418.416.011.802-.177 1.156-.562l.406.344a1.873 1.873 0 01-.687.601c-.279.143-.59.212-.934.207zm.449-3.793a1.036 1.036 0 00-.765.297c-.217.206-.388.512-.516.918l2.055.004.015-.063c.042-.328-.011-.6-.16-.816a.737.737 0 00-.629-.34zm3.274-.515l-.102.535c.38-.417.813-.62 1.297-.61.398.011.693.149.883.414.19.266.26.64.211 1.121l-.461 2.77h-.707l.465-2.781c.015-.128.017-.246.004-.356-.045-.364-.26-.551-.645-.558-.424-.008-.797.218-1.117.679l-.524 3.016h-.707l.735-4.227.668-.003zm4.746 4.308c-.526-.01-.938-.204-1.235-.582-.296-.378-.421-.861-.375-1.449l.02-.168c.044-.419.168-.802.371-1.149.206-.346.456-.606.75-.781.294-.177.612-.261.953-.254.435.011.776.155 1.024.434.247.279.382.656.406 1.133.008.169.002.338-.016.508l-.043.324h-2.761c-.047.383.015.708.187.976.175.269.434.408.777.418.417.011.802-.177 1.157-.562l.406.344a1.868 1.868 0 01-.688.601 1.946 1.946 0 01-.933.207zm.449-3.793a1.038 1.038 0 00-.766.297c-.216.206-.388.512-.515.918l2.054.004.016-.063c.042-.328-.012-.6-.16-.816a.739.739 0 00-.629-.34zm4.5.133l-.332-.035c-.453 0-.81.204-1.07.613l-.52 3.004h-.707l.734-4.227.684-.003-.105.492c.299-.394.652-.585 1.058-.574.086 0 .198.019.336.058l-.078.672zm2.305-.723c.354.006.657.102.91.289.252.188.439.447.558.778.123.328.164.687.125 1.078l-.007.086c-.05.411-.172.784-.368 1.117a2.143 2.143 0 01-.757.773c-.31.185-.65.273-1.02.262a1.53 1.53 0 01-.91-.289 1.605 1.605 0 01-.555-.766 2.462 2.462 0 01-.125-1.066c.039-.437.158-.831.356-1.18.198-.349.452-.618.761-.808a1.831 1.831 0 011.032-.274zm-1.438 2.266a2.433 2.433 0 000 .512c.026.307.117.552.274.734a.831.831 0 00.632.285 1.13 1.13 0 00.649-.172c.198-.125.364-.312.5-.562.135-.25.223-.528.262-.832.02-.24.024-.442.011-.606-.031-.315-.126-.563-.285-.746a.849.849 0 00-.633-.289c-.364-.008-.674.136-.929.43-.256.294-.413.68-.473 1.156l-.008.09zm-25.148 25.117c-.479-.01-.839-.18-1.078-.508-.24-.33-.349-.806-.328-1.425.005-.193.019-.383.042-.571l.141-.949c.125-.81.363-1.414.715-1.813.352-.398.815-.591 1.391-.578.484.011.845.177 1.082.5.239.321.35.787.332 1.399a7.088 7.088 0 01-.047.574l-.137.918c-.138.857-.381 1.483-.73 1.879-.349.396-.81.587-1.383.574zm1.566-3.5c.037-.315.054-.56.051-.734-.013-.662-.27-1.002-.77-1.02a1.03 1.03 0 00-.886.406c-.224.282-.381.724-.469 1.329l-.168 1.132a5.981 5.981 0 00-.051.739c.013.69.268 1.044.766 1.062a.997.997 0 00.855-.383c.227-.27.388-.7.485-1.289l.187-1.242zm3.348 3.422h-.711l.836-4.797-1.512.531.121-.687 2.11-.762h.125l-.969 5.715zm5.949.078c-.526-.01-.937-.204-1.234-.582-.297-.378-.422-.861-.375-1.449l.019-.168c.044-.419.168-.802.371-1.149.206-.346.456-.606.75-.781.295-.177.612-.261.953-.254.435.011.776.155 1.024.434.247.279.383.656.406 1.133a3.2 3.2 0 01-.016.508l-.043.324h-2.761c-.047.383.015.708.187.976.175.269.434.408.778.418.416.011.802-.177 1.156-.562l.406.344a1.873 1.873 0 01-.687.601c-.279.143-.59.212-.934.207zm.449-3.793a1.036 1.036 0 00-.765.297c-.217.206-.388.512-.516.918l2.055.004.015-.063c.042-.328-.011-.6-.16-.816a.737.737 0 00-.629-.34zm3.274-.515l-.102.535c.38-.417.813-.62 1.297-.61.398.011.693.149.883.414.19.266.26.64.211 1.121l-.461 2.77h-.707l.465-2.781c.015-.128.017-.246.004-.356-.045-.364-.26-.551-.645-.558-.424-.008-.797.218-1.117.679l-.524 3.016h-.707l.735-4.227.668-.003zm4.746 4.308c-.526-.01-.938-.204-1.235-.582-.296-.378-.421-.861-.375-1.449l.02-.168c.044-.419.168-.802.371-1.149.206-.346.456-.606.75-.781.294-.177.612-.261.953-.254.435.011.776.155 1.024.434.247.279.382.656.406 1.133.008.169.002.338-.016.508l-.043.324h-2.761c-.047.383.015.708.187.976.175.269.434.408.777.418.417.011.802-.177 1.157-.562l.406.344a1.868 1.868 0 01-.688.601 1.946 1.946 0 01-.933.207zm.449-3.793a1.038 1.038 0 00-.766.297c-.216.206-.388.512-.515.918l2.054.004.016-.063c.042-.328-.012-.6-.16-.816a.739.739 0 00-.629-.34zm4.5.133l-.332-.035c-.453 0-.81.204-1.07.613l-.52 3.004h-.707l.734-4.227.684-.003-.105.492c.299-.394.652-.585 1.058-.574.086 0 .198.019.336.058l-.078.672zm2.305-.723c.354.006.657.102.91.289.252.188.439.447.558.778.123.328.164.687.125 1.078l-.007.086c-.05.411-.172.784-.368 1.117a2.143 2.143 0 01-.757.773c-.31.185-.65.273-1.02.262a1.53 1.53 0 01-.91-.289 1.605 1.605 0 01-.555-.766 2.462 2.462 0 01-.125-1.066c.039-.437.158-.831.356-1.18.198-.349.452-.618.761-.808a1.831 1.831 0 011.032-.274zm-1.438 2.266a2.433 2.433 0 000 .512c.026.307.117.552.274.734a.831.831 0 00.632.285 1.13 1.13 0 00.649-.172c.198-.125.364-.312.5-.562.135-.25.223-.528.262-.832.02-.24.024-.442.011-.606-.031-.315-.126-.563-.285-.746a.849.849 0 00-.633-.289c-.364-.008-.674.136-.929.43-.256.294-.413.68-.473 1.156l-.008.09zm7.352-.082h-1.856l.106-.59h1.855l-.105.59zm3.812-1.074l.469.004c.344 0 .633-.09.867-.27.237-.182.373-.428.406-.738.034-.302-.022-.539-.168-.711-.145-.175-.358-.264-.636-.27a1.09 1.09 0 00-.758.262 1.143 1.143 0 00-.379.719l-.699.004c.044-.469.243-.849.597-1.141a1.91 1.91 0 011.274-.434c.476.011.85.161 1.121.45.273.286.392.665.355 1.136a1.315 1.315 0 01-.308.735 2.06 2.06 0 01-.758.551c.258.104.451.269.578.496.128.224.181.487.16.789-.041.513-.246.925-.613 1.238-.365.313-.809.464-1.332.453-.487-.01-.875-.161-1.164-.453-.289-.292-.423-.668-.402-1.129l.707.004c-.016.292.054.527.211.707.156.177.382.271.679.281.334.011.611-.084.832-.285.222-.2.348-.469.379-.805.029-.309-.041-.55-.211-.722-.169-.175-.422-.267-.758-.278l-.543-.003.094-.59zm5.133 3.195h-.711l.836-4.797-1.512.531.121-.687 2.11-.762h.125l-.969 5.715zm5.949.078c-.526-.01-.937-.204-1.234-.582-.297-.378-.422-.861-.375-1.449l.019-.168c.045-.419.168-.802.372-1.149.205-.346.455-.606.75-.781.294-.177.612-.261.953-.254.435.011.776.155 1.023.434.247.279.383.656.406 1.133.008.169.003.338-.015.508l-.043.324h-2.762c-.047.383.016.708.188.976.174.269.433.408.777.418.417.011.802-.177 1.156-.562l.406.344a1.873 1.873 0 01-.687.601c-.279.143-.59.212-.934.207zm.45-3.793a1.038 1.038 0 00-.766.297c-.216.206-.388.512-.516.918l2.055.004.016-.063c.041-.328-.012-.6-.161-.816a.736.736 0 00-.628-.34zm3.273-.515l-.102.535c.381-.417.813-.62 1.297-.61.399.011.693.149.883.414.19.266.26.64.211 1.121l-.461 2.77h-.707l.465-2.781c.015-.128.017-.246.004-.356-.044-.364-.259-.551-.645-.558-.424-.008-.797.218-1.117.679l-.523 3.016h-.707l.734-4.227.668-.003zm4.746 4.308c-.526-.01-.937-.204-1.234-.582-.297-.378-.422-.861-.375-1.449l.019-.168c.044-.419.168-.802.371-1.149.206-.346.456-.606.75-.781.295-.177.612-.261.953-.254.435.011.776.155 1.024.434.247.279.383.656.406 1.133a3.2 3.2 0 01-.016.508l-.043.324h-2.761c-.047.383.015.708.187.976.175.269.434.408.778.418.416.011.802-.177 1.156-.562l.406.344a1.873 1.873 0 01-.687.601c-.279.143-.59.212-.934.207zm.449-3.793a1.036 1.036 0 00-.765.297c-.217.206-.388.512-.516.918l2.055.004.015-.063c.042-.328-.011-.6-.16-.816a.737.737 0 00-.629-.34zm4.5.133l-.332-.035c-.453 0-.81.204-1.07.613l-.52 3.004h-.707l.735-4.227.683-.003-.105.492c.299-.394.652-.585 1.058-.574.086 0 .198.019.336.058l-.078.672zm2.305-.723c.354.006.657.102.91.289.253.188.439.447.559.778.122.328.164.687.125 1.078l-.008.086c-.05.411-.172.784-.367 1.117a2.154 2.154 0 01-.758.773c-.31.185-.65.273-1.02.262a1.53 1.53 0 01-.91-.289 1.61 1.61 0 01-.554-.766 2.462 2.462 0 01-.126-1.066c.04-.437.158-.831.356-1.18.198-.349.452-.618.762-.808a1.826 1.826 0 011.031-.274zm-1.438 2.266a2.433 2.433 0 000 .512c.026.307.118.552.274.734.159.182.37.277.633.285.234.008.45-.049.648-.172a1.47 1.47 0 00.5-.562c.136-.25.223-.528.262-.832.021-.24.025-.442.012-.606-.032-.315-.127-.563-.286-.746a.845.845 0 00-.632-.289c-.365-.008-.675.136-.93.43s-.413.68-.473 1.156l-.008.09zm-61.679 25.117c-.479-.01-.839-.18-1.078-.508-.24-.33-.349-.806-.328-1.425.005-.193.019-.383.042-.571l.141-.949c.125-.81.363-1.414.715-1.813.352-.398.815-.591 1.391-.578.484.011.845.177 1.082.5.239.321.35.787.332 1.399a7.088 7.088 0 01-.047.574l-.137.918c-.138.857-.381 1.483-.73 1.879-.349.396-.81.587-1.383.574zm1.566-3.5c.037-.315.054-.56.051-.734-.013-.662-.27-1.002-.77-1.02a1.03 1.03 0 00-.886.406c-.224.282-.381.724-.469 1.329l-.168 1.132a5.981 5.981 0 00-.051.739c.013.69.268 1.044.766 1.062a.997.997 0 00.855-.383c.227-.27.388-.7.485-1.289l.187-1.242zm3.348 3.422h-.711l.836-4.797-1.512.531.121-.687 2.11-.762h.125l-.969 5.715zm4.324-2.121a3.28 3.28 0 01.356-1.164c.184-.347.412-.606.683-.777a1.57 1.57 0 01.895-.247c.471.011.833.183 1.086.516l.406-2.207h.707l-1.039 6h-.645l.074-.453a1.556 1.556 0 01-1.234.531 1.166 1.166 0 01-.933-.457c-.232-.297-.357-.694-.376-1.191a3.9 3.9 0 01.02-.551zm.68.406c-.008.373.058.662.199.867.141.206.346.312.617.317.409.018.772-.188 1.09-.617l.336-1.954c-.156-.385-.44-.583-.852-.593a1.074 1.074 0 00-.738.254c-.211.174-.372.42-.484.738-.11.315-.166.644-.168.988zm4.297 1.715h-.704l.735-4.227h.703l-.734 4.227zm.582-5.77a.395.395 0 01.418.411.421.421 0 01-.418.425.388.388 0 01-.301-.105.382.382 0 01-.113-.297.418.418 0 01.414-.434zm2.359 5.262a1.082 1.082 0 001.082-.82l.668-.004a1.502 1.502 0 01-.32.727c-.172.218-.39.389-.653.511-.263.123-.532.18-.808.172-.352-.005-.65-.096-.895-.273a1.568 1.568 0 01-.535-.746 2.487 2.487 0 01-.117-1.079l.019-.195a2.81 2.81 0 01.356-1.09c.187-.32.432-.569.734-.746a1.825 1.825 0 011-.254c.443.011.797.159 1.063.446.265.286.398.649.398 1.089l-.66-.003c-.005-.276-.082-.499-.23-.668a.804.804 0 00-.602-.274 1.133 1.133 0 00-.918.41c-.242.282-.393.675-.453 1.18l-.012.102a3.517 3.517 0 00-.008.515c.019.305.105.546.258.723.154.177.365.269.633.277zm3.082.508h-.703l.734-4.227h.703l-.734 4.227zm.582-5.77a.379.379 0 01.297.11.391.391 0 01.121.301.421.421 0 01-.418.425.389.389 0 01-.301-.105.382.382 0 01-.113-.297.45.45 0 01.117-.305.421.421 0 01.297-.129zm2.402 5.848c-.526-.01-.937-.204-1.234-.582-.297-.378-.422-.861-.375-1.449l.02-.168c.044-.419.168-.802.371-1.149.205-.346.455-.606.75-.781.294-.177.612-.261.953-.254.435.011.776.155 1.023.434.248.279.383.656.406 1.133.008.169.003.338-.015.508l-.043.324h-2.762c-.047.383.016.708.188.976.174.269.433.408.777.418.417.011.802-.177 1.156-.562l.407.344a1.884 1.884 0 01-1.622.808zm.45-3.793a1.038 1.038 0 00-.766.297c-.216.206-.388.512-.516.918l2.055.004.016-.063c.041-.328-.012-.6-.16-.816a.739.739 0 00-.629-.34zm3.265-.515l-.09.472a1.656 1.656 0 011.286-.547 1.3 1.3 0 01.679.184.893.893 0 01.387.496c.396-.464.863-.69 1.402-.68.422.011.733.153.934.426.2.274.275.641.223 1.102l-.465 2.777h-.703l.461-2.785a1.531 1.531 0 000-.371c-.05-.354-.282-.535-.696-.543a1.069 1.069 0 00-.703.242c-.208.164-.342.38-.402.648l-.481 2.809h-.711l.469-2.781c.034-.289-.01-.512-.133-.668-.12-.156-.307-.237-.562-.242-.44-.011-.791.19-1.051.601l-.535 3.09h-.707l.734-4.227.664-.003zm9.285 2.136c-.052.433-.17.822-.355 1.168-.185.347-.409.603-.672.77a1.533 1.533 0 01-.875.238c-.51-.01-.889-.202-1.137-.574l-.144.492h-.653l1.043-6h.707l-.425 2.242c.338-.375.75-.557 1.234-.547.406.011.723.16.949.45.227.289.347.687.36 1.195.002.167-.006.328-.024.484l-.008.082zm-.671-.41c.007-.38-.056-.67-.192-.871-.135-.203-.342-.31-.621-.32-.44-.011-.812.211-1.117.664l-.317 1.84c.157.429.45.649.879.66.276.01.517-.072.723-.246.208-.175.366-.418.473-.731.106-.315.164-.647.172-.996zm3.863-1.078l-.332-.035c-.453 0-.81.204-1.071.613l-.519 3.004h-.707l.734-4.227.684-.003-.106.492c.3-.394.653-.585 1.059-.574.086 0 .198.019.336.058l-.078.672zm1.785 3.66c-.526-.01-.938-.204-1.234-.582-.297-.378-.422-.861-.375-1.449l.019-.168c.044-.419.168-.802.371-1.149.206-.346.456-.606.75-.781.294-.177.612-.261.953-.254.435.011.776.155 1.024.434.247.279.383.656.406 1.133a3.2 3.2 0 01-.016.508l-.043.324h-2.761c-.047.383.015.708.187.976.175.269.434.408.778.418.416.011.802-.177 1.156-.562l.406.344a1.873 1.873 0 01-.687.601c-.279.143-.59.212-.934.207zm.449-3.793a1.036 1.036 0 00-.765.297c-.217.206-.388.512-.516.918l2.055.004.015-.063c.042-.328-.011-.6-.16-.816a.737.737 0 00-.629-.34zm5.664 1.594h-1.855l.105-.59h1.856l-.106.59zm3.813-1.074l.469.004c.343 0 .632-.09.867-.27.237-.182.372-.428.406-.738.034-.302-.022-.539-.168-.711-.146-.175-.358-.264-.637-.27a1.09 1.09 0 00-.758.262 1.142 1.142 0 00-.378.719l-.7.004c.045-.469.244-.849.598-1.141a1.907 1.907 0 011.273-.434c.477.011.851.161 1.121.45.274.286.392.665.356 1.136a1.31 1.31 0 01-.309.735 2.064 2.064 0 01-.757.551c.257.104.45.269.578.496.127.224.181.487.16.789-.042.513-.246.925-.613 1.238-.365.313-.809.464-1.332.453-.487-.01-.875-.161-1.165-.453-.289-.292-.423-.668-.402-1.129l.707.004c-.015.292.055.527.211.707.156.177.383.271.68.281.333.011.61-.084.832-.285.221-.2.347-.469.379-.805.028-.309-.042-.55-.211-.722-.169-.175-.422-.267-.758-.278l-.543-.003.094-.59zm5.133 3.195h-.711l.836-4.797-1.512.531.121-.687 2.109-.762h.125l-.968 5.715zm4.324-2.121c.052-.43.17-.818.355-1.164.185-.347.413-.606.684-.777a1.57 1.57 0 01.894-.247c.472.011.834.183 1.086.516l.407-2.207h.707l-1.039 6h-.645l.074-.453a1.557 1.557 0 01-1.234.531 1.17 1.17 0 01-.934-.457c-.232-.297-.357-.694-.375-1.191a3.755 3.755 0 01.02-.551zm.679.406c-.007.373.059.662.2.867.14.206.346.312.617.317.409.018.772-.188 1.09-.617l.336-1.954c-.157-.385-.44-.583-.852-.593a1.07 1.07 0 00-.738.254c-.211.174-.373.42-.485.738a3.082 3.082 0 00-.168.988zm4.297 1.715h-.703l.735-4.227h.703l-.735 4.227zm.582-5.77a.379.379 0 01.297.11.391.391 0 01.121.301.417.417 0 01-.418.425.387.387 0 01-.3-.105.383.383 0 01-.114-.297.445.445 0 01.118-.305.417.417 0 01.296-.129zm2.36 5.262c.252.005.48-.068.683-.219a1.06 1.06 0 00.399-.601l.668-.004a1.495 1.495 0 01-.321.727 1.753 1.753 0 01-.652.511c-.263.123-.532.18-.809.172-.351-.005-.649-.096-.894-.273a1.561 1.561 0 01-.535-.746 2.487 2.487 0 01-.117-1.079l.019-.195a2.81 2.81 0 01.356-1.09c.187-.32.432-.569.734-.746a1.823 1.823 0 011-.254c.443.011.797.159 1.063.446.265.286.398.649.398 1.089l-.66-.003c-.005-.276-.082-.499-.231-.668a.802.802 0 00-.601-.274 1.133 1.133 0 00-.918.41c-.242.282-.393.675-.453 1.18l-.012.102a3.383 3.383 0 00-.008.515c.018.305.104.546.258.723.154.177.365.269.633.277zm3.082.508h-.703l.734-4.227h.703l-.734 4.227zm.582-5.77a.395.395 0 01.418.411.421.421 0 01-.418.425.388.388 0 01-.301-.105.382.382 0 01-.113-.297.418.418 0 01.414-.434zm2.402 5.848c-.526-.01-.937-.204-1.234-.582-.297-.378-.422-.861-.375-1.449l.019-.168a2.85 2.85 0 01.371-1.149c.206-.346.456-.606.75-.781.295-.177.612-.261.954-.254.434.011.776.155 1.023.434.247.279.383.656.406 1.133.008.169.003.338-.015.508l-.043.324h-2.762c-.047.383.016.708.187.976.175.269.434.408.778.418.416.011.802-.177 1.156-.562l.406.344a1.873 1.873 0 01-.687.601c-.279.143-.59.212-.934.207zm.449-3.793a1.036 1.036 0 00-.765.297c-.216.206-.388.512-.516.918l2.055.004.015-.063c.042-.328-.011-.6-.16-.816a.737.737 0 00-.629-.34zm3.266-.515l-.09.472a1.654 1.654 0 011.285-.547c.269.006.495.067.68.184a.897.897 0 01.387.496c.396-.464.863-.69 1.402-.68.422.011.733.153.934.426.2.274.274.641.222 1.102L384.48 210h-.703l.461-2.785a1.436 1.436 0 000-.371c-.049-.354-.281-.535-.695-.543a1.069 1.069 0 00-.703.242c-.208.164-.343.38-.402.648l-.481 2.809h-.711l.469-2.781c.034-.289-.011-.512-.133-.668-.12-.156-.307-.237-.562-.242-.441-.011-.791.19-1.051.601l-.535 3.09h-.707l.734-4.227.664-.003zm9.285 2.136c-.052.433-.17.822-.355 1.168-.185.347-.409.603-.672.77a1.533 1.533 0 01-.875.238c-.511-.01-.89-.202-1.137-.574l-.144.492h-.653l1.043-6h.707l-.426 2.242c.339-.375.75-.557 1.235-.547.406.011.722.16.949.45.227.289.346.687.359 1.195.003.167-.005.328-.023.484l-.008.082zm-.672-.41c.008-.38-.056-.67-.191-.871-.136-.203-.343-.31-.621-.32-.44-.011-.813.211-1.117.664l-.317 1.84c.156.429.449.649.879.66.276.01.517-.072.723-.246.208-.175.366-.418.472-.731.107-.315.164-.647.172-.996zm3.864-1.078l-.332-.035c-.454 0-.81.204-1.071.613L390.68 210h-.707l.734-4.227.684-.003-.106.492c.3-.394.653-.585 1.059-.574.086 0 .198.019.336.058l-.078.672zm1.785 3.66c-.526-.01-.938-.204-1.235-.582-.297-.378-.422-.861-.375-1.449l.02-.168c.044-.419.168-.802.371-1.149.206-.346.456-.606.75-.781.294-.177.612-.261.953-.254.435.011.776.155 1.024.434.247.279.382.656.406 1.133.008.169.002.338-.016.508l-.043.324h-2.762c-.046.383.016.708.188.976.174.269.434.408.777.418.417.011.802-.177 1.157-.562l.406.344a1.868 1.868 0 01-.688.601c-.278.143-.59.212-.933.207zm.449-3.793a1.038 1.038 0 00-.766.297c-.216.206-.388.512-.515.918l2.054.004.016-.063c.042-.328-.012-.6-.16-.816a.739.739 0 00-.629-.34z" fill="#4F4F4F"/>
    <rect x="159.15" y="95.15" width="263.7" height="22.7" rx=".85" fill="#fff" stroke="#BDBDBD" stroke-width=".3"/>
    <path d="M166.586 106.495V109h-.843v-6.398h2.36c.7 0 1.248.178 1.643.536.399.357.598.83.598 1.419 0 .621-.195 1.1-.585 1.437-.386.334-.942.501-1.665.501h-1.508zm0-.69h1.517c.451 0 .796-.105 1.037-.316.24-.214.36-.522.36-.923 0-.381-.12-.686-.36-.914-.241-.229-.57-.347-.989-.356h-1.565v2.509zm7.59 3.195c-.047-.094-.085-.261-.114-.501-.378.393-.83.589-1.354.589-.469 0-.854-.132-1.156-.396a1.293 1.293 0 01-.448-1.01c0-.495.188-.879.563-1.152.377-.275.908-.413 1.59-.413h.791v-.373c0-.285-.085-.51-.255-.677-.169-.17-.42-.255-.751-.255-.29 0-.533.073-.73.22-.196.146-.294.323-.294.531h-.817c0-.237.083-.465.25-.685.17-.223.399-.399.686-.527a2.32 2.32 0 01.953-.194c.548 0 .977.138 1.288.413.31.273.472.649.483 1.13v2.188c0 .437.056.784.167 1.042v.07h-.852zm-1.349-.62c.255 0 .496-.066.725-.197.228-.132.394-.304.496-.515v-.975h-.637c-.996 0-1.494.291-1.494.874 0 .255.085.454.255.598.17.144.388.215.655.215zm3.115-1.797c0-.741.172-1.33.515-1.767.342-.439.796-.659 1.362-.659.58 0 1.033.205 1.358.615l.039-.527h.743v4.641c0 .615-.183 1.1-.549 1.454-.364.355-.853.532-1.468.532-.343 0-.678-.073-1.006-.22a1.725 1.725 0 01-.752-.602l.422-.488c.349.431.775.646 1.279.646.395 0 .703-.111.923-.333.222-.223.334-.537.334-.941v-.409c-.326.375-.769.563-1.332.563-.557 0-1.008-.224-1.353-.672-.343-.449-.515-1.06-.515-1.833zm.818.092c0 .536.11.958.329 1.266.22.305.528.457.923.457.513 0 .889-.233 1.13-.699v-2.171c-.249-.454-.623-.681-1.121-.681-.396 0-.705.154-.927.462-.223.307-.334.763-.334 1.366zm7.365 2.325c-.047-.094-.085-.261-.114-.501-.378.393-.829.589-1.354.589-.469 0-.854-.132-1.156-.396a1.296 1.296 0 01-.448-1.01c0-.495.188-.879.563-1.152.378-.275.908-.413 1.591-.413h.791v-.373c0-.285-.085-.51-.255-.677-.17-.17-.421-.255-.752-.255-.29 0-.533.073-.729.22-.197.146-.295.323-.295.531h-.817c0-.237.083-.465.25-.685.17-.223.399-.399.686-.527.29-.129.608-.194.954-.194.547 0 .977.138 1.287.413.311.273.472.649.484 1.13v2.188c0 .437.055.784.167 1.042v.07h-.853zm-1.349-.62c.255 0 .496-.066.725-.197.228-.132.394-.304.497-.515v-.975h-.638c-.996 0-1.494.291-1.494.874 0 .255.085.454.255.598.17.144.388.215.655.215zm3.111-1.797c0-.729.173-1.315.519-1.758a1.637 1.637 0 011.358-.668c.556 0 .997.191 1.322.572v-2.479h.813V109h-.747l-.039-.51c-.325.399-.778.598-1.358.598-.551 0-1.001-.226-1.349-.677-.346-.451-.519-1.04-.519-1.766v-.062zm.813.092c0 .539.112.961.334 1.266.223.305.53.457.923.457.516 0 .892-.231 1.129-.694v-2.184c-.243-.449-.616-.673-1.12-.673-.399 0-.709.154-.932.462-.222.307-.334.763-.334 1.366zm7.401 2.325c-.047-.094-.085-.261-.115-.501-.378.393-.829.589-1.353.589-.469 0-.854-.132-1.156-.396a1.293 1.293 0 01-.448-1.01c0-.495.187-.879.562-1.152.378-.275.909-.413 1.591-.413h.791v-.373c0-.285-.085-.51-.255-.677-.17-.17-.42-.255-.751-.255-.29 0-.533.073-.73.22-.196.146-.294.323-.294.531h-.818c0-.237.084-.465.251-.685a1.72 1.72 0 01.686-.527c.29-.129.607-.194.953-.194.548 0 .977.138 1.288.413.31.273.471.649.483 1.13v2.188c0 .437.056.784.167 1.042v.07h-.852zm-1.35-.62c.255 0 .497-.066.726-.197.228-.132.394-.304.496-.515v-.975h-.637c-.996 0-1.494.291-1.494.874 0 .255.085.454.255.598.17.144.388.215.654.215z" fill="#27AE60"/>
    <rect x="239.25" y="318.25" width="87.5" height="22.5" rx="1.75" fill="#fff" stroke="#BDBDBD" stroke-width=".5"/>
    <path d="M271.279 329.97c-.079.676-.33 1.199-.752 1.569-.419.366-.977.549-1.674.549-.756 0-1.362-.271-1.819-.813-.454-.542-.681-1.267-.681-2.175v-.616c0-.594.105-1.117.316-1.568.214-.452.516-.797.905-1.038.39-.243.841-.364 1.354-.364.679 0 1.224.19 1.634.571.411.378.649.902.717 1.573h-.848c-.074-.51-.233-.879-.479-1.107-.244-.229-.585-.343-1.024-.343-.539 0-.963.199-1.27.598-.305.398-.457.965-.457 1.7v.62c0 .694.145 1.247.435 1.657.29.41.696.615 1.217.615.469 0 .828-.106 1.077-.316.252-.214.419-.585.501-1.112h.848zm3.964 2.03c-.047-.094-.085-.261-.115-.501-.378.393-.829.589-1.353.589-.469 0-.854-.132-1.156-.396a1.293 1.293 0 01-.448-1.01c0-.495.187-.879.562-1.152.378-.275.909-.413 1.591-.413h.791v-.373c0-.285-.085-.51-.255-.677-.17-.17-.42-.255-.751-.255-.29 0-.533.073-.73.22-.196.146-.294.323-.294.531h-.817c0-.237.083-.465.25-.685.17-.223.399-.399.686-.527a2.32 2.32 0 01.953-.194c.548 0 .977.138 1.288.413.31.273.472.649.483 1.13v2.188c0 .437.056.784.167 1.042v.07h-.852zm-1.349-.62c.254 0 .496-.066.725-.197.228-.132.394-.304.496-.515v-.975h-.637c-.996 0-1.494.291-1.494.874 0 .255.085.454.255.598.17.144.388.215.655.215zm4.078-4.135l.026.598a1.733 1.733 0 011.424-.686c1.005 0 1.512.567 1.52 1.701V332h-.813v-3.146c-.003-.343-.082-.597-.237-.761-.152-.164-.391-.246-.716-.246-.264 0-.495.07-.695.211a1.43 1.43 0 00-.465.554V332h-.813v-4.755h.769zm6.104 4.179c.29 0 .543-.088.76-.263a.926.926 0 00.36-.66h.769a1.466 1.466 0 01-.281.778 1.845 1.845 0 01-.694.589c-.287.147-.592.22-.914.22-.648 0-1.163-.215-1.547-.646-.381-.434-.571-1.025-.571-1.775v-.137c0-.463.084-.874.254-1.235.17-.36.413-.64.73-.839.319-.199.696-.299 1.129-.299.533 0 .976.16 1.327.479.355.32.544.734.567 1.244h-.769a1.104 1.104 0 00-.351-.756 1.077 1.077 0 00-.774-.299c-.413 0-.734.15-.962.448-.226.296-.338.726-.338 1.288v.154c0 .548.112.97.338 1.265.225.296.548.444.967.444zm4.777.664c-.645 0-1.169-.211-1.574-.633-.404-.425-.606-.992-.606-1.701v-.149c0-.472.089-.892.268-1.261.182-.372.434-.662.756-.87a1.901 1.901 0 011.054-.317c.619 0 1.099.204 1.442.611.343.407.514.99.514 1.749v.338h-3.221c.012.469.148.849.409 1.139.263.287.597.43 1.001.43.288 0 .531-.058.73-.175.199-.118.374-.273.523-.466l.497.386c-.399.613-.997.919-1.793.919zm-.102-4.263c-.328 0-.603.12-.826.361-.222.237-.36.571-.413 1.002h2.382v-.062c-.023-.413-.135-.732-.334-.958-.199-.229-.469-.343-.809-.343zm3.784 4.175h-.813v-6.75h.813V332zm4.241 0c-.047-.094-.085-.261-.114-.501-.378.393-.829.589-1.354.589-.469 0-.854-.132-1.156-.396a1.296 1.296 0 01-.448-1.01c0-.495.188-.879.563-1.152.378-.275.908-.413 1.59-.413h.791v-.373c0-.285-.085-.51-.254-.677-.17-.17-.421-.255-.752-.255-.29 0-.533.073-.729.22-.197.146-.295.323-.295.531h-.817c0-.237.083-.465.25-.685.17-.223.399-.399.686-.527a2.32 2.32 0 01.953-.194c.548 0 .977.138 1.288.413.311.273.472.649.483 1.13v2.188c0 .437.056.784.167 1.042v.07h-.852zm-1.349-.62c.255 0 .496-.066.725-.197.228-.132.394-.304.496-.515v-.975h-.637c-.996 0-1.494.291-1.494.874 0 .255.085.454.255.598.17.144.388.215.655.215zm5.607-3.405a2.38 2.38 0 00-.4-.031c-.533 0-.895.227-1.085.681V332h-.813v-4.755h.791l.013.549c.267-.424.645-.637 1.134-.637.158 0 .278.021.36.062v.756z" fill="#000"/>
    <path d="M412.916 104h-.789a.172.172 0 00-.136.064L409 107.889l-2.99-3.825a.174.174 0 00-.136-.064h-.79c-.068 0-.108.072-.068.124l3.712 4.747c.134.172.41.172.544 0l3.711-4.747c.041-.052.001-.124-.067-.124z" fill="#BDBDBD"/>
    <rect x="336.25" y="318.25" width="87.5" height="22.5" rx="1.75" fill="#007D9E" stroke="#007D9E" stroke-width=".5"/>
    <path d="M367.896 329.042h-2.772v2.268h3.221v.69h-4.065v-6.398h4.021v.694h-3.177v2.057h2.772v.689zm2.967-.061l1.054-1.736h.95l-1.556 2.351 1.604 2.404h-.94l-1.099-1.78-1.099 1.78h-.944l1.604-2.404-1.556-2.351h.94l1.042 1.736zm6.886.694c0 .724-.166 1.307-.497 1.749-.331.443-.779.664-1.344.664-.577 0-1.032-.183-1.363-.549v2.289h-.813v-6.583h.743l.04.527c.331-.41.791-.615 1.38-.615.571 0 1.022.216 1.353.646.334.431.501 1.03.501 1.798v.074zm-.813-.092c0-.536-.114-.959-.343-1.27-.228-.311-.542-.466-.94-.466-.492 0-.861.218-1.108.655v2.272c.244.434.616.65 1.117.65.389 0 .698-.153.927-.461.231-.311.347-.771.347-1.38zm1.635-.004c0-.466.091-.885.272-1.257.185-.372.44-.659.765-.862a2.095 2.095 0 011.121-.303c.647 0 1.17.224 1.568.673.402.448.602 1.044.602 1.788v.057c0 .463-.089.879-.268 1.248a1.992 1.992 0 01-.76.857 2.095 2.095 0 01-1.134.308c-.644 0-1.167-.224-1.569-.672-.398-.449-.597-1.042-.597-1.78v-.057zm.817.096c0 .528.122.951.365 1.27.246.32.574.479.984.479.413 0 .742-.161.985-.483.243-.325.364-.779.364-1.362 0-.522-.124-.944-.373-1.266a1.173 1.173 0 00-.984-.488c-.402 0-.726.16-.972.479-.246.32-.369.777-.369 1.371zm6.829-1.7a2.38 2.38 0 00-.4-.031c-.533 0-.895.227-1.085.681V332h-.813v-4.755h.791l.013.549c.267-.424.645-.637 1.134-.637.158 0 .278.021.36.062v.756zm2.075-1.881v1.151h.887v.629h-.887v2.948c0 .191.039.334.118.431.079.094.214.141.404.141.094 0 .223-.018.387-.053V332a2.342 2.342 0 01-.624.088c-.363 0-.637-.11-.822-.33-.184-.219-.276-.531-.276-.936v-2.948h-.866v-.629h.866v-1.151h.813zm4.776 5.906c-.047-.094-.085-.261-.114-.501-.378.393-.829.589-1.353.589-.469 0-.854-.132-1.156-.396a1.293 1.293 0 01-.448-1.01c0-.495.187-.879.562-1.152.378-.275.908-.413 1.591-.413h.791v-.373c0-.285-.085-.51-.255-.677-.17-.17-.42-.255-.751-.255-.29 0-.534.073-.73.22-.196.146-.294.323-.294.531h-.818c0-.237.084-.465.251-.685.17-.223.398-.399.685-.527.29-.129.608-.194.954-.194.548 0 .977.138 1.288.413.31.273.471.649.483 1.13v2.188c0 .437.056.784.167 1.042v.07h-.853zm-1.349-.62c.255 0 .497-.066.725-.197a1.2 1.2 0 00.497-.515v-.975h-.637c-.996 0-1.494.291-1.494.874 0 .255.085.454.254.598.17.144.389.215.655.215zm5.608-3.405a2.388 2.388 0 00-.4-.031c-.533 0-.895.227-1.086.681V332h-.813v-4.755h.791l.014.549c.266-.424.644-.637 1.133-.637a.83.83 0 01.361.062v.756z" fill="#fff"/>
    <path stroke="#BDBDBD" stroke-width=".5" d="M159 306.25h264.002"/>
    <circle cx="173.5" cy="161.5" r="4.25" stroke="#BDBDBD" stroke-width=".5"/>
    <circle cx="173.5" cy="207.5" r="4.25" stroke="#BDBDBD" stroke-width=".5"/>
    <circle cx="173.5" cy="230.5" r="4.25" stroke="#BDBDBD" stroke-width=".5"/>
    <circle cx="173.5" cy="253.5" r="4.25" stroke="#BDBDBD" stroke-width=".5"/>
    <circle cx="173.5" cy="184.5" r="4.25" stroke="#007D9E" stroke-width=".5"/>
    <circle cx="173.5" cy="184.5" r="2" fill="#007D9E"/>
    <rect x="184.25" y="263.25" width="187.5" height="22.5" rx="1.75" fill="#F2F2F2" stroke="#BDBDBD" stroke-width=".5"/>
    <path d="M191.743 277v-6.398h1.806c.556 0 1.049.123 1.476.369.428.246.758.596.989 1.05.235.454.353.976.356 1.564v.409c0 .604-.117 1.132-.351 1.587a2.44 2.44 0 01-.998 1.045c-.431.244-.933.368-1.507.374h-1.771zm.843-5.704v5.014h.888c.651 0 1.156-.202 1.516-.606.364-.405.545-.98.545-1.727v-.374c0-.727-.171-1.291-.514-1.692-.34-.404-.823-.609-1.45-.615h-.985zm6.909 5.792c-.645 0-1.169-.211-1.574-.633-.404-.425-.606-.992-.606-1.701v-.149c0-.472.089-.892.268-1.261.182-.372.434-.662.756-.87a1.902 1.902 0 011.055-.317c.618 0 1.098.204 1.441.611.343.407.514.99.514 1.749v.338h-3.221c.012.469.148.849.409 1.139a1.3 1.3 0 001.002.43c.287 0 .53-.058.729-.175.199-.118.374-.273.523-.466l.497.386c-.399.613-.996.919-1.793.919zm-.101-4.263c-.329 0-.604.12-.827.361-.222.237-.36.571-.413 1.002h2.382v-.062c-.023-.413-.135-.732-.334-.958-.199-.229-.469-.343-.808-.343zm5.668 2.914a.59.59 0 00-.25-.51c-.164-.123-.453-.229-.866-.316-.41-.088-.737-.194-.98-.317a1.415 1.415 0 01-.536-.439 1.063 1.063 0 01-.171-.607c0-.389.164-.719.492-.988.331-.27.753-.405 1.266-.405.539 0 .975.139 1.309.418.337.278.506.634.506 1.068h-.818a.732.732 0 00-.285-.576 1.056 1.056 0 00-.712-.242c-.296 0-.528.065-.695.194a.606.606 0 00-.25.505c0 .196.077.344.233.444.155.099.435.195.839.285.407.091.737.2.989.326s.438.278.558.457c.123.175.184.391.184.646 0 .424-.169.766-.509 1.024-.34.254-.781.382-1.323.382-.381 0-.718-.067-1.011-.202a1.67 1.67 0 01-.69-.563 1.378 1.378 0 01-.246-.786h.813a.852.852 0 00.325.65c.205.158.475.237.809.237.308 0 .554-.061.738-.184a.577.577 0 00.281-.501zm1.675-1.156c0-.729.173-1.315.518-1.758a1.64 1.64 0 011.358-.668c.557 0 .998.191 1.323.572v-2.479h.813V277h-.747l-.04-.51c-.325.399-.777.598-1.358.598-.55 0-1-.226-1.349-.677-.345-.451-.518-1.04-.518-1.766v-.062zm.813.092c0 .539.111.961.334 1.266.222.305.53.457.923.457.515 0 .892-.231 1.129-.694v-2.184c-.243-.449-.617-.673-1.121-.673-.398 0-.709.154-.931.462-.223.307-.334.763-.334 1.366zm6.438 2.413c-.645 0-1.169-.211-1.573-.633-.405-.425-.607-.992-.607-1.701v-.149c0-.472.089-.892.268-1.261.182-.372.434-.662.756-.87a1.902 1.902 0 011.055-.317c.618 0 1.098.204 1.441.611.343.407.514.99.514 1.749v.338h-3.221c.012.469.148.849.409 1.139a1.3 1.3 0 001.002.43c.287 0 .53-.058.729-.175.199-.118.374-.273.523-.466l.497.386c-.399.613-.996.919-1.793.919zm-.101-4.263c-.328 0-.604.12-.826.361-.223.237-.361.571-.414 1.002h2.382v-.062c-.023-.413-.134-.732-.334-.958-.199-.229-.468-.343-.808-.343zM288.66 277h-.848v-2.958h-3.226V277h-.843v-6.398h.843v2.751h3.226v-2.751h.848V277zm4.307 0c-.047-.094-.085-.261-.114-.501-.378.393-.83.589-1.354.589-.469 0-.854-.132-1.156-.396a1.293 1.293 0 01-.448-1.01c0-.495.188-.879.563-1.152.377-.275.908-.413 1.59-.413h.791v-.373c0-.285-.085-.51-.255-.677-.169-.17-.42-.255-.751-.255-.29 0-.533.073-.729.22-.197.146-.295.323-.295.531h-.817c0-.237.083-.465.25-.685.17-.223.399-.399.686-.527a2.32 2.32 0 01.953-.194c.548 0 .977.138 1.288.413.31.273.472.649.483 1.13v2.188c0 .437.056.784.167 1.042v.07h-.852zm-1.349-.62c.255 0 .496-.066.725-.197.228-.132.394-.304.496-.515v-.975h-.637c-.996 0-1.494.291-1.494.874 0 .255.085.454.255.598.17.144.388.215.655.215zm6.077-.641a.59.59 0 00-.25-.51c-.164-.123-.453-.229-.866-.316-.41-.088-.737-.194-.98-.317a1.415 1.415 0 01-.536-.439 1.063 1.063 0 01-.171-.607c0-.389.164-.719.492-.988.331-.27.753-.405 1.265-.405.539 0 .976.139 1.31.418.337.278.505.634.505 1.068h-.817c0-.223-.095-.415-.286-.576-.187-.161-.424-.242-.712-.242-.295 0-.527.065-.694.194a.606.606 0 00-.25.505c0 .196.077.344.233.444.155.099.435.195.839.285.407.091.737.2.989.326s.438.278.558.457c.123.175.184.391.184.646 0 .424-.17.766-.509 1.024-.34.254-.781.382-1.323.382-.381 0-.718-.067-1.011-.202a1.67 1.67 0 01-.69-.563 1.378 1.378 0 01-.246-.786h.813a.852.852 0 00.325.65c.205.158.475.237.809.237.307 0 .553-.061.738-.184a.577.577 0 00.281-.501zm2.975-4.645v1.151h.888v.629h-.888v2.948c0 .191.04.334.119.431.079.094.214.141.404.141.094 0 .223-.018.387-.053V277a2.342 2.342 0 01-.624.088c-.363 0-.637-.11-.822-.33-.184-.219-.277-.531-.277-.936v-2.948h-.865v-.629h.865v-1.151h.813zm4.777 5.906c-.047-.094-.085-.261-.114-.501-.378.393-.829.589-1.354.589-.468 0-.854-.132-1.155-.396a1.294 1.294 0 01-.449-1.01c0-.495.188-.879.563-1.152.378-.275.908-.413 1.591-.413h.791v-.373c0-.285-.085-.51-.255-.677-.17-.17-.42-.255-.752-.255-.29 0-.533.073-.729.22-.196.146-.294.323-.294.531h-.818c0-.237.084-.465.251-.685.17-.223.398-.399.685-.527.29-.129.608-.194.954-.194.548 0 .977.138 1.287.413.311.273.472.649.484 1.13v2.188c0 .437.055.784.167 1.042v.07h-.853zm-1.349-.62c.255 0 .497-.066.725-.197a1.2 1.2 0 00.497-.515v-.975h-.637c-.996 0-1.495.291-1.495.874 0 .255.085.454.255.598.17.144.389.215.655.215z" fill="#828282"/>
    <path d="M365.279 271.072h-1.5v-.571a.071.071 0 00-.071-.071h-.5a.071.071 0 00-.072.071v.571h-2.286v-.571a.071.071 0 00-.071-.071h-.5a.071.071 0 00-.071.071v.571h-1.5a.286.286 0 00-.286.286v5.929c0 .158.128.285.286.285h6.571a.285.285 0 00.286-.285v-5.929a.286.286 0 00-.286-.286zm-.357 5.858h-5.857v-3.393h5.857v3.393zm-5.857-4v-1.215h1.143v.429c0 .039.032.071.071.071h.5a.071.071 0 00.071-.071v-.429h2.286v.429c0 .039.032.071.072.071h.5a.071.071 0 00.071-.071v-.429h1.143v1.215h-5.857zm-82.833 2.057l-1.922-2.438a.383.383 0 00-.294-.143h-.76a.095.095 0 00-.074.153l1.691 2.144h-7.092a.094.094 0 00-.093.094v.703c0 .052.042.094.093.094h8.155a.375.375 0 00.296-.607z" fill="#BDBDBD"/>
    <path d="M419.939 46.366l3.516-4.19a.107.107 0 00-.082-.176h-1.068a.218.218 0 00-.165.076l-2.9 3.457-2.899-3.457a.215.215 0 00-.165-.076h-1.069a.106.106 0 00-.081.175l3.515 4.191-3.515 4.19a.103.103 0 00-.025.055.105.105 0 00.049.104.098.098 0 00.057.017h1.069a.22.22 0 00.165-.076l2.899-3.457 2.9 3.457c.04.048.1.076.165.076h1.068a.107.107 0 00.082-.175l-3.516-4.19z" fill="#828282"/>
  </g>
  <defs>
    <clipPath id="clip0_2182:4710">
      <path fill="#fff" d="M0 0h584v382H0z"/>
    </clipPath>
  </defs>
</svg>
