<svg fill="none" xmlns="http://www.w3.org/2000/svg" viewBox="0 0 130 130">
  <style>
    @keyframes easeIn{0%{transform:translateY(-20%)}50%{transform:translateY(0)}}
  </style>
  <g id="files" clip-path="url(#clip0_2204:6567)">
    <g id="files_2">
      <path id="Vector" d="M12.16 40.147a.738.738 0 00-.516.21.709.709 0 00-.214.504v73.928c0 .19.077.372.214.506a.742.742 0 00.515.21h94.601a.742.742 0 00.516-.21.712.712 0 00.214-.506v-62.06a.711.711 0 00-.214-.506.738.738 0 00-.516-.21H52.465c-.55 0-1.082-.2-1.49-.564L38.77 40.582a1.728 1.728 0 00-1.151-.435h-25.46z" fill="#3F3D56"/>
      <g style="animation:easeIn 3s infinite">
        <path id="Vector_2" d="M55.85 30.593a.527.527 0 00-.707.18l-28.015 46.71a.498.498 0 00.183.694l38.406 22.113a.525.525 0 00.707-.18L94.44 53.4a.499.499 0 00-.183-.694L55.85 30.593z" fill="#E6E6E6"/>
        <path id="Vector_3" d="M56.438 32.81a.526.526 0 00-.707.18L29.39 76.908a.498.498 0 00.184.693l35.554 20.472a.527.527 0 00.707-.18l26.34-43.916a.498.498 0 00-.184-.694L56.438 32.811z" fill="#fff"/>
        <path id="Vector_4" d="M49.72 54.506L75.918 69.59a.786.786 0 001.061-.27.75.75 0 00-.275-1.04L50.506 53.197a.786.786 0 00-1.062.27.748.748 0 00.276 1.04z" fill="#E6E6E6"/>
        <path id="Vector_5" d="M56.813 42.176l17.38 10.008c.245.14.62-.038.836-.4.217-.361.195-.769-.05-.91l-17.38-10.007c-.246-.142-.62.037-.837.4-.217.36-.194.768.05.91z" fill="#E6E6E6"/>
        <path id="Vector_6" d="M54.56 45.93l17.381 10.008c.245.14.62-.038.836-.4.217-.362.195-.77-.05-.91L55.347 44.62c-.245-.14-.62.038-.837.4-.217.362-.194.77.05.91z" fill="#E6E6E6"/>
        <path id="Vector_7" d="M47.18 58.741l26.198 15.085c.178.101.389.13.588.08a.774.774 0 00.473-.35.746.746 0 00.082-.576.761.761 0 00-.357-.464L47.966 57.43a.79.79 0 00-.587-.08.774.774 0 00-.473.35.746.746 0 00-.082.576c.051.195.18.362.357.464z" fill="#E6E6E6"/>
        <path id="Vector_8" d="M44.64 62.976L70.838 78.06c.177.102.389.13.587.08a.773.773 0 00.474-.35.746.746 0 00.082-.576.762.762 0 00-.357-.463L45.426 61.666a.787.787 0 00-1.061.27.75.75 0 00.275 1.04z" fill="#E6E6E6"/>
        <path id="Vector_9" d="M42.101 67.21L68.3 82.293a.79.79 0 00.587.08.773.773 0 00.473-.351.746.746 0 00.082-.575.76.76 0 00-.357-.464L42.887 65.9a.786.786 0 00-1.061.27.748.748 0 00.275 1.04z" fill="#E6E6E6"/>
        <path id="Vector_10" d="M39.561 71.446L65.76 86.53a.787.787 0 001.06-.27.75.75 0 00-.275-1.04L40.347 70.136a.79.79 0 00-.588-.08.774.774 0 00-.473.35.746.746 0 00-.082.576c.051.195.18.362.357.464z" fill="#E6E6E6"/>
        <path id="Vector_11" d="M37.021 75.679L63.22 90.763a.79.79 0 00.587.08.774.774 0 00.474-.35.746.746 0 00.082-.575.762.762 0 00-.358-.464L37.807 74.369a.787.787 0 00-1.062.27.75.75 0 00.276 1.04z" fill="#E6E6E6"/>
      </g>
      <path id="Vector_12" d="M79.624 61.013c2.255 0 4.083-1.791 4.083-4 0-2.21-1.828-4-4.082-4-2.255 0-4.083 1.79-4.083 4 0 2.209 1.828 4 4.082 4z" fill="#E6E6E6"/>
      <g style="animation:easeIn 3s infinite">
        <path id="Vector_13" d="M25.128 43.011a.526.526 0 00-.39.07.507.507 0 00-.223.32L13.01 96.394a.499.499 0 00.072.381.518.518 0 00.326.22l43.572 9.08a.526.526 0 00.388-.071.507.507 0 00.224-.319l11.504-52.993a.498.498 0 00-.072-.381.518.518 0 00-.326-.22l-43.571-9.08z" fill="#E6E6E6"/>
        <path id="Vector_14" d="M26.4 44.935a.526.526 0 00-.388.07.507.507 0 00-.224.32L14.972 95.148a.499.499 0 00.072.381.518.518 0 00.326.22l40.337 8.406a.526.526 0 00.388-.071.507.507 0 00.224-.319l10.816-49.824a.499.499 0 00-.072-.38.518.518 0 00-.326-.22L26.4 44.935z" fill="#fff"/>
        <path id="Vector_15" d="M56.75 73.79l-29.72-6.195a.784.784 0 01-.49-.329.752.752 0 01.228-1.051.784.784 0 01.584-.105l29.721 6.194a.783.783 0 01.49.329.75.75 0 01-.228 1.051.783.783 0 01-.584.105z" fill="#E6E6E6"/>
        <path id="Vector_16" d="M60.011 60l-19.718-4.108c-.278-.058-.43-.438-.342-.848.09-.41.387-.696.664-.638l19.719 4.11c.277.057.43.437.341.847-.089.41-.386.696-.664.638z" fill="#E6E6E6"/>
        <path id="Vector_17" d="M59.086 64.26l-19.718-4.11c-.278-.057-.43-.437-.342-.847.09-.41.387-.696.665-.638l19.718 4.109c.278.058.43.437.342.848-.09.41-.387.696-.665.638z" fill="#E6E6E6"/>
        <path id="Vector_18" d="M55.708 78.594L25.987 72.4a.775.775 0 01-.488-.33.747.747 0 01.228-1.05.789.789 0 01.582-.106l29.722 6.194a.783.783 0 01.489.329.75.75 0 01-.229 1.05.783.783 0 01-.583.107z" fill="#E6E6E6"/>
        <path id="Vector_19" d="M54.665 83.398l-29.721-6.194a.775.775 0 01-.488-.33.747.747 0 01.227-1.049.789.789 0 01.583-.106l29.722 6.193a.783.783 0 01.489.33.753.753 0 01.108.571.751.751 0 01-.336.48.786.786 0 01-.584.105z" fill="#E6E6E6"/>
        <path id="Vector_20" d="M53.622 88.202L23.9 82.01a.784.784 0 01-.49-.33.752.752 0 01.229-1.051.783.783 0 01.584-.105l29.721 6.194c.201.042.377.16.488.33a.747.747 0 01-.227 1.049.789.789 0 01-.583.106z" fill="#E6E6E6"/>
        <path id="Vector_21" d="M52.579 93.007l-29.722-6.194a.782.782 0 01-.49-.329.75.75 0 01.229-1.051.784.784 0 01.584-.106l29.721 6.194a.782.782 0 01.49.33.75.75 0 01-.228 1.05.784.784 0 01-.584.106z" fill="#E6E6E6"/>
        <path id="Vector_22" d="M51.536 97.81l-29.721-6.194a.775.775 0 01-.488-.33.747.747 0 01.228-1.049.789.789 0 01.582-.106l29.722 6.194a.785.785 0 01.49.328.752.752 0 01-.011.845.769.769 0 01-.499.317.793.793 0 01-.303-.005z" fill="#E6E6E6"/>
        <path id="Vector_23" d="M32.958 59.864c2.254 0 4.082-1.791 4.082-4 0-2.21-1.828-4-4.082-4-2.255 0-4.083 1.79-4.083 4 0 2.209 1.828 4 4.083 4z" fill="#E6E6E6"/>
      </g>
      <g style="animation:easeIn 3s infinite">
        <path id="Vector_24" d="M87.405 24.078a.526.526 0 00-.713.157L57.08 69.99a.499.499 0 00.16.699l37.62 23.374a.526.526 0 00.713-.157l29.612-45.755a.499.499 0 00-.16-.699L87.405 24.08z" fill="#007D9D"/>
        <path id="Vector_25" d="M87.916 26.315a.526.526 0 00-.713.156L59.363 69.49a.498.498 0 00.16.698l34.826 21.639a.526.526 0 00.713-.157l27.841-43.018a.504.504 0 00-.16-.699L87.916 26.315z" fill="#fff"/>
        <path id="Vector_26" d="M106.115 63.719L80.453 47.775a.769.769 0 01-.341-.475.745.745 0 01.102-.573.77.77 0 01.485-.335.791.791 0 01.584.1l25.662 15.944a.76.76 0 01.349.772.77.77 0 01-.318.49.783.783 0 01-.861.021z" fill="#007D9D"/>
        <path id="Vector_27" d="M114.07 51.904L97.045 41.326c-.24-.15-.248-.557-.019-.912.23-.354.61-.52.85-.371L114.9 50.62c.24.149.249.557.02.911-.23.354-.61.52-.85.372z" fill="#007D9D"/>
        <path id="Vector_28" d="M111.69 55.581L94.665 45.003c-.24-.148-.248-.556-.019-.91.23-.355.61-.521.85-.372l17.025 10.577c.239.15.248.557.019.912-.23.354-.61.52-.85.371z" fill="#007D9D"/>
        <path id="Vector_29" d="M103.431 67.866L77.769 51.922a.747.747 0 01-.239-1.048.788.788 0 011.069-.235l25.662 15.944a.757.757 0 01.348.772.761.761 0 01-.594.61.789.789 0 01-.584-.099z" fill="#007D9D"/>
        <path id="Vector_30" d="M100.746 72.013L75.084 56.07a.746.746 0 01-.239-1.048.789.789 0 011.069-.235l25.662 15.945a.757.757 0 01.35.772.77.77 0 01-.318.49.79.79 0 01-.862.02z" fill="#007D9D"/>
        <path id="Vector_31" d="M98.062 76.162L72.4 60.218a.768.768 0 01-.342-.476.744.744 0 01.102-.573.768.768 0 01.486-.334.792.792 0 01.585.1l25.661 15.944a.747.747 0 01.239 1.048.789.789 0 01-1.069.235z" fill="#007D9D"/>
        <path id="Vector_32" d="M95.378 80.309L69.716 64.365a.747.747 0 01-.24-1.048.789.789 0 011.07-.235l25.662 15.944a.746.746 0 01.239 1.048.788.788 0 01-1.069.235z" fill="#007D9D"/>
        <path id="Vector_33" d="M90.178 42.797c2.255 0 4.083-1.79 4.083-4s-1.828-4-4.082-4c-2.255 0-4.083 1.79-4.083 4s1.828 4 4.082 4z" fill="#007D9D"/>
      </g>
      <g id="folder">
        <path id="Vector_34" d="M5.73 74a.743.743 0 00-.544.239.712.712 0 00-.181.556L11.33 129.8c.02.175.105.336.239.453a.74.74 0 00.486.182h94.81a.735.735 0 00.486-.182.708.708 0 00.239-.453l6.325-55.005a.696.696 0 00-.181-.556.72.72 0 00-.544-.239H5.73z" fill="#E6E6E6"/>
        <path id="Vector_35" d="M14.355 83.238l30.386-.161a.783.783 0 00.545-.226.752.752 0 00-.005-1.073.784.784 0 00-.549-.22l-30.386.16a.783.783 0 00-.547.226.752.752 0 00.006 1.074.783.783 0 00.55.22z" fill="#fff"/>
        <path id="Vector_36" d="M14.355 87.935l18.023-.161a.784.784 0 00.546-.226.752.752 0 00-.006-1.073.784.784 0 00-.549-.22l-18.023.161a.783.783 0 00-.547.225.752.752 0 00.006 1.075c.146.141.344.22.55.22z" fill="#fff"/>
      </g>
    </g>
  </g>
  <defs>
    <clipPath id="clip0_2204:6567">
      <path fill="#fff" d="M0 0h130v130H0z"/>
    </clipPath>
  </defs>
</svg>
