<svg fill="none" xmlns="http://www.w3.org/2000/svg" viewBox="0 0 795 458">
  <rect x="86" width="311.691" height="458" rx="16" fill="#F2F2F2"/>
  <path fill="#BDBDBD" d="M213.244 18.103h57.202v7.241h-57.202z"/>
  <path d="M108.443 25.953c.234-.234.211-.586 0-.82l-2.836-2.695h6.75a.555.555 0 00.563-.563v-.75a.57.57 0 00-.563-.563h-6.75l2.836-2.671c.211-.235.234-.586 0-.82l-.516-.516a.581.581 0 00-.797 0l-4.546 4.57a.512.512 0 000 .773l4.546 4.57c.211.212.563.212.797 0l.516-.515z" fill="#828282"/>
  <rect x="98.256" y="45.257" width="288.343" height="27.154" rx="8" fill="#E0E0E0"/>
  <rect x="98.256" y="81.462" width="288.343" height="363.866" rx="8" fill="#fff"/>
  <path d="M120.32 115.151h-2.47l-6.338-10.087v10.087h-2.471v-14.218h2.471l6.357 10.127v-10.127h2.451v14.218zm9.092-1.035c-.697.821-1.686 1.231-2.969 1.231-1.145 0-2.015-.335-2.607-1.006-.586-.671-.879-1.641-.879-2.91v-6.846h2.373v6.816c0 1.342.557 2.012 1.67 2.012 1.152 0 1.93-.413 2.334-1.24v-7.588h2.373v10.566h-2.236l-.059-1.035zm9.365 1.231c-1.504 0-2.724-.472-3.662-1.416-.931-.951-1.396-2.214-1.396-3.789v-.293c0-1.055.202-1.996.605-2.823.41-.833.983-1.481 1.719-1.943a4.534 4.534 0 012.461-.693c1.439 0 2.549.459 3.33 1.377.788.918 1.182 2.217 1.182 3.896v.957h-6.905c.072.873.362 1.563.869 2.071.515.507 1.159.761 1.934.761 1.087 0 1.973-.439 2.656-1.318l1.28 1.221a4.305 4.305 0 01-1.7 1.474c-.703.345-1.494.518-2.373.518zm-.283-9.053c-.651 0-1.178.228-1.582.684-.397.455-.651 1.09-.762 1.904h4.522v-.176c-.052-.794-.264-1.393-.635-1.797-.371-.41-.885-.615-1.543-.615zm9.961 5.85l2.236-7.559h2.452l-3.663 10.566h-2.06l-3.691-10.566h2.46l2.266 7.559zm12.334 3.007c-.104-.201-.195-.53-.273-.986-.756.788-1.68 1.182-2.774 1.182-1.061 0-1.927-.303-2.597-.908-.671-.606-1.006-1.355-1.006-2.246 0-1.127.416-1.989 1.25-2.588.84-.606 2.037-.909 3.593-.909h1.456v-.693c0-.547-.153-.983-.459-1.309-.306-.332-.772-.498-1.397-.498-.54 0-.983.137-1.328.411-.345.266-.518.608-.518 1.025h-2.373c0-.579.192-1.12.576-1.621.385-.508.905-.905 1.563-1.192.664-.286 1.403-.429 2.217-.429 1.237 0 2.223.312 2.959.937.735.619 1.113 1.491 1.133 2.617v4.766c0 .951.133 1.709.4 2.275v.166h-2.422zm-2.607-1.708c.468 0 .908-.114 1.318-.342.417-.228.729-.534.938-.918v-1.992h-1.28c-.879 0-1.54.153-1.982.459-.443.306-.664.738-.664 1.298 0 .456.149.821.449 1.094.306.267.713.401 1.221.401zm16.435.009c.593 0 1.084-.172 1.475-.517.39-.345.599-.772.625-1.28h2.236a3.511 3.511 0 01-.615 1.846 4.044 4.044 0 01-1.563 1.348 4.655 4.655 0 01-2.129.498c-1.477 0-2.649-.479-3.515-1.436-.866-.957-1.299-2.278-1.299-3.965v-.244c0-1.608.43-2.894 1.289-3.857.859-.97 2.031-1.455 3.516-1.455 1.256 0 2.278.368 3.066 1.103.794.729 1.211 1.69 1.25 2.881h-2.236c-.026-.605-.235-1.103-.625-1.494-.384-.391-.876-.586-1.475-.586-.768 0-1.36.28-1.777.84-.417.553-.628 1.396-.635 2.529v.381c0 1.146.205 2.002.615 2.568.417.56 1.016.84 1.797.84zm8.653 1.699h-2.374v-10.566h2.374v10.566zm-2.52-13.31c0-.365.114-.667.342-.908.234-.241.566-.362.996-.362.43 0 .762.121.996.362.234.241.352.543.352.908 0 .358-.118.657-.352.898-.234.235-.566.352-.996.352-.43 0-.762-.117-.996-.352a1.256 1.256 0 01-.342-.898zm8.086.176v2.568h1.865v1.758h-1.865v5.898c0 .404.078.697.234.879.163.176.45.264.86.264.273 0 .55-.033.83-.098v1.836a5.838 5.838 0 01-1.563.225c-1.823 0-2.734-1.006-2.734-3.018v-5.986h-1.738v-1.758h1.738v-2.568h2.373zm10 13.134c-.104-.201-.195-.53-.274-.986-.755.788-1.679 1.182-2.773 1.182-1.061 0-1.927-.303-2.598-.908-.67-.606-1.005-1.355-1.005-2.246 0-1.127.416-1.989 1.25-2.588.839-.606 2.037-.909 3.593-.909h1.455v-.693c0-.547-.153-.983-.459-1.309-.306-.332-.771-.498-1.396-.498-.54 0-.983.137-1.328.411-.345.266-.518.608-.518 1.025h-2.373c0-.579.192-1.12.576-1.621.384-.508.905-.905 1.563-1.192.664-.286 1.403-.429 2.217-.429 1.237 0 2.223.312 2.959.937.735.619 1.113 1.491 1.132 2.617v4.766c0 .951.134 1.709.401 2.275v.166h-2.422zm-2.607-1.708c.468 0 .908-.114 1.318-.342.417-.228.729-.534.937-.918v-1.992h-1.279c-.879 0-1.54.153-1.982.459-.443.306-.664.738-.664 1.298 0 .456.149.821.449 1.094.306.267.713.401 1.221.401zm16.748 1.904c-1.504 0-2.725-.472-3.663-1.416-.931-.951-1.396-2.214-1.396-3.789v-.293c0-1.055.202-1.996.605-2.823.411-.833.984-1.481 1.719-1.943a4.534 4.534 0 012.461-.693c1.439 0 2.549.459 3.33 1.377.788.918 1.182 2.217 1.182 3.896v.957h-6.904c.071.873.361 1.563.869 2.071.514.507 1.159.761 1.933.761 1.088 0 1.973-.439 2.657-1.318l1.279 1.221a4.302 4.302 0 01-1.699 1.474c-.704.345-1.495.518-2.373.518zm-.284-9.053c-.651 0-1.178.228-1.582.684-.397.455-.651 1.09-.761 1.904h4.521v-.176c-.052-.794-.264-1.393-.635-1.797-.371-.41-.885-.615-1.543-.615zm8.575-1.709l.068 1.221c.781-.944 1.807-1.416 3.076-1.416 2.201 0 3.32 1.26 3.359 3.779v6.982h-2.373v-6.845c0-.671-.146-1.166-.439-1.485-.286-.325-.758-.488-1.416-.488-.957 0-1.67.433-2.139 1.299v7.519h-2.373v-10.566h2.237zm24.99 5.938c-.143 1.517-.703 2.701-1.68 3.554-.976.847-2.275 1.27-3.896 1.27-1.133 0-2.133-.267-2.998-.801-.86-.54-1.524-1.305-1.993-2.295-.468-.989-.712-2.139-.732-3.447v-1.328c0-1.341.238-2.523.713-3.545.475-1.022 1.155-1.81 2.041-2.363.892-.554 1.92-.831 3.086-.831 1.569 0 2.832.427 3.789 1.28.957.853 1.514 2.057 1.67 3.613h-2.461c-.117-1.022-.417-1.758-.899-2.207-.475-.456-1.175-.684-2.099-.684-1.074 0-1.901.394-2.481 1.182-.573.781-.866 1.93-.879 3.447v1.26c0 1.537.274 2.708.821 3.516.553.807 1.36 1.211 2.422 1.211.97 0 1.699-.218 2.187-.655.488-.436.798-1.162.928-2.177h2.461zm4.512 4.628h-2.374v-15h2.374v15zm5.146 0h-2.373v-10.566h2.373v10.566zm-.449-14.931h2.705l-2.705 2.959h-1.905l1.905-2.959zm5.351 4.365l.069 1.221c.781-.944 1.806-1.416 3.076-1.416 2.2 0 3.32 1.26 3.359 3.779v6.982h-2.373v-6.845c0-.671-.146-1.166-.439-1.485-.287-.325-.759-.488-1.416-.488-.957 0-1.67.433-2.139 1.299v7.519h-2.373v-10.566h2.236zm11.455 10.566H269.9v-10.566h2.373v10.566zm-2.519-13.31c0-.365.114-.667.342-.908.234-.241.566-.362.996-.362.429 0 .762.121.996.362.234.241.351.543.351.908 0 .358-.117.657-.351.898-.234.235-.567.352-.996.352-.43 0-.762-.117-.996-.352a1.256 1.256 0 01-.342-.898zm9.453 11.611c.592 0 1.084-.172 1.475-.517.39-.345.599-.772.625-1.28h2.236a3.511 3.511 0 01-.615 1.846 4.044 4.044 0 01-1.563 1.348 4.655 4.655 0 01-2.129.498c-1.478 0-2.649-.479-3.515-1.436-.866-.957-1.299-2.278-1.299-3.965v-.244c0-1.608.43-2.894 1.289-3.857.859-.97 2.031-1.455 3.516-1.455 1.256 0 2.278.368 3.066 1.103.794.729 1.211 1.69 1.25 2.881h-2.236c-.026-.605-.235-1.103-.625-1.494-.384-.391-.876-.586-1.475-.586-.768 0-1.361.28-1.777.84-.417.553-.629 1.396-.635 2.529v.381c0 1.146.205 2.002.615 2.568.417.56 1.016.84 1.797.84zm12.441 1.699c-.104-.201-.195-.53-.273-.986-.755.788-1.68 1.182-2.773 1.182-1.062 0-1.928-.303-2.598-.908-.671-.606-1.006-1.355-1.006-2.246 0-1.127.417-1.989 1.25-2.588.84-.606 2.038-.909 3.594-.909h1.455v-.693c0-.547-.153-.983-.459-1.309-.306-.332-.772-.498-1.397-.498-.54 0-.983.137-1.328.411-.345.266-.517.608-.517 1.025h-2.373c0-.579.192-1.12.576-1.621.384-.508.905-.905 1.562-1.192.664-.286 1.403-.429 2.217-.429 1.237 0 2.223.312 2.959.937.736.619 1.113 1.491 1.133 2.617v4.766c0 .951.133 1.709.4 2.275v.166h-2.422zm-2.607-1.708c.469 0 .908-.114 1.318-.342.417-.228.73-.534.938-.918v-1.992h-1.279c-.879 0-1.54.153-1.983.459-.443.306-.664.738-.664 1.298 0 .456.15.821.449 1.094.306.267.713.401 1.221.401zm11.65-3.653c0-1.627.378-2.933 1.133-3.916.755-.989 1.768-1.484 3.037-1.484 1.12 0 2.025.39 2.715 1.172v-5.411h2.373v15h-2.148l-.117-1.093c-.71.859-1.657 1.289-2.842 1.289-1.237 0-2.24-.498-3.008-1.494-.762-.996-1.143-2.351-1.143-4.063zm2.373.205c0 1.074.206 1.914.616 2.52.416.599 1.006.898 1.767.898.97 0 1.68-.433 2.129-1.299v-4.511c-.436-.847-1.139-1.27-2.109-1.27-.768 0-1.361.306-1.778.918-.416.606-.625 1.52-.625 2.744zm14.014 5.352c-1.504 0-2.724-.472-3.662-1.416-.931-.951-1.396-2.214-1.396-3.789v-.293c0-1.055.201-1.996.605-2.823.41-.833.983-1.481 1.719-1.943a4.531 4.531 0 012.461-.693c1.438 0 2.549.459 3.33 1.377.788.918 1.181 2.217 1.181 3.896v.957h-6.904c.072.873.361 1.563.869 2.071.515.507 1.159.761 1.934.761 1.087 0 1.973-.439 2.656-1.318l1.279 1.221a4.295 4.295 0 01-1.699 1.474c-.703.345-1.494.518-2.373.518zm-.283-9.053c-.651 0-1.178.228-1.582.684-.397.455-.651 1.09-.762 1.904h4.522v-.176c-.052-.794-.264-1.393-.635-1.797-.371-.41-.886-.615-1.543-.615zm8.574-1.709l.069 1.221c.781-.944 1.806-1.416 3.076-1.416 2.2 0 3.32 1.26 3.359 3.779v6.982H329.5v-6.845c0-.671-.146-1.166-.439-1.485-.287-.325-.759-.488-1.416-.488-.957 0-1.67.433-2.139 1.299v7.519h-2.373v-10.566h2.236zm11.904-2.568v2.568h1.866v1.758h-1.866v5.898c0 .404.079.697.235.879.163.176.449.264.859.264.274 0 .55-.033.83-.098v1.836c-.54.15-1.061.225-1.562.225-1.823 0-2.735-1.006-2.735-3.018v-5.986h-1.738v-1.758h1.738v-2.568h2.373zm10 13.134c-.104-.201-.195-.53-.273-.986-.755.788-1.68 1.182-2.773 1.182-1.062 0-1.928-.303-2.598-.908-.671-.606-1.006-1.355-1.006-2.246 0-1.127.417-1.989 1.25-2.588.84-.606 2.038-.909 3.594-.909h1.455v-.693c0-.547-.153-.983-.459-1.309-.306-.332-.772-.498-1.397-.498-.54 0-.983.137-1.328.411-.345.266-.517.608-.517 1.025h-2.373c0-.579.192-1.12.576-1.621.384-.508.905-.905 1.562-1.192.664-.286 1.403-.429 2.217-.429 1.237 0 2.223.312 2.959.937.736.619 1.113 1.491 1.133 2.617v4.766c0 .951.133 1.709.4 2.275v.166h-2.422zm-2.607-1.708c.469 0 .908-.114 1.318-.342.417-.228.73-.534.938-.918v-1.992h-1.279c-.879 0-1.54.153-1.983.459-.443.306-.664.738-.664 1.298 0 .456.15.821.449 1.094.306.267.713.401 1.221.401zm9.639 1.708h-2.373v-15h2.373v15z" fill="#004B5F"/>
  <rect x="109.137" y="254" width="264.412" height="126.116" rx="2" fill="#F2F2F2"/>
  <path d="M120.326 346.049v-11.375h3.5c1 0 1.893.226 2.68.68a4.66 4.66 0 011.851 1.921c.443.829.664 1.771.664 2.829v.523c0 1.057-.218 1.997-.656 2.82a4.641 4.641 0 01-1.836 1.914c-.791.453-1.685.683-2.679.688h-3.524zm2.344-9.477v7.594h1.133c.916 0 1.617-.299 2.101-.898.485-.599.732-1.456.742-2.571v-.601c0-1.157-.239-2.032-.718-2.625-.479-.599-1.18-.899-2.102-.899h-1.156zm10.297 9.477h-2.266v-8.453h2.266v8.453zm-2.399-10.641c0-.338.112-.617.336-.836.229-.218.539-.328.93-.328.385 0 .693.11.922.328.229.219.344.498.344.836 0 .344-.118.625-.352.844-.229.219-.534.328-.914.328s-.688-.109-.922-.328a1.116 1.116 0 01-.344-.844zm9.016 4.305a6.082 6.082 0 00-.813-.063c-.854 0-1.414.289-1.679.868v5.531h-2.258v-8.453h2.133l.062 1.008c.453-.777 1.081-1.165 1.883-1.165.25 0 .484.034.703.102l-.031 2.172zm4.828 6.492c-1.239 0-2.25-.38-3.031-1.141-.776-.76-1.164-1.773-1.164-3.039v-.218c0-.849.164-1.607.492-2.274.328-.672.792-1.187 1.391-1.547.604-.364 1.291-.547 2.062-.547 1.156 0 2.065.365 2.727 1.094.666.729 1 1.763 1 3.102v.922h-5.383c.073.552.292.994.656 1.328.37.333.836.5 1.399.5.869 0 1.549-.315 2.039-.946l1.109 1.243a3.425 3.425 0 01-1.375 1.125 4.559 4.559 0 01-1.922.398zm-.258-6.937c-.448 0-.812.151-1.093.453-.276.302-.454.734-.532 1.297h3.141v-.18c-.01-.5-.146-.886-.406-1.156-.261-.276-.631-.414-1.11-.414zm8.539 5.117c.417 0 .756-.115 1.016-.344.26-.229.396-.534.406-.914h2.117a2.915 2.915 0 01-.468 1.578 3.122 3.122 0 01-1.266 1.109 3.95 3.95 0 01-1.766.391c-1.208 0-2.161-.383-2.859-1.148-.698-.771-1.047-1.834-1.047-3.188v-.148c0-1.302.347-2.341 1.039-3.117.693-.777 1.643-1.165 2.852-1.165 1.057 0 1.903.303 2.539.907.64.599.966 1.398.976 2.398h-2.117c-.01-.437-.146-.792-.406-1.062-.26-.276-.604-.414-1.031-.414-.526 0-.925.192-1.196.578-.265.38-.398 1-.398 1.859v.234c0 .87.133 1.495.398 1.875.266.381.67.571 1.211.571zm8.344 0c.417 0 .755-.115 1.016-.344.26-.229.396-.534.406-.914h2.117a2.907 2.907 0 01-.469 1.578 3.119 3.119 0 01-1.265 1.109 3.95 3.95 0 01-1.766.391c-1.208 0-2.161-.383-2.859-1.148-.698-.771-1.047-1.834-1.047-3.188v-.148c0-1.302.346-2.341 1.039-3.117.693-.777 1.643-1.165 2.852-1.165 1.057 0 1.903.303 2.539.907.64.599.966 1.398.976 2.398h-2.117c-.01-.437-.146-.792-.406-1.062-.261-.276-.604-.414-1.032-.414-.526 0-.924.192-1.195.578-.265.38-.398 1-.398 1.859v.234c0 .87.133 1.495.398 1.875.266.381.669.571 1.211.571zm7.211 1.664h-2.266v-8.453h2.266v8.453zm-2.398-10.641c0-.338.112-.617.336-.836.229-.218.539-.328.929-.328.386 0 .693.11.922.328.229.219.344.498.344.836 0 .344-.117.625-.352.844-.229.219-.534.328-.914.328s-.687-.109-.922-.328c-.229-.219-.343-.5-.343-.844zm3.914 6.336c0-.838.161-1.586.484-2.242a3.554 3.554 0 011.391-1.523c.609-.36 1.315-.54 2.117-.54 1.14 0 2.07.349 2.789 1.047.724.698 1.128 1.646 1.211 2.844l.015.578c0 1.297-.361 2.339-1.085 3.125-.724.781-1.696 1.172-2.915 1.172-1.218 0-2.192-.391-2.921-1.172-.724-.781-1.086-1.844-1.086-3.187v-.102zm2.257.164c0 .802.152 1.417.454 1.844.302.422.734.633 1.296.633.547 0 .974-.209 1.282-.625.307-.422.461-1.094.461-2.016 0-.786-.154-1.396-.461-1.828-.308-.432-.74-.648-1.297-.648-.552 0-.979.216-1.281.648-.302.427-.454 1.091-.454 1.992zm2.18-7.859h2.461l-2.164 2.422h-1.836l1.539-2.422zm7.039 3.547l.071.976c.604-.755 1.414-1.133 2.429-1.133.896 0 1.563.263 2 .79.438.526.662 1.312.672 2.359v5.461h-2.258v-5.406c0-.48-.104-.826-.312-1.039-.209-.219-.555-.329-1.039-.329-.636 0-1.112.271-1.43.813v5.961h-2.258v-8.453h2.125zm7.071 7.695c0-.25.072-.458.218-.625.151-.167.375-.25.672-.25.297 0 .521.083.672.25a.88.88 0 01.234.625c0 .24-.078.44-.234.602-.151.161-.375.242-.672.242-.297 0-.521-.081-.672-.242a.864.864 0 01-.218-.602zm.007-6.898c0-.25.073-.459.219-.625.151-.167.375-.25.672-.25.297 0 .521.083.672.25a.878.878 0 01.234.625.83.83 0 01-.234.601c-.151.162-.375.242-.672.242-.297 0-.521-.08-.672-.242a.862.862 0 01-.219-.601zm12.282 3.054h-2.672v4.602h-1.508v-11.375h3.766c1.281 0 2.265.291 2.953.875.692.583 1.039 1.432 1.039 2.547 0 .708-.193 1.325-.578 1.851-.381.526-.912.92-1.594 1.18l2.672 4.828v.094h-1.61l-2.468-4.602zm-2.672-1.226h2.304c.745 0 1.336-.193 1.774-.578.443-.386.664-.901.664-1.547 0-.703-.211-1.242-.633-1.617-.417-.375-1.021-.566-1.812-.571h-2.297v4.313zm13.351 5.828c-.083-.167-.151-.464-.203-.891-.672.698-1.474 1.047-2.406 1.047-.833 0-1.518-.234-2.055-.703-.531-.474-.797-1.073-.797-1.797 0-.88.334-1.562 1-2.047.672-.489 1.615-.734 2.828-.734h1.407v-.664c0-.505-.151-.906-.453-1.203-.302-.302-.748-.453-1.336-.453-.516 0-.948.13-1.297.39-.349.261-.524.576-.524.945h-1.453c0-.421.149-.828.446-1.218a3.085 3.085 0 011.218-.938 4.133 4.133 0 011.696-.344c.974 0 1.737.245 2.289.735.552.484.838 1.153.859 2.008v3.89c0 .776.099 1.393.297 1.852v.125h-1.516zm-2.398-1.102c.453 0 .883-.117 1.289-.351.406-.235.7-.539.883-.914v-1.735h-1.133c-1.771 0-2.656.518-2.656 1.555 0 .453.151.807.453 1.062.302.256.69.383 1.164.383zm7.242-7.351l.039.937c.62-.729 1.456-1.094 2.508-1.094 1.182 0 1.987.454 2.414 1.36a3.215 3.215 0 011.094-.985c.453-.25.987-.375 1.601-.375 1.854 0 2.797.982 2.828 2.946v5.664h-1.445v-5.578c0-.604-.138-1.055-.414-1.352-.276-.302-.74-.453-1.391-.453-.536 0-.981.161-1.336.484-.354.318-.559.748-.617 1.289v5.61h-1.453v-5.539c0-1.229-.601-1.844-1.805-1.844-.947 0-1.596.404-1.945 1.211v6.172h-1.445v-8.453h1.367zm19.828 4.32c0 1.292-.297 2.331-.89 3.117-.594.781-1.391 1.172-2.391 1.172-1.068 0-1.893-.378-2.477-1.133l-.07.977h-1.328v-12h1.445v4.476c.584-.724 1.388-1.086 2.414-1.086 1.026 0 1.831.388 2.414 1.165.589.776.883 1.838.883 3.187v.125zm-1.445-.164c0-.984-.19-1.745-.57-2.281-.381-.537-.928-.805-1.641-.805-.953 0-1.638.443-2.055 1.328v3.656c.443.886 1.133 1.329 2.071 1.329.692 0 1.231-.269 1.617-.805.385-.537.578-1.344.578-2.422zm4.844 4.297h-1.446v-12h1.446v12zm7.539 0c-.084-.167-.151-.464-.203-.891-.672.698-1.474 1.047-2.407 1.047-.833 0-1.518-.234-2.054-.703-.532-.474-.797-1.073-.797-1.797 0-.88.333-1.562 1-2.047.672-.489 1.614-.734 2.828-.734h1.406v-.664c0-.505-.151-.906-.453-1.203-.302-.302-.747-.453-1.336-.453-.516 0-.948.13-1.297.39-.349.261-.523.576-.523.945H241.6c0-.421.148-.828.445-1.218a3.081 3.081 0 011.219-.938 4.125 4.125 0 011.695-.344c.974 0 1.737.245 2.289.735.552.484.839 1.153.859 2.008v3.89c0 .776.099 1.393.297 1.852v.125h-1.515zm-2.399-1.102c.453 0 .883-.117 1.289-.351.407-.235.701-.539.883-.914v-1.735h-1.133c-1.771 0-2.656.518-2.656 1.555 0 .453.151.807.453 1.062.302.256.69.383 1.164.383zm18.446-2.508c-.141 1.204-.586 2.133-1.336 2.79-.745.651-1.737.976-2.977.976-1.344 0-2.422-.482-3.234-1.445-.808-.964-1.211-2.253-1.211-3.867v-1.094c0-1.057.187-1.987.562-2.789.38-.802.917-1.417 1.61-1.844.692-.432 1.494-.648 2.406-.648 1.208 0 2.177.338 2.906 1.015.729.672 1.154 1.604 1.274 2.797h-1.508c-.13-.906-.414-1.562-.852-1.969-.432-.406-1.039-.609-1.82-.609-.958 0-1.711.354-2.258 1.062-.542.709-.812 1.717-.812 3.024v1.101c0 1.235.257 2.217.773 2.946.516.729 1.237 1.094 2.164 1.094.833 0 1.471-.188 1.914-.563.448-.38.745-1.039.891-1.977h1.508zm7.046 3.61c-.083-.167-.151-.464-.203-.891-.672.698-1.474 1.047-2.406 1.047-.833 0-1.518-.234-2.055-.703-.531-.474-.797-1.073-.797-1.797 0-.88.334-1.562 1-2.047.672-.489 1.615-.734 2.829-.734h1.406v-.664c0-.505-.151-.906-.453-1.203-.302-.302-.748-.453-1.336-.453-.516 0-.948.13-1.297.39-.349.261-.524.576-.524.945h-1.453c0-.421.149-.828.446-1.218a3.085 3.085 0 011.218-.938 4.133 4.133 0 011.696-.344c.974 0 1.737.245 2.289.735.552.484.838 1.153.859 2.008v3.89c0 .776.099 1.393.297 1.852v.125h-1.516zm-2.398-1.102c.453 0 .883-.117 1.289-.351.406-.235.701-.539.883-.914v-1.735h-1.133c-1.771 0-2.656.518-2.656 1.555 0 .453.151.807.453 1.062.302.256.69.383 1.164.383zm7.844-9.398v2.047h1.578v1.117h-1.578v5.242c0 .339.07.594.211.766.14.166.38.25.718.25.167 0 .396-.032.688-.094v1.172c-.38.104-.75.156-1.109.156-.646 0-1.133-.195-1.461-.586-.329-.39-.493-.945-.493-1.664v-5.242h-1.539v-1.117h1.539v-2.047h1.446zm8.492 10.5c-.083-.167-.151-.464-.203-.891-.672.698-1.474 1.047-2.406 1.047-.834 0-1.519-.234-2.055-.703-.531-.474-.797-1.073-.797-1.797 0-.88.333-1.562 1-2.047.672-.489 1.615-.734 2.828-.734h1.406v-.664c0-.505-.151-.906-.453-1.203-.302-.302-.747-.453-1.336-.453-.515 0-.948.13-1.297.39-.349.261-.523.576-.523.945h-1.453c0-.421.148-.828.445-1.218.302-.396.709-.709 1.219-.938a4.132 4.132 0 011.695-.344c.974 0 1.737.245 2.289.735.552.484.839 1.153.86 2.008v3.89c0 .776.099 1.393.297 1.852v.125h-1.516zm-2.399-1.102c.454 0 .883-.117 1.29-.351.406-.235.7-.539.882-.914v-1.735h-1.132c-1.771 0-2.657.518-2.657 1.555 0 .453.151.807.453 1.062.303.256.691.383 1.164.383zm7.454 1.102h-1.446v-12h1.446v12zm7.539-.836c-.563.661-1.388.992-2.477.992-.901 0-1.588-.26-2.062-.781-.469-.526-.706-1.302-.711-2.328v-5.5h1.445v5.461c0 1.281.521 1.922 1.562 1.922 1.105 0 1.839-.412 2.204-1.235v-6.148h1.445v8.453h-1.375l-.031-.836zm4.976-7.617l.047 1.062c.646-.812 1.49-1.219 2.531-1.219 1.787 0 2.688 1.008 2.703 3.024v5.586h-1.445v-5.594c-.005-.609-.146-1.06-.422-1.351-.271-.292-.695-.438-1.273-.438-.469 0-.88.125-1.235.375-.354.25-.63.578-.828.984v6.024h-1.445v-8.453h1.367zm10.227 6.336l1.969-6.336h1.546l-3.398 9.758c-.526 1.406-1.362 2.109-2.508 2.109l-.273-.024-.539-.101v-1.172l.39.031c.49 0 .87-.099 1.141-.297.276-.198.503-.56.68-1.086l.32-.859-3.016-8.359h1.578l2.11 6.336zm9.906 2.117c-.083-.167-.151-.464-.203-.891-.672.698-1.474 1.047-2.406 1.047-.834 0-1.519-.234-2.055-.703-.531-.474-.797-1.073-.797-1.797 0-.88.333-1.562 1-2.047.672-.489 1.615-.734 2.828-.734h1.406v-.664c0-.505-.151-.906-.453-1.203-.302-.302-.747-.453-1.336-.453-.515 0-.947.13-1.296.39-.349.261-.524.576-.524.945h-1.453c0-.421.148-.828.445-1.218.302-.396.709-.709 1.219-.938a4.132 4.132 0 011.695-.344c.974 0 1.737.245 2.289.735.553.484.839 1.153.86 2.008v3.89c0 .776.099 1.393.297 1.852v.125h-1.516zm-2.398-1.102c.453 0 .882-.117 1.289-.351.406-.235.7-.539.882-.914v-1.735h-1.132c-1.771 0-2.657.518-2.657 1.555 0 .453.151.807.454 1.062.302.256.69.383 1.164.383zm16.836-3.75c0 1.693-.29 2.951-.868 3.774-.578.823-1.481 1.234-2.711 1.234-1.213 0-2.112-.401-2.695-1.203-.583-.807-.885-2.01-.906-3.609v-1.93c0-1.672.289-2.914.867-3.727.578-.812 1.484-1.218 2.719-1.218 1.224 0 2.125.393 2.703 1.179.578.782.875 1.99.891 3.625v1.875zm-1.446-1.976c0-1.224-.172-2.115-.515-2.672-.344-.563-.888-.844-1.633-.844-.74 0-1.279.279-1.617.836-.339.557-.513 1.414-.524 2.57v2.313c0 1.229.177 2.138.531 2.726.36.584.901.875 1.625.875.714 0 1.243-.276 1.586-.828.349-.552.532-1.422.547-2.609v-2.367zm8.047 6.828h-1.453v-9.633l-2.914 1.07v-1.312l4.141-1.555h.226v11.43zm4.336 2.265l-.82-.562c.489-.682.745-1.385.765-2.109v-1.305h1.414v1.133c0 .526-.13 1.052-.39 1.578-.255.526-.578.948-.969 1.265zm-226.367 16.735v-11.375h3.719c1.234 0 2.161.255 2.781.765.625.511.937 1.266.937 2.266 0 .531-.151 1.003-.453 1.414-.302.406-.713.721-1.234.945.614.172 1.099.5 1.453.985.359.479.539 1.052.539 1.719 0 1.02-.331 1.822-.992 2.406-.662.583-1.596.875-2.805.875h-3.945zm1.5-5.32v4.093h2.476c.698 0 1.248-.179 1.649-.539.406-.364.609-.864.609-1.5 0-1.37-.745-2.054-2.234-2.054h-2.5zm0-1.204h2.265c.657 0 1.18-.164 1.571-.492.396-.328.594-.773.594-1.336 0-.625-.183-1.078-.547-1.359-.365-.287-.92-.43-1.664-.43h-2.219v3.617zm13.461 6.524c-.084-.167-.151-.464-.203-.891-.672.698-1.474 1.047-2.407 1.047-.833 0-1.518-.234-2.054-.703-.532-.474-.797-1.073-.797-1.797 0-.88.333-1.562 1-2.047.672-.489 1.614-.734 2.828-.734h1.406v-.664c0-.505-.151-.906-.453-1.203-.302-.302-.747-.453-1.336-.453-.515 0-.948.13-1.297.39-.349.261-.523.576-.523.945h-1.453c0-.421.148-.828.445-1.218a3.081 3.081 0 011.219-.938 4.128 4.128 0 011.695-.344c.974 0 1.737.245 2.289.735.552.484.839 1.153.86 2.008v3.89c0 .776.099 1.393.296 1.852v.125h-1.515zm-2.399-1.102c.453 0 .883-.117 1.289-.351.407-.235.701-.539.883-.914v-1.735h-1.133c-1.77 0-2.656.518-2.656 1.555 0 .453.151.807.453 1.062.302.256.69.383 1.164.383zm9.969-6.054a4.276 4.276 0 00-.711-.055c-.948 0-1.591.404-1.93 1.211v6h-1.445v-8.453h1.406l.024.976c.474-.755 1.146-1.133 2.015-1.133.282 0 .495.037.641.11v1.344zm4.57 6.132c.516 0 .967-.156 1.352-.468.385-.313.599-.703.641-1.172h1.367c-.026.484-.193.945-.5 1.383a3.281 3.281 0 01-1.235 1.046 3.518 3.518 0 01-1.625.391c-1.151 0-2.067-.383-2.75-1.148-.677-.771-1.015-1.823-1.015-3.157v-.242c0-.823.151-1.554.453-2.195a3.453 3.453 0 011.297-1.492c.568-.354 1.237-.532 2.008-.532.948 0 1.734.284 2.359.852.63.568.966 1.305 1.008 2.211h-1.367c-.042-.547-.25-.995-.625-1.344-.37-.354-.829-.531-1.375-.531-.735 0-1.305.266-1.711.797-.401.526-.602 1.289-.602 2.289v.273c0 .974.201 1.724.602 2.25.401.526.974.789 1.718.789zm8.493 1.18c-1.146 0-2.079-.375-2.797-1.125-.719-.755-1.078-1.763-1.078-3.023v-.266c0-.839.158-1.586.476-2.242.323-.662.771-1.177 1.344-1.547a3.38 3.38 0 011.875-.563c1.099 0 1.953.362 2.562 1.086.61.724.914 1.761.914 3.11v.601h-5.726c.021.834.263 1.508.726 2.024.469.51 1.063.765 1.782.765.51 0 .942-.104 1.297-.312a3.24 3.24 0 00.929-.828l.883.687c-.708 1.089-1.771 1.633-3.187 1.633zm-.18-7.578a1.92 1.92 0 00-1.469.641c-.396.421-.64 1.015-.734 1.781h4.234v-.11c-.041-.734-.239-1.302-.594-1.703-.354-.406-.833-.609-1.437-.609zm6.726 7.422h-1.445v-12h1.445v12zm1.938-4.305c0-.828.161-1.573.484-2.234.328-.662.782-1.172 1.36-1.531.583-.36 1.247-.54 1.992-.54 1.151 0 2.081.399 2.789 1.196.714.797 1.07 1.857 1.07 3.179v.102c0 .823-.159 1.563-.476 2.219a3.557 3.557 0 01-1.352 1.523c-.583.365-1.255.547-2.015.547-1.146 0-2.076-.398-2.79-1.195-.708-.797-1.062-1.852-1.062-3.164v-.102zm1.453.172c0 .938.216 1.69.649 2.258.437.568 1.02.851 1.75.851.734 0 1.317-.286 1.75-.859.432-.578.648-1.385.648-2.422 0-.927-.221-1.677-.664-2.25-.438-.578-1.021-.867-1.75-.867-.714 0-1.289.284-1.727.852-.437.567-.656 1.38-.656 2.437zm9.422-4.32l.047 1.062c.646-.812 1.489-1.219 2.531-1.219 1.787 0 2.688 1.008 2.703 3.024v5.586h-1.445v-5.594c-.005-.609-.146-1.06-.422-1.351-.271-.292-.695-.438-1.273-.438-.469 0-.881.125-1.235.375-.354.25-.63.578-.828.984v6.024h-1.445v-8.453h1.367zm12.68 8.453c-.084-.167-.151-.464-.203-.891-.672.698-1.474 1.047-2.407 1.047-.833 0-1.518-.234-2.054-.703-.532-.474-.797-1.073-.797-1.797 0-.88.333-1.562 1-2.047.672-.489 1.614-.734 2.828-.734h1.406v-.664c0-.505-.151-.906-.453-1.203-.302-.302-.747-.453-1.336-.453-.516 0-.948.13-1.297.39-.349.261-.523.576-.523.945h-1.453c0-.421.148-.828.445-1.218a3.081 3.081 0 011.219-.938 4.125 4.125 0 011.695-.344c.974 0 1.737.245 2.289.735.552.484.839 1.153.859 2.008v3.89c0 .776.099 1.393.297 1.852v.125h-1.515zm-2.399-1.102c.453 0 .883-.117 1.289-.351.407-.235.701-.539.883-.914v-1.735h-1.133c-1.771 0-2.656.518-2.656 1.555 0 .453.151.807.453 1.062.302.256.69.383 1.164.383zm5.836 3.367l-.82-.562c.489-.682.745-1.385.765-2.109v-1.305h1.415v1.133c0 .526-.131 1.052-.391 1.578-.255.526-.578.948-.969 1.265zm10.735-7.335c-1.287-.37-2.224-.823-2.813-1.36a2.623 2.623 0 01-.875-2c0-.896.357-1.635 1.07-2.219.719-.588 1.651-.882 2.797-.882.781 0 1.477.151 2.086.453.615.302 1.089.718 1.422 1.25.339.531.508 1.112.508 1.742h-1.508c0-.688-.219-1.227-.656-1.617-.438-.396-1.055-.594-1.852-.594-.739 0-1.317.164-1.734.492-.412.323-.617.774-.617 1.352 0 .463.195.856.586 1.179.395.318 1.065.61 2.007.875.948.266 1.688.56 2.219.883.537.318.932.69 1.188 1.117.26.427.39.93.39 1.508 0 .922-.359 1.662-1.078 2.219-.719.552-1.68.828-2.883.828-.781 0-1.51-.148-2.187-.445-.677-.302-1.201-.714-1.57-1.235a3.013 3.013 0 01-.547-1.773h1.507c0 .687.253 1.232.758 1.633.511.396 1.19.594 2.039.594.792 0 1.399-.162 1.821-.485.422-.323.632-.763.632-1.32s-.195-.987-.585-1.289c-.391-.308-1.099-.61-2.125-.906zm13.062.937c0 1.286-.294 2.323-.883 3.109-.588.787-1.385 1.18-2.39 1.18-1.026 0-1.834-.325-2.422-.976v4.07h-1.446v-11.703h1.321l.07.937c.589-.729 1.406-1.094 2.453-1.094 1.016 0 1.818.383 2.406 1.149.594.766.891 1.831.891 3.195v.133zm-1.445-.164c0-.953-.203-1.706-.61-2.258-.406-.552-.963-.828-1.672-.828-.875 0-1.531.388-1.968 1.164v4.039c.432.771 1.093 1.156 1.984 1.156.693 0 1.242-.273 1.649-.82.411-.552.617-1.37.617-2.453zm8.508 4.297c-.084-.167-.151-.464-.204-.891-.671.698-1.474 1.047-2.406 1.047-.833 0-1.518-.234-2.055-.703-.531-.474-.796-1.073-.796-1.797 0-.88.333-1.562 1-2.047.671-.489 1.614-.734 2.828-.734h1.406v-.664c0-.505-.151-.906-.453-1.203-.302-.302-.748-.453-1.336-.453-.516 0-.948.13-1.297.39-.349.261-.523.576-.523.945h-1.454c0-.421.149-.828.446-1.218a3.081 3.081 0 011.219-.938 4.125 4.125 0 011.695-.344c.974 0 1.737.245 2.289.735.552.484.838 1.153.859 2.008v3.89c0 .776.099 1.393.297 1.852v.125h-1.515zm-2.399-1.102c.453 0 .883-.117 1.289-.351.406-.235.701-.539.883-.914v-1.735h-1.133c-1.771 0-2.656.518-2.656 1.555 0 .453.151.807.453 1.062.302.256.69.383 1.164.383zm7.453 1.102h-1.445v-8.453h1.445v8.453zm-1.562-10.695a.87.87 0 01.211-.594c.146-.162.359-.242.64-.242.282 0 .495.08.641.242a.852.852 0 01.219.594.823.823 0 01-.219.585c-.146.157-.359.235-.641.235-.281 0-.494-.078-.64-.235a.84.84 0 01-.211-.585zm5.25 2.242l.047 1.062c.645-.812 1.489-1.219 2.531-1.219 1.786 0 2.687 1.008 2.703 3.024v5.586h-1.445v-5.594c-.006-.609-.146-1.06-.422-1.351-.271-.292-.696-.438-1.274-.438-.468 0-.88.125-1.234.375s-.63.578-.828.984v6.024h-1.445v-8.453h1.367zm-110.977-32.27v-11.375h3.5c1 0 1.893.226 2.68.679a4.669 4.669 0 011.851 1.922c.443.828.664 1.771.664 2.828v.524c0 1.057-.218 1.997-.656 2.82a4.641 4.641 0 01-1.836 1.914c-.791.453-1.685.682-2.679.688h-3.524zm2.344-9.477v7.594h1.133c.916 0 1.617-.3 2.101-.899.485-.599.732-1.455.742-2.57v-.602c0-1.156-.239-2.031-.718-2.625-.479-.599-1.18-.898-2.102-.898h-1.156zm7.562 5.172c0-.839.162-1.586.485-2.242a3.554 3.554 0 011.39-1.524c.61-.359 1.316-.539 2.118-.539 1.14 0 2.07.349 2.789 1.047.724.698 1.127 1.646 1.211 2.844l.015.578c0 1.297-.362 2.338-1.086 3.125-.724.781-1.695 1.172-2.914 1.172s-2.192-.391-2.922-1.172c-.724-.781-1.086-1.844-1.086-3.188v-.101zm2.258.164c0 .802.151 1.417.453 1.844.302.422.735.632 1.297.632.547 0 .974-.208 1.281-.625.308-.421.461-1.093.461-2.015 0-.787-.153-1.396-.461-1.828-.307-.433-.739-.649-1.296-.649-.552 0-.98.216-1.282.649-.302.427-.453 1.091-.453 1.992zm10.656 2.476c.417 0 .756-.114 1.016-.343.261-.229.396-.534.406-.914h2.118a2.924 2.924 0 01-.469 1.578 3.115 3.115 0 01-1.266 1.109 3.948 3.948 0 01-1.765.391c-1.209 0-2.162-.383-2.86-1.149-.698-.77-1.047-1.833-1.047-3.187v-.149c0-1.302.347-2.341 1.039-3.117.693-.776 1.644-1.164 2.852-1.164 1.057 0 1.904.302 2.539.906.641.599.966 1.399.977 2.399h-2.118c-.01-.438-.145-.792-.406-1.063-.26-.276-.604-.414-1.031-.414-.526 0-.925.193-1.195.578-.266.381-.399 1-.399 1.86v.234c0 .87.133 1.495.399 1.875.265.38.669.57 1.21.57zm7.532-8.867v2.078h1.445v1.657h-1.445v4.218c0 .313.06.537.179.672.12.136.349.203.688.203.25 0 .471-.018.664-.054v1.711a4.66 4.66 0 01-1.367.203c-1.584 0-2.391-.8-2.422-2.399v-4.554h-1.234v-1.657h1.234v-2.078h2.258zm2.117 6.227c0-.839.161-1.586.484-2.242a3.556 3.556 0 011.391-1.524c.609-.359 1.315-.539 2.117-.539 1.141 0 2.07.349 2.789 1.047.724.698 1.128 1.646 1.211 2.844l.016.578c0 1.297-.362 2.338-1.086 3.125-.724.781-1.696 1.172-2.914 1.172-1.219 0-2.193-.391-2.922-1.172-.724-.781-1.086-1.844-1.086-3.188v-.101zm2.258.164c0 .802.151 1.417.453 1.844.302.422.734.632 1.297.632.547 0 .974-.208 1.281-.625.307-.421.461-1.093.461-2.015 0-.787-.154-1.396-.461-1.828-.307-.433-.74-.649-1.297-.649-.552 0-.979.216-1.281.649-.302.427-.453 1.091-.453 1.992zm11.89-2.195a6.08 6.08 0 00-.812-.063c-.854 0-1.414.289-1.68.867v5.532h-2.258v-8.454h2.133l.063 1.008c.453-.776 1.08-1.164 1.882-1.164.25 0 .485.034.704.102l-.032 2.172zm1.805 7.312h-1.68l4.188-12.351h1.68l-4.188 12.351zm10.172-.976a2.525 2.525 0 01-.227-.758c-.547.609-1.257.914-2.132.914-.829 0-1.516-.24-2.063-.719-.542-.479-.812-1.083-.812-1.812 0-.896.33-1.584.992-2.063.666-.479 1.627-.721 2.883-.727h1.039v-.484c0-.391-.102-.703-.305-.937-.198-.235-.513-.352-.945-.352-.381 0-.68.091-.899.273-.213.183-.32.433-.32.75h-2.258c0-.489.151-.942.453-1.359.302-.417.729-.742 1.281-.976.553-.24 1.172-.36 1.86-.36 1.041 0 1.867.263 2.476.789.615.521.922 1.255.922 2.203v3.664c.005.803.117 1.409.336 1.821v.133h-2.281zm-1.867-1.571c.333 0 .64-.073.922-.219a1.49 1.49 0 00.625-.601v-1.453h-.844c-1.13 0-1.732.39-1.805 1.172l-.008.132c0 .282.099.514.297.696.198.182.469.273.813.273zm5.726.813c0-.25.073-.459.219-.625.151-.167.375-.25.672-.25.297 0 .521.083.672.25a.878.878 0 01.234.625.83.83 0 01-.234.601c-.151.162-.375.242-.672.242-.297 0-.521-.08-.672-.242a.862.862 0 01-.219-.601zm.008-6.899c0-.25.073-.458.219-.625.151-.166.375-.25.672-.25.297 0 .521.084.672.25a.88.88 0 01.234.625c0 .24-.078.44-.234.602-.151.161-.375.242-.672.242-.297 0-.521-.081-.672-.242a.865.865 0 01-.219-.602zm9.609 3.203v4.454h-1.5v-11.375h4.196c1.245 0 2.219.317 2.922.953.708.635 1.062 1.476 1.062 2.523 0 1.104-.346 1.956-1.039 2.555-.687.594-1.674.89-2.961.89h-2.68zm0-1.226h2.696c.802 0 1.416-.188 1.844-.563.427-.38.64-.927.64-1.64 0-.677-.213-1.219-.64-1.625-.428-.407-1.013-.617-1.758-.633h-2.782v4.461zm7.875 1.375c0-.828.162-1.573.485-2.235.328-.661.781-1.171 1.359-1.531.584-.359 1.248-.539 1.992-.539 1.151 0 2.081.399 2.789 1.195.714.797 1.071 1.857 1.071 3.18v.102c0 .823-.159 1.562-.477 2.218a3.557 3.557 0 01-1.351 1.524c-.584.365-1.256.547-2.016.547-1.146 0-2.075-.399-2.789-1.196-.708-.796-1.063-1.851-1.063-3.164v-.101zm1.454.172c0 .937.216 1.69.648 2.258.438.567 1.021.851 1.75.851.734 0 1.318-.286 1.75-.859.432-.578.648-1.386.648-2.422 0-.927-.221-1.677-.664-2.25-.437-.578-1.02-.867-1.75-.867-.713 0-1.289.284-1.726.851-.438.568-.656 1.38-.656 2.438zm9.625 4.133h-1.446v-12h1.446v12zm8.023-1.227h5.391v1.227h-6.899v-11.375h1.508v10.148zm12.094 1.227c-.084-.167-.151-.464-.203-.891-.672.698-1.474 1.047-2.407 1.047-.833 0-1.518-.235-2.054-.703-.532-.474-.797-1.073-.797-1.797 0-.88.333-1.563 1-2.047.672-.49 1.614-.734 2.828-.734h1.406v-.665c0-.505-.151-.906-.453-1.203-.302-.302-.747-.453-1.336-.453-.515 0-.948.13-1.297.391-.349.26-.523.575-.523.945h-1.453c0-.422.148-.828.445-1.219a3.088 3.088 0 011.219-.937 4.128 4.128 0 011.695-.344c.974 0 1.737.245 2.289.735.552.484.839 1.153.86 2.007v3.891c0 .776.099 1.393.296 1.852v.125h-1.515zm-2.399-1.102c.453 0 .883-.117 1.289-.352.407-.234.701-.539.883-.914v-1.734h-1.133c-1.77 0-2.656.518-2.656 1.555 0 .453.151.807.453 1.062.302.255.69.383 1.164.383zm8.524-1.016l1.969-6.336h1.546l-3.398 9.758c-.526 1.406-1.362 2.11-2.508 2.11l-.273-.024-.539-.101v-1.172l.39.031c.49 0 .87-.099 1.141-.297.276-.198.503-.56.68-1.086l.32-.859-3.016-8.36h1.578l2.11 6.336zm4.304-2.187c0-.828.162-1.573.485-2.235.328-.661.781-1.171 1.359-1.531.584-.359 1.248-.539 1.992-.539 1.151 0 2.081.399 2.789 1.195.714.797 1.071 1.857 1.071 3.18v.102c0 .823-.159 1.562-.477 2.218a3.557 3.557 0 01-1.351 1.524c-.584.365-1.256.547-2.016.547-1.146 0-2.075-.399-2.789-1.196-.708-.796-1.063-1.851-1.063-3.164v-.101zm1.454.172c0 .937.216 1.69.648 2.258.438.567 1.021.851 1.75.851.734 0 1.318-.286 1.75-.859.432-.578.648-1.386.648-2.422 0-.927-.221-1.677-.664-2.25-.437-.578-1.02-.867-1.75-.867-.713 0-1.289.284-1.726.851-.438.568-.656 1.38-.656 2.438zm9.625 4.133h-1.446v-12h1.446v12zm7.539 0c-.084-.167-.151-.464-.203-.891-.672.698-1.474 1.047-2.407 1.047-.833 0-1.518-.235-2.054-.703-.532-.474-.797-1.073-.797-1.797 0-.88.333-1.563 1-2.047.672-.49 1.614-.734 2.828-.734h1.406v-.665c0-.505-.151-.906-.453-1.203-.302-.302-.747-.453-1.336-.453-.516 0-.948.13-1.297.391-.349.26-.523.575-.523.945h-1.453c0-.422.148-.828.445-1.219a3.088 3.088 0 011.219-.937 4.125 4.125 0 011.695-.344c.974 0 1.737.245 2.289.735.552.484.839 1.153.859 2.007v3.891c0 .776.099 1.393.297 1.852v.125h-1.515zm-2.399-1.102c.453 0 .883-.117 1.289-.352.407-.234.701-.539.883-.914v-1.734h-1.133c-1.771 0-2.656.518-2.656 1.555 0 .453.151.807.453 1.062.302.255.69.383 1.164.383zm-128.531-20.622h-2.344v-4.875h-4.57v4.875h-2.344v-11.375h2.344v4.61h4.57v-4.61h2.344v11.375zm1.555-4.305c0-.838.161-1.585.484-2.242a3.554 3.554 0 011.391-1.523c.609-.36 1.315-.539 2.117-.539 1.14 0 2.07.349 2.789 1.047.724.698 1.128 1.646 1.211 2.843l.015.579c0 1.296-.361 2.338-1.085 3.125-.724.781-1.696 1.171-2.915 1.171-1.218 0-2.192-.39-2.921-1.171-.724-.782-1.086-1.844-1.086-3.188v-.102zm2.257.165c0 .802.152 1.416.454 1.843.302.422.734.633 1.296.633.547 0 .974-.208 1.282-.625.307-.422.461-1.094.461-2.016 0-.786-.154-1.395-.461-1.828-.308-.432-.74-.648-1.297-.648-.552 0-.979.216-1.281.648-.302.427-.454 1.092-.454 1.993zm11.891-2.196a6.234 6.234 0 00-.812-.062c-.855 0-1.414.289-1.68.867v5.531h-2.258v-8.453h2.133l.062 1.008c.454-.776 1.081-1.164 1.883-1.164.25 0 .485.034.703.101l-.031 2.172zm5.758 6.336a2.516 2.516 0 01-.227-.758c-.547.61-1.257.914-2.132.914-.829 0-1.516-.239-2.063-.718-.542-.479-.812-1.084-.812-1.813 0-.896.33-1.583.992-2.062.666-.479 1.627-.722 2.883-.727h1.039v-.484c0-.391-.102-.703-.305-.938-.198-.234-.513-.351-.945-.351-.381 0-.68.091-.899.273-.213.182-.32.432-.32.75h-2.258c0-.489.151-.943.453-1.359.302-.417.729-.742 1.281-.977.553-.239 1.172-.359 1.86-.359 1.041 0 1.867.263 2.476.789.615.521.922 1.255.922 2.203v3.664c.005.802.117 1.409.336 1.82v.133h-2.281zm-1.867-1.57c.333 0 .64-.073.922-.219a1.49 1.49 0 00.625-.601v-1.454h-.844c-1.13 0-1.732.391-1.805 1.172l-.008.133c0 .281.099.513.297.695.198.183.469.274.813.274zm5.726.812c0-.25.073-.458.219-.625.151-.166.375-.25.672-.25.297 0 .521.084.672.25a.88.88 0 01.234.625c0 .24-.078.44-.234.602-.151.161-.375.242-.672.242-.297 0-.521-.081-.672-.242a.865.865 0 01-.219-.602zm.008-6.898c0-.25.073-.458.219-.625.151-.167.375-.25.672-.25.297 0 .521.083.672.25a.88.88 0 01.234.625c0 .24-.078.44-.234.601-.151.162-.375.243-.672.243-.297 0-.521-.081-.672-.243a.86.86 0 01-.219-.601zm14.867 2.805c0 1.692-.289 2.95-.867 3.773-.578.823-1.482 1.234-2.711 1.234-1.213 0-2.112-.401-2.695-1.203-.583-.807-.886-2.01-.906-3.609v-1.93c0-1.672.289-2.914.867-3.726.578-.813 1.484-1.219 2.719-1.219 1.224 0 2.125.393 2.703 1.18.578.781.875 1.989.89 3.625v1.875zm-1.445-1.977c0-1.224-.172-2.115-.516-2.672-.343-.562-.888-.844-1.632-.844-.74 0-1.279.279-1.618.836-.338.558-.513 1.414-.523 2.571v2.312c0 1.229.177 2.138.531 2.727.36.583.901.875 1.625.875.714 0 1.242-.276 1.586-.828.349-.552.531-1.422.547-2.61v-2.367zm8.836 1.828c-.302.36-.664.649-1.086.867a2.91 2.91 0 01-1.375.328c-.656 0-1.229-.161-1.719-.484-.484-.323-.859-.776-1.125-1.359a4.687 4.687 0 01-.398-1.946c0-.76.143-1.445.429-2.054.292-.61.704-1.076 1.235-1.399.531-.323 1.151-.484 1.859-.484 1.125 0 2.011.422 2.656 1.266.652.838.977 1.984.977 3.437v.422c0 2.213-.437 3.831-1.312 4.851-.875 1.016-2.196 1.537-3.961 1.563h-.282v-1.219h.305c1.193-.021 2.109-.33 2.75-.929.641-.605.99-1.558 1.047-2.86zm-2.227 0c.485 0 .93-.148 1.336-.445.412-.297.711-.664.899-1.102v-.578c0-.948-.206-1.719-.617-2.312-.412-.594-.933-.891-1.563-.891-.635 0-1.146.245-1.531.734-.386.485-.578 1.125-.578 1.922 0 .776.185 1.417.554 1.922.375.5.875.75 1.5.75zm5.852 4.242c0-.25.073-.458.219-.625.151-.166.375-.25.672-.25.296 0 .52.084.671.25a.876.876 0 01.235.625.83.83 0 01-.235.602c-.151.161-.375.242-.671.242-.297 0-.521-.081-.672-.242a.865.865 0 01-.219-.602zm11.172-4.093c0 1.692-.289 2.95-.867 3.773-.579.823-1.482 1.234-2.711 1.234-1.214 0-2.112-.401-2.696-1.203-.583-.807-.885-2.01-.906-3.609v-1.93c0-1.672.289-2.914.867-3.726.578-.813 1.485-1.219 2.719-1.219 1.224 0 2.125.393 2.703 1.18.578.781.875 1.989.891 3.625v1.875zm-1.446-1.977c0-1.224-.171-2.115-.515-2.672-.344-.562-.888-.844-1.633-.844-.74 0-1.279.279-1.617.836-.339.558-.513 1.414-.524 2.571v2.312c0 1.229.178 2.138.532 2.727.359.583.901.875 1.625.875.713 0 1.242-.276 1.586-.828.349-.552.531-1.422.546-2.61v-2.367zm10.43 1.977c0 1.692-.289 2.95-.867 3.773-.578.823-1.482 1.234-2.711 1.234-1.213 0-2.112-.401-2.695-1.203-.584-.807-.886-2.01-.907-3.609v-1.93c0-1.672.29-2.914.868-3.726.578-.813 1.484-1.219 2.718-1.219 1.224 0 2.125.393 2.704 1.18.578.781.875 1.989.89 3.625v1.875zm-1.445-1.977c0-1.224-.172-2.115-.516-2.672-.344-.562-.888-.844-1.633-.844-.739 0-1.278.279-1.617.836-.338.558-.513 1.414-.523 2.571v2.312c0 1.229.177 2.138.531 2.727.359.583.901.875 1.625.875.714 0 1.242-.276 1.586-.828.349-.552.531-1.422.547-2.61v-2.367zm4.89-.602c.641-.786 1.474-1.179 2.5-1.179 1.787 0 2.688 1.008 2.704 3.023v5.586h-1.446v-5.594c-.005-.609-.146-1.059-.422-1.351-.27-.292-.695-.438-1.273-.438-.469 0-.88.125-1.234.375-.355.25-.631.578-.829.985v6.023h-1.445v-12h1.445v4.57zM127.17 276.23h-4.5v4.649h-2.344v-11.375h7.406v1.898h-5.062v2.938h4.5v1.89zm5.492 4.805c-1.239 0-2.25-.38-3.031-1.14-.776-.761-1.164-1.774-1.164-3.04v-.218c0-.849.164-1.607.492-2.274.328-.672.792-1.187 1.391-1.547.604-.364 1.291-.546 2.062-.546 1.156 0 2.065.364 2.727 1.093.666.729 1 1.763 1 3.102v.922h-5.383c.073.552.292.995.656 1.328.37.333.836.5 1.399.5.869 0 1.549-.315 2.039-.945l1.109 1.242a3.425 3.425 0 01-1.375 1.125 4.559 4.559 0 01-1.922.398zm-.258-6.937c-.448 0-.812.151-1.093.453-.276.302-.454.734-.532 1.297h3.141v-.18c-.01-.5-.146-.885-.406-1.156-.261-.276-.631-.414-1.11-.414zm8.539 5.117c.417 0 .756-.115 1.016-.344.26-.229.396-.534.406-.914h2.117a2.915 2.915 0 01-.468 1.578 3.131 3.131 0 01-1.266 1.11c-.531.26-1.12.39-1.766.39-1.208 0-2.161-.383-2.859-1.148-.698-.771-1.047-1.834-1.047-3.188v-.148c0-1.302.347-2.341 1.039-3.117.693-.776 1.643-1.164 2.852-1.164 1.057 0 1.903.302 2.539.906.64.599.966 1.398.976 2.398h-2.117c-.01-.437-.146-.791-.406-1.062-.26-.276-.604-.414-1.031-.414-.526 0-.925.192-1.196.578-.265.38-.398 1-.398 1.859v.235c0 .869.133 1.494.398 1.875.266.38.67.57 1.211.57zm7.032-5.867c.599-.719 1.351-1.078 2.257-1.078 1.834 0 2.763 1.065 2.789 3.195v5.414h-2.257v-5.352c0-.484-.104-.841-.313-1.07-.208-.234-.555-.352-1.039-.352-.661 0-1.141.256-1.437.766v6.008h-2.258v-12h2.258v4.469zm11.648 7.531a2.516 2.516 0 01-.227-.758c-.546.609-1.257.914-2.132.914-.828 0-1.516-.239-2.063-.719a2.317 2.317 0 01-.812-1.812c0-.896.33-1.583.992-2.063.667-.479 1.627-.721 2.883-.726h1.039v-.485c0-.39-.102-.703-.305-.937-.198-.234-.513-.352-.945-.352-.38 0-.68.092-.899.274-.213.182-.32.432-.32.75h-2.258c0-.49.151-.943.453-1.36.302-.416.729-.742 1.282-.976.552-.24 1.171-.359 1.859-.359 1.042 0 1.867.263 2.476.789.615.52.922 1.255.922 2.203v3.664c.006.802.118 1.409.336 1.82v.133h-2.281zm-1.867-1.57c.333 0 .64-.073.922-.219.281-.151.489-.352.625-.602v-1.453h-.844c-1.13 0-1.732.391-1.805 1.172l-.008.133c0 .281.099.513.297.695.198.182.469.274.813.274zm5.726.812c0-.25.073-.458.219-.625.151-.167.375-.25.672-.25.297 0 .521.083.672.25a.88.88 0 01.234.625c0 .24-.078.44-.234.602-.151.161-.375.242-.672.242-.297 0-.521-.081-.672-.242a.865.865 0 01-.219-.602zm.008-6.898c0-.25.073-.459.219-.625.151-.167.375-.25.672-.25.297 0 .521.083.672.25a.878.878 0 01.234.625.83.83 0 01-.234.601c-.151.162-.375.242-.672.242-.297 0-.521-.08-.672-.242a.862.862 0 01-.219-.601zm10.672 5.695l2.094-6.492h1.476l-3.031 8.453H173.6l-3.063-8.453h1.477l2.148 6.492zm6.531 1.961h-1.445v-8.453h1.445v8.453zm-1.562-10.695a.87.87 0 01.211-.594c.146-.162.359-.242.64-.242.282 0 .495.08.641.242a.852.852 0 01.219.594.827.827 0 01-.219.586c-.146.156-.359.234-.641.234-.281 0-.494-.078-.64-.234a.844.844 0 01-.211-.586zm7.39 10.851c-1.145 0-2.078-.375-2.796-1.125-.719-.755-1.079-1.763-1.079-3.023v-.266c0-.838.159-1.586.477-2.242.323-.662.771-1.177 1.344-1.547a3.38 3.38 0 011.875-.562c1.099 0 1.953.362 2.562 1.085.61.724.914 1.761.914 3.11v.601h-5.726c.021.834.263 1.508.726 2.024.469.51 1.063.765 1.782.765.51 0 .942-.104 1.296-.312.355-.208.665-.484.93-.828l.883.687c-.708 1.089-1.771 1.633-3.188 1.633zm-.179-7.578c-.584 0-1.073.214-1.469.641-.396.422-.641 1.015-.734 1.781h4.234v-.109c-.042-.735-.24-1.303-.594-1.704-.354-.406-.833-.609-1.437-.609zm9.242.266a4.276 4.276 0 00-.711-.055c-.948 0-1.591.404-1.93 1.211v6h-1.445v-8.453h1.406l.024.976c.474-.755 1.146-1.132 2.015-1.132.282 0 .495.036.641.109v1.344zm2.703-1.297l.047 1.062c.646-.812 1.49-1.218 2.531-1.218 1.787 0 2.688 1.007 2.703 3.023v5.586h-1.445v-5.594c-.005-.609-.146-1.06-.422-1.351-.271-.292-.695-.438-1.273-.438-.469 0-.88.125-1.235.375-.354.25-.63.578-.828.984v6.024h-1.445v-8.453h1.367zm10.969 8.609c-1.146 0-2.078-.375-2.797-1.125-.719-.755-1.078-1.763-1.078-3.023v-.266c0-.838.159-1.586.476-2.242.323-.662.771-1.177 1.344-1.547a3.38 3.38 0 011.875-.562c1.099 0 1.953.362 2.563 1.085.609.724.914 1.761.914 3.11v.601h-5.727c.021.834.263 1.508.727 2.024.468.51 1.062.765 1.781.765.51 0 .943-.104 1.297-.312.354-.208.664-.484.93-.828l.882.687c-.708 1.089-1.77 1.633-3.187 1.633zm-.18-7.578c-.583 0-1.073.214-1.469.641-.395.422-.64 1.015-.734 1.781h4.234v-.109c-.041-.735-.239-1.303-.593-1.704-.354-.406-.834-.609-1.438-.609zm10.078 5.18c0-.391-.148-.693-.445-.907-.292-.218-.805-.406-1.539-.562-.729-.156-1.31-.344-1.742-.563-.427-.218-.745-.479-.953-.781-.204-.302-.305-.661-.305-1.078 0-.693.292-1.279.875-1.758.588-.479 1.338-.718 2.25-.718.958 0 1.734.247 2.328.742.599.495.898 1.127.898 1.898h-1.453c0-.396-.169-.737-.507-1.023-.334-.287-.756-.43-1.266-.43-.526 0-.938.115-1.234.344a1.081 1.081 0 00-.446.898c0 .349.138.612.414.789.276.177.774.347 1.492.508.724.162 1.31.354 1.758.578.448.224.779.495.992.813.219.312.329.695.329 1.148 0 .755-.302 1.362-.907 1.82-.604.454-1.388.68-2.351.68-.677 0-1.276-.12-1.797-.359-.521-.24-.93-.573-1.227-1a2.46 2.46 0 01-.437-1.399h1.445c.026.485.219.87.578 1.157.365.281.844.421 1.438.421.547 0 .984-.109 1.312-.328.334-.224.5-.52.5-.89zm3.282 4.508l-.821-.563c.49-.682.745-1.385.766-2.109v-1.305h1.414v1.133c0 .526-.13 1.052-.391 1.578-.255.526-.578.948-.968 1.266zm11.757-2.266h-1.453v-9.633l-2.914 1.07v-1.312l4.141-1.555h.226v11.43zm8-4.297c0-1.297.308-2.339.922-3.125.615-.792 1.42-1.187 2.414-1.187.99 0 1.774.338 2.352 1.015v-4.406h1.445v12h-1.328l-.07-.906c-.578.708-1.383 1.062-2.414 1.062-.979 0-1.779-.401-2.399-1.203-.614-.802-.922-1.849-.922-3.141v-.109zm1.446.164c0 .958.198 1.708.593 2.25.396.542.943.813 1.641.813.917 0 1.586-.412 2.008-1.235v-3.883c-.432-.796-1.096-1.195-1.992-1.195-.709 0-1.261.274-1.657.82-.395.547-.593 1.357-.593 2.43zm11.445 4.289c-1.146 0-2.078-.375-2.797-1.125-.719-.755-1.078-1.763-1.078-3.023v-.266c0-.838.159-1.586.477-2.242.322-.662.77-1.177 1.343-1.547a3.38 3.38 0 011.875-.562c1.099 0 1.953.362 2.563 1.085.609.724.914 1.761.914 3.11v.601h-5.727c.021.834.263 1.508.727 2.024.469.51 1.062.765 1.781.765.511 0 .943-.104 1.297-.312.354-.208.664-.484.93-.828l.882.687c-.708 1.089-1.77 1.633-3.187 1.633zm-.18-7.578a1.92 1.92 0 00-1.468.641c-.396.422-.641 1.015-.735 1.781h4.235v-.109c-.042-.735-.24-1.303-.594-1.704-.354-.406-.834-.609-1.438-.609zm12.633 7.578c-1.146 0-2.078-.375-2.797-1.125-.719-.755-1.078-1.763-1.078-3.023v-.266c0-.838.159-1.586.477-2.242.323-.662.771-1.177 1.343-1.547a3.384 3.384 0 011.875-.562c1.099 0 1.954.362 2.563 1.085.609.724.914 1.761.914 3.11v.601h-5.727c.021.834.263 1.508.727 2.024.469.51 1.062.765 1.781.765.511 0 .943-.104 1.297-.312.354-.208.664-.484.93-.828l.883.687c-.709 1.089-1.771 1.633-3.188 1.633zm-.18-7.578c-.583 0-1.072.214-1.468.641-.396.422-.641 1.015-.735 1.781h4.235v-.109c-.042-.735-.24-1.303-.594-1.704-.354-.406-.833-.609-1.438-.609zm6.524-1.031l.047 1.062c.646-.812 1.489-1.218 2.531-1.218 1.786 0 2.687 1.007 2.703 3.023v5.586h-1.445v-5.594c-.005-.609-.146-1.06-.422-1.351-.271-.292-.695-.438-1.274-.438-.468 0-.88.125-1.234.375s-.63.578-.828.984v6.024h-1.445v-8.453h1.367zm10.969 8.609c-1.146 0-2.079-.375-2.797-1.125-.719-.755-1.078-1.763-1.078-3.023v-.266c0-.838.158-1.586.476-2.242.323-.662.771-1.177 1.344-1.547a3.38 3.38 0 011.875-.562c1.099 0 1.953.362 2.562 1.085.61.724.914 1.761.914 3.11v.601h-5.726c.021.834.263 1.508.726 2.024.469.51 1.063.765 1.782.765.51 0 .942-.104 1.297-.312a3.24 3.24 0 00.929-.828l.883.687c-.708 1.089-1.771 1.633-3.187 1.633zm-.18-7.578c-.583 0-1.073.214-1.469.641-.396.422-.64 1.015-.734 1.781h4.234v-.109c-.041-.735-.239-1.303-.594-1.704-.354-.406-.833-.609-1.437-.609zm9.242.266a4.276 4.276 0 00-.711-.055c-.948 0-1.591.404-1.93 1.211v6h-1.445v-8.453h1.406l.024.976c.474-.755 1.146-1.132 2.015-1.132.282 0 .495.036.641.109v1.344zm.797 2.851c0-.828.161-1.573.484-2.234.328-.662.782-1.172 1.36-1.531.583-.36 1.247-.539 1.992-.539 1.151 0 2.081.398 2.789 1.195.714.797 1.07 1.857 1.07 3.18v.101c0 .823-.159 1.563-.476 2.219a3.557 3.557 0 01-1.352 1.523c-.583.365-1.255.547-2.015.547-1.146 0-2.076-.398-2.79-1.195-.708-.797-1.062-1.852-1.062-3.164v-.102zm1.453.172c0 .938.216 1.69.649 2.258.437.568 1.02.851 1.75.851.734 0 1.317-.286 1.75-.859.432-.578.648-1.385.648-2.422 0-.927-.221-1.677-.664-2.25-.438-.578-1.021-.867-1.75-.867-.714 0-1.289.284-1.727.852-.437.567-.656 1.38-.656 2.437zm11.672-.164c0-1.297.307-2.339.922-3.125.614-.792 1.419-1.187 2.414-1.187.99 0 1.773.338 2.351 1.015v-4.406h1.446v12h-1.328l-.071-.906c-.578.708-1.382 1.062-2.414 1.062-.979 0-1.778-.401-2.398-1.203-.615-.802-.922-1.849-.922-3.141v-.109zm1.445.164c0 .958.198 1.708.594 2.25.396.542.943.813 1.641.813.916 0 1.586-.412 2.007-1.235v-3.883c-.432-.796-1.096-1.195-1.992-1.195-.708 0-1.26.274-1.656.82-.396.547-.594 1.357-.594 2.43zm11.446 4.289c-1.146 0-2.079-.375-2.797-1.125-.719-.755-1.078-1.763-1.078-3.023v-.266c0-.838.158-1.586.476-2.242.323-.662.771-1.177 1.344-1.547a3.38 3.38 0 011.875-.562c1.099 0 1.953.362 2.562 1.085.61.724.914 1.761.914 3.11v.601h-5.726c.021.834.263 1.508.726 2.024.469.51 1.063.765 1.782.765.51 0 .942-.104 1.297-.312a3.24 3.24 0 00.929-.828l.883.687c-.708 1.089-1.771 1.633-3.187 1.633zm-.18-7.578c-.583 0-1.073.214-1.469.641-.396.422-.64 1.015-.734 1.781h4.234v-.109c-.041-.735-.239-1.303-.594-1.704-.354-.406-.833-.609-1.437-.609zm16.43 7.422h-7.454v-1.039l3.938-4.375c.583-.662.984-1.198 1.203-1.61.224-.416.336-.846.336-1.289 0-.593-.18-1.08-.539-1.461-.359-.38-.839-.57-1.438-.57-.718 0-1.278.206-1.679.617-.396.407-.594.974-.594 1.703h-1.445c0-1.046.336-1.893 1.008-2.539.677-.645 1.58-.968 2.71-.968 1.058 0 1.894.278 2.508.836.615.552.922 1.289.922 2.211 0 1.119-.713 2.453-2.14 4l-3.047 3.304h5.711v1.18zm8.664-4.852c0 1.693-.289 2.951-.868 3.774-.578.823-1.481 1.234-2.71 1.234-1.214 0-2.112-.401-2.696-1.203-.583-.807-.885-2.01-.906-3.609v-1.93c0-1.672.289-2.914.867-3.727.578-.812 1.485-1.218 2.719-1.218 1.224 0 2.125.393 2.703 1.179.578.782.875 1.99.891 3.625v1.875zm-1.446-1.976c0-1.224-.172-2.115-.515-2.672-.344-.563-.888-.844-1.633-.844-.74 0-1.279.279-1.617.836-.339.557-.513 1.414-.524 2.57v2.313c0 1.229.177 2.138.532 2.726.359.584.901.875 1.625.875.713 0 1.242-.276 1.585-.828.349-.552.532-1.422.547-2.609v-2.367zm10.75 6.828h-7.453v-1.039l3.938-4.375c.583-.662.984-1.198 1.203-1.61.224-.416.336-.846.336-1.289 0-.593-.18-1.08-.539-1.461-.36-.38-.839-.57-1.438-.57-.719 0-1.278.206-1.679.617-.396.407-.594.974-.594 1.703h-1.446c0-1.046.336-1.893 1.008-2.539.677-.645 1.581-.968 2.711-.968 1.058 0 1.893.278 2.508.836.615.552.922 1.289.922 2.211 0 1.119-.714 2.453-2.141 4l-3.047 3.304h5.711v1.18zm6.282 0h-1.454v-9.633l-2.914 1.07v-1.312l4.141-1.555h.227v11.43z" fill="#333"/>
  <path d="M214.612 429.668c0 .398-.113.703-.34.914-.224.208-.542.313-.953.313-.409 0-.737-.137-.985-.411-.244-.276-.367-.651-.367-1.125v-.429c0-.459.124-.825.371-1.098.25-.276.577-.414.981-.414.416 0 .737.107.961.32.224.214.336.515.336.903h-.571c0-.258-.062-.442-.187-.551-.123-.112-.302-.168-.539-.168a.694.694 0 00-.578.269c-.141.18-.211.43-.211.75v.442c0 .312.07.558.211.738.14.18.333.27.578.27.239 0 .419-.055.539-.164.122-.11.183-.296.183-.559h.571zm-3.567-.516c0 .448.105.864.313 1.246.208.381.491.679.848.895.359.216.747.324 1.164.324.416 0 .803-.108 1.16-.324.357-.216.639-.514.847-.895.209-.382.313-.798.313-1.246 0-.442-.103-.853-.309-1.23a2.298 2.298 0 00-.847-.891 2.184 2.184 0 00-1.164-.328c-.417 0-.805.108-1.164.324-.36.214-.644.511-.852.891a2.55 2.55 0 00-.309 1.234zm-.449 0c0-.526.121-1.014.363-1.464a2.739 2.739 0 011.012-1.063c.432-.26.899-.391 1.399-.391s.964.131 1.394.391c.43.258.766.612 1.008 1.063.245.45.367.938.367 1.464 0 .513-.117.994-.351 1.442a2.803 2.803 0 01-1 1.082c-.43.271-.903.406-1.418.406a2.64 2.64 0 01-1.418-.402 2.808 2.808 0 01-1-1.078 3.053 3.053 0 01-.356-1.45zm8.578 2.848v-5.688h1.606c.495 0 .932.11 1.312.329.38.218.673.53.879.933.209.404.314.867.317 1.391v.363c0 .537-.105 1.007-.313 1.41a2.166 2.166 0 01-.887.93c-.382.216-.829.327-1.339.332h-1.575zm.75-5.07v4.457h.789c.578 0 1.028-.18 1.348-.539.323-.36.484-.871.484-1.536v-.332c0-.645-.152-1.147-.457-1.503-.302-.36-.731-.542-1.289-.547h-.875zm6.141 5.148c-.573 0-1.039-.187-1.399-.562-.359-.378-.539-.882-.539-1.512v-.133c0-.419.08-.793.239-1.121.161-.331.385-.589.672-.773.289-.188.601-.282.937-.282.55 0 .977.181 1.281.543.305.362.457.88.457 1.555v.301h-2.863c.01.416.132.754.363 1.011.235.256.532.383.891.383.255 0 .471-.052.648-.156.178-.104.332-.242.465-.414l.442.344c-.354.544-.886.816-1.594.816zm-.09-3.789a.962.962 0 00-.734.32c-.198.211-.321.508-.367.891h2.117v-.055c-.021-.367-.12-.651-.297-.851-.177-.203-.417-.305-.719-.305zm3.262-.516l.023.532a1.54 1.54 0 011.266-.61c.893 0 1.344.504 1.351 1.512V432h-.722v-2.797c-.003-.305-.073-.53-.211-.676-.136-.145-.348-.218-.637-.218-.234 0-.44.062-.617.187a1.274 1.274 0 00-.414.492V432h-.723v-4.227h.684zm4.711-1.023v1.023h.789v.559h-.789v2.621c0 .169.035.297.105.383.071.083.19.125.36.125.083 0 .197-.016.343-.047V432c-.19.052-.375.078-.554.078-.323 0-.567-.098-.731-.293-.164-.195-.246-.473-.246-.832v-2.621h-.769v-.559h.769v-1.023h.723zm2.422 5.25h-.723v-4.227h.723V432zm-.782-5.348a.44.44 0 01.106-.297c.073-.08.18-.121.32-.121.141 0 .248.041.32.121.073.081.11.18.11.297a.411.411 0 01-.11.293c-.072.078-.179.117-.32.117-.14 0-.247-.039-.32-.117a.422.422 0 01-.106-.293zm1.75 3.196c0-.414.081-.787.243-1.118.164-.33.39-.585.679-.765.292-.18.624-.27.996-.27.576 0 1.041.2 1.395.598.357.398.535.928.535 1.59v.051c0 .411-.079.781-.238 1.109a1.795 1.795 0 01-1.684 1.035c-.573 0-1.038-.199-1.394-.598-.355-.398-.532-.925-.532-1.582v-.05zm.727.086c0 .468.108.845.324 1.128.219.284.511.426.875.426.367 0 .659-.143.875-.429.216-.289.324-.693.324-1.211 0-.464-.11-.839-.332-1.125a1.042 1.042 0 00-.875-.434c-.356 0-.644.142-.863.426-.219.284-.328.69-.328 1.219zm4.711-2.161l.023.532a1.54 1.54 0 011.266-.61c.893 0 1.344.504 1.351 1.512V432h-.722v-2.797c-.003-.305-.073-.53-.211-.676-.136-.145-.348-.218-.637-.218-.234 0-.44.062-.617.187a1.274 1.274 0 00-.414.492V432h-.723v-4.227h.684zm9.367 4.227h-3.727v-.52l1.969-2.187c.292-.331.492-.599.602-.805.112-.208.168-.423.168-.644 0-.297-.09-.541-.27-.731-.179-.19-.419-.285-.719-.285-.359 0-.639.103-.839.309-.198.203-.297.487-.297.851h-.723c0-.523.168-.946.504-1.269.339-.323.79-.485 1.355-.485.529 0 .947.14 1.254.418.308.276.461.645.461 1.106 0 .56-.356 1.226-1.07 2l-1.523 1.652h2.855v.59zm4.332-2.426c0 .847-.144 1.475-.434 1.887-.289.411-.74.617-1.355.617-.607 0-1.056-.2-1.348-.601-.291-.404-.442-1.006-.453-1.805v-.965c0-.836.145-1.457.434-1.863.289-.406.742-.61 1.359-.61.612 0 1.063.197 1.352.59.289.391.437.995.445 1.813v.937zm-.723-.988c0-.612-.086-1.057-.257-1.336-.172-.281-.444-.422-.817-.422-.37 0-.639.139-.808.418-.17.279-.257.707-.262 1.285v1.157c0 .614.088 1.069.266 1.363.179.291.45.437.812.437.357 0 .621-.138.793-.414.174-.276.266-.711.273-1.304v-1.184zm5.375 3.414h-3.726v-.52l1.969-2.187c.291-.331.492-.599.601-.805.112-.208.168-.423.168-.644 0-.297-.09-.541-.269-.731-.18-.19-.42-.285-.719-.285-.36 0-.639.103-.84.309-.198.203-.297.487-.297.851h-.723c0-.523.168-.946.504-1.269.339-.323.791-.485 1.356-.485.529 0 .946.14 1.254.418.307.276.461.645.461 1.106 0 .56-.357 1.226-1.071 2l-1.523 1.652h2.855v.59zm3.141 0h-.727v-4.816l-1.457.535v-.657l2.071-.777h.113V432z" fill="#828282"/>
  <rect x="108.178" y="53.705" width="23.931" height="10.258" rx="4" fill="#BDBDBD"/>
  <path d="M113.237 61h-.656v-4.977h.656V61zm1.702-3.698l.02.465a1.349 1.349 0 011.108-.534c.781 0 1.176.441 1.183 1.323V61h-.633v-2.447c-.002-.267-.064-.464-.184-.592-.119-.127-.305-.191-.558-.191a.913.913 0 00-.54.164c-.154.11-.275.253-.362.43V61h-.632v-3.698h.598zm6.395 1.89c0 .565-.13 1.02-.39 1.364a1.245 1.245 0 01-1.046.512c-.467 0-.828-.165-1.083-.495l-.031.427h-.581v-5.25h.632v1.959c.256-.317.608-.476 1.057-.476.448 0 .801.17 1.056.51.257.34.386.804.386 1.394v.055zm-.632-.072c0-.43-.084-.763-.25-.998-.166-.235-.405-.352-.718-.352-.417 0-.716.194-.899.581v1.6c.194.387.496.58.906.58a.823.823 0 00.708-.351c.168-.235.253-.588.253-1.06zm1.264-.003c0-.363.071-.688.212-.978.144-.29.342-.513.595-.67a1.63 1.63 0 01.872-.236c.503 0 .91.175 1.22.523.312.349.468.813.468 1.392v.044c0 .36-.069.684-.208.97a1.558 1.558 0 01-.592.667c-.255.16-.549.24-.882.24-.501 0-.908-.175-1.22-.524-.31-.348-.465-.81-.465-1.384v-.044zm.636.075c0 .41.095.74.284.988a.916.916 0 00.765.372.909.909 0 00.766-.376c.189-.253.284-.606.284-1.06 0-.405-.097-.733-.291-.984a.91.91 0 00-.765-.38.909.909 0 00-.756.373c-.191.249-.287.604-.287 1.067zm4.69-.54l.82-1.35h.738l-1.21 1.828 1.248 1.87h-.732l-.854-1.384-.855 1.384h-.735l1.248-1.87-1.21-1.828h.731l.811 1.35zM119.199 153h-1.508v-5.258h-5.734V153h-1.5v-11.375h1.5v4.891h5.734v-4.891h1.508V153zm2.055-4.305c0-.828.161-1.573.484-2.234.328-.662.782-1.172 1.36-1.531.583-.36 1.247-.539 1.992-.539 1.151 0 2.081.398 2.789 1.195.713.797 1.07 1.857 1.07 3.18v.101c0 .823-.159 1.563-.476 2.219a3.557 3.557 0 01-1.352 1.523c-.583.365-1.255.547-2.016.547-1.145 0-2.075-.398-2.789-1.195-.708-.797-1.062-1.852-1.062-3.164v-.102zm1.453.172c0 .938.216 1.69.648 2.258.438.568 1.021.852 1.75.852.735 0 1.318-.287 1.75-.86.433-.578.649-1.385.649-2.422 0-.927-.221-1.677-.664-2.25-.438-.578-1.021-.867-1.75-.867-.714 0-1.289.284-1.727.852-.437.567-.656 1.38-.656 2.437zm9.625 4.133h-1.445v-12h1.445v12zm7.539 0c-.083-.167-.151-.464-.203-.891-.672.698-1.474 1.047-2.406 1.047-.834 0-1.519-.234-2.055-.703-.531-.474-.797-1.073-.797-1.797 0-.88.333-1.562 1-2.047.672-.489 1.615-.734 2.828-.734h1.407v-.664c0-.505-.152-.906-.454-1.203-.302-.302-.747-.453-1.336-.453-.515 0-.947.13-1.296.39-.349.261-.524.576-.524.946h-1.453c0-.422.148-.829.445-1.219.302-.396.709-.708 1.219-.938a4.131 4.131 0 011.695-.343c.974 0 1.737.244 2.289.734.553.484.839 1.154.86 2.008v3.89c0 .776.099 1.394.297 1.852V153h-1.516zm-2.398-1.102c.453 0 .882-.117 1.289-.351.406-.235.7-.539.883-.914v-1.735h-1.133c-1.771 0-2.657.519-2.657 1.555 0 .453.152.807.454 1.063.302.255.69.382 1.164.382zm12.015-10.273l3.719 9.281 3.719-9.281h1.945V153h-1.5v-4.43l.141-4.781-3.735 9.211h-1.148l-3.727-9.188.149 4.758V153h-1.5v-11.375h1.937zM166.512 153c-.084-.167-.151-.464-.203-.891-.672.698-1.474 1.047-2.407 1.047-.833 0-1.518-.234-2.054-.703-.532-.474-.797-1.073-.797-1.797 0-.88.333-1.562 1-2.047.672-.489 1.614-.734 2.828-.734h1.406v-.664c0-.505-.151-.906-.453-1.203-.302-.302-.747-.453-1.336-.453-.516 0-.948.13-1.297.39-.349.261-.523.576-.523.946h-1.453c0-.422.148-.829.445-1.219.302-.396.708-.708 1.219-.938a4.125 4.125 0 011.695-.343c.974 0 1.737.244 2.289.734.552.484.839 1.154.859 2.008v3.89c0 .776.099 1.394.297 1.852V153h-1.515zm-2.399-1.102c.453 0 .883-.117 1.289-.351.407-.235.701-.539.883-.914v-1.735h-1.133c-1.77 0-2.656.519-2.656 1.555 0 .453.151.807.453 1.063.302.255.69.382 1.164.382zm9.969-6.054a4.276 4.276 0 00-.711-.055c-.948 0-1.591.404-1.93 1.211v6h-1.445v-8.453h1.406l.024.976c.474-.755 1.146-1.132 2.015-1.132.282 0 .495.036.641.109v1.344zm2.906 7.156h-1.453v-8.453h1.453V153zm.016-11.992h1.75l-2.094 2.297h-1.164l1.508-2.297zM184.59 153c-.083-.167-.151-.464-.203-.891-.672.698-1.474 1.047-2.407 1.047-.833 0-1.518-.234-2.054-.703-.531-.474-.797-1.073-.797-1.797 0-.88.333-1.562 1-2.047.672-.489 1.614-.734 2.828-.734h1.406v-.664c0-.505-.151-.906-.453-1.203-.302-.302-.747-.453-1.336-.453-.515 0-.948.13-1.297.39-.349.261-.523.576-.523.946h-1.453c0-.422.148-.829.445-1.219.302-.396.708-.708 1.219-.938a4.128 4.128 0 011.695-.343c.974 0 1.737.244 2.289.734.552.484.839 1.154.86 2.008v3.89c0 .776.099 1.394.296 1.852V153h-1.515zm-2.399-1.102a2.54 2.54 0 001.289-.351c.407-.235.701-.539.883-.914v-1.735h-1.133c-1.77 0-2.656.519-2.656 1.555 0 .453.151.807.453 1.063.302.255.69.382 1.164.382zm11.586-.125h5.391V153h-6.898v-11.375h1.507v10.148zm6.493-3.078c0-.828.161-1.573.484-2.234.328-.662.781-1.172 1.359-1.531.584-.36 1.248-.539 1.992-.539 1.152 0 2.081.398 2.79 1.195.713.797 1.07 1.857 1.07 3.18v.101c0 .823-.159 1.563-.477 2.219a3.555 3.555 0 01-1.351 1.523c-.584.365-1.255.547-2.016.547-1.146 0-2.075-.398-2.789-1.195-.708-.797-1.062-1.852-1.062-3.164v-.102zm1.453.172c0 .938.216 1.69.648 2.258.438.568 1.021.852 1.75.852.734 0 1.318-.287 1.75-.86.432-.578.649-1.385.649-2.422 0-.927-.222-1.677-.665-2.25-.437-.578-1.02-.867-1.75-.867-.713 0-1.289.284-1.726.852-.438.567-.656 1.38-.656 2.437zm3.039-7.867h1.75l-2.094 2.297h-1.164l1.508-2.297zm12.156 7.867c0 1.287-.294 2.323-.883 3.11-.588.786-1.385 1.179-2.39 1.179-1.027 0-1.834-.325-2.422-.976v4.07h-1.446v-11.703h1.321l.07.937c.589-.729 1.406-1.093 2.453-1.093 1.016 0 1.818.382 2.406 1.148.594.766.891 1.831.891 3.195v.133zm-1.445-.164c0-.953-.203-1.706-.61-2.258-.406-.552-.963-.828-1.672-.828-.875 0-1.531.388-1.968 1.164v4.039c.432.771 1.093 1.157 1.984 1.157.693 0 1.242-.274 1.648-.821.412-.552.618-1.37.618-2.453zm6.797 4.453c-1.146 0-2.079-.375-2.797-1.125-.719-.755-1.078-1.763-1.078-3.023v-.266c0-.838.158-1.586.476-2.242.323-.661.771-1.177 1.344-1.547a3.38 3.38 0 011.875-.562c1.099 0 1.953.362 2.562 1.086.61.724.914 1.76.914 3.109v.602h-5.726c.021.833.263 1.507.726 2.023.469.51 1.063.766 1.782.766.51 0 .942-.105 1.297-.313a3.24 3.24 0 00.929-.828l.883.687c-.708 1.089-1.771 1.633-3.187 1.633zm-.18-7.578c-.583 0-1.073.214-1.469.641-.396.422-.641 1.015-.734 1.781h4.234v-.109c-.042-.735-.239-1.302-.594-1.703-.354-.407-.833-.61-1.437-.61zm6.515 6.242h4.946V153h-6.711v-1.062l4.664-6.196h-4.594v-1.195h6.406v1.023l-4.711 6.25zm6.532 3.446l-.821-.563c.49-.682.745-1.385.766-2.109v-1.305h1.414v1.133c0 .526-.13 1.052-.391 1.578-.255.526-.578.948-.968 1.266zm-116.821 17.593h-3.656V183h-1.492v-10.141h-3.648v-1.234h8.796v1.234zM121.348 183h-1.446v-8.453h1.446V183zm-1.563-10.695a.87.87 0 01.211-.594c.146-.162.359-.242.641-.242.281 0 .495.08.64.242a.852.852 0 01.219.594.827.827 0 01-.219.586c-.145.156-.359.234-.64.234-.282 0-.495-.078-.641-.234a.844.844 0 01-.211-.586zm7.391 10.851c-1.146 0-2.078-.375-2.797-1.125-.719-.755-1.078-1.763-1.078-3.023v-.266c0-.838.159-1.586.476-2.242.323-.661.771-1.177 1.344-1.547a3.38 3.38 0 011.875-.562c1.099 0 1.953.362 2.563 1.086.609.724.914 1.76.914 3.109v.602h-5.727c.021.833.263 1.507.727 2.023.468.51 1.062.766 1.781.766.51 0 .943-.105 1.297-.313a3.24 3.24 0 00.929-.828l.883.687c-.708 1.089-1.771 1.633-3.187 1.633zm-.18-7.578c-.583 0-1.073.214-1.469.641-.395.422-.64 1.015-.734 1.781h4.234v-.109c-.041-.735-.239-1.302-.593-1.703-.355-.407-.834-.61-1.438-.61zm6.524-1.031l.046 1.062c.646-.812 1.49-1.218 2.532-1.218 1.786 0 2.687 1.007 2.703 3.023V183h-1.446v-5.594c-.005-.609-.145-1.06-.421-1.351-.271-.292-.696-.438-1.274-.438-.469 0-.88.125-1.234.375s-.63.578-.828.985V183h-1.446v-8.453h1.368zm10.968 8.609c-1.146 0-2.078-.375-2.797-1.125-.718-.755-1.078-1.763-1.078-3.023v-.266c0-.838.159-1.586.477-2.242.323-.661.771-1.177 1.344-1.547a3.38 3.38 0 011.875-.562c1.099 0 1.953.362 2.562 1.086.609.724.914 1.76.914 3.109v.602h-5.726c.02.833.263 1.507.726 2.023.469.51 1.063.766 1.781.766.511 0 .943-.105 1.297-.313.354-.208.664-.484.93-.828l.883.687c-.709 1.089-1.771 1.633-3.188 1.633zm-.179-7.578c-.584 0-1.073.214-1.469.641-.396.422-.641 1.015-.735 1.781h4.235v-.109c-.042-.735-.24-1.302-.594-1.703-.354-.407-.833-.61-1.437-.61zm10.078 5.18c0-.391-.149-.693-.446-.906-.291-.219-.804-.407-1.539-.563-.729-.156-1.31-.344-1.742-.562-.427-.219-.745-.48-.953-.782-.203-.302-.305-.661-.305-1.078 0-.693.292-1.278.875-1.758.589-.479 1.339-.718 2.25-.718.959 0 1.735.247 2.328.742.599.495.899 1.127.899 1.898h-1.453c0-.396-.169-.737-.508-1.023-.333-.287-.755-.43-1.266-.43-.526 0-.937.115-1.234.344a1.081 1.081 0 00-.445.898c0 .349.138.612.414.789.276.177.773.347 1.492.508.724.162 1.31.354 1.758.578.448.224.778.495.992.813.219.312.328.695.328 1.148 0 .755-.302 1.362-.906 1.821-.604.453-1.388.679-2.352.679-.677 0-1.276-.12-1.797-.359a2.97 2.97 0 01-1.226-1 2.452 2.452 0 01-.438-1.399h1.446c.026.485.218.87.578 1.157.364.281.843.422 1.437.422.547 0 .985-.11 1.313-.329.333-.224.5-.52.5-.89zm12.515 1.406c-.562.662-1.388.992-2.476.992-.901 0-1.589-.26-2.063-.781-.468-.526-.705-1.302-.711-2.328v-5.5h1.446v5.461c0 1.281.52 1.922 1.562 1.922 1.104 0 1.839-.412 2.203-1.235v-6.148h1.446V183h-1.375l-.032-.836zm4.977-7.617l.047 1.062c.646-.812 1.489-1.218 2.531-1.218 1.786 0 2.688 1.007 2.703 3.023V183h-1.445v-5.594c-.005-.609-.146-1.06-.422-1.351-.271-.292-.695-.438-1.273-.438-.469 0-.881.125-1.235.375-.354.25-.63.578-.828.985V183h-1.445v-8.453h1.367zm12.68 8.453c-.084-.167-.151-.464-.204-.891-.671.698-1.473 1.047-2.406 1.047-.833 0-1.518-.234-2.054-.703-.532-.474-.797-1.073-.797-1.797 0-.88.333-1.562 1-2.047.672-.489 1.614-.734 2.828-.734h1.406v-.664c0-.505-.151-.906-.453-1.203-.302-.302-.747-.453-1.336-.453-.516 0-.948.13-1.297.39-.349.261-.523.576-.523.946h-1.453c0-.422.148-.829.445-1.219.302-.396.708-.708 1.219-.938a4.125 4.125 0 011.695-.343c.974 0 1.737.244 2.289.734.552.484.839 1.154.859 2.008v3.89c0 .776.099 1.394.297 1.852V183h-1.515zm-2.399-1.102c.453 0 .883-.117 1.289-.351.406-.235.701-.539.883-.914v-1.735h-1.133c-1.771 0-2.656.519-2.656 1.555 0 .453.151.807.453 1.063.302.255.69.382 1.164.382zm11.219-7.351l.047 1.062c.646-.812 1.489-1.218 2.531-1.218 1.786 0 2.688 1.007 2.703 3.023V183h-1.445v-5.594c-.005-.609-.146-1.06-.422-1.351-.271-.292-.695-.438-1.273-.438-.469 0-.881.125-1.235.375-.354.25-.63.578-.828.985V183h-1.445v-8.453h1.367zm12.68 7.617c-.563.662-1.388.992-2.477.992-.901 0-1.589-.26-2.062-.781-.469-.526-.706-1.302-.711-2.328v-5.5h1.445v5.461c0 1.281.521 1.922 1.562 1.922 1.105 0 1.839-.412 2.204-1.235v-6.148h1.445V183h-1.375l-.031-.836zm7.117.992c-1.146 0-2.078-.375-2.797-1.125-.719-.755-1.078-1.763-1.078-3.023v-.266c0-.838.159-1.586.476-2.242.323-.661.771-1.177 1.344-1.547a3.38 3.38 0 011.875-.562c1.099 0 1.953.362 2.563 1.086.609.724.914 1.76.914 3.109v.602h-5.727c.021.833.263 1.507.727 2.023.468.51 1.062.766 1.781.766.51 0 .943-.105 1.297-.313a3.24 3.24 0 00.929-.828l.883.687c-.708 1.089-1.771 1.633-3.187 1.633zm-.18-7.578c-.583 0-1.073.214-1.469.641-.395.422-.64 1.015-.734 1.781h4.234v-.109c-.041-.735-.239-1.302-.593-1.703-.355-.407-.834-.61-1.438-.61zm7.836 5.461l2.094-6.492h1.476L221.371 183h-1.101l-3.063-8.453h1.477l2.148 6.492zM230.887 183c-.084-.167-.151-.464-.203-.891-.672.698-1.474 1.047-2.407 1.047-.833 0-1.518-.234-2.054-.703-.532-.474-.797-1.073-.797-1.797 0-.88.333-1.562 1-2.047.672-.489 1.614-.734 2.828-.734h1.406v-.664c0-.505-.151-.906-.453-1.203-.302-.302-.747-.453-1.336-.453-.516 0-.948.13-1.297.39-.349.261-.523.576-.523.946h-1.453c0-.422.148-.829.445-1.219.302-.396.708-.708 1.219-.938a4.125 4.125 0 011.695-.343c.974 0 1.737.244 2.289.734.552.484.839 1.154.859 2.008v3.89c0 .776.099 1.394.297 1.852V183h-1.515zm-2.399-1.102c.453 0 .883-.117 1.289-.351.407-.235.701-.539.883-.914v-1.735h-1.133c-1.77 0-2.656.519-2.656 1.555 0 .453.151.807.453 1.063.302.255.69.382 1.164.382zm13.242.079c.516 0 .967-.157 1.352-.469.385-.313.599-.703.641-1.172h1.367c-.026.484-.193.945-.5 1.383a3.293 3.293 0 01-1.235 1.047 3.53 3.53 0 01-1.625.39c-1.151 0-2.067-.383-2.75-1.148-.677-.771-1.015-1.823-1.015-3.156v-.243c0-.823.151-1.554.453-2.195a3.453 3.453 0 011.297-1.492c.568-.354 1.237-.531 2.008-.531.948 0 1.734.283 2.359.851.63.568.966 1.305 1.008 2.211h-1.367c-.042-.547-.25-.995-.625-1.344-.37-.354-.828-.531-1.375-.531-.735 0-1.305.266-1.711.797-.401.526-.602 1.289-.602 2.289v.274c0 .973.201 1.723.602 2.25.401.526.974.789 1.718.789zm6.555 1.023h-1.445v-8.453h1.445V183zm-1.562-10.695a.87.87 0 01.211-.594c.145-.162.359-.242.64-.242s.495.08.641.242a.852.852 0 01.219.594.827.827 0 01-.219.586c-.146.156-.36.234-.641.234s-.495-.078-.64-.234a.844.844 0 01-.211-.586zm5.843.195v2.047h1.579v1.117h-1.579v5.242c0 .339.071.594.211.766.141.167.381.25.719.25.167 0 .396-.031.688-.094V183c-.381.104-.75.156-1.11.156-.646 0-1.133-.195-1.461-.586-.328-.39-.492-.945-.492-1.664v-5.242h-1.539v-1.117h1.539V172.5h1.445zm8.493 10.5c-.084-.167-.151-.464-.204-.891-.671.698-1.473 1.047-2.406 1.047-.833 0-1.518-.234-2.054-.703-.532-.474-.797-1.073-.797-1.797 0-.88.333-1.562 1-2.047.672-.489 1.614-.734 2.828-.734h1.406v-.664c0-.505-.151-.906-.453-1.203-.302-.302-.747-.453-1.336-.453-.516 0-.948.13-1.297.39-.349.261-.523.576-.523.946h-1.453c0-.422.148-.829.445-1.219.302-.396.708-.708 1.219-.938a4.125 4.125 0 011.695-.343c.974 0 1.737.244 2.289.734.552.484.839 1.154.859 2.008v3.89c0 .776.099 1.394.297 1.852V183h-1.515zm-2.399-1.102c.453 0 .883-.117 1.289-.351.406-.235.701-.539.883-.914v-1.735h-1.133c-1.771 0-2.656.519-2.656 1.555 0 .453.151.807.453 1.063.302.255.69.382 1.164.382zm13.36 1.258c-1.146 0-2.079-.375-2.797-1.125-.719-.755-1.078-1.763-1.078-3.023v-.266c0-.838.158-1.586.476-2.242.323-.661.771-1.177 1.344-1.547a3.38 3.38 0 011.875-.562c1.099 0 1.953.362 2.562 1.086.61.724.914 1.76.914 3.109v.602h-5.726c.021.833.263 1.507.726 2.023.469.51 1.063.766 1.782.766.51 0 .942-.105 1.297-.313a3.24 3.24 0 00.929-.828l.883.687c-.708 1.089-1.771 1.633-3.187 1.633zm-.18-7.578c-.583 0-1.073.214-1.469.641-.396.422-.641 1.015-.734 1.781h4.234v-.109c-.042-.735-.239-1.302-.594-1.703-.354-.407-.833-.61-1.437-.61zm6.523-1.031l.047 1.062c.646-.812 1.49-1.218 2.531-1.218 1.787 0 2.688 1.007 2.704 3.023V183h-1.446v-5.594c-.005-.609-.146-1.06-.422-1.351-.27-.292-.695-.438-1.273-.438-.469 0-.88.125-1.234.375-.355.25-.631.578-.829.985V183h-1.445v-8.453h1.367zm13 8.453h-1.445v-12h1.445v12zm7.539 0c-.083-.167-.151-.464-.203-.891-.672.698-1.474 1.047-2.406 1.047-.833 0-1.518-.234-2.055-.703-.531-.474-.797-1.073-.797-1.797 0-.88.334-1.562 1-2.047.672-.489 1.615-.734 2.829-.734h1.406v-.664c0-.505-.151-.906-.453-1.203-.302-.302-.748-.453-1.336-.453-.516 0-.948.13-1.297.39-.349.261-.524.576-.524.946h-1.453c0-.422.149-.829.446-1.219.302-.396.708-.708 1.218-.938a4.133 4.133 0 011.696-.343c.974 0 1.737.244 2.289.734.552.484.838 1.154.859 2.008v3.89c0 .776.099 1.394.297 1.852V183h-1.516zm-2.398-1.102c.453 0 .883-.117 1.289-.351.406-.235.7-.539.883-.914v-1.735h-1.133c-1.771 0-2.656.519-2.656 1.555 0 .453.151.807.453 1.063.302.255.69.382 1.164.382zm13.242.079c.516 0 .966-.157 1.352-.469.385-.313.599-.703.64-1.172h1.367a2.618 2.618 0 01-.5 1.383 3.29 3.29 0 01-1.234 1.047 3.53 3.53 0 01-1.625.39c-1.151 0-2.068-.383-2.75-1.148-.677-.771-1.016-1.823-1.016-3.156v-.243c0-.823.152-1.554.454-2.195a3.457 3.457 0 011.296-1.492c.568-.354 1.237-.531 2.008-.531.948 0 1.735.283 2.36.851.63.568.966 1.305 1.007 2.211h-1.367c-.041-.547-.25-.995-.625-1.344-.37-.354-.828-.531-1.375-.531-.734 0-1.304.266-1.711.797-.401.526-.601 1.289-.601 2.289v.274c0 .973.2 1.723.601 2.25.401.526.974.789 1.719.789zm6.555 1.023h-1.446v-12h1.446v12zm3.89 0h-1.453v-8.453h1.453V183zm.016-11.992h1.75l-2.094 2.297h-1.164l1.508-2.297zm3.734 3.539l.047 1.062c.646-.812 1.49-1.218 2.532-1.218 1.786 0 2.687 1.007 2.703 3.023V183h-1.446v-5.594c-.005-.609-.145-1.06-.422-1.351-.27-.292-.695-.438-1.273-.438-.469 0-.88.125-1.234.375-.355.25-.631.578-.828.985V183h-1.446v-8.453h1.367zm9.032 8.453h-1.446v-8.453h1.446V183zm-1.563-10.695a.87.87 0 01.211-.594c.146-.162.359-.242.641-.242.281 0 .495.08.64.242a.852.852 0 01.219.594.827.827 0 01-.219.586c-.145.156-.359.234-.64.234-.282 0-.495-.078-.641-.234a.844.844 0 01-.211-.586zm7.274 9.672c.515 0 .966-.157 1.351-.469.386-.313.599-.703.641-1.172h1.367c-.026.484-.193.945-.5 1.383a3.297 3.297 0 01-1.234 1.047c-.511.26-1.052.39-1.625.39-1.151 0-2.068-.383-2.75-1.148-.677-.771-1.016-1.823-1.016-3.156v-.243c0-.823.151-1.554.453-2.195a3.453 3.453 0 011.297-1.492c.568-.354 1.237-.531 2.008-.531.948 0 1.734.283 2.359.851.63.568.966 1.305 1.008 2.211h-1.367c-.042-.547-.25-.995-.625-1.344-.37-.354-.828-.531-1.375-.531-.735 0-1.305.266-1.711.797-.401.526-.602 1.289-.602 2.289v.274c0 .973.201 1.723.602 2.25.401.526.974.789 1.719.789zM348.887 183c-.084-.167-.151-.464-.203-.891-.672.698-1.474 1.047-2.407 1.047-.833 0-1.518-.234-2.054-.703-.532-.474-.797-1.073-.797-1.797 0-.88.333-1.562 1-2.047.672-.489 1.614-.734 2.828-.734h1.406v-.664c0-.505-.151-.906-.453-1.203-.302-.302-.747-.453-1.336-.453-.516 0-.948.13-1.297.39-.349.261-.523.576-.523.946h-1.453c0-.422.148-.829.445-1.219.302-.396.708-.708 1.219-.938a4.125 4.125 0 011.695-.343c.974 0 1.737.244 2.289.734.552.484.839 1.154.859 2.008v3.89c0 .776.099 1.394.297 1.852V183h-1.515zm-2.399-1.102c.453 0 .883-.117 1.289-.351.407-.235.701-.539.883-.914v-1.735h-1.133c-1.77 0-2.656.519-2.656 1.555 0 .453.151.807.453 1.063.302.255.69.382 1.164.382zm-236.609 15.805c0-1.297.307-2.338.922-3.125.614-.792 1.419-1.187 2.414-1.187.989 0 1.773.338 2.351 1.015V190h1.446v12h-1.328l-.071-.906c-.578.708-1.383 1.062-2.414 1.062-.979 0-1.778-.401-2.398-1.203-.615-.802-.922-1.849-.922-3.141v-.109zm1.445.164c0 .959.198 1.709.594 2.25.396.542.943.813 1.641.813.916 0 1.586-.412 2.007-1.235v-3.883c-.432-.796-1.096-1.195-1.992-1.195-.708 0-1.26.274-1.656.821-.396.546-.594 1.356-.594 2.429zm11.446 4.289c-1.146 0-2.079-.375-2.797-1.125-.719-.755-1.078-1.763-1.078-3.023v-.266c0-.838.158-1.586.476-2.242.323-.661.771-1.177 1.344-1.547a3.38 3.38 0 011.875-.562c1.099 0 1.953.362 2.562 1.086.61.724.914 1.76.914 3.109v.602h-5.726c.021.833.263 1.507.726 2.023.469.51 1.063.766 1.782.766.51 0 .942-.105 1.297-.313a3.24 3.24 0 00.929-.828l.883.687c-.708 1.089-1.771 1.633-3.187 1.633zm-.18-7.578c-.583 0-1.073.214-1.469.641-.396.422-.641 1.015-.734 1.781h4.234v-.109c-.042-.735-.239-1.302-.594-1.703-.354-.407-.833-.61-1.437-.61zm6.523-1.031l.047 1.062c.646-.812 1.49-1.218 2.531-1.218 1.787 0 2.688 1.007 2.704 3.023V202h-1.446v-5.594c-.005-.609-.146-1.06-.422-1.351-.27-.292-.695-.438-1.273-.438-.469 0-.88.125-1.234.375-.355.25-.631.578-.829.985V202h-1.445v-8.453h1.367zm9.422-2.047v2.047h1.578v1.117h-1.578v5.242c0 .339.07.594.211.766.141.167.38.25.719.25.167 0 .396-.031.687-.094V202c-.38.104-.75.156-1.109.156-.646 0-1.133-.195-1.461-.586-.328-.39-.492-.945-.492-1.664v-5.242h-1.539v-1.117h1.539V191.5h1.445zm8.492 10.5c-.083-.167-.151-.464-.203-.891-.672.698-1.474 1.047-2.406 1.047-.833 0-1.518-.234-2.055-.703-.531-.474-.797-1.073-.797-1.797 0-.88.334-1.562 1-2.047.672-.489 1.615-.734 2.829-.734h1.406v-.664c0-.505-.151-.906-.453-1.203-.302-.302-.748-.453-1.336-.453-.516 0-.948.13-1.297.39-.349.261-.524.576-.524.946h-1.453c0-.422.149-.829.446-1.219.302-.396.708-.708 1.218-.938a4.133 4.133 0 011.696-.343c.974 0 1.737.244 2.289.734.552.484.838 1.154.859 2.008v3.89c0 .776.099 1.394.297 1.852V202h-1.516zm-2.398-1.102c.453 0 .883-.117 1.289-.351.406-.235.7-.539.883-.914v-1.735h-1.133c-1.771 0-2.656.519-2.656 1.555 0 .453.151.807.453 1.063.302.255.69.382 1.164.382zm7.453 1.102h-1.445v-12h1.445v12zm2.352-.758c0-.25.073-.458.218-.625.151-.166.375-.25.672-.25.297 0 .521.084.672.25a.88.88 0 01.234.625c0 .24-.078.44-.234.602-.151.161-.375.242-.672.242-.297 0-.521-.081-.672-.242a.869.869 0 01-.218-.602zm-40.211 28.766l3.25-9.383h1.64L114.895 232h-1.329l-4.211-11.375h1.633l3.235 9.383zm9.359 2.148c-1.146 0-2.078-.375-2.797-1.125-.719-.755-1.078-1.763-1.078-3.023v-.266c0-.838.159-1.586.477-2.242.323-.661.77-1.177 1.343-1.547a3.38 3.38 0 011.875-.562c1.099 0 1.953.362 2.563 1.086.609.724.914 1.76.914 3.109v.602h-5.727c.021.833.263 1.507.727 2.023.469.51 1.062.766 1.781.766.511 0 .943-.105 1.297-.313.354-.208.664-.484.93-.828l.883.687c-.709 1.089-1.771 1.633-3.188 1.633zm-.18-7.578a1.92 1.92 0 00-1.468.641c-.396.422-.641 1.015-.735 1.781h4.235v-.109c-.042-.735-.24-1.302-.594-1.703-.354-.407-.833-.61-1.438-.61zM133.777 232c-.083-.167-.151-.464-.203-.891-.672.698-1.474 1.047-2.406 1.047-.833 0-1.518-.234-2.055-.703-.531-.474-.797-1.073-.797-1.797 0-.88.334-1.562 1-2.047.672-.489 1.615-.734 2.829-.734h1.406v-.664c0-.505-.151-.906-.453-1.203-.302-.302-.748-.453-1.336-.453-.516 0-.948.13-1.297.39-.349.261-.524.576-.524.946h-1.453c0-.422.149-.829.446-1.219.302-.396.708-.708 1.218-.938a4.133 4.133 0 011.696-.343c.974 0 1.737.244 2.289.734.552.484.838 1.154.859 2.008v3.89c0 .776.099 1.394.297 1.852V232h-1.516zm-2.398-1.102c.453 0 .883-.117 1.289-.351.406-.235.7-.539.883-.914v-1.735h-1.133c-1.771 0-2.656.519-2.656 1.555 0 .453.151.807.453 1.063.302.255.69.382 1.164.382zM142.801 232h-1.446v-12h1.446v12zm7.539 0c-.083-.167-.151-.464-.203-.891-.672.698-1.474 1.047-2.407 1.047-.833 0-1.518-.234-2.054-.703-.531-.474-.797-1.073-.797-1.797 0-.88.333-1.562 1-2.047.672-.489 1.614-.734 2.828-.734h1.406v-.664c0-.505-.151-.906-.453-1.203-.302-.302-.747-.453-1.336-.453-.515 0-.948.13-1.297.39-.349.261-.523.576-.523.946h-1.453c0-.422.148-.829.445-1.219.302-.396.708-.708 1.219-.938a4.128 4.128 0 011.695-.343c.974 0 1.737.244 2.289.734.552.484.839 1.154.86 2.008v3.89c0 .776.099 1.394.296 1.852V232h-1.515zm-2.399-1.102a2.54 2.54 0 001.289-.351c.407-.235.701-.539.883-.914v-1.735h-1.133c-1.77 0-2.656.519-2.656 1.555 0 .453.151.807.453 1.063.302.255.69.382 1.164.382zM159.363 232h-1.445v-8.453h1.445V232zm-1.562-10.695a.87.87 0 01.211-.594c.146-.162.359-.242.64-.242.282 0 .495.08.641.242a.852.852 0 01.219.594.827.827 0 01-.219.586c-.146.156-.359.234-.641.234-.281 0-.494-.078-.64-.234a.844.844 0 01-.211-.586zm5.25 2.242l.047 1.062c.645-.812 1.489-1.218 2.531-1.218 1.786 0 2.687 1.007 2.703 3.023V232h-1.445v-5.594c-.005-.609-.146-1.06-.422-1.351-.271-.292-.695-.438-1.274-.438-.468 0-.88.125-1.234.375s-.63.578-.828.985V232h-1.445v-8.453h1.367zm8.172 8.453v-7.336h-1.336v-1.117h1.336v-.867c0-.907.242-1.607.726-2.102.485-.495 1.169-.742 2.055-.742.333 0 .664.044.992.133l-.078 1.172a4.139 4.139 0 00-.781-.071c-.469 0-.831.138-1.086.414-.255.271-.383.662-.383 1.172v.891h1.805v1.117h-1.805V232h-1.445zm4.468-4.305c0-.828.162-1.573.485-2.234.328-.662.781-1.172 1.359-1.531.583-.36 1.248-.539 1.992-.539 1.151 0 2.081.398 2.789 1.195.714.797 1.071 1.857 1.071 3.18v.101c0 .823-.159 1.563-.477 2.219a3.555 3.555 0 01-1.351 1.523c-.584.365-1.256.547-2.016.547-1.146 0-2.076-.398-2.789-1.195-.708-.797-1.063-1.852-1.063-3.164v-.102zm1.454.172c0 .938.216 1.69.648 2.258.437.568 1.021.852 1.75.852.734 0 1.318-.287 1.75-.86.432-.578.648-1.385.648-2.422 0-.927-.221-1.677-.664-2.25-.437-.578-1.02-.867-1.75-.867-.713 0-1.289.284-1.726.852-.438.567-.656 1.38-.656 2.437zm12.14-3.023a4.276 4.276 0 00-.711-.055c-.948 0-1.591.404-1.929 1.211v6h-1.446v-8.453h1.406l.024.976c.474-.755 1.146-1.132 2.016-1.132.281 0 .494.036.64.109v1.344zm2.695-1.297l.04.937c.619-.729 1.455-1.093 2.507-1.093 1.183 0 1.987.453 2.414 1.359a3.222 3.222 0 011.094-.984c.453-.25.987-.375 1.602-.375 1.854 0 2.797.981 2.828 2.945V232h-1.445v-5.578c0-.604-.138-1.055-.415-1.352-.276-.302-.739-.453-1.39-.453-.537 0-.982.162-1.336.485-.354.317-.56.747-.617 1.289V232h-1.453v-5.539c0-1.229-.602-1.844-1.805-1.844-.948 0-1.596.404-1.945 1.211V232h-1.446v-8.453h1.367zM209.871 232c-.083-.167-.151-.464-.203-.891-.672.698-1.474 1.047-2.406 1.047-.834 0-1.519-.234-2.055-.703-.531-.474-.797-1.073-.797-1.797 0-.88.333-1.562 1-2.047.672-.489 1.615-.734 2.828-.734h1.407v-.664c0-.505-.152-.906-.454-1.203-.302-.302-.747-.453-1.336-.453-.515 0-.947.13-1.296.39-.349.261-.524.576-.524.946h-1.453c0-.422.148-.829.445-1.219.302-.396.709-.708 1.219-.938a4.131 4.131 0 011.695-.343c.974 0 1.737.244 2.289.734.553.484.839 1.154.86 2.008v3.89c0 .776.099 1.394.297 1.852V232h-1.516zm-2.398-1.102c.453 0 .882-.117 1.289-.351.406-.235.7-.539.883-.914v-1.735h-1.133c-1.771 0-2.657.519-2.657 1.555 0 .453.152.807.454 1.063.302.255.69.382 1.164.382zm9.273.079c.516 0 .966-.157 1.352-.469.385-.313.599-.703.64-1.172h1.367a2.618 2.618 0 01-.5 1.383 3.29 3.29 0 01-1.234 1.047 3.53 3.53 0 01-1.625.39c-1.151 0-2.068-.383-2.75-1.148-.677-.771-1.016-1.823-1.016-3.156v-.243c0-.823.152-1.554.454-2.195a3.457 3.457 0 011.296-1.492c.568-.354 1.237-.531 2.008-.531.948 0 1.735.283 2.36.851.63.568.966 1.305 1.007 2.211h-1.367c-.041-.547-.25-.995-.625-1.344-.37-.354-.828-.531-1.375-.531-.734 0-1.304.266-1.711.797-.401.526-.601 1.289-.601 2.289v.274c0 .973.2 1.723.601 2.25.401.526.974.789 1.719.789zm6.555 1.023h-1.446v-8.453h1.446V232zm-1.563-10.695c0-.235.071-.433.211-.594.146-.162.36-.242.641-.242s.495.08.64.242a.852.852 0 01.219.594.827.827 0 01-.219.586c-.145.156-.359.234-.64.234s-.495-.078-.641-.234a.848.848 0 01-.211-.586zm3.5 6.39c0-.828.162-1.573.485-2.234.328-.662.781-1.172 1.359-1.531.583-.36 1.247-.539 1.992-.539 1.151 0 2.081.398 2.789 1.195.714.797 1.071 1.857 1.071 3.18v.101c0 .823-.159 1.563-.477 2.219a3.55 3.55 0 01-1.352 1.523c-.583.365-1.255.547-2.015.547-1.146 0-2.076-.398-2.789-1.195-.709-.797-1.063-1.852-1.063-3.164v-.102zm1.453.172c0 .938.217 1.69.649 2.258.437.568 1.021.852 1.75.852.734 0 1.318-.287 1.75-.86.432-.578.648-1.385.648-2.422 0-.927-.221-1.677-.664-2.25-.437-.578-1.021-.867-1.75-.867-.713 0-1.289.284-1.726.852-.438.567-.657 1.38-.657 2.437zM229.73 220h1.75l-2.093 2.297h-1.164L229.73 220zm6.383 3.547l.047 1.062c.646-.812 1.49-1.218 2.531-1.218 1.787 0 2.688 1.007 2.704 3.023V232h-1.446v-5.594c-.005-.609-.146-1.06-.422-1.351-.27-.292-.695-.438-1.273-.438-.469 0-.88.125-1.234.375-.355.25-.631.578-.829.985V232h-1.445v-8.453h1.367zM252.762 232c-.084-.167-.151-.464-.203-.891-.672.698-1.474 1.047-2.407 1.047-.833 0-1.518-.234-2.054-.703-.532-.474-.797-1.073-.797-1.797 0-.88.333-1.562 1-2.047.672-.489 1.614-.734 2.828-.734h1.406v-.664c0-.505-.151-.906-.453-1.203-.302-.302-.747-.453-1.336-.453-.516 0-.948.13-1.297.39-.349.261-.523.576-.523.946h-1.453c0-.422.148-.829.445-1.219.302-.396.708-.708 1.219-.938a4.125 4.125 0 011.695-.343c.974 0 1.737.244 2.289.734.552.484.839 1.154.859 2.008v3.89c0 .776.099 1.394.297 1.852V232h-1.515zm-2.399-1.102c.453 0 .883-.117 1.289-.351.407-.235.701-.539.883-.914v-1.735h-1.133c-1.77 0-2.656.519-2.656 1.555 0 .453.151.807.453 1.063.302.255.69.382 1.164.382zm13.242.079c.516 0 .967-.157 1.352-.469.385-.313.599-.703.641-1.172h1.367c-.026.484-.193.945-.5 1.383a3.293 3.293 0 01-1.235 1.047 3.53 3.53 0 01-1.625.39c-1.151 0-2.067-.383-2.75-1.148-.677-.771-1.015-1.823-1.015-3.156v-.243c0-.823.151-1.554.453-2.195a3.453 3.453 0 011.297-1.492c.568-.354 1.237-.531 2.008-.531.948 0 1.734.283 2.359.851.63.568.966 1.305 1.008 2.211h-1.367c-.042-.547-.25-.995-.625-1.344-.37-.354-.828-.531-1.375-.531-.735 0-1.305.266-1.711.797-.401.526-.602 1.289-.602 2.289v.274c0 .973.201 1.723.602 2.25.401.526.974.789 1.718.789zm4.602-3.282c0-.828.161-1.573.484-2.234.329-.662.782-1.172 1.36-1.531.583-.36 1.247-.539 1.992-.539 1.151 0 2.081.398 2.789 1.195.714.797 1.07 1.857 1.07 3.18v.101c0 .823-.159 1.563-.476 2.219a3.557 3.557 0 01-1.352 1.523c-.583.365-1.255.547-2.015.547-1.146 0-2.076-.398-2.789-1.195-.709-.797-1.063-1.852-1.063-3.164v-.102zm1.453.172c0 .938.216 1.69.649 2.258.437.568 1.02.852 1.75.852.734 0 1.317-.287 1.75-.86.432-.578.648-1.385.648-2.422 0-.927-.221-1.677-.664-2.25-.438-.578-1.021-.867-1.75-.867-.714 0-1.289.284-1.727.852-.437.567-.656 1.38-.656 2.437zm9.422-4.32l.047 1.062c.646-.812 1.489-1.218 2.531-1.218 1.787 0 2.688 1.007 2.703 3.023V232h-1.445v-5.594c-.005-.609-.146-1.06-.422-1.351-.271-.292-.695-.438-1.273-.438-.469 0-.881.125-1.235.375-.354.25-.63.578-.828.985V232h-1.445v-8.453h1.367zm9.422-2.047v2.047h1.578v1.117h-1.578v5.242c0 .339.07.594.211.766.14.167.38.25.719.25.166 0 .395-.031.687-.094V232c-.38.104-.75.156-1.109.156-.646 0-1.133-.195-1.461-.586-.328-.39-.492-.945-.492-1.664v-5.242h-1.539v-1.117h1.539V221.5h1.445zm4.844 10.5h-1.446v-8.453h1.446V232zm-1.563-10.695a.87.87 0 01.211-.594c.146-.162.359-.242.641-.242.281 0 .495.08.64.242a.852.852 0 01.219.594.827.827 0 01-.219.586c-.145.156-.359.234-.64.234-.282 0-.495-.078-.641-.234a.844.844 0 01-.211-.586zm5.25 2.242l.047 1.062c.646-.812 1.49-1.218 2.531-1.218 1.787 0 2.688 1.007 2.703 3.023V232h-1.445v-5.594c-.005-.609-.146-1.06-.422-1.351-.271-.292-.695-.438-1.273-.438-.469 0-.88.125-1.235.375-.354.25-.63.578-.828.985V232h-1.445v-8.453h1.367zm12.68 7.617c-.563.662-1.388.992-2.477.992-.901 0-1.588-.26-2.062-.781-.469-.526-.706-1.302-.711-2.328v-5.5h1.445v5.461c0 1.281.521 1.922 1.563 1.922 1.104 0 1.838-.412 2.203-1.235v-6.148h1.445V232h-1.375l-.031-.836zm8.828.836c-.083-.167-.151-.464-.203-.891-.672.698-1.474 1.047-2.406 1.047-.834 0-1.519-.234-2.055-.703-.531-.474-.797-1.073-.797-1.797 0-.88.333-1.562 1-2.047.672-.489 1.615-.734 2.828-.734h1.406v-.664c0-.505-.151-.906-.453-1.203-.302-.302-.747-.453-1.336-.453-.515 0-.948.13-1.297.39-.348.261-.523.576-.523.946h-1.453c0-.422.148-.829.445-1.219.302-.396.709-.708 1.219-.938a4.131 4.131 0 011.695-.343c.974 0 1.737.244 2.289.734.552.484.839 1.154.86 2.008v3.89c0 .776.099 1.394.297 1.852V232h-1.516zm-2.398-1.102c.453 0 .882-.117 1.289-.351.406-.235.7-.539.882-.914v-1.735h-1.132c-1.771 0-2.657.519-2.657 1.555 0 .453.151.807.453 1.063.303.255.691.382 1.165.382zm9.273.079c.516 0 .966-.157 1.352-.469.385-.313.598-.703.64-1.172h1.367a2.618 2.618 0 01-.5 1.383 3.29 3.29 0 01-1.234 1.047 3.53 3.53 0 01-1.625.39c-1.151 0-2.068-.383-2.75-1.148-.677-.771-1.016-1.823-1.016-3.156v-.243c0-.823.151-1.554.453-2.195a3.466 3.466 0 011.297-1.492c.568-.354 1.237-.531 2.008-.531.948 0 1.735.283 2.36.851.63.568.966 1.305 1.007 2.211h-1.367c-.042-.547-.25-.995-.625-1.344-.37-.354-.828-.531-1.375-.531-.734 0-1.305.266-1.711.797-.401.526-.601 1.289-.601 2.289v.274c0 .973.2 1.723.601 2.25.401.526.974.789 1.719.789zm6.555 1.023h-1.446v-8.453h1.446V232zm-1.563-10.695a.87.87 0 01.211-.594c.146-.162.359-.242.641-.242.281 0 .495.08.64.242a.852.852 0 01.219.594.827.827 0 01-.219.586c-.145.156-.359.234-.64.234-.282 0-.495-.078-.641-.234a.844.844 0 01-.211-.586zm3.5 6.39c0-.828.162-1.573.485-2.234.328-.662.781-1.172 1.359-1.531.583-.36 1.247-.539 1.992-.539 1.151 0 2.081.398 2.789 1.195.714.797 1.07 1.857 1.07 3.18v.101c0 .823-.158 1.563-.476 2.219a3.557 3.557 0 01-1.352 1.523c-.583.365-1.255.547-2.015.547-1.146 0-2.076-.398-2.789-1.195-.709-.797-1.063-1.852-1.063-3.164v-.102zm1.453.172c0 .938.216 1.69.649 2.258.437.568 1.021.852 1.75.852.734 0 1.317-.287 1.75-.86.432-.578.648-1.385.648-2.422 0-.927-.221-1.677-.664-2.25-.437-.578-1.021-.867-1.75-.867-.713 0-1.289.284-1.726.852-.438.567-.657 1.38-.657 2.437zm3.039-7.867h1.75l-2.093 2.297h-1.164l1.507-2.297zm6.383 3.547l.047 1.062c.646-.812 1.49-1.218 2.531-1.218 1.787 0 2.688 1.007 2.703 3.023V232h-1.445v-5.594c-.005-.609-.146-1.06-.422-1.351-.271-.292-.695-.438-1.273-.438-.469 0-.88.125-1.235.375-.354.25-.63.578-.828.985V232h-1.445v-8.453h1.367zm7.414 7.695c0-.25.073-.458.219-.625.151-.166.375-.25.672-.25.297 0 .521.084.672.25a.88.88 0 01.234.625c0 .24-.078.44-.234.602-.151.161-.375.242-.672.242-.297 0-.521-.081-.672-.242a.865.865 0 01-.219-.602zm.008-6.898c0-.25.073-.459.219-.625.151-.167.375-.25.672-.25.297 0 .52.083.672.25a.878.878 0 01.234.625.83.83 0 01-.234.601c-.152.162-.375.243-.672.243-.297 0-.521-.081-.672-.243a.862.862 0 01-.219-.601z" fill="#333"/>
  <path d="M666.484 368.479a51.282 51.282 0 01-.938-1.098 37.79 37.79 0 01-.307-.371c-.17-3.562-.173-7.094-.007-10.594.162-3.475.489-6.908.981-10.299a103.685 103.685 0 011.933-9.943 100.81 100.81 0 013.627-11.663 74.306 74.306 0 01.833-2.102 94.611 94.611 0 013.503-7.612 92.923 92.923 0 014.101-7.165 92.516 92.516 0 019.847-12.914l.287-.313.288-.312.289-.309.289-.308.209-.222.211-.22.213-.219c.071-.072.143-.144.217-.215l.172-.085.172-.084.171-.085.171-.083.011-.004.01-.004.011-.005.011-.003.069-.034.068-.034.066-.035.065-.034.298-.143.296-.141.296-.141.294-.142-.224-.101-.564-.252.004-.002c.049.018.097.038.144.059l.144.059.143.061.142.062.054.021.056.021.055.021a.441.441 0 01.054.024.292.292 0 00.049.019l.048.018.049.019.048.019c2.052.845 4.109 1.703 6.139 2.603 2.03.9 4.029 1.838 5.974 2.847a65.124 65.124 0 015.632 3.274 45.395 45.395 0 015.117 3.857 31.18 31.18 0 014.506 4.89 25.959 25.959 0 013.168 5.56 18.184 18.184 0 011.38 5.81c.13 1.912-.17 3.828-.879 5.635a12.003 12.003 0 01-2.121 3.413c-.071.082-.142.164-.215.245-1.343 1.518-3.051 2.744-4.995 3.587a17.45 17.45 0 01-6.244 1.392 20.216 20.216 0 01-6.701-.875 20.736 20.736 0 01-6.335-3.194 19.65 19.65 0 01-1.841-1.551 18.86 18.86 0 01-1.599-1.728c-.488-.6-.934-1.227-1.335-1.877a16.572 16.572 0 01-1.049-2 13.6 13.6 0 001.08 6.26 23.41 23.41 0 003.634 5.856 44.641 44.641 0 005.292 5.325c1.94 1.672 4.001 3.24 6.035 4.683 2.035 1.444 4.142 2.92 6.182 4.46a67.033 67.033 0 015.81 4.844 32.425 32.425 0 014.689 5.438 19.497 19.497 0 012.815 6.266 14.713 14.713 0 01-.087 7.31 16.345 16.345 0 01-1.331 3.388 18.847 18.847 0 01-2.062 3.113l-.075.089-.074.089-.076.089-.077.088c-1.941 2.281-4.378 4.184-7.162 5.591a25.358 25.358 0 01-4.41 1.731c-1.567.454-3.18.766-4.815.932a34.85 34.85 0 01-9.308-.479 44.73 44.73 0 01-9.123-2.744 57.208 57.208 0 01-8.6-4.506 67.451 67.451 0 01-7.745-5.738 67.79 67.79 0 01-1.896-1.685 68.547 68.547 0 01-5.257-5.4z" fill="#F2F2F2"/>
  <path d="M716.511 327.199a46.351 46.351 0 01-5.533-3.053 44.086 44.086 0 01-9.333-8.029 39.701 39.701 0 01-3.593-4.797 37.311 37.311 0 01-2.364-4.383 34.163 34.163 0 01-1.683-4.506 31.533 31.533 0 01-.986-4.557 29.118 29.118 0 01-.276-4.541l.007-.255.006-.255c.003-.085.006-.17.011-.253l.014-.252-.242.173-.24.176-.24.178-.238.177-.154.114-.154.115-.153.116-.151.116.209-.22.214-.228a21.699 21.699 0 01.43-.434l.172-.085.172-.085.168-.084.17-.084.011-.003.011-.004.011-.005.01-.003.069-.034.069-.034.066-.034.065-.035.297-.143.297-.141.296-.141.296-.141-.232-.104-.563-.252.004-.002c.049.019.097.038.144.059l.144.06.143.06.142.062.054.021.056.021.055.022a.325.325 0 01.054.023l-.005.081-.007.075-.004.075-.005.076a27.696 27.696 0 00.441 7.648 31.866 31.866 0 002.518 7.555 36.872 36.872 0 004.462 7.111 41.544 41.544 0 006.248 6.304 45.186 45.186 0 007.619 4.943 45.94 45.94 0 004.15 1.883 45.737 45.737 0 004.314 1.457 12.445 12.445 0 01-.402.507 16.203 16.203 0 01-.425.493 45.91 45.91 0 01-3.357-1.138 48.936 48.936 0 01-3.279-1.386zM678.445 346.3a43.175 43.175 0 01-1.783-2.582 42.002 42.002 0 01-1.567-2.667 40.28 40.28 0 01-1.346-2.737 38.595 38.595 0 01-1.119-2.796 30.995 30.995 0 01-1.175-4.525 28.343 28.343 0 01-.229-1.517 23.918 23.918 0 01-.153-1.416 28.313 28.313 0 01-.083-1.413 90.63 90.63 0 011.19-3.193c.139-.35.28-.699.424-1.047a28.788 28.788 0 00-.134 1.757 28.864 28.864 0 00-.023 1.775 26.277 26.277 0 00.075 1.942c.138 1.816.455 3.618.947 5.384a33.623 33.623 0 001.943 5.236 41.875 41.875 0 002.799 5.035 52.079 52.079 0 003.508 4.781 81.172 81.172 0 004.321 4.839 101.851 101.851 0 004.727 4.579 111.035 111.035 0 005.049 4.309c1.73 1.391 3.49 2.733 5.278 4.027a124.49 124.49 0 0017.405 10.554 122.996 122.996 0 006.147 2.859.827.827 0 01.423.4.716.716 0 01.071.267.654.654 0 01-.039.273.553.553 0 01-.197.289.61.61 0 01-.103.064.566.566 0 01-.378.018.577.577 0 01-.124-.047l-.768-.333a104.43 104.43 0 01-2.291-1.026 126.034 126.034 0 01-6.251-3.101 126.164 126.164 0 01-11.944-7.228 122.293 122.293 0 01-5.641-4.099 132.985 132.985 0 01-5.244-4.238 106.754 106.754 0 01-4.989-4.521 86.164 86.164 0 01-4.613-4.808 69.415 69.415 0 01-4.113-5.094z" fill="#fff"/>
  <path d="M718.227 210.629l-1.513.177 10.142-34.223c.747-2.285.869-4.699.355-7.036-.447-1.909-1.55-3.643-3.155-4.957-1.68-1.313-3.74-2.173-5.94-2.479a22.686 22.686 0 00-8.049.324l-68.928 14.113a25.946 25.946 0 00-6.829 2.526 35.751 35.751 0 00-6.393 4.358 36.488 36.488 0 00-5.352 5.612 27.73 27.73 0 00-3.697 6.351l-72.119 178.342a33.715 33.715 0 00-2.318 9.1 24.858 24.858 0 00.442 8.268c.508 2.364 1.569 4.603 3.112 6.57 1.416 1.789 3.411 3.142 5.713 3.874l72.827 22.541a20.993 20.993 0 0010.051.538c3.574-.7 6.935-2.091 9.85-4.078 3.273-2.211 6.087-4.923 8.314-8.011 2.467-3.394 4.31-7.122 5.459-11.042l48.826-164.752 1.532-.11 7.67-26.006z" fill="#2F2E41"/>
  <path d="M712.957 208.735l-1.513.176 10.142-34.223c.748-2.285.869-4.699.355-7.036-.446-1.909-1.55-3.643-3.154-4.957-1.681-1.313-3.74-2.172-5.941-2.479a22.68 22.68 0 00-8.048.324l-68.929 14.113a25.953 25.953 0 00-6.828 2.526 35.716 35.716 0 00-6.393 4.358 36.448 36.448 0 00-5.353 5.612 27.727 27.727 0 00-3.696 6.351l-72.12 178.342a33.724 33.724 0 00-2.318 9.1 24.856 24.856 0 00.442 8.268c.508 2.364 1.569 4.604 3.113 6.571 1.416 1.788 3.41 3.141 5.712 3.873l72.827 22.541a20.98 20.98 0 0010.051.538c3.574-.7 6.935-2.091 9.85-4.078 3.273-2.211 6.088-4.923 8.315-8.011 2.467-3.393 4.31-7.122 5.459-11.042l48.825-164.752 1.532-.11 7.67-26.005z" fill="#3F3D56"/>
  <path d="M704.188 165.006l-10.132 1.995a4.815 4.815 0 01-.255 2.343 9.13 9.13 0 01-1.359 2.479c-1.318 1.731-3.076 3.153-5.129 4.149a12.741 12.741 0 01-1.467.597 10.141 10.141 0 01-1.436.372l-39.615 7.212c-.735.153-1.5.145-2.231-.023a2.774 2.774 0 01-1.475-.893 2.75 2.75 0 01-.602-1.601 5.14 5.14 0 01.38-2.155c.07-.186.151-.374.24-.562a9.552 9.552 0 01.639-1.131c.125-.188.257-.375.395-.562l-7.501 1.477a19.209 19.209 0 00-5.129 1.866 26.627 26.627 0 00-4.824 3.269 27.172 27.172 0 00-4.041 4.231 20.607 20.607 0 00-2.774 4.787l-71.985 179.893a25.064 25.064 0 00-1.71 6.858 18.378 18.378 0 00.388 6.186 11.916 11.916 0 002.391 4.863c1.078 1.313 2.58 2.295 4.303 2.811l73.363 21.429c2.42.697 5.004.802 7.484.301a19.946 19.946 0 007.276-3.069c2.409-1.639 4.483-3.643 6.129-5.921a26.857 26.857 0 004.05-8.137l67.031-222.387c.562-1.697.666-3.491.304-5.232-.315-1.427-1.118-2.73-2.296-3.727-1.235-.996-2.759-1.657-4.395-1.904a16.74 16.74 0 00-6.017.186z" fill="#fff"/>
  <path d="M720.217 281.954c.422-.014.843.05 1.237.19.373.134.712.337.994.594a2.589 2.589 0 01.856 2.036c-.017.395-.12.783-.301 1.142a3.248 3.248 0 01-.729.948 3.586 3.586 0 01-2.308.908 3.34 3.34 0 01-1.236-.199 2.967 2.967 0 01-.987-.599c-.281-.26-.5-.569-.643-.908a2.557 2.557 0 01-.2-1.123c.017-.393.119-.779.299-1.137a3.25 3.25 0 01.723-.939 3.564 3.564 0 011.041-.65c.395-.161.821-.25 1.254-.263z" fill="#F2F2F2"/>
  <path d="M631.996 334H512v-41h119.996v41z" fill="#fff"/>
  <path d="M532.302 321.808c4.698 0 8.506-3.84 8.506-8.577s-3.808-8.577-8.506-8.577-8.507 3.84-8.507 8.577 3.809 8.577 8.507 8.577z" fill="#FF602F"/>
  <path d="M551.947 307.513c-.376 0-.737.15-1.002.418a1.436 1.436 0 000 2.022 1.41 1.41 0 001.002.419h66.839a1.412 1.412 0 001-.42 1.436 1.436 0 000-2.019 1.412 1.412 0 00-1-.42h-66.839zm.001 8.577a1.406 1.406 0 00-1.005.416 1.448 1.448 0 00-.311 1.558 1.42 1.42 0 001.31.885h52.593c.376 0 .737-.151 1.003-.419a1.438 1.438 0 000-2.021 1.41 1.41 0 00-1.003-.419h-52.587z" fill="#E6E6E6"/>
  <path d="M631.996 334H512v-41h119.996v41zm-117.604-2.412h115.212v-36.176H514.392v36.176z" fill="#E6E6E6"/>
  <path d="M630.805 230.17H513.197v55.777h117.608V230.17z" fill="#fff"/>
  <path d="M532.302 256.954c4.698 0 8.507-3.726 8.507-8.323 0-4.596-3.809-8.323-8.507-8.323-4.698 0-8.507 3.727-8.507 8.323 0 4.597 3.809 8.323 8.507 8.323z" fill="#FF602F"/>
  <path d="M551.949 243.083c-.376 0-.737.146-1.002.406-.266.26-.416.613-.416.981s.15.721.416.981c.265.26.626.406 1.002.406h66.841a1.43 1.43 0 001-.408c.265-.26.414-.612.414-.979s-.149-.72-.414-.98a1.434 1.434 0 00-1-.407h-66.841zm-.001 8.323a1.43 1.43 0 00-1.005.403 1.383 1.383 0 00-.418.981 1.365 1.365 0 00.414.982 1.43 1.43 0 001.003.408h28.768a1.438 1.438 0 001.002-.406 1.383 1.383 0 00.416-.981 1.366 1.366 0 00-.416-.981 1.416 1.416 0 00-1.002-.406h-28.762zm-26.172 13.306c-1.078 0-1.956.622-1.956 1.387s.878 1.387 1.956 1.387h92.22c1.079 0 1.957-.622 1.957-1.387s-.878-1.387-1.957-1.387h-92.22zm0 8.323c-1.078 0-1.956.622-1.956 1.387s.878 1.387 1.956 1.387h70.993c1.078 0 1.956-.622 1.956-1.387s-.878-1.387-1.956-1.387h-70.993z" fill="#E6E6E6"/>
  <path d="M632 287.118H512V229h120v58.118zm-117.608-2.341h115.216V231.34H514.392v53.437z" fill="#E6E6E6"/>
  <path d="M478.304 187.794c-1.149.409-4.206 1.34-7.24 1.792m51.192 14.687c-.669-1.071-2.731-3.951-5.624-6.903m14.324 19.738c-.401-.992-1.926-3.976-4.818-7.975m-41.135-22.56c7.413-2.514 19.547-7.948 8.773-9.575-13.467-2.034-.142 16.407 5.296 11.302 4.351-4.083 10.182.841 12.553 3.813m-48.067-2.562c-1.341.259-5.04.127-9.113-2.474m-5.09-3.906c-.625-.549-2.571-2.594-5.355-6.387" stroke="#FF602F" stroke-width="2" stroke-linecap="round"/>
  <path d="M413.871 152.645l29.059 3.563c1.12.12 1.573 1.472.815 2.208l-4.43 4.546-19.846-6.628c-.358-.146-.612.377-.232.573l18.33 9.644 1.726 4.08c.511 1.209-.707 2.259-1.775 1.701l-4.885-2.565-5.116 5.311c-.578.6-1.626.509-2.067-.254l-12.83-20.225c-.628-.922.182-2.096 1.251-1.954z" fill="#FF602F"/>
</svg>
