<svg fill="none" xmlns="http://www.w3.org/2000/svg" viewBox="0 0 699 759">
  <ellipse cx="349.5" cy="379" rx="349.5" ry="357" fill="#CAE8F0"/>
  <ellipse cx="349.5" cy="379" rx="349.5" ry="357" fill="url(#paint0_linear_2126:6632)"/>
  <rect x="82" width="534" height="759" rx="16" fill="#F2F2F2"/>
  <path fill="#BDBDBD" d="M300 30h98v12h-98z"/>
  <path d="M118.547 44.906c.469-.468.422-1.172 0-1.64l-5.672-5.391h13.5a1.11 1.11 0 001.125-1.125v-1.5a1.14 1.14 0 00-1.125-1.125h-13.5l5.672-5.344c.422-.468.469-1.172 0-1.64l-1.031-1.032c-.422-.422-1.172-.422-1.594 0l-9.094 9.141a1.026 1.026 0 000 1.547l9.094 9.14c.422.422 1.125.422 1.594 0l1.031-1.03z" fill="#4F4F4F"/>
  <rect x="103" y="75" width="494" height="45" rx="8" fill="#E0E0E0"/>
  <rect x="103" y="135" width="494" height="603" rx="8" fill="#fff"/>
  <path d="M139.359 191h-3.953l-10.14-16.141V191h-3.954v-22.75h3.954l10.172 16.203V168.25h3.921V191zm14.547-1.656c-1.114 1.312-2.698 1.968-4.75 1.968-1.833 0-3.224-.536-4.172-1.609-.937-1.073-1.406-2.625-1.406-4.656v-10.953h3.797V185c0 2.146.891 3.219 2.672 3.219 1.844 0 3.088-.662 3.734-1.985v-12.14h3.797V191H154l-.094-1.656zm14.985 1.968c-2.407 0-4.36-.755-5.86-2.265-1.489-1.521-2.234-3.542-2.234-6.063v-.468c0-1.688.323-3.193.969-4.516.656-1.333 1.573-2.37 2.75-3.109 1.177-.74 2.489-1.11 3.937-1.11 2.302 0 4.078.735 5.328 2.203 1.261 1.469 1.891 3.547 1.891 6.235v1.531h-11.047c.115 1.396.578 2.5 1.391 3.312.823.813 1.854 1.219 3.093 1.219 1.74 0 3.157-.703 4.25-2.109l2.047 1.953c-.677 1.01-1.583 1.797-2.718 2.359-1.126.552-2.391.828-3.797.828zm-.453-14.484c-1.042 0-1.886.365-2.532 1.094-.635.729-1.041 1.745-1.218 3.047h7.234v-.281c-.083-1.271-.422-2.23-1.016-2.876-.594-.656-1.416-.984-2.468-.984zm15.937 9.36l3.578-12.094h3.922L186.016 191h-3.297l-5.907-16.906h3.938l3.625 12.094zM204.109 191c-.166-.323-.312-.849-.437-1.578-1.208 1.26-2.688 1.89-4.438 1.89-1.698 0-3.083-.484-4.156-1.453-1.073-.968-1.609-2.166-1.609-3.593 0-1.802.666-3.183 2-4.141 1.343-.969 3.26-1.453 5.75-1.453h2.328v-1.11c0-.874-.245-1.572-.735-2.093-.489-.531-1.234-.797-2.234-.797-.864 0-1.573.219-2.125.656-.552.427-.828.974-.828 1.641h-3.797c0-.927.307-1.792.922-2.594.615-.813 1.448-1.448 2.5-1.906 1.062-.459 2.245-.688 3.547-.688 1.979 0 3.557.5 4.734 1.5 1.177.99 1.781 2.386 1.813 4.188v7.625c0 1.521.213 2.734.64 3.64V191h-3.875zm-4.171-2.734a4.28 4.28 0 002.109-.547c.667-.365 1.167-.854 1.5-1.469v-3.188H201.5c-1.406 0-2.464.245-3.172.735-.708.489-1.062 1.182-1.062 2.078 0 .729.239 1.313.718 1.75.49.427 1.141.641 1.954.641zm25.312-2.078l3.578-12.094h3.922L226.891 191h-3.297l-5.906-16.906h3.937l3.625 12.094zM239.172 191h-3.797v-16.906h3.797V191zm-4.031-21.297c0-.583.182-1.068.547-1.453.374-.385.906-.578 1.593-.578.688 0 1.219.193 1.594.578.375.385.563.87.563 1.453 0 .573-.188 1.052-.563 1.438-.375.375-.906.562-1.594.562-.687 0-1.219-.187-1.593-.562-.365-.386-.547-.865-.547-1.438zm17.656 16.703c0-.677-.281-1.192-.844-1.547-.552-.354-1.474-.666-2.765-.937-1.292-.271-2.37-.615-3.235-1.031-1.896-.917-2.844-2.245-2.844-3.985 0-1.458.615-2.677 1.844-3.656 1.229-.979 2.792-1.469 4.688-1.469 2.02 0 3.651.5 4.89 1.5 1.25 1 1.875 2.297 1.875 3.891h-3.797c0-.729-.27-1.333-.812-1.813-.542-.489-1.261-.734-2.156-.734-.834 0-1.516.193-2.047.578-.521.386-.782.901-.782 1.547 0 .583.245 1.036.735 1.359.489.323 1.479.651 2.969.985 1.489.323 2.656.713 3.5 1.172.854.448 1.484.989 1.89 1.625.417.635.625 1.406.625 2.312 0 1.521-.63 2.755-1.89 3.703-1.261.938-2.912 1.406-4.953 1.406-1.386 0-2.62-.25-3.704-.75-1.083-.5-1.927-1.187-2.531-2.062-.604-.875-.906-1.818-.906-2.828h3.687c.052.896.391 1.588 1.016 2.078.625.479 1.453.719 2.484.719 1 0 1.761-.188 2.282-.563.52-.385.781-.885.781-1.5zM263.891 191h-3.797v-16.906h3.797V191zm-4.032-21.297c0-.583.183-1.068.547-1.453.375-.385.906-.578 1.594-.578.688 0 1.219.193 1.594.578.375.385.562.87.562 1.453 0 .573-.187 1.052-.562 1.438-.375.375-.906.562-1.594.562-.688 0-1.219-.187-1.594-.562-.364-.386-.547-.865-.547-1.438zm12.938.281v4.11h2.984v2.812h-2.984v9.438c0 .646.125 1.114.375 1.406.26.281.719.422 1.375.422.437 0 .88-.052 1.328-.156v2.937a9.336 9.336 0 01-2.5.359c-2.917 0-4.375-1.609-4.375-4.828v-9.578h-2.781v-2.812H269v-4.11h3.797zm16 21.016c-.167-.323-.313-.849-.438-1.578-1.208 1.26-2.687 1.89-4.437 1.89-1.698 0-3.083-.484-4.156-1.453-1.073-.968-1.61-2.166-1.61-3.593 0-1.802.667-3.183 2-4.141 1.344-.969 3.261-1.453 5.75-1.453h2.328v-1.11c0-.874-.244-1.572-.734-2.093-.49-.531-1.234-.797-2.234-.797-.865 0-1.573.219-2.125.656-.552.427-.829.974-.829 1.641h-3.796c0-.927.307-1.792.922-2.594.614-.813 1.447-1.448 2.5-1.906 1.062-.459 2.244-.688 3.546-.688 1.98 0 3.558.5 4.735 1.5 1.177.99 1.781 2.386 1.812 4.188v7.625c0 1.521.214 2.734.641 3.64V191h-3.875zm-4.172-2.734a4.28 4.28 0 002.109-.547c.667-.365 1.167-.854 1.5-1.469v-3.188h-2.046c-1.407 0-2.464.245-3.172.735-.709.489-1.063 1.182-1.063 2.078 0 .729.24 1.313.719 1.75.489.427 1.14.641 1.953.641zm26.797 3.046c-2.406 0-4.36-.755-5.86-2.265-1.489-1.521-2.234-3.542-2.234-6.063v-.468c0-1.688.323-3.193.969-4.516.656-1.333 1.573-2.37 2.75-3.109 1.177-.74 2.489-1.11 3.937-1.11 2.302 0 4.078.735 5.328 2.203 1.261 1.469 1.891 3.547 1.891 6.235v1.531h-11.047c.115 1.396.578 2.5 1.391 3.312.823.813 1.854 1.219 3.094 1.219 1.739 0 3.156-.703 4.25-2.109l2.047 1.953c-.678 1.01-1.584 1.797-2.719 2.359-1.125.552-2.391.828-3.797.828zm-.453-14.484c-1.042 0-1.886.365-2.531 1.094-.636.729-1.042 1.745-1.219 3.047h7.234v-.281c-.083-1.271-.422-2.23-1.015-2.876-.594-.656-1.417-.984-2.469-.984zm13.719-2.734l.109 1.953c1.25-1.511 2.891-2.266 4.922-2.266 3.521 0 5.312 2.016 5.375 6.047V191h-3.797v-10.953c0-1.073-.235-1.865-.703-2.375-.459-.521-1.214-.781-2.266-.781-1.531 0-2.672.692-3.422 2.078V191h-3.797v-16.906h3.579zm39.984 9.5c-.229 2.427-1.125 4.323-2.688 5.687-1.562 1.354-3.64 2.031-6.234 2.031-1.812 0-3.411-.427-4.797-1.281-1.375-.864-2.437-2.088-3.187-3.672-.75-1.583-1.141-3.421-1.172-5.515v-2.125c0-2.146.38-4.037 1.14-5.672.761-1.636 1.849-2.896 3.266-3.781 1.427-.886 3.073-1.328 4.938-1.328 2.51 0 4.531.682 6.062 2.046 1.531 1.365 2.422 3.292 2.672 5.782h-3.938c-.187-1.636-.666-2.813-1.437-3.532-.761-.729-1.88-1.093-3.359-1.093-1.719 0-3.042.63-3.969 1.89-.917 1.25-1.386 3.089-1.407 5.516v2.015c0 2.459.438 4.334 1.313 5.626.885 1.291 2.177 1.937 3.875 1.937 1.552 0 2.719-.349 3.5-1.047.781-.698 1.276-1.859 1.484-3.484h3.938zm7.219 7.406h-3.797v-24h3.797v24zm8.234 0h-3.797v-16.906h3.797V191zm-.719-23.891h4.328l-4.328 4.735h-3.047l3.047-4.735zm8.563 6.985l.109 1.953c1.25-1.511 2.891-2.266 4.922-2.266 3.521 0 5.312 2.016 5.375 6.047V191h-3.797v-10.953c0-1.073-.234-1.865-.703-2.375-.458-.521-1.214-.781-2.266-.781-1.531 0-2.671.692-3.421 2.078V191h-3.797v-16.906h3.578zM406.297 191H402.5v-16.906h3.797V191zm-4.031-21.297c0-.583.182-1.068.546-1.453.376-.385.907-.578 1.594-.578.688 0 1.219.193 1.594.578.375.385.562.87.562 1.453 0 .573-.187 1.052-.562 1.438-.375.375-.906.562-1.594.562-.687 0-1.218-.187-1.594-.562-.364-.386-.546-.865-.546-1.438zm15.125 18.578c.948 0 1.734-.276 2.359-.828.625-.552.958-1.234 1-2.047h3.578c-.042 1.052-.37 2.037-.984 2.953-.615.907-1.448 1.625-2.5 2.157a7.454 7.454 0 01-3.406.796c-2.365 0-4.24-.765-5.626-2.296-1.385-1.532-2.078-3.646-2.078-6.344v-.391c0-2.573.688-4.63 2.063-6.172 1.375-1.552 3.25-2.328 5.625-2.328 2.01 0 3.646.589 4.906 1.766 1.271 1.167 1.938 2.703 2 4.609h-3.578c-.042-.968-.375-1.765-1-2.39-.615-.625-1.401-.938-2.359-.938-1.23 0-2.177.448-2.844 1.344-.667.885-1.005 2.234-1.016 4.047v.609c0 1.833.328 3.203.985 4.11.666.895 1.625 1.343 2.875 1.343zM437.297 191c-.167-.323-.313-.849-.438-1.578-1.208 1.26-2.687 1.89-4.437 1.89-1.698 0-3.083-.484-4.156-1.453-1.073-.968-1.61-2.166-1.61-3.593 0-1.802.667-3.183 2-4.141 1.344-.969 3.261-1.453 5.75-1.453h2.328v-1.11c0-.874-.244-1.572-.734-2.093-.49-.531-1.234-.797-2.234-.797-.865 0-1.573.219-2.125.656-.552.427-.829.974-.829 1.641h-3.796c0-.927.307-1.792.922-2.594.614-.813 1.447-1.448 2.5-1.906 1.062-.459 2.244-.688 3.546-.688 1.98 0 3.558.5 4.735 1.5 1.177.99 1.781 2.386 1.812 4.188v7.625c0 1.521.214 2.734.641 3.64V191h-3.875zm-4.172-2.734a4.28 4.28 0 002.109-.547c.667-.365 1.167-.854 1.5-1.469v-3.188h-2.046c-1.407 0-2.464.245-3.172.735-.709.489-1.063 1.182-1.063 2.078 0 .729.24 1.313.719 1.75.489.427 1.14.641 1.953.641zm18.641-5.844c0-2.604.604-4.693 1.812-6.266 1.208-1.583 2.828-2.375 4.86-2.375 1.791 0 3.239.625 4.343 1.875V167h3.797v24h-3.437l-.188-1.75c-1.135 1.375-2.651 2.062-4.547 2.062-1.979 0-3.583-.796-4.812-2.39-1.219-1.594-1.828-3.761-1.828-6.5zm3.796.328c0 1.719.329 3.062.985 4.031.667.959 1.609 1.438 2.828 1.438 1.552 0 2.687-.693 3.406-2.078v-7.219c-.698-1.354-1.823-2.031-3.375-2.031-1.229 0-2.177.489-2.844 1.468-.666.969-1 2.433-1 4.391zm22.422 8.562c-2.406 0-4.359-.755-5.859-2.265-1.49-1.521-2.234-3.542-2.234-6.063v-.468c0-1.688.323-3.193.968-4.516.657-1.333 1.573-2.37 2.75-3.109 1.177-.74 2.49-1.11 3.938-1.11 2.302 0 4.078.735 5.328 2.203 1.26 1.469 1.891 3.547 1.891 6.235v1.531h-11.047c.114 1.396.578 2.5 1.39 3.312.823.813 1.855 1.219 3.094 1.219 1.74 0 3.156-.703 4.25-2.109l2.047 1.953c-.677 1.01-1.583 1.797-2.719 2.359-1.125.552-2.39.828-3.797.828zm-.453-14.484c-1.041 0-1.885.365-2.531 1.094-.635.729-1.042 1.745-1.219 3.047h7.235v-.281c-.084-1.271-.422-2.23-1.016-2.876-.594-.656-1.417-.984-2.469-.984zm13.719-2.734l.109 1.953c1.25-1.511 2.891-2.266 4.922-2.266 3.521 0 5.313 2.016 5.375 6.047V191h-3.797v-10.953c0-1.073-.234-1.865-.703-2.375-.458-.521-1.213-.781-2.265-.781-1.532 0-2.672.692-3.422 2.078V191h-3.797v-16.906h3.578zm19.047-4.11v4.11h2.984v2.812h-2.984v9.438c0 .646.125 1.114.375 1.406.26.281.719.422 1.375.422.437 0 .88-.052 1.328-.156v2.937a9.336 9.336 0 01-2.5.359c-2.917 0-4.375-1.609-4.375-4.828v-9.578h-2.781v-2.812h2.781v-4.11h3.797zm16 21.016c-.167-.323-.313-.849-.438-1.578-1.208 1.26-2.687 1.89-4.437 1.89-1.698 0-3.083-.484-4.156-1.453-1.073-.968-1.61-2.166-1.61-3.593 0-1.802.667-3.183 2-4.141 1.344-.969 3.261-1.453 5.75-1.453h2.328v-1.11c0-.874-.244-1.572-.734-2.093-.49-.531-1.234-.797-2.234-.797-.865 0-1.573.219-2.125.656-.552.427-.829.974-.829 1.641h-3.796c0-.927.307-1.792.922-2.594.614-.813 1.447-1.448 2.5-1.906 1.062-.459 2.244-.688 3.546-.688 1.98 0 3.558.5 4.735 1.5 1.177.99 1.781 2.386 1.812 4.188v7.625c0 1.521.214 2.734.641 3.64V191h-3.875zm-4.172-2.734a4.28 4.28 0 002.109-.547c.667-.365 1.167-.854 1.5-1.469v-3.188h-2.046c-1.407 0-2.464.245-3.172.735-.709.489-1.063 1.182-1.063 2.078 0 .729.24 1.313.719 1.75.489.427 1.14.641 1.953.641zM537.547 191h-3.797v-24h3.797v24z" fill="#004B5F"/>
  <path d="M138.836 263h-2.073v-7.229h-7.885V263h-2.063v-15.641h2.063v6.725h7.885v-6.725h2.073V263zm2.825-5.919c0-1.139.222-2.163.666-3.072.451-.91 1.074-1.612 1.869-2.106.802-.494 1.715-.741 2.74-.741 1.582 0 2.861.548 3.835 1.644.981 1.095 1.471 2.553 1.471 4.372v.139c0 1.132-.218 2.149-.655 3.051-.43.895-1.049 1.594-1.858 2.095-.803.501-1.726.752-2.772.752-1.575 0-2.854-.548-3.835-1.644-.974-1.095-1.461-2.546-1.461-4.35v-.14zm1.998.236c0 1.289.297 2.324.892 3.105.601.78 1.403 1.171 2.406 1.171 1.01 0 1.812-.394 2.406-1.182.595-.795.892-1.905.892-3.33 0-1.275-.304-2.306-.913-3.094-.602-.795-1.404-1.192-2.406-1.192-.982 0-1.773.39-2.374 1.171-.602.78-.903 1.898-.903 3.351zM156.894 263h-1.988v-16.5h1.988V263zm10.366 0c-.115-.229-.208-.637-.28-1.225-.923.96-2.026 1.44-3.308 1.44-1.146 0-2.088-.322-2.825-.967-.731-.652-1.096-1.475-1.096-2.471 0-1.21.458-2.148 1.375-2.814.924-.673 2.22-1.01 3.889-1.01h1.933v-.913c0-.695-.207-1.246-.623-1.654-.415-.416-1.027-.623-1.837-.623-.709 0-1.303.179-1.783.537-.48.358-.72.791-.72 1.3h-1.998c0-.58.204-1.139.613-1.676.415-.544.974-.974 1.675-1.289a5.677 5.677 0 012.331-.473c1.34 0 2.389.337 3.148 1.01.759.666 1.153 1.586 1.182 2.761v5.349c0 1.067.136 1.916.408 2.546V263h-2.084zm-3.298-1.515c.623 0 1.214-.161 1.772-.483.559-.322.964-.741 1.214-1.257v-2.385h-1.557c-2.435 0-3.653.713-3.653 2.138 0 .623.208 1.11.623 1.461.416.351.949.526 1.601.526zm16.521-14.126l5.114 12.762 5.113-12.762h2.675V263h-2.063v-6.091l.194-6.574L186.381 263h-1.579l-5.124-12.633.204 6.542V263h-2.063v-15.641h2.664zM203.891 263c-.115-.229-.208-.637-.28-1.225-.923.96-2.026 1.44-3.308 1.44-1.146 0-2.088-.322-2.825-.967-.731-.652-1.096-1.475-1.096-2.471 0-1.21.458-2.148 1.375-2.814.924-.673 2.22-1.01 3.889-1.01h1.933v-.913c0-.695-.208-1.246-.623-1.654-.415-.416-1.028-.623-1.837-.623-.709 0-1.303.179-1.783.537-.48.358-.72.791-.72 1.3h-1.998c0-.58.204-1.139.612-1.676.416-.544.974-.974 1.676-1.289a5.677 5.677 0 012.331-.473c1.339 0 2.389.337 3.148 1.01.759.666 1.153 1.586 1.181 2.761v5.349c0 1.067.136 1.916.409 2.546V263h-2.084zm-3.298-1.515c.623 0 1.214-.161 1.772-.483.559-.322.963-.741 1.214-1.257v-2.385h-1.558c-2.434 0-3.652.713-3.652 2.138 0 .623.208 1.11.623 1.461.416.351.949.526 1.601.526zm13.707-8.325a5.977 5.977 0 00-.978-.075c-1.303 0-2.188.555-2.653 1.665V263h-1.987v-11.623h1.933l.032 1.343c.652-1.039 1.576-1.558 2.772-1.558.387 0 .68.05.881.15v1.848zm3.996 9.84h-1.998v-11.623h1.998V263zm.021-16.489h2.407l-2.879 3.158h-1.601l2.073-3.158zM228.748 263c-.115-.229-.208-.637-.279-1.225-.924.96-2.027 1.44-3.309 1.44-1.146 0-2.087-.322-2.825-.967-.731-.652-1.096-1.475-1.096-2.471 0-1.21.459-2.148 1.375-2.814.924-.673 2.22-1.01 3.889-1.01h1.934v-.913c0-.695-.208-1.246-.624-1.654-.415-.416-1.027-.623-1.836-.623-.709 0-1.304.179-1.784.537-.479.358-.719.791-.719 1.3h-1.998c0-.58.204-1.139.612-1.676.415-.544.974-.974 1.676-1.289a5.677 5.677 0 012.331-.473c1.339 0 2.388.337 3.147 1.01.759.666 1.153 1.586 1.182 2.761v5.349c0 1.067.136 1.916.408 2.546V263h-2.084zm-3.298-1.515c.623 0 1.214-.161 1.773-.483.558-.322.963-.741 1.214-1.257v-2.385h-1.558c-2.435 0-3.652.713-3.652 2.138 0 .623.207 1.11.623 1.461.415.351.949.526 1.6.526zm15.931-.172h7.412V263h-9.485v-15.641h2.073v13.954zm8.927-4.232c0-1.139.222-2.163.666-3.072.451-.91 1.074-1.612 1.869-2.106.802-.494 1.715-.741 2.739-.741 1.583 0 2.861.548 3.835 1.644.981 1.095 1.472 2.553 1.472 4.372v.139c0 1.132-.219 2.149-.656 3.051a4.891 4.891 0 01-1.858 2.095c-.802.501-1.726.752-2.771.752-1.576 0-2.854-.548-3.835-1.644-.974-1.095-1.461-2.546-1.461-4.35v-.14zm1.998.236c0 1.289.297 2.324.891 3.105.602.78 1.404 1.171 2.407 1.171 1.009 0 1.811-.394 2.406-1.182.594-.795.891-1.905.891-3.33 0-1.275-.304-2.306-.913-3.094-.601-.795-1.403-1.192-2.406-1.192-.981 0-1.772.39-2.374 1.171-.602.78-.902 1.898-.902 3.351zm4.178-10.817h2.407l-2.879 3.158h-1.601l2.073-3.158zm16.715 10.817c0 1.769-.404 3.194-1.214 4.276-.809 1.081-1.905 1.622-3.287 1.622-1.411 0-2.521-.448-3.33-1.343v5.597h-1.987v-16.092h1.815l.097 1.289c.809-1.003 1.934-1.504 3.373-1.504 1.396 0 2.499.526 3.309 1.579.816 1.053 1.224 2.517 1.224 4.394v.182zm-1.987-.225c0-1.311-.279-2.346-.838-3.105-.559-.759-1.325-1.138-2.299-1.138-1.203 0-2.105.533-2.707 1.6v5.554c.595 1.06 1.504 1.59 2.729 1.59.952 0 1.708-.376 2.266-1.128.566-.759.849-1.884.849-3.373zm9.346 6.123c-1.576 0-2.858-.516-3.846-1.547-.988-1.038-1.483-2.424-1.483-4.157v-.365c0-1.153.219-2.181.656-3.084.444-.909 1.06-1.618 1.847-2.126a4.648 4.648 0 012.579-.774c1.511 0 2.685.498 3.523 1.493.838.996 1.257 2.421 1.257 4.276v.827h-7.874c.028 1.146.361 2.073.999 2.782.644.702 1.461 1.053 2.449 1.053.702 0 1.296-.143 1.783-.43a4.482 4.482 0 001.279-1.139l1.213.946c-.974 1.496-2.434 2.245-4.382 2.245zm-.247-10.42c-.803 0-1.476.294-2.02.881-.544.58-.881 1.396-1.01 2.449h5.823v-.15c-.058-1.01-.33-1.791-.817-2.342-.487-.559-1.146-.838-1.976-.838zm8.959 8.583h6.799V263h-9.227v-1.461l6.413-8.518h-6.317v-1.644h8.809v1.407l-6.477 8.594zm8.98 4.737l-1.128-.773c.673-.938 1.024-1.905 1.053-2.901v-1.794h1.944v1.558c0 .723-.179 1.447-.537 2.17-.351.723-.795 1.303-1.332 1.74zm-160.628 34.942h-5.027V315h-2.052v-13.943h-5.017v-1.698h12.096v1.698zM141.79 315h-1.987v-11.623h1.987V315zm-2.148-14.706c0-.322.096-.594.29-.816.2-.222.494-.333.88-.333.387 0 .681.111.881.333.201.222.301.494.301.816 0 .322-.1.591-.301.806-.2.214-.494.322-.881.322-.386 0-.68-.108-.88-.322a1.158 1.158 0 01-.29-.806zm10.162 14.921c-1.576 0-2.858-.516-3.846-1.547-.988-1.038-1.482-2.424-1.482-4.157v-.365c0-1.153.218-2.181.655-3.084.444-.909 1.06-1.618 1.848-2.126a4.643 4.643 0 012.578-.774c1.511 0 2.685.498 3.523 1.493.838.996 1.257 2.421 1.257 4.276v.827h-7.874c.029 1.146.362 2.073.999 2.782.644.702 1.461 1.053 2.449 1.053.702 0 1.296-.143 1.783-.43a4.482 4.482 0 001.279-1.139l1.214.946c-.974 1.496-2.435 2.245-4.383 2.245zm-.247-10.42c-.802 0-1.476.294-2.02.881-.544.58-.881 1.396-1.01 2.449h5.823v-.15c-.058-1.01-.33-1.791-.817-2.342-.487-.559-1.146-.838-1.976-.838zm8.969-1.418l.065 1.461c.888-1.117 2.048-1.676 3.48-1.676 2.457 0 3.696 1.386 3.717 4.157V315h-1.987v-7.691c-.007-.838-.201-1.458-.58-1.859-.373-.401-.956-.601-1.751-.601-.645 0-1.211.172-1.698.515a3.499 3.499 0 00-1.138 1.354V315h-1.988v-11.623h1.88zm15.082 11.838c-1.575 0-2.857-.516-3.845-1.547-.989-1.038-1.483-2.424-1.483-4.157v-.365c0-1.153.219-2.181.656-3.084.444-.909 1.059-1.618 1.847-2.126a4.647 4.647 0 012.578-.774c1.511 0 2.686.498 3.524 1.493.838.996 1.257 2.421 1.257 4.276v.827h-7.874c.028 1.146.361 2.073.999 2.782.644.702 1.461 1.053 2.449 1.053.702 0 1.296-.143 1.783-.43a4.465 4.465 0 001.278-1.139l1.214.946c-.974 1.496-2.435 2.245-4.383 2.245zm-.247-10.42c-.802 0-1.475.294-2.019.881-.544.58-.881 1.396-1.01 2.449h5.822v-.15c-.057-1.01-.329-1.791-.816-2.342-.487-.559-1.146-.838-1.977-.838zm13.858 7.122c0-.537-.204-.952-.613-1.246-.401-.301-1.106-.559-2.116-.774-1.002-.214-1.801-.472-2.395-.773-.588-.301-1.024-.659-1.311-1.074-.279-.416-.419-.91-.419-1.483 0-.952.401-1.758 1.203-2.417.81-.658 1.841-.988 3.094-.988 1.318 0 2.385.34 3.201 1.021.824.68 1.236 1.55 1.236 2.61h-1.998c0-.544-.233-1.013-.699-1.407-.458-.394-1.038-.591-1.74-.591-.723 0-1.289.157-1.697.473a1.487 1.487 0 00-.612 1.235c0 .48.189.841.569 1.085.379.243 1.063.476 2.052.698.995.222 1.801.487 2.417.795.616.308 1.07.68 1.364 1.117.301.43.451.956.451 1.579 0 1.039-.415 1.873-1.246 2.503-.831.623-1.909.935-3.233.935-.931 0-1.755-.165-2.471-.494-.716-.33-1.278-.788-1.687-1.375a3.375 3.375 0 01-.601-1.923h1.987c.036.666.301 1.196.795 1.59.501.386 1.16.58 1.977.58.752 0 1.353-.151 1.804-.451.459-.308.688-.717.688-1.225zm17.209 1.934c-.774.909-1.909 1.364-3.406 1.364-1.238 0-2.184-.358-2.835-1.074-.645-.724-.971-1.791-.978-3.202v-7.562h1.987v7.509c0 1.761.716 2.642 2.149 2.642 1.518 0 2.528-.565 3.029-1.697v-8.454h1.987V315h-1.89l-.043-1.149zm6.843-10.474l.064 1.461c.888-1.117 2.048-1.676 3.48-1.676 2.457 0 3.696 1.386 3.717 4.157V315h-1.987v-7.691c-.007-.838-.201-1.458-.58-1.859-.373-.401-.956-.601-1.751-.601-.645 0-1.21.172-1.697.515a3.501 3.501 0 00-1.139 1.354V315h-1.987v-11.623h1.88zM228.705 315c-.115-.229-.208-.637-.279-1.225-.924.96-2.027 1.44-3.309 1.44-1.146 0-2.087-.322-2.825-.967-.73-.652-1.096-1.475-1.096-2.471 0-1.21.459-2.148 1.375-2.814.924-.673 2.22-1.01 3.889-1.01h1.934v-.913c0-.695-.208-1.246-.623-1.654-.416-.416-1.028-.623-1.837-.623-.709 0-1.304.179-1.784.537-.479.358-.719.791-.719 1.3h-1.998c0-.58.204-1.139.612-1.676.415-.544.974-.974 1.676-1.289a5.677 5.677 0 012.331-.473c1.339 0 2.388.337 3.147 1.01.759.666 1.153 1.586 1.182 2.761v5.349c0 1.067.136 1.916.408 2.546V315h-2.084zm-3.298-1.515c.623 0 1.214-.161 1.773-.483.558-.322.963-.741 1.214-1.257v-2.385h-1.558c-2.435 0-3.652.713-3.652 2.138 0 .623.207 1.11.623 1.461.415.351.949.526 1.6.526zm15.426-10.108l.064 1.461c.888-1.117 2.049-1.676 3.481-1.676 2.456 0 3.695 1.386 3.717 4.157V315h-1.988v-7.691c-.007-.838-.2-1.458-.58-1.859-.372-.401-.956-.601-1.751-.601-.644 0-1.21.172-1.697.515a3.51 3.51 0 00-1.139 1.354V315h-1.987v-11.623h1.88zm17.435 10.474c-.774.909-1.909 1.364-3.406 1.364-1.239 0-2.184-.358-2.836-1.074-.644-.724-.97-1.791-.977-3.202v-7.562h1.987v7.509c0 1.761.716 2.642 2.149 2.642 1.518 0 2.528-.565 3.029-1.697v-8.454h1.987V315h-1.89l-.043-1.149zm9.786 1.364c-1.576 0-2.858-.516-3.846-1.547-.988-1.038-1.482-2.424-1.482-4.157v-.365c0-1.153.218-2.181.655-3.084.444-.909 1.06-1.618 1.848-2.126a4.643 4.643 0 012.578-.774c1.511 0 2.685.498 3.523 1.493.838.996 1.257 2.421 1.257 4.276v.827h-7.874c.029 1.146.362 2.073.999 2.782.644.702 1.461 1.053 2.449 1.053.702 0 1.296-.143 1.783-.43a4.482 4.482 0 001.279-1.139l1.214.946c-.974 1.496-2.435 2.245-4.383 2.245zm-.247-10.42c-.802 0-1.476.294-2.02.881-.544.58-.881 1.396-1.01 2.449h5.823v-.15c-.058-1.01-.33-1.791-.817-2.342-.487-.559-1.146-.838-1.976-.838zm10.774 7.509l2.879-8.927h2.03L279.322 315h-1.514l-4.211-11.623h2.03l2.954 8.927zM292.406 315c-.114-.229-.207-.637-.279-1.225-.924.96-2.027 1.44-3.309 1.44-1.145 0-2.087-.322-2.825-.967-.73-.652-1.096-1.475-1.096-2.471 0-1.21.459-2.148 1.375-2.814.924-.673 2.221-1.01 3.889-1.01h1.934v-.913c0-.695-.208-1.246-.623-1.654-.416-.416-1.028-.623-1.837-.623-.709 0-1.304.179-1.783.537-.48.358-.72.791-.72 1.3h-1.998c0-.58.204-1.139.612-1.676.415-.544.974-.974 1.676-1.289a5.677 5.677 0 012.331-.473c1.339 0 2.388.337 3.147 1.01.76.666 1.153 1.586 1.182 2.761v5.349c0 1.067.136 1.916.408 2.546V315h-2.084zm-3.298-1.515c.623 0 1.214-.161 1.773-.483.558-.322.963-.741 1.214-1.257v-2.385h-1.558c-2.435 0-3.652.713-3.652 2.138 0 .623.207 1.11.623 1.461.415.351.949.526 1.6.526zm17.381-1.181l2.879-8.927h2.03L307.23 315h-1.514l-4.211-11.623h2.03l2.954 8.927zM315.47 315h-1.988v-11.623h1.988V315zm-2.149-14.706a1.2 1.2 0 01.29-.816c.201-.222.494-.333.881-.333s.681.111.881.333c.201.222.301.494.301.816 0 .322-.1.591-.301.806-.2.214-.494.322-.881.322s-.68-.108-.881-.322a1.163 1.163 0 01-.29-.806zm12.107 11.623c0-.537-.204-.952-.613-1.246-.401-.301-1.106-.559-2.116-.774-1.002-.214-1.801-.472-2.395-.773-.588-.301-1.024-.659-1.311-1.074-.279-.416-.419-.91-.419-1.483 0-.952.401-1.758 1.203-2.417.81-.658 1.841-.988 3.094-.988 1.318 0 2.385.34 3.201 1.021.824.68 1.236 1.55 1.236 2.61h-1.998c0-.544-.233-1.013-.699-1.407-.458-.394-1.038-.591-1.74-.591-.723 0-1.289.157-1.697.473a1.487 1.487 0 00-.612 1.235c0 .48.189.841.569 1.085.379.243 1.063.476 2.052.698.995.222 1.801.487 2.417.795.615.308 1.07.68 1.364 1.117.301.43.451.956.451 1.579 0 1.039-.415 1.873-1.246 2.503-.831.623-1.909.935-3.233.935-.931 0-1.755-.165-2.471-.494-.716-.33-1.278-.788-1.687-1.375a3.375 3.375 0 01-.601-1.923h1.987c.036.666.301 1.196.795 1.59.501.386 1.16.58 1.977.58.752 0 1.353-.151 1.804-.451.459-.308.688-.717.688-1.225zm6.735 3.083h-1.987v-11.623h1.987V315zm-2.148-14.706c0-.322.096-.594.29-.816.2-.222.494-.333.881-.333.386 0 .68.111.88.333.201.222.301.494.301.816 0 .322-.1.591-.301.806-.2.214-.494.322-.88.322-.387 0-.681-.108-.881-.322a1.158 1.158 0 01-.29-.806zm8.035.268v2.815h2.17v1.536h-2.17v7.208c0 .466.096.817.29 1.053.193.229.523.344.988.344.229 0 .544-.043.945-.129V315a5.765 5.765 0 01-1.525.215c-.888 0-1.558-.269-2.009-.806-.451-.537-.677-1.3-.677-2.288v-7.208h-2.116v-1.536h2.116v-2.815h1.988zM349.727 315c-.115-.229-.208-.637-.28-1.225-.924.96-2.026 1.44-3.308 1.44-1.146 0-2.088-.322-2.826-.967-.73-.652-1.095-1.475-1.095-2.471 0-1.21.458-2.148 1.375-2.814.924-.673 2.22-1.01 3.888-1.01h1.934v-.913c0-.695-.208-1.246-.623-1.654-.415-.416-1.028-.623-1.837-.623-.709 0-1.303.179-1.783.537-.48.358-.72.791-.72 1.3h-1.998c0-.58.204-1.139.612-1.676.416-.544.974-.974 1.676-1.289a5.677 5.677 0 012.331-.473c1.339 0 2.389.337 3.148 1.01.759.666 1.153 1.586 1.181 2.761v5.349c0 1.067.136 1.916.409 2.546V315h-2.084zm-3.298-1.515c.623 0 1.214-.161 1.772-.483.559-.322.963-.741 1.214-1.257v-2.385h-1.558c-2.434 0-3.652.713-3.652 2.138 0 .623.208 1.11.623 1.461.415.351.949.526 1.601.526zm18.369 1.73c-1.576 0-2.858-.516-3.846-1.547-.988-1.038-1.482-2.424-1.482-4.157v-.365c0-1.153.218-2.181.655-3.084.444-.909 1.06-1.618 1.848-2.126a4.645 4.645 0 012.578-.774c1.511 0 2.685.498 3.523 1.493.838.996 1.257 2.421 1.257 4.276v.827h-7.874c.029 1.146.362 2.073.999 2.782.645.702 1.461 1.053 2.449 1.053.702 0 1.296-.143 1.783-.43a4.469 4.469 0 001.279-1.139l1.214.946c-.974 1.496-2.435 2.245-4.383 2.245zm-.247-10.42c-.802 0-1.475.294-2.02.881-.544.58-.881 1.396-1.01 2.449h5.823v-.15c-.058-1.01-.33-1.791-.817-2.342-.487-.559-1.145-.838-1.976-.838zm8.97-1.418l.064 1.461c.888-1.117 2.048-1.676 3.48-1.676 2.457 0 3.696 1.386 3.717 4.157V315h-1.987v-7.691c-.007-.838-.201-1.458-.58-1.859-.373-.401-.956-.601-1.751-.601-.645 0-1.21.172-1.697.515a3.501 3.501 0 00-1.139 1.354V315h-1.987v-11.623h1.88zM391.396 315h-1.988v-16.5h1.988V315zm10.366 0c-.115-.229-.208-.637-.28-1.225-.923.96-2.026 1.44-3.308 1.44-1.146 0-2.088-.322-2.825-.967-.731-.652-1.096-1.475-1.096-2.471 0-1.21.458-2.148 1.375-2.814.924-.673 2.22-1.01 3.889-1.01h1.933v-.913c0-.695-.207-1.246-.623-1.654-.415-.416-1.028-.623-1.837-.623-.709 0-1.303.179-1.783.537-.48.358-.72.791-.72 1.3h-1.998c0-.58.204-1.139.613-1.676.415-.544.974-.974 1.675-1.289a5.677 5.677 0 012.331-.473c1.34 0 2.389.337 3.148 1.01.759.666 1.153 1.586 1.182 2.761v5.349c0 1.067.136 1.916.408 2.546V315h-2.084zm-3.298-1.515c.623 0 1.214-.161 1.772-.483.559-.322.964-.741 1.214-1.257v-2.385h-1.557c-2.435 0-3.653.713-3.653 2.138 0 .623.208 1.11.623 1.461.416.351.949.526 1.601.526zm18.208.108a2.86 2.86 0 001.858-.645c.53-.429.824-.967.881-1.611h1.88c-.036.666-.265 1.3-.687 1.901-.423.602-.989 1.082-1.698 1.44a4.848 4.848 0 01-2.234.537c-1.583 0-2.843-.527-3.781-1.579-.931-1.06-1.397-2.507-1.397-4.34v-.333c0-1.132.208-2.138.623-3.019.416-.881 1.01-1.564 1.783-2.051.781-.487 1.701-.731 2.761-.731 1.304 0 2.385.39 3.244 1.171.867.781 1.329 1.794 1.386 3.04h-1.88c-.057-.752-.344-1.368-.859-1.848-.509-.487-1.139-.73-1.891-.73-1.01 0-1.794.365-2.352 1.096-.552.723-.828 1.772-.828 3.147v.376c0 1.339.276 2.371.828 3.094.551.723 1.339 1.085 2.363 1.085zm9.013 1.407h-1.988v-16.5h1.988V315zm5.349 0h-1.998v-11.623h1.998V315zm.022-16.489h2.406l-2.879 3.158h-1.601l2.074-3.158zm5.134 4.866l.065 1.461c.888-1.117 2.048-1.676 3.48-1.676 2.457 0 3.696 1.386 3.717 4.157V315h-1.987v-7.691c-.007-.838-.201-1.458-.58-1.859-.373-.401-.956-.601-1.751-.601-.645 0-1.21.172-1.697.515a3.501 3.501 0 00-1.139 1.354V315h-1.987v-11.623h1.879zM448.608 315h-1.987v-11.623h1.987V315zm-2.148-14.706a1.2 1.2 0 01.29-.816c.201-.222.494-.333.881-.333s.68.111.881.333c.2.222.3.494.3.816 0 .322-.1.591-.3.806-.201.214-.494.322-.881.322s-.68-.108-.881-.322a1.163 1.163 0 01-.29-.806zm10.001 13.299a2.86 2.86 0 001.858-.645c.53-.429.824-.967.881-1.611h1.88c-.036.666-.265 1.3-.687 1.901-.423.602-.989 1.082-1.698 1.44a4.848 4.848 0 01-2.234.537c-1.583 0-2.843-.527-3.781-1.579-.931-1.06-1.397-2.507-1.397-4.34v-.333c0-1.132.208-2.138.623-3.019.416-.881 1.01-1.564 1.783-2.051.781-.487 1.701-.731 2.761-.731 1.304 0 2.385.39 3.244 1.171.867.781 1.329 1.794 1.386 3.04h-1.88c-.057-.752-.344-1.368-.859-1.848-.509-.487-1.139-.73-1.891-.73-1.01 0-1.794.365-2.352 1.096-.552.723-.827 1.772-.827 3.147v.376c0 1.339.275 2.371.827 3.094.551.723 1.339 1.085 2.363 1.085zM470.49 315c-.114-.229-.207-.637-.279-1.225-.924.96-2.027 1.44-3.309 1.44-1.145 0-2.087-.322-2.825-.967-.73-.652-1.096-1.475-1.096-2.471 0-1.21.459-2.148 1.375-2.814.924-.673 2.22-1.01 3.889-1.01h1.934v-.913c0-.695-.208-1.246-.623-1.654-.416-.416-1.028-.623-1.837-.623-.709 0-1.304.179-1.783.537-.48.358-.72.791-.72 1.3h-1.998c0-.58.204-1.139.612-1.676.415-.544.974-.974 1.676-1.289a5.677 5.677 0 012.331-.473c1.339 0 2.388.337 3.147 1.01.759.666 1.153 1.586 1.182 2.761v5.349c0 1.067.136 1.916.408 2.546V315h-2.084zm-3.298-1.515c.623 0 1.214-.161 1.773-.483.558-.322.963-.741 1.214-1.257v-2.385h-1.558c-2.435 0-3.652.713-3.652 2.138 0 .623.207 1.11.623 1.461.415.351.949.526 1.6.526zm13.063-4.393c0-1.783.422-3.216 1.267-4.297.846-1.089 1.952-1.633 3.32-1.633 1.36 0 2.438.466 3.233 1.397V298.5h1.987V315h-1.826l-.096-1.246c-.795.974-1.902 1.461-3.32 1.461-1.346 0-2.445-.552-3.298-1.654-.845-1.103-1.267-2.543-1.267-4.319v-.15zm1.987.225c0 1.318.272 2.349.817 3.094.544.745 1.296 1.117 2.255 1.117 1.261 0 2.181-.565 2.761-1.697v-5.339c-.594-1.096-1.507-1.643-2.739-1.643-.974 0-1.733.376-2.277 1.128-.545.752-.817 1.865-.817 3.34zm15.737 5.898c-1.575 0-2.857-.516-3.845-1.547-.988-1.038-1.483-2.424-1.483-4.157v-.365c0-1.153.219-2.181.656-3.084.444-.909 1.06-1.618 1.847-2.126a4.647 4.647 0 012.578-.774c1.511 0 2.686.498 3.524 1.493.838.996 1.257 2.421 1.257 4.276v.827h-7.874c.028 1.146.361 2.073.999 2.782.644.702 1.461 1.053 2.449 1.053.702 0 1.296-.143 1.783-.43a4.465 4.465 0 001.278-1.139l1.214.946c-.974 1.496-2.435 2.245-4.383 2.245zm-.247-10.42c-.802 0-1.475.294-2.019.881-.544.58-.881 1.396-1.01 2.449h5.822v-.15c-.057-1.01-.329-1.791-.816-2.342-.487-.559-1.146-.838-1.977-.838zm8.97-1.418l.065 1.461c.888-1.117 2.048-1.676 3.48-1.676 2.456 0 3.695 1.386 3.717 4.157V315h-1.987v-7.691c-.008-.838-.201-1.458-.581-1.859-.372-.401-.956-.601-1.75-.601-.645 0-1.211.172-1.698.515a3.499 3.499 0 00-1.138 1.354V315h-1.988v-11.623h1.88zm12.955-2.815v2.815h2.17v1.536h-2.17v7.208c0 .466.097.817.29 1.053.194.229.523.344.989.344.229 0 .544-.043.945-.129V315a5.772 5.772 0 01-1.526.215c-.888 0-1.557-.269-2.008-.806-.451-.537-.677-1.3-.677-2.288v-7.208h-2.116v-1.536h2.116v-2.815h1.987zM531.334 315c-.115-.229-.208-.637-.279-1.225-.924.96-2.027 1.44-3.309 1.44-1.146 0-2.087-.322-2.825-.967-.731-.652-1.096-1.475-1.096-2.471 0-1.21.459-2.148 1.375-2.814.924-.673 2.22-1.01 3.889-1.01h1.933v-.913c0-.695-.207-1.246-.623-1.654-.415-.416-1.027-.623-1.837-.623-.708 0-1.303.179-1.783.537-.48.358-.719.791-.719 1.3h-1.998c0-.58.204-1.139.612-1.676.415-.544.974-.974 1.676-1.289a5.677 5.677 0 012.331-.473c1.339 0 2.388.337 3.147 1.01.759.666 1.153 1.586 1.182 2.761v5.349c0 1.067.136 1.916.408 2.546V315h-2.084zm-3.298-1.515c.623 0 1.214-.161 1.773-.483.558-.322.963-.741 1.213-1.257v-2.385h-1.557c-2.435 0-3.653.713-3.653 2.138 0 .623.208 1.11.624 1.461.415.351.948.526 1.6.526zM538.284 315h-1.987v-16.5h1.987V315zm3.234-1.042c0-.344.1-.63.3-.859.208-.23.516-.344.924-.344.408 0 .716.114.924.344.215.229.322.515.322.859 0 .329-.107.605-.322.827-.208.222-.516.333-.924.333-.408 0-.716-.111-.924-.333a1.19 1.19 0 01-.3-.827zm-409.525 50.303l4.469-12.902h2.256L132.917 367h-1.826l-5.79-15.641h2.245l4.447 12.902zm12.869 2.954c-1.575 0-2.857-.516-3.845-1.547-.989-1.038-1.483-2.424-1.483-4.157v-.365c0-1.153.219-2.181.655-3.084.444-.909 1.06-1.618 1.848-2.126a4.645 4.645 0 012.578-.774c1.511 0 2.686.498 3.524 1.493.838.996 1.257 2.421 1.257 4.276v.827h-7.875c.029 1.146.362 2.073 1 2.782.644.702 1.46 1.053 2.449 1.053.702 0 1.296-.143 1.783-.43a4.465 4.465 0 001.278-1.139l1.214.946c-.974 1.496-2.435 2.245-4.383 2.245zm-.247-10.42c-.802 0-1.475.294-2.019.881-.545.58-.881 1.396-1.01 2.449h5.822v-.15c-.057-1.01-.329-1.791-.816-2.342-.487-.559-1.146-.838-1.977-.838zM158.881 367c-.115-.229-.208-.637-.279-1.225-.924.96-2.027 1.44-3.309 1.44-1.146 0-2.088-.322-2.825-.967-.731-.652-1.096-1.475-1.096-2.471 0-1.21.458-2.148 1.375-2.814.924-.673 2.22-1.01 3.889-1.01h1.933v-.913c0-.695-.207-1.246-.623-1.654-.415-.416-1.027-.623-1.837-.623-.709 0-1.303.179-1.783.537-.48.358-.72.791-.72 1.3h-1.998c0-.58.204-1.139.613-1.676.415-.544.974-.974 1.675-1.289a5.678 5.678 0 012.332-.473c1.339 0 2.388.337 3.147 1.01.759.666 1.153 1.586 1.182 2.761v5.349c0 1.067.136 1.916.408 2.546V367h-2.084zm-3.298-1.515c.623 0 1.214-.161 1.772-.483.559-.322.964-.741 1.214-1.257v-2.385h-1.557c-2.435 0-3.653.713-3.653 2.138 0 .623.208 1.11.623 1.461.416.351.949.526 1.601.526zM171.288 367h-1.987v-16.5h1.987V367zm10.366 0c-.114-.229-.207-.637-.279-1.225-.924.96-2.027 1.44-3.309 1.44-1.145 0-2.087-.322-2.825-.967-.73-.652-1.095-1.475-1.095-2.471 0-1.21.458-2.148 1.375-2.814.923-.673 2.22-1.01 3.888-1.01h1.934v-.913c0-.695-.208-1.246-.623-1.654-.416-.416-1.028-.623-1.837-.623-.709 0-1.304.179-1.783.537-.48.358-.72.791-.72 1.3h-1.998c0-.58.204-1.139.612-1.676.416-.544.974-.974 1.676-1.289a5.677 5.677 0 012.331-.473c1.339 0 2.388.337 3.147 1.01.76.666 1.153 1.586 1.182 2.761v5.349c0 1.067.136 1.916.408 2.546V367h-2.084zm-3.298-1.515c.623 0 1.214-.161 1.773-.483.559-.322.963-.741 1.214-1.257v-2.385h-1.558c-2.435 0-3.652.713-3.652 2.138 0 .623.207 1.11.623 1.461.415.351.949.526 1.6.526zM194.062 367h-1.988v-11.623h1.988V367zm-2.149-14.706a1.2 1.2 0 01.29-.816c.201-.222.494-.333.881-.333s.68.111.881.333c.2.222.301.494.301.816 0 .322-.101.591-.301.806-.201.214-.494.322-.881.322s-.68-.108-.881-.322a1.163 1.163 0 01-.29-.806zm7.219 3.083l.064 1.461c.888-1.117 2.048-1.676 3.481-1.676 2.456 0 3.695 1.386 3.717 4.157V367h-1.988v-7.691c-.007-.838-.2-1.458-.58-1.859-.372-.401-.956-.601-1.751-.601-.644 0-1.21.172-1.697.515a3.501 3.501 0 00-1.139 1.354V367h-1.987v-11.623h1.88zM210.368 367v-10.087h-1.837v-1.536h1.837v-1.192c0-1.247.333-2.21.999-2.89.666-.68 1.608-1.021 2.825-1.021.459 0 .913.061 1.365.183l-.108 1.611a5.737 5.737 0 00-1.074-.096c-.645 0-1.142.189-1.493.569-.351.372-.527.91-.527 1.611v1.225h2.482v1.536h-2.482V367h-1.987zm6.145-5.919c0-1.139.222-2.163.666-3.072.451-.91 1.074-1.612 1.869-2.106.802-.494 1.715-.741 2.739-.741 1.583 0 2.861.548 3.835 1.644.981 1.095 1.472 2.553 1.472 4.372v.139c0 1.132-.219 2.149-.656 3.051a4.891 4.891 0 01-1.858 2.095c-.802.501-1.726.752-2.771.752-1.576 0-2.854-.548-3.835-1.644-.974-1.095-1.461-2.546-1.461-4.35v-.14zm1.998.236c0 1.289.297 2.324.891 3.105.602.78 1.404 1.171 2.407 1.171 1.009 0 1.811-.394 2.406-1.182.594-.795.891-1.905.891-3.33 0-1.275-.304-2.306-.913-3.094-.601-.795-1.403-1.192-2.406-1.192-.981 0-1.772.39-2.374 1.171-.601.78-.902 1.898-.902 3.351zm16.693-4.157a5.974 5.974 0 00-.977-.075c-1.304 0-2.188.555-2.654 1.665V367h-1.987v-11.623h1.934l.032 1.343c.651-1.039 1.575-1.558 2.771-1.558.387 0 .681.05.881.15v1.848zm3.706-1.783l.054 1.289c.852-1.003 2.001-1.504 3.448-1.504 1.626 0 2.732.623 3.319 1.869a4.417 4.417 0 011.504-1.353c.623-.344 1.357-.516 2.203-.516 2.549 0 3.845 1.35 3.888 4.05V367h-1.987v-7.67c0-.831-.19-1.45-.569-1.858-.38-.416-1.017-.623-1.913-.623-.737 0-1.35.222-1.836.666-.487.436-.77 1.027-.849 1.772V367h-1.998v-7.616c0-1.69-.827-2.535-2.482-2.535-1.303 0-2.195.555-2.674 1.665V367h-1.988v-11.623h1.88zM263.51 367c-.115-.229-.208-.637-.28-1.225-.923.96-2.026 1.44-3.308 1.44-1.146 0-2.088-.322-2.825-.967-.731-.652-1.096-1.475-1.096-2.471 0-1.21.458-2.148 1.375-2.814.924-.673 2.22-1.01 3.889-1.01h1.933v-.913c0-.695-.207-1.246-.623-1.654-.415-.416-1.027-.623-1.837-.623-.709 0-1.303.179-1.783.537-.48.358-.72.791-.72 1.3h-1.998c0-.58.204-1.139.613-1.676.415-.544.974-.974 1.675-1.289a5.677 5.677 0 012.331-.473c1.34 0 2.389.337 3.148 1.01.759.666 1.153 1.586 1.182 2.761v5.349c0 1.067.136 1.916.408 2.546V367h-2.084zm-3.298-1.515c.623 0 1.214-.161 1.772-.483.559-.322.964-.741 1.214-1.257v-2.385h-1.557c-2.435 0-3.653.713-3.653 2.138 0 .623.208 1.11.623 1.461.416.351.949.526 1.601.526zm12.751.108a2.86 2.86 0 001.858-.645c.53-.429.824-.967.881-1.611h1.88c-.036.666-.265 1.3-.687 1.901-.423.602-.989 1.082-1.698 1.44a4.848 4.848 0 01-2.234.537c-1.583 0-2.843-.527-3.781-1.579-.931-1.06-1.397-2.507-1.397-4.34v-.333c0-1.132.208-2.138.623-3.019.416-.881 1.01-1.564 1.783-2.051.781-.487 1.701-.731 2.761-.731 1.304 0 2.385.39 3.244 1.171.867.781 1.329 1.794 1.386 3.04h-1.88c-.057-.752-.344-1.368-.859-1.848-.509-.487-1.139-.73-1.891-.73-1.01 0-1.794.365-2.352 1.096-.552.723-.828 1.772-.828 3.147v.376c0 1.339.276 2.371.828 3.094.551.723 1.339 1.085 2.363 1.085zm9.013 1.407h-1.988v-11.623h1.988V367zm-2.149-14.706a1.2 1.2 0 01.29-.816c.201-.222.494-.333.881-.333s.68.111.881.333c.2.222.301.494.301.816 0 .322-.101.591-.301.806-.201.214-.494.322-.881.322s-.68-.108-.881-.322a1.163 1.163 0 01-.29-.806zm4.813 8.787c0-1.139.222-2.163.666-3.072.451-.91 1.074-1.612 1.869-2.106.802-.494 1.715-.741 2.739-.741 1.583 0 2.861.548 3.835 1.644.981 1.095 1.472 2.553 1.472 4.372v.139c0 1.132-.219 2.149-.656 3.051a4.891 4.891 0 01-1.858 2.095c-.802.501-1.726.752-2.771.752-1.576 0-2.854-.548-3.835-1.644-.974-1.095-1.461-2.546-1.461-4.35v-.14zm1.998.236c0 1.289.297 2.324.891 3.105.602.78 1.404 1.171 2.407 1.171 1.009 0 1.811-.394 2.406-1.182.594-.795.891-1.905.891-3.33 0-1.275-.304-2.306-.913-3.094-.601-.795-1.403-1.192-2.406-1.192-.981 0-1.772.39-2.374 1.171-.602.78-.902 1.898-.902 3.351zm4.178-10.817h2.407l-2.879 3.158h-1.601l2.073-3.158zm8.777 4.877l.064 1.461c.888-1.117 2.048-1.676 3.481-1.676 2.456 0 3.695 1.386 3.716 4.157V367h-1.987v-7.691c-.007-.838-.2-1.458-.58-1.859-.372-.401-.956-.601-1.751-.601-.644 0-1.21.172-1.697.515a3.501 3.501 0 00-1.139 1.354V367h-1.987v-11.623h1.88zM322.484 367c-.114-.229-.207-.637-.279-1.225-.924.96-2.027 1.44-3.309 1.44-1.145 0-2.087-.322-2.825-.967-.73-.652-1.095-1.475-1.095-2.471 0-1.21.458-2.148 1.375-2.814.923-.673 2.22-1.01 3.888-1.01h1.934v-.913c0-.695-.208-1.246-.623-1.654-.416-.416-1.028-.623-1.837-.623-.709 0-1.303.179-1.783.537-.48.358-.72.791-.72 1.3h-1.998c0-.58.204-1.139.612-1.676.416-.544.974-.974 1.676-1.289a5.677 5.677 0 012.331-.473c1.339 0 2.388.337 3.148 1.01.759.666 1.153 1.586 1.181 2.761v5.349c0 1.067.136 1.916.408 2.546V367h-2.084zm-3.297-1.515c.623 0 1.213-.161 1.772-.483.559-.322.963-.741 1.214-1.257v-2.385h-1.558c-2.435 0-3.652.713-3.652 2.138 0 .623.208 1.11.623 1.461.415.351.949.526 1.601.526zm18.208.108a2.86 2.86 0 001.858-.645c.53-.429.823-.967.881-1.611h1.88c-.036.666-.265 1.3-.688 1.901-.422.602-.988 1.082-1.697 1.44a4.851 4.851 0 01-2.234.537c-1.583 0-2.844-.527-3.782-1.579-.931-1.06-1.396-2.507-1.396-4.34v-.333c0-1.132.207-2.138.623-3.019.415-.881 1.01-1.564 1.783-2.051.781-.487 1.701-.731 2.761-.731 1.303 0 2.385.39 3.244 1.171.866.781 1.328 1.794 1.386 3.04h-1.88c-.058-.752-.344-1.368-.86-1.848-.508-.487-1.138-.73-1.89-.73-1.01 0-1.794.365-2.353 1.096-.551.723-.827 1.772-.827 3.147v.376c0 1.339.276 2.371.827 3.094.552.723 1.339 1.085 2.364 1.085zm6.327-4.512c0-1.139.222-2.163.666-3.072.451-.91 1.074-1.612 1.869-2.106.802-.494 1.715-.741 2.739-.741 1.583 0 2.861.548 3.835 1.644.981 1.095 1.472 2.553 1.472 4.372v.139c0 1.132-.219 2.149-.656 3.051a4.891 4.891 0 01-1.858 2.095c-.802.501-1.726.752-2.771.752-1.576 0-2.854-.548-3.835-1.644-.974-1.095-1.461-2.546-1.461-4.35v-.14zm1.998.236c0 1.289.297 2.324.891 3.105.602.78 1.404 1.171 2.407 1.171 1.009 0 1.811-.394 2.406-1.182.594-.795.891-1.905.891-3.33 0-1.275-.304-2.306-.913-3.094-.601-.795-1.403-1.192-2.406-1.192-.981 0-1.772.39-2.374 1.171-.601.78-.902 1.898-.902 3.351zm12.955-5.94l.064 1.461c.888-1.117 2.048-1.676 3.481-1.676 2.456 0 3.695 1.386 3.717 4.157V367h-1.988v-7.691c-.007-.838-.2-1.458-.58-1.859-.372-.401-.956-.601-1.751-.601-.644 0-1.21.172-1.697.515a3.501 3.501 0 00-1.139 1.354V367h-1.987v-11.623h1.88zm12.955-2.815v2.815h2.17v1.536h-2.17v7.208c0 .466.097.817.29 1.053.193.229.523.344.988.344.229 0 .544-.043.946-.129V367a5.778 5.778 0 01-1.526.215c-.888 0-1.557-.269-2.009-.806-.451-.537-.676-1.3-.676-2.288v-7.208h-2.117v-1.536h2.117v-2.815h1.987zM378.29 367h-1.987v-11.623h1.987V367zm-2.148-14.706c0-.322.096-.594.29-.816.2-.222.494-.333.88-.333.387 0 .681.111.881.333.201.222.301.494.301.816 0 .322-.1.591-.301.806-.2.214-.494.322-.881.322-.386 0-.68-.108-.88-.322a1.158 1.158 0 01-.29-.806zm7.218 3.083l.065 1.461c.888-1.117 2.048-1.676 3.48-1.676 2.457 0 3.696 1.386 3.717 4.157V367h-1.987v-7.691c-.007-.838-.201-1.458-.58-1.859-.373-.401-.956-.601-1.751-.601-.645 0-1.211.172-1.698.515a3.499 3.499 0 00-1.138 1.354V367h-1.988v-11.623h1.88zm17.435 10.474c-.774.909-1.909 1.364-3.405 1.364-1.239 0-2.185-.358-2.836-1.074-.645-.724-.971-1.791-.978-3.202v-7.562h1.987v7.509c0 1.761.717 2.642 2.149 2.642 1.518 0 2.528-.565 3.029-1.697v-8.454h1.988V367h-1.891l-.043-1.149zM412.934 367c-.115-.229-.208-.637-.28-1.225-.924.96-2.026 1.44-3.308 1.44-1.146 0-2.088-.322-2.825-.967-.731-.652-1.096-1.475-1.096-2.471 0-1.21.458-2.148 1.375-2.814.924-.673 2.22-1.01 3.888-1.01h1.934v-.913c0-.695-.208-1.246-.623-1.654-.415-.416-1.028-.623-1.837-.623-.709 0-1.303.179-1.783.537-.48.358-.72.791-.72 1.3h-1.998c0-.58.204-1.139.612-1.676.416-.544.974-.974 1.676-1.289a5.677 5.677 0 012.331-.473c1.339 0 2.389.337 3.148 1.01.759.666 1.153 1.586 1.181 2.761v5.349c0 1.067.136 1.916.409 2.546V367h-2.084zm-3.298-1.515c.623 0 1.214-.161 1.772-.483.559-.322.963-.741 1.214-1.257v-2.385h-1.558c-2.434 0-3.652.713-3.652 2.138 0 .623.208 1.11.623 1.461.416.351.949.526 1.601.526zm12.751.108a2.86 2.86 0 001.858-.645c.53-.429.824-.967.881-1.611h1.88c-.036.666-.265 1.3-.688 1.901-.422.602-.988 1.082-1.697 1.44a4.851 4.851 0 01-2.234.537c-1.583 0-2.843-.527-3.782-1.579-.931-1.06-1.396-2.507-1.396-4.34v-.333c0-1.132.208-2.138.623-3.019.415-.881 1.01-1.564 1.783-2.051.781-.487 1.701-.731 2.761-.731 1.303 0 2.385.39 3.244 1.171.867.781 1.329 1.794 1.386 3.04h-1.88c-.057-.752-.344-1.368-.859-1.848-.509-.487-1.139-.73-1.891-.73-1.01 0-1.794.365-2.353 1.096-.551.723-.827 1.772-.827 3.147v.376c0 1.339.276 2.371.827 3.094.552.723 1.34 1.085 2.364 1.085zm9.012 1.407h-1.987v-11.623h1.987V367zm-2.148-14.706a1.2 1.2 0 01.29-.816c.201-.222.494-.333.881-.333s.68.111.881.333c.2.222.301.494.301.816 0 .322-.101.591-.301.806-.201.214-.494.322-.881.322s-.68-.108-.881-.322a1.163 1.163 0 01-.29-.806zm4.812 8.787c0-1.139.222-2.163.666-3.072.452-.91 1.075-1.612 1.87-2.106.802-.494 1.715-.741 2.739-.741 1.583 0 2.861.548 3.835 1.644.981 1.095 1.472 2.553 1.472 4.372v.139c0 1.132-.219 2.149-.656 3.051a4.891 4.891 0 01-1.858 2.095c-.802.501-1.726.752-2.772.752-1.575 0-2.853-.548-3.835-1.644-.974-1.095-1.461-2.546-1.461-4.35v-.14zm1.999.236c0 1.289.297 2.324.891 3.105.602.78 1.404 1.171 2.406 1.171 1.01 0 1.812-.394 2.407-1.182.594-.795.891-1.905.891-3.33 0-1.275-.304-2.306-.913-3.094-.601-.795-1.404-1.192-2.406-1.192-.981 0-1.773.39-2.374 1.171-.602.78-.902 1.898-.902 3.351zm4.178-10.817h2.406l-2.878 3.158h-1.601l2.073-3.158zm8.777 4.877l.064 1.461c.888-1.117 2.048-1.676 3.481-1.676 2.456 0 3.695 1.386 3.716 4.157V367h-1.987v-7.691c-.007-.838-.201-1.458-.58-1.859-.372-.401-.956-.601-1.751-.601-.645 0-1.21.172-1.697.515a3.501 3.501 0 00-1.139 1.354V367h-1.987v-11.623h1.88zm10.194 10.581c0-.344.1-.63.301-.859.207-.23.515-.344.924-.344.408 0 .716.114.923.344.215.229.323.515.323.859 0 .329-.108.605-.323.827-.207.222-.515.333-.923.333-.409 0-.717-.111-.924-.333a1.187 1.187 0 01-.301-.827zm.011-9.485c0-.344.1-.631.3-.86.208-.229.516-.343.924-.343.408 0 .716.114.924.343.215.229.322.516.322.86 0 .329-.107.605-.322.827-.208.222-.516.333-.924.333-.408 0-.716-.111-.924-.333a1.19 1.19 0 01-.3-.827z" fill="#333"/>
  <rect x="125" y="395" width="453" height="209" rx="2" fill="#F2F2F2"/>
  <path d="M152.523 548v-17.062h5.25c1.5 0 2.84.339 4.02 1.019 1.187.672 2.113 1.633 2.777 2.883.664 1.242.996 2.656.996 4.242v.785c0 1.586-.328 2.996-.984 4.231a6.968 6.968 0 01-2.754 2.871c-1.187.679-2.527 1.023-4.019 1.031h-5.286zm3.516-14.215v11.391h1.699c1.375 0 2.426-.449 3.153-1.348.726-.898 1.097-2.183 1.113-3.855v-.903c0-1.734-.359-3.047-1.078-3.937-.719-.899-1.77-1.348-3.153-1.348h-1.734zM171.484 548h-3.398v-12.68h3.398V548zm-3.597-15.961c0-.508.168-.926.504-1.254.343-.328.808-.492 1.394-.492.578 0 1.039.164 1.383.492.344.328.516.746.516 1.254 0 .516-.176.938-.528 1.266-.344.328-.801.492-1.371.492s-1.031-.164-1.383-.492c-.343-.328-.515-.75-.515-1.266zm13.523 6.457a9.29 9.29 0 00-1.219-.094c-1.281 0-2.121.434-2.519 1.301V548h-3.387v-12.68h3.199l.094 1.512c.68-1.164 1.621-1.746 2.824-1.746.375 0 .727.051 1.055.152l-.047 3.258zm7.242 9.738c-1.859 0-3.375-.57-4.547-1.711-1.164-1.14-1.746-2.66-1.746-4.558v-.328c0-1.274.246-2.41.739-3.41.492-1.008 1.187-1.782 2.086-2.321.906-.547 1.937-.82 3.093-.82 1.735 0 3.098.547 4.09 1.641 1 1.093 1.5 2.644 1.5 4.652v1.383h-8.074c.109.828.437 1.492.984 1.992.555.5 1.254.75 2.098.75 1.305 0 2.324-.473 3.059-1.418l1.664 1.863c-.508.719-1.196 1.281-2.063 1.688-.867.398-1.828.597-2.883.597zm-.386-10.406c-.672 0-1.219.227-1.641.68-.414.453-.68 1.101-.797 1.945h4.711v-.269c-.016-.75-.219-1.329-.609-1.735-.391-.414-.946-.621-1.664-.621zm12.808 7.676c.625 0 1.133-.172 1.524-.516.39-.343.593-.8.609-1.371h3.176a4.37 4.37 0 01-.703 2.367c-.461.711-1.094 1.266-1.899 1.664-.797.391-1.679.586-2.648.586-1.813 0-3.242-.574-4.289-1.722-1.047-1.157-1.571-2.75-1.571-4.782v-.222c0-1.953.52-3.512 1.559-4.676 1.039-1.164 2.465-1.746 4.277-1.746 1.586 0 2.856.453 3.809 1.359.961.899 1.449 2.098 1.465 3.598h-3.176c-.016-.656-.219-1.188-.609-1.594-.391-.414-.907-.621-1.547-.621-.789 0-1.387.289-1.793.867-.399.571-.598 1.5-.598 2.789v.352c0 1.305.199 2.242.598 2.812.398.571 1.004.856 1.816.856zm12.516 0c.625 0 1.133-.172 1.523-.516.391-.343.594-.8.61-1.371h3.175a4.362 4.362 0 01-.703 2.367c-.461.711-1.093 1.266-1.898 1.664-.797.391-1.68.586-2.649.586-1.812 0-3.242-.574-4.289-1.722-1.047-1.157-1.57-2.75-1.57-4.782v-.222c0-1.953.52-3.512 1.559-4.676 1.039-1.164 2.464-1.746 4.277-1.746 1.586 0 2.855.453 3.809 1.359.961.899 1.449 2.098 1.464 3.598h-3.175c-.016-.656-.219-1.188-.61-1.594-.39-.414-.906-.621-1.547-.621-.789 0-1.386.289-1.793.867-.398.571-.597 1.5-.597 2.789v.352c0 1.305.199 2.242.597 2.812.399.571 1.004.856 1.817.856zM224.406 548h-3.398v-12.68h3.398V548zm-3.597-15.961c0-.508.168-.926.503-1.254.344-.328.809-.492 1.395-.492.578 0 1.039.164 1.383.492.344.328.515.746.515 1.254 0 .516-.175.938-.527 1.266-.344.328-.801.492-1.371.492s-1.031-.164-1.383-.492c-.344-.328-.515-.75-.515-1.266zm5.871 9.504c0-1.258.242-2.379.726-3.363.485-.985 1.18-1.746 2.086-2.285.914-.54 1.973-.809 3.176-.809 1.711 0 3.105.523 4.184 1.57 1.086 1.047 1.691 2.469 1.816 4.266l.023.867c0 1.945-.543 3.508-1.629 4.688-1.085 1.171-2.542 1.757-4.371 1.757-1.828 0-3.289-.586-4.382-1.757-1.086-1.172-1.629-2.766-1.629-4.782v-.152zm3.386.246c0 1.203.227 2.125.68 2.766.453.633 1.102.949 1.945.949.821 0 1.461-.313 1.922-.938.461-.632.692-1.64.692-3.023 0-1.18-.231-2.094-.692-2.742-.461-.649-1.109-.973-1.945-.973-.828 0-1.469.324-1.922.973-.453.64-.68 1.637-.68 2.988zm3.27-11.789h3.691l-3.246 3.633h-2.754l2.309-3.633zm10.559 5.32l.105 1.465c.906-1.133 2.121-1.699 3.645-1.699 1.343 0 2.343.394 3 1.184.656.789.992 1.968 1.007 3.539V548h-3.386v-8.109c0-.719-.157-1.239-.469-1.559-.313-.328-.832-.492-1.559-.492-.953 0-1.668.406-2.144 1.219V548h-3.387v-12.68h3.188zm10.605 11.543c0-.375.109-.687.328-.937.227-.25.563-.375 1.008-.375.445 0 .781.125 1.008.375.234.25.351.562.351.937 0 .36-.117.66-.351.903-.227.242-.563.363-1.008.363-.445 0-.781-.121-1.008-.363a1.297 1.297 0 01-.328-.903zm.012-10.347c0-.375.109-.688.328-.938.226-.25.562-.375 1.008-.375.445 0 .781.125 1.007.375.235.25.352.563.352.938 0 .359-.117.66-.352.902-.226.242-.562.363-1.007.363-.446 0-.782-.121-1.008-.363-.219-.242-.328-.543-.328-.902zm18.422 4.582h-4.008V548h-2.262v-17.062h5.648c1.922 0 3.399.437 4.43 1.312 1.039.875 1.559 2.148 1.559 3.82 0 1.063-.289 1.989-.867 2.778-.571.789-1.368 1.379-2.391 1.769l4.008 7.242V548h-2.414l-3.703-6.902zm-4.008-1.84h3.457c1.117 0 2.004-.289 2.66-.867.664-.579.996-1.352.996-2.321 0-1.054-.316-1.863-.949-2.425-.625-.563-1.531-.848-2.719-.856h-3.445v6.469zM288.953 548c-.125-.25-.226-.695-.305-1.336-1.007 1.047-2.21 1.57-3.609 1.57-1.25 0-2.277-.351-3.082-1.054-.797-.711-1.195-1.61-1.195-2.696 0-1.32.5-2.343 1.5-3.07 1.008-.734 2.422-1.102 4.242-1.102h2.109v-.996c0-.757-.226-1.359-.679-1.804-.454-.453-1.122-.68-2.004-.68-.774 0-1.422.195-1.946.586-.523.391-.785.863-.785 1.418h-2.179c0-.633.222-1.242.668-1.828.453-.594 1.062-1.063 1.828-1.406.773-.344 1.621-.516 2.543-.516 1.461 0 2.605.367 3.433 1.102.828.726 1.258 1.73 1.289 3.011v5.836c0 1.164.149 2.09.446 2.777V548h-2.274zm-3.598-1.652c.68 0 1.325-.176 1.934-.528.609-.351 1.051-.808 1.324-1.371v-2.601h-1.699c-2.656 0-3.984.777-3.984 2.332 0 .679.226 1.211.679 1.593.453.383 1.036.575 1.746.575zm10.864-11.028l.058 1.407c.93-1.094 2.184-1.641 3.762-1.641 1.773 0 2.981.68 3.621 2.039a4.826 4.826 0 011.641-1.477c.679-.375 1.48-.562 2.402-.562 2.781 0 4.195 1.473 4.242 4.418V548h-2.168v-8.367c0-.906-.207-1.582-.621-2.028-.414-.453-1.109-.679-2.086-.679-.804 0-1.472.242-2.004.726-.531.477-.839 1.121-.925 1.934V548h-2.18v-8.309c0-1.843-.902-2.765-2.707-2.765-1.422 0-2.395.605-2.918 1.816V548h-2.168v-12.68h2.051zm29.742 6.481c0 1.937-.445 3.496-1.336 4.676-.891 1.171-2.086 1.757-3.586 1.757-1.601 0-2.84-.566-3.715-1.699l-.105 1.465h-1.992v-18h2.168v6.715c.875-1.086 2.082-1.629 3.621-1.629 1.539 0 2.746.582 3.621 1.746.883 1.164 1.324 2.758 1.324 4.781v.188zm-2.168-.246c0-1.477-.285-2.617-.855-3.422-.571-.805-1.391-1.207-2.461-1.207-1.43 0-2.457.664-3.082 1.992v5.484c.664 1.328 1.699 1.993 3.105 1.993 1.039 0 1.848-.403 2.426-1.207.578-.805.867-2.016.867-3.633zm7.266 6.445h-2.168v-18h2.168v18zm11.308 0c-.125-.25-.226-.695-.305-1.336-1.007 1.047-2.21 1.57-3.609 1.57-1.25 0-2.277-.351-3.082-1.054-.797-.711-1.195-1.61-1.195-2.696 0-1.32.5-2.343 1.5-3.07 1.008-.734 2.422-1.102 4.242-1.102h2.109v-.996c0-.757-.226-1.359-.679-1.804-.453-.453-1.121-.68-2.004-.68-.774 0-1.422.195-1.946.586-.523.391-.785.863-.785 1.418h-2.179c0-.633.222-1.242.668-1.828.453-.594 1.062-1.063 1.828-1.406.773-.344 1.621-.516 2.543-.516 1.461 0 2.605.367 3.433 1.102.828.726 1.258 1.73 1.289 3.011v5.836c0 1.164.149 2.09.446 2.777V548h-2.274zm-3.597-1.652c.679 0 1.324-.176 1.933-.528.609-.351 1.051-.808 1.324-1.371v-2.601h-1.699c-2.656 0-3.984.777-3.984 2.332 0 .679.226 1.211.679 1.593.454.383 1.036.575 1.747.575zm27.668-3.762c-.211 1.805-.879 3.199-2.004 4.184-1.118.976-2.606 1.464-4.465 1.464-2.016 0-3.633-.722-4.852-2.168-1.211-1.445-1.816-3.378-1.816-5.8v-1.641c0-1.586.281-2.98.844-4.184.57-1.203 1.375-2.125 2.414-2.765 1.039-.649 2.242-.973 3.609-.973 1.812 0 3.266.508 4.359 1.524 1.094 1.007 1.731 2.406 1.911 4.195h-2.262c-.196-1.36-.621-2.344-1.278-2.953-.648-.61-1.558-.914-2.73-.914-1.438 0-2.566.531-3.387 1.593-.812 1.063-1.219 2.575-1.219 4.536v1.652c0 1.852.387 3.324 1.161 4.418.773 1.094 1.855 1.641 3.246 1.641 1.25 0 2.207-.282 2.871-.844.672-.571 1.117-1.559 1.336-2.965h2.262zm10.57 5.414c-.125-.25-.227-.695-.305-1.336-1.008 1.047-2.211 1.57-3.609 1.57-1.25 0-2.278-.351-3.082-1.054-.797-.711-1.196-1.61-1.196-2.696 0-1.32.5-2.343 1.5-3.07 1.008-.734 2.422-1.102 4.243-1.102h2.109v-.996c0-.757-.227-1.359-.68-1.804-.453-.453-1.121-.68-2.004-.68-.773 0-1.422.195-1.945.586-.523.391-.785.863-.785 1.418h-2.18c0-.633.223-1.242.668-1.828.453-.594 1.063-1.063 1.828-1.406.774-.344 1.621-.516 2.543-.516 1.461 0 2.606.367 3.434 1.102.828.726 1.258 1.73 1.289 3.011v5.836c0 1.164.148 2.09.445 2.777V548h-2.273zm-3.598-1.652c.68 0 1.324-.176 1.934-.528.609-.351 1.051-.808 1.324-1.371v-2.601h-1.699c-2.657 0-3.985.777-3.985 2.332 0 .679.227 1.211.68 1.593.453.383 1.035.575 1.746.575zm11.766-14.098v3.07h2.367v1.676h-2.367v7.863c0 .508.105.891.316 1.149.211.25.57.375 1.078.375.25 0 .594-.047 1.032-.141V548a6.298 6.298 0 01-1.664.234c-.969 0-1.7-.293-2.192-.879-.492-.585-.738-1.417-.738-2.496v-7.863h-2.309v-1.676h2.309v-3.07h2.168zM397.914 548c-.125-.25-.226-.695-.305-1.336-1.007 1.047-2.211 1.57-3.609 1.57-1.25 0-2.277-.351-3.082-1.054-.797-.711-1.195-1.61-1.195-2.696 0-1.32.5-2.343 1.5-3.07 1.007-.734 2.422-1.102 4.242-1.102h2.109v-.996c0-.757-.226-1.359-.679-1.804-.454-.453-1.122-.68-2.004-.68-.774 0-1.422.195-1.946.586-.523.391-.785.863-.785 1.418h-2.18c0-.633.223-1.242.668-1.828.454-.594 1.063-1.063 1.829-1.406.773-.344 1.621-.516 2.543-.516 1.46 0 2.605.367 3.433 1.102.828.726 1.258 1.73 1.289 3.011v5.836c0 1.164.149 2.09.446 2.777V548h-2.274zm-3.598-1.652c.68 0 1.325-.176 1.934-.528.609-.351 1.051-.808 1.324-1.371v-2.601h-1.699c-2.656 0-3.984.777-3.984 2.332 0 .679.226 1.211.679 1.593.453.383 1.035.575 1.746.575zm11.18 1.652h-2.168v-18h2.168v18zm11.309-1.254c-.844.992-2.082 1.488-3.715 1.488-1.352 0-2.383-.39-3.094-1.172-.703-.789-1.058-1.953-1.066-3.492v-8.25h2.168v8.192c0 1.922.781 2.883 2.343 2.883 1.657 0 2.758-.618 3.305-1.852v-9.223h2.168V548h-2.062l-.047-1.254zm7.465-11.426l.07 1.594c.969-1.219 2.234-1.828 3.797-1.828 2.679 0 4.031 1.512 4.054 4.535V548h-2.168v-8.391c-.007-.914-.218-1.589-.632-2.027-.407-.437-1.043-.656-1.911-.656-.703 0-1.32.187-1.851.562a3.82 3.82 0 00-1.242 1.477V548h-2.168v-12.68h2.051zm15.339 9.504l2.953-9.504h2.321l-5.098 14.637c-.789 2.109-2.043 3.164-3.762 3.164l-.41-.035-.808-.152v-1.758l.586.047c.734 0 1.304-.149 1.711-.446.414-.297.753-.839 1.019-1.629l.481-1.289-4.524-12.539h2.367l3.164 9.504zM454.656 548c-.125-.25-.226-.695-.304-1.336-1.008 1.047-2.211 1.57-3.61 1.57-1.25 0-2.277-.351-3.082-1.054-.797-.711-1.195-1.61-1.195-2.696 0-1.32.5-2.343 1.5-3.07 1.008-.734 2.422-1.102 4.242-1.102h2.109v-.996c0-.757-.226-1.359-.679-1.804-.453-.453-1.121-.68-2.004-.68-.774 0-1.422.195-1.945.586-.524.391-.786.863-.786 1.418h-2.179c0-.633.222-1.242.668-1.828.453-.594 1.062-1.063 1.828-1.406.773-.344 1.621-.516 2.543-.516 1.461 0 2.605.367 3.433 1.102.828.726 1.258 1.73 1.289 3.011v5.836c0 1.164.149 2.09.446 2.777V548h-2.274zm-3.597-1.652c.679 0 1.324-.176 1.933-.528.61-.351 1.051-.808 1.324-1.371v-2.601h-1.699c-2.656 0-3.984.777-3.984 2.332 0 .679.226 1.211.679 1.593.454.383 1.036.575 1.747.575zm25.253-5.625c0 2.539-.433 4.425-1.3 5.66-.867 1.234-2.223 1.851-4.067 1.851-1.82 0-3.168-.601-4.043-1.804-.875-1.211-1.328-3.016-1.359-5.414v-2.895c0-2.508.434-4.371 1.301-5.59.867-1.219 2.226-1.828 4.078-1.828 1.836 0 3.187.59 4.055 1.77.867 1.172 1.312 2.984 1.335 5.437v2.813zm-2.167-2.965c0-1.836-.258-3.172-.774-4.008-.516-.844-1.332-1.266-2.449-1.266-1.11 0-1.918.418-2.426 1.254-.508.836-.769 2.121-.785 3.856v3.468c0 1.844.266 3.208.797 4.09.539.875 1.351 1.313 2.437 1.313 1.071 0 1.864-.414 2.379-1.242.524-.828.797-2.133.821-3.914v-3.551zM486.215 548h-2.18v-14.449l-4.371 1.605v-1.968l6.211-2.333h.34V548zm6.504 3.398l-1.231-.843c.735-1.024 1.117-2.078 1.149-3.164v-1.957h2.121v1.699c0 .789-.196 1.578-.586 2.367-.383.789-.867 1.422-1.453 1.898zM152.98 576v-17.062h5.579c1.851 0 3.242.382 4.171 1.148.938.766 1.407 1.898 1.407 3.398 0 .797-.227 1.504-.68 2.121-.453.61-1.07 1.083-1.852 1.418.922.258 1.649.75 2.18 1.477.539.719.809 1.578.809 2.578 0 1.531-.496 2.734-1.489 3.61-.992.874-2.394 1.312-4.207 1.312h-5.918zm2.25-7.98v6.14h3.715c1.047 0 1.871-.269 2.473-.808.609-.547.914-1.297.914-2.25 0-2.055-1.117-3.082-3.352-3.082h-3.75zm0-1.805h3.399c.984 0 1.769-.246 2.355-.738.594-.493.891-1.161.891-2.004 0-.938-.273-1.618-.82-2.039-.547-.43-1.379-.645-2.496-.645h-3.329v5.426zM175.422 576c-.125-.25-.227-.695-.305-1.336-1.008 1.047-2.211 1.57-3.609 1.57-1.25 0-2.278-.351-3.082-1.054-.797-.711-1.196-1.61-1.196-2.696 0-1.32.5-2.343 1.5-3.07 1.008-.734 2.422-1.102 4.243-1.102h2.109v-.996c0-.757-.227-1.359-.68-1.804-.453-.453-1.121-.68-2.004-.68-.773 0-1.421.195-1.945.586-.523.391-.785.863-.785 1.418h-2.18c0-.633.223-1.242.668-1.828.453-.594 1.063-1.063 1.828-1.406.774-.344 1.621-.516 2.543-.516 1.461 0 2.606.367 3.434 1.102.828.726 1.258 1.73 1.289 3.011v5.836c0 1.164.148 2.09.445 2.777V576h-2.273zm-3.598-1.652c.68 0 1.324-.176 1.934-.528.609-.351 1.051-.808 1.324-1.371v-2.601h-1.699c-2.656 0-3.985.777-3.985 2.332 0 .679.227 1.211.68 1.593.453.383 1.035.575 1.746.575zm14.953-9.082a6.455 6.455 0 00-1.066-.082c-1.422 0-2.387.605-2.895 1.816v9h-2.168v-12.68h2.11l.035 1.465c.711-1.133 1.719-1.699 3.023-1.699.422 0 .743.055.961.164v2.016zm6.856 9.199c.773 0 1.449-.235 2.027-.703.578-.469.899-1.055.961-1.758h2.051c-.039.726-.289 1.418-.75 2.074-.461.656-1.078 1.18-1.852 1.57a5.283 5.283 0 01-2.437.586c-1.727 0-3.102-.574-4.125-1.722-1.016-1.157-1.524-2.735-1.524-4.735v-.363c0-1.234.227-2.332.68-3.293.453-.961 1.102-1.707 1.945-2.238.852-.531 1.856-.797 3.012-.797 1.422 0 2.602.426 3.539 1.277.945.852 1.449 1.957 1.512 3.317h-2.051c-.062-.821-.375-1.492-.937-2.016-.555-.531-1.243-.797-2.063-.797-1.101 0-1.957.399-2.566 1.195-.602.79-.903 1.934-.903 3.434v.41c0 1.461.301 2.586.903 3.375.601.789 1.461 1.184 2.578 1.184zm12.738 1.769c-1.719 0-3.117-.562-4.195-1.687-1.078-1.133-1.617-2.645-1.617-4.535v-.399c0-1.258.238-2.379.714-3.363.485-.992 1.157-1.766 2.016-2.32a5.068 5.068 0 012.813-.844c1.648 0 2.929.543 3.843 1.629.914 1.086 1.371 2.64 1.371 4.664v.902h-8.589c.031 1.25.394 2.262 1.089 3.035.704.766 1.594 1.149 2.672 1.149.766 0 1.414-.156 1.946-.469a4.87 4.87 0 001.394-1.242l1.324 1.031c-1.062 1.633-2.656 2.449-4.781 2.449zm-.269-11.367c-.875 0-1.61.321-2.204.961-.593.633-.96 1.524-1.101 2.672h6.351v-.164c-.062-1.102-.359-1.953-.89-2.555-.531-.609-1.25-.914-2.156-.914zM216.191 576h-2.168v-18h2.168v18zm2.907-6.457c0-1.242.242-2.359.726-3.352.492-.992 1.172-1.757 2.039-2.296.875-.54 1.871-.809 2.989-.809 1.726 0 3.121.598 4.183 1.793 1.07 1.195 1.606 2.785 1.606 4.769v.153c0 1.234-.239 2.344-.715 3.328-.469.976-1.145 1.738-2.028 2.285-.875.547-1.882.82-3.023.82-1.719 0-3.113-.597-4.184-1.793-1.062-1.195-1.593-2.777-1.593-4.746v-.152zm2.179.258c0 1.406.325 2.535.973 3.387.656.851 1.531 1.277 2.625 1.277 1.102 0 1.977-.43 2.625-1.289.648-.867.973-2.078.973-3.633 0-1.391-.332-2.516-.996-3.375-.657-.867-1.532-1.301-2.625-1.301-1.071 0-1.934.426-2.59 1.278-.657.851-.985 2.07-.985 3.656zm14.133-6.481l.07 1.594c.969-1.219 2.235-1.828 3.797-1.828 2.68 0 4.032 1.512 4.055 4.535V576h-2.168v-8.391c-.008-.914-.219-1.589-.633-2.027-.406-.437-1.043-.656-1.91-.656-.703 0-1.32.187-1.851.562a3.813 3.813 0 00-1.243 1.477V576h-2.168v-12.68h2.051zM254.43 576c-.125-.25-.227-.695-.305-1.336-1.008 1.047-2.211 1.57-3.609 1.57-1.25 0-2.278-.351-3.082-1.054-.797-.711-1.196-1.61-1.196-2.696 0-1.32.5-2.343 1.5-3.07 1.008-.734 2.422-1.102 4.242-1.102h2.11v-.996c0-.757-.227-1.359-.68-1.804-.453-.453-1.121-.68-2.004-.68-.773 0-1.422.195-1.945.586-.523.391-.785.863-.785 1.418h-2.18c0-.633.223-1.242.668-1.828.453-.594 1.063-1.063 1.828-1.406.774-.344 1.621-.516 2.543-.516 1.461 0 2.606.367 3.434 1.102.828.726 1.258 1.73 1.289 3.011v5.836c0 1.164.148 2.09.445 2.777V576h-2.273zm-3.598-1.652c.68 0 1.324-.176 1.934-.528.609-.351 1.05-.808 1.324-1.371v-2.601h-1.699c-2.657 0-3.985.777-3.985 2.332 0 .679.227 1.211.68 1.593.453.383 1.035.575 1.746.575zm8.754 5.05l-1.231-.843c.735-1.024 1.118-2.078 1.149-3.164v-1.957h2.121v1.699c0 .789-.195 1.578-.586 2.367-.383.789-.867 1.422-1.453 1.898zm16.102-11.003c-1.93-.555-3.336-1.235-4.219-2.04-.875-.812-1.313-1.812-1.313-3 0-1.343.535-2.453 1.606-3.328 1.078-.882 2.476-1.324 4.195-1.324 1.172 0 2.215.227 3.129.68.922.453 1.633 1.078 2.133 1.875.508.797.761 1.668.761 2.613h-2.261c0-1.031-.328-1.84-.985-2.426-.656-.593-1.582-.89-2.777-.89-1.109 0-1.977.246-2.602.738-.617.484-.925 1.16-.925 2.027 0 .696.293 1.285.879 1.77.593.476 1.597.914 3.011 1.312 1.422.399 2.532.84 3.328 1.325.805.476 1.399 1.035 1.782 1.675.39.641.586 1.395.586 2.262 0 1.383-.539 2.492-1.618 3.328-1.078.828-2.519 1.242-4.324 1.242a8.069 8.069 0 01-3.281-.668c-1.016-.453-1.801-1.07-2.355-1.851-.547-.781-.821-1.668-.821-2.66h2.262c0 1.031.379 1.847 1.137 2.449.765.594 1.785.891 3.058.891 1.188 0 2.098-.243 2.731-.727s.949-1.145.949-1.98c0-.836-.293-1.481-.879-1.934-.586-.461-1.648-.914-3.187-1.359zm19.593 1.406c0 1.929-.441 3.484-1.324 4.664-.883 1.18-2.078 1.769-3.586 1.769-1.539 0-2.75-.488-3.633-1.464v6.105h-2.168V563.32h1.981l.105 1.407c.883-1.094 2.11-1.641 3.68-1.641 1.523 0 2.726.574 3.609 1.723.891 1.148 1.336 2.746 1.336 4.793v.199zm-2.168-.246c0-1.43-.304-2.559-.914-3.387-.609-.828-1.445-1.242-2.508-1.242-1.312 0-2.296.582-2.953 1.746v6.058c.649 1.157 1.641 1.735 2.977 1.735 1.039 0 1.863-.41 2.473-1.231.617-.828.925-2.054.925-3.679zM305.875 576c-.125-.25-.227-.695-.305-1.336-1.008 1.047-2.211 1.57-3.609 1.57-1.25 0-2.277-.351-3.082-1.054-.797-.711-1.195-1.61-1.195-2.696 0-1.32.5-2.343 1.5-3.07 1.007-.734 2.421-1.102 4.242-1.102h2.109v-.996c0-.757-.226-1.359-.68-1.804-.453-.453-1.121-.68-2.003-.68-.774 0-1.422.195-1.946.586-.523.391-.785.863-.785 1.418h-2.18c0-.633.223-1.242.668-1.828.453-.594 1.063-1.063 1.829-1.406.773-.344 1.621-.516 2.542-.516 1.461 0 2.606.367 3.434 1.102.828.726 1.258 1.73 1.289 3.011v5.836c0 1.164.149 2.09.445 2.777V576h-2.273zm-3.598-1.652c.68 0 1.325-.176 1.934-.528.609-.351 1.051-.808 1.324-1.371v-2.601h-1.699c-2.656 0-3.984.777-3.984 2.332 0 .679.226 1.211.679 1.593.453.383 1.035.575 1.746.575zm11.18 1.652h-2.168v-12.68h2.168V576zm-2.344-16.043c0-.352.106-.648.317-.891.218-.242.539-.363.961-.363.421 0 .742.121.961.363.218.243.328.539.328.891s-.11.645-.328.879c-.219.234-.54.352-.961.352-.422 0-.743-.118-.961-.352-.211-.234-.317-.527-.317-.879zm7.875 3.363l.071 1.594c.968-1.219 2.234-1.828 3.796-1.828 2.68 0 4.032 1.512 4.055 4.535V576h-2.168v-8.391c-.008-.914-.219-1.589-.633-2.027-.406-.437-1.043-.656-1.91-.656-.703 0-1.32.187-1.851.562a3.813 3.813 0 00-1.243 1.477V576h-2.167v-12.68h2.05zM152.523 512v-17.062h5.25c1.5 0 2.84.339 4.02 1.019 1.187.672 2.113 1.633 2.777 2.883.664 1.242.996 2.656.996 4.242v.785c0 1.586-.328 2.996-.984 4.231a6.968 6.968 0 01-2.754 2.871c-1.187.679-2.527 1.023-4.019 1.031h-5.286zm3.516-14.215v11.391h1.699c1.375 0 2.426-.449 3.153-1.348.726-.898 1.097-2.183 1.113-3.855v-.903c0-1.734-.359-3.047-1.078-3.937-.719-.899-1.77-1.348-3.153-1.348h-1.734zm11.344 7.758c0-1.258.242-2.379.726-3.363.485-.985 1.18-1.746 2.086-2.285.914-.54 1.973-.809 3.176-.809 1.711 0 3.106.523 4.184 1.57 1.086 1.047 1.691 2.469 1.816 4.266l.024.867c0 1.945-.543 3.508-1.629 4.688-1.086 1.171-2.543 1.757-4.371 1.757-1.829 0-3.29-.586-4.383-1.757-1.086-1.172-1.629-2.766-1.629-4.782v-.152zm3.387.246c0 1.203.226 2.125.679 2.766.453.633 1.102.949 1.946.949.82 0 1.46-.313 1.921-.938.461-.632.692-1.64.692-3.023 0-1.18-.231-2.094-.692-2.742-.461-.649-1.109-.973-1.945-.973-.828 0-1.469.324-1.922.973-.453.64-.679 1.637-.679 2.988zm15.984 3.715c.625 0 1.133-.172 1.523-.516.391-.343.594-.8.61-1.371h3.175a4.362 4.362 0 01-.703 2.367c-.461.711-1.093 1.266-1.898 1.664-.797.391-1.68.586-2.649.586-1.812 0-3.242-.574-4.289-1.722-1.046-1.157-1.57-2.75-1.57-4.782v-.222c0-1.953.52-3.512 1.559-4.676 1.039-1.164 2.465-1.746 4.277-1.746 1.586 0 2.856.453 3.809 1.359.961.899 1.449 2.098 1.464 3.598h-3.175c-.016-.656-.219-1.188-.61-1.594-.39-.414-.906-.621-1.547-.621-.789 0-1.386.289-1.792.867-.399.571-.598 1.5-.598 2.789v.352c0 1.305.199 2.242.598 2.812.398.571 1.003.856 1.816.856zm11.297-13.301v3.117h2.168v2.485h-2.168v6.328c0 .469.09.805.269 1.008.18.203.524.304 1.032.304.375 0 .707-.027.996-.082v2.567a6.977 6.977 0 01-2.051.304c-2.375 0-3.586-1.199-3.633-3.597v-6.832h-1.852v-2.485h1.852v-3.117h3.387zm3.176 9.34c0-1.258.242-2.379.726-3.363.485-.985 1.18-1.746 2.086-2.285.914-.54 1.973-.809 3.176-.809 1.711 0 3.105.523 4.183 1.57 1.086 1.047 1.692 2.469 1.817 4.266l.023.867c0 1.945-.543 3.508-1.629 4.688-1.086 1.171-2.543 1.757-4.371 1.757-1.828 0-3.289-.586-4.383-1.757-1.085-1.172-1.628-2.766-1.628-4.782v-.152zm3.386.246c0 1.203.227 2.125.68 2.766.453.633 1.102.949 1.945.949.821 0 1.461-.313 1.922-.938.461-.632.692-1.64.692-3.023 0-1.18-.231-2.094-.692-2.742-.461-.649-1.109-.973-1.945-.973-.828 0-1.469.324-1.922.973-.453.64-.68 1.637-.68 2.988zm17.836-3.293a9.29 9.29 0 00-1.219-.094c-1.281 0-2.121.434-2.519 1.301V512h-3.387v-12.68h3.199l.094 1.512c.68-1.164 1.621-1.746 2.824-1.746.375 0 .727.051 1.055.152l-.047 3.258zm2.707 10.969h-2.519l6.281-18.527h2.52l-6.282 18.527zM240.414 512c-.156-.305-.269-.684-.34-1.137-.82.914-1.886 1.371-3.199 1.371-1.242 0-2.273-.359-3.094-1.078-.812-.718-1.219-1.625-1.219-2.718 0-1.344.497-2.376 1.489-3.094 1-.719 2.441-1.082 4.324-1.09h1.559v-.727c0-.586-.153-1.054-.457-1.406-.297-.351-.77-.527-1.418-.527-.571 0-1.02.136-1.348.41-.32.273-.481.648-.481 1.125h-3.386c0-.734.226-1.414.679-2.039.454-.625 1.094-1.113 1.922-1.465.828-.359 1.758-.539 2.789-.539 1.563 0 2.801.394 3.715 1.184.922.781 1.383 1.882 1.383 3.304v5.496c.008 1.203.176 2.114.504 2.731V512h-3.422zm-2.801-2.355c.5 0 .961-.11 1.383-.329.422-.226.734-.527.938-.902v-2.18h-1.266c-1.695 0-2.598.586-2.707 1.758l-.012.199c0 .422.149.77.446 1.043.296.274.703.411 1.218.411zm8.59 1.218c0-.375.109-.687.328-.937.227-.25.563-.375 1.008-.375.445 0 .781.125 1.008.375.234.25.351.562.351.937 0 .36-.117.66-.351.903-.227.242-.563.363-1.008.363-.445 0-.781-.121-1.008-.363a1.297 1.297 0 01-.328-.903zm.012-10.347c0-.375.109-.688.328-.938.227-.25.562-.375 1.008-.375.445 0 .781.125 1.008.375.234.25.351.563.351.938 0 .359-.117.66-.351.902-.227.242-.563.363-1.008.363-.446 0-.781-.121-1.008-.363-.219-.242-.328-.543-.328-.902zm14.414 4.804V512h-2.25v-17.062h6.293c1.867 0 3.328.476 4.383 1.429 1.062.953 1.593 2.215 1.593 3.785 0 1.657-.519 2.934-1.558 3.832-1.031.891-2.512 1.336-4.442 1.336h-4.019zm0-1.84h4.043c1.203 0 2.125-.281 2.766-.843.64-.571.96-1.391.96-2.461 0-1.016-.32-1.828-.96-2.438-.641-.609-1.52-.926-2.637-.949h-4.172v6.691zm11.812 2.063c0-1.242.243-2.359.727-3.352.492-.992 1.172-1.757 2.039-2.296.875-.54 1.871-.809 2.988-.809 1.727 0 3.121.598 4.184 1.793 1.07 1.195 1.605 2.785 1.605 4.769v.153c0 1.234-.238 2.344-.714 3.328-.469.976-1.145 1.738-2.028 2.285-.875.547-1.883.82-3.023.82-1.719 0-3.114-.597-4.184-1.793-1.062-1.195-1.594-2.777-1.594-4.746v-.152zm2.18.258c0 1.406.324 2.535.973 3.387.656.851 1.531 1.277 2.625 1.277 1.101 0 1.976-.43 2.625-1.289.648-.867.972-2.078.972-3.633 0-1.391-.332-2.516-.996-3.375-.656-.867-1.531-1.301-2.625-1.301-1.07 0-1.933.426-2.59 1.278-.656.851-.984 2.07-.984 3.656zM289.059 512h-2.168v-18h2.168v18zm12.035-1.84h8.086V512h-10.348v-17.062h2.262v15.222zm18.14 1.84c-.125-.25-.226-.695-.304-1.336-1.008 1.047-2.211 1.57-3.61 1.57-1.25 0-2.277-.351-3.082-1.054-.797-.711-1.195-1.61-1.195-2.696 0-1.32.5-2.343 1.5-3.07 1.008-.734 2.422-1.102 4.242-1.102h2.11v-.996c0-.757-.227-1.359-.68-1.804-.453-.453-1.121-.68-2.004-.68-.773 0-1.422.195-1.945.586-.524.391-.786.863-.786 1.418h-2.179c0-.633.222-1.242.668-1.828.453-.594 1.062-1.063 1.828-1.406.773-.344 1.621-.516 2.543-.516 1.461 0 2.605.367 3.433 1.102.829.726 1.258 1.73 1.289 3.011v5.836c0 1.164.149 2.09.446 2.777V512h-2.274zm-3.597-1.652c.679 0 1.324-.176 1.933-.528.61-.351 1.051-.808 1.325-1.371v-2.601h-1.7c-2.656 0-3.984.777-3.984 2.332 0 .679.227 1.211.68 1.593.453.383 1.035.575 1.746.575zm12.785-1.524l2.953-9.504h2.32l-5.097 14.637c-.789 2.109-2.043 3.164-3.762 3.164l-.41-.035-.809-.152v-1.758l.586.047c.735 0 1.305-.149 1.711-.446.414-.297.754-.839 1.02-1.629l.48-1.289-4.523-12.539h2.367l3.164 9.504zm6.457-3.281c0-1.242.242-2.359.726-3.352.493-.992 1.172-1.757 2.04-2.296.875-.54 1.871-.809 2.988-.809 1.726 0 3.121.598 4.183 1.793 1.071 1.195 1.606 2.785 1.606 4.769v.153c0 1.234-.238 2.344-.715 3.328-.469.976-1.145 1.738-2.027 2.285-.875.547-1.883.82-3.024.82-1.718 0-3.113-.597-4.183-1.793-1.063-1.195-1.594-2.777-1.594-4.746v-.152zm2.18.258c0 1.406.324 2.535.972 3.387.657.851 1.531 1.277 2.625 1.277 1.102 0 1.977-.43 2.625-1.289.649-.867.973-2.078.973-3.633 0-1.391-.332-2.516-.996-3.375-.656-.867-1.531-1.301-2.625-1.301-1.071 0-1.934.426-2.59 1.278-.656.851-.984 2.07-.984 3.656zM351.496 512h-2.168v-18h2.168v18zm11.309 0c-.125-.25-.227-.695-.305-1.336-1.008 1.047-2.211 1.57-3.609 1.57-1.25 0-2.278-.351-3.082-1.054-.797-.711-1.196-1.61-1.196-2.696 0-1.32.5-2.343 1.5-3.07 1.008-.734 2.422-1.102 4.242-1.102h2.11v-.996c0-.757-.227-1.359-.68-1.804-.453-.453-1.121-.68-2.004-.68-.773 0-1.422.195-1.945.586-.524.391-.785.863-.785 1.418h-2.18c0-.633.223-1.242.668-1.828.453-.594 1.063-1.063 1.828-1.406.774-.344 1.621-.516 2.543-.516 1.461 0 2.606.367 3.434 1.102.828.726 1.258 1.73 1.289 3.011v5.836c0 1.164.148 2.09.445 2.777V512h-2.273zm-3.598-1.652c.68 0 1.324-.176 1.934-.528.609-.351 1.05-.808 1.324-1.371v-2.601h-1.699c-2.657 0-3.985.777-3.985 2.332 0 .679.227 1.211.68 1.593.453.383 1.035.575 1.746.575zM166.41 476h-3.515v-7.312h-6.856V476h-3.516v-17.062h3.516v6.914h6.856v-6.914h3.515V476zm2.332-6.457c0-1.258.242-2.379.727-3.363.484-.985 1.179-1.746 2.086-2.285.914-.54 1.972-.809 3.175-.809 1.711 0 3.106.523 4.184 1.57 1.086 1.047 1.691 2.469 1.816 4.266l.024.867c0 1.945-.543 3.508-1.629 4.688-1.086 1.171-2.543 1.757-4.371 1.757-1.828 0-3.289-.586-4.383-1.757-1.086-1.172-1.629-2.766-1.629-4.782v-.152zm3.387.246c0 1.203.226 2.125.68 2.766.453.633 1.101.949 1.945.949.82 0 1.461-.313 1.922-.938.461-.632.691-1.64.691-3.023 0-1.18-.23-2.094-.691-2.742-.461-.649-1.11-.973-1.946-.973-.828 0-1.468.324-1.921.973-.454.64-.68 1.637-.68 2.988zm17.836-3.293a9.29 9.29 0 00-1.219-.094c-1.281 0-2.121.434-2.519 1.301V476h-3.387v-12.68h3.199l.094 1.512c.679-1.164 1.621-1.746 2.824-1.746.375 0 .727.051 1.055.152l-.047 3.258zm8.637 9.504c-.157-.305-.27-.684-.34-1.137-.821.914-1.887 1.371-3.2 1.371-1.242 0-2.273-.359-3.093-1.078-.813-.718-1.219-1.625-1.219-2.718 0-1.344.496-2.376 1.488-3.094 1-.719 2.442-1.082 4.324-1.09h1.559v-.727c0-.586-.152-1.054-.457-1.406-.297-.351-.769-.527-1.418-.527-.57 0-1.019.136-1.348.41-.32.273-.48.648-.48 1.125h-3.387c0-.734.227-1.414.68-2.039.453-.625 1.094-1.113 1.922-1.465.828-.359 1.758-.539 2.789-.539 1.562 0 2.801.394 3.715 1.184.922.781 1.383 1.882 1.383 3.304v5.496c.007 1.203.175 2.114.503 2.731V476h-3.421zm-2.801-2.355c.5 0 .961-.11 1.383-.329.421-.226.734-.527.937-.902v-2.18h-1.266c-1.695 0-2.597.586-2.707 1.758l-.011.199c0 .422.148.77.445 1.043.297.274.703.411 1.219.411zm8.59 1.218c0-.375.109-.687.328-.937.226-.25.562-.375 1.008-.375.445 0 .781.125 1.007.375.235.25.352.562.352.937 0 .36-.117.66-.352.903-.226.242-.562.363-1.007.363-.446 0-.782-.121-1.008-.363a1.297 1.297 0 01-.328-.903zm.011-10.347c0-.375.11-.688.328-.938.227-.25.563-.375 1.008-.375.446 0 .782.125 1.008.375.234.25.352.563.352.938 0 .359-.118.66-.352.902-.226.242-.562.363-1.008.363-.445 0-.781-.121-1.008-.363a1.3 1.3 0 01-.328-.902zm22.301 4.207c0 2.539-.433 4.425-1.301 5.66-.867 1.234-2.222 1.851-4.066 1.851-1.82 0-3.168-.601-4.043-1.804-.875-1.211-1.328-3.016-1.359-5.414v-2.895c0-2.508.433-4.371 1.3-5.59.868-1.219 2.227-1.828 4.078-1.828 1.836 0 3.188.59 4.055 1.77.867 1.172 1.313 2.984 1.336 5.437v2.813zm-2.168-2.965c0-1.836-.258-3.172-.773-4.008-.516-.844-1.332-1.266-2.45-1.266-1.109 0-1.917.418-2.425 1.254-.508.836-.77 2.121-.785 3.856v3.468c0 1.844.265 3.208.796 4.09.54.875 1.352 1.313 2.438 1.313 1.07 0 1.863-.414 2.379-1.242.523-.828.797-2.133.82-3.914v-3.551zm13.254 2.742a5.278 5.278 0 01-1.629 1.301 4.368 4.368 0 01-2.062.492c-.985 0-1.844-.242-2.578-.727-.727-.484-1.29-1.164-1.688-2.039-.398-.882-.598-1.855-.598-2.918 0-1.14.215-2.168.645-3.082.437-.914 1.055-1.613 1.851-2.097.797-.485 1.727-.727 2.79-.727 1.687 0 3.015.633 3.984 1.899.976 1.257 1.465 2.976 1.465 5.156v.633c0 3.32-.657 5.746-1.969 7.277-1.312 1.523-3.293 2.305-5.941 2.344h-.422v-1.828h.457c1.789-.032 3.164-.496 4.125-1.395.961-.906 1.484-2.336 1.57-4.289zm-3.34 0c.727 0 1.395-.223 2.004-.668a3.922 3.922 0 001.348-1.652v-.868c0-1.421-.309-2.578-.926-3.468-.617-.891-1.398-1.336-2.344-1.336-.953 0-1.719.367-2.297 1.101-.578.727-.867 1.688-.867 2.883 0 1.164.278 2.125.832 2.883.563.75 1.313 1.125 2.25 1.125zm8.778 6.363c0-.375.109-.687.328-.937.226-.25.562-.375 1.007-.375.446 0 .782.125 1.008.375.235.25.352.562.352.937 0 .36-.117.66-.352.903-.226.242-.562.363-1.008.363-.445 0-.781-.121-1.007-.363a1.297 1.297 0 01-.328-.903zm16.757-6.14c0 2.539-.433 4.425-1.3 5.66-.868 1.234-2.223 1.851-4.067 1.851-1.82 0-3.168-.601-4.043-1.804-.875-1.211-1.328-3.016-1.359-5.414v-2.895c0-2.508.433-4.371 1.301-5.59.867-1.219 2.226-1.828 4.078-1.828 1.836 0 3.187.59 4.054 1.77.868 1.172 1.313 2.984 1.336 5.437v2.813zm-2.168-2.965c0-1.836-.257-3.172-.773-4.008-.516-.844-1.332-1.266-2.449-1.266-1.11 0-1.918.418-2.426 1.254-.508.836-.77 2.121-.785 3.856v3.468c0 1.844.265 3.208.797 4.09.539.875 1.351 1.313 2.437 1.313 1.071 0 1.863-.414 2.379-1.242.524-.828.797-2.133.82-3.914v-3.551zm15.645 2.965c0 2.539-.434 4.425-1.301 5.66-.867 1.234-2.222 1.851-4.066 1.851-1.821 0-3.168-.601-4.043-1.804-.875-1.211-1.328-3.016-1.36-5.414v-2.895c0-2.508.434-4.371 1.301-5.59.867-1.219 2.227-1.828 4.078-1.828 1.836 0 3.188.59 4.055 1.77.867 1.172 1.313 2.984 1.336 5.437v2.813zm-2.168-2.965c0-1.836-.258-3.172-.773-4.008-.516-.844-1.332-1.266-2.45-1.266-1.109 0-1.918.418-2.425 1.254-.508.836-.77 2.121-.786 3.856v3.468c0 1.844.266 3.208.797 4.09.539.875 1.352 1.313 2.438 1.313 1.07 0 1.863-.414 2.379-1.242.523-.828.797-2.133.82-3.914v-3.551zm7.336-.903c.961-1.179 2.211-1.769 3.75-1.769 2.68 0 4.031 1.512 4.055 4.535V476h-2.168v-8.391c-.008-.914-.219-1.589-.633-2.027-.406-.437-1.043-.656-1.91-.656-.703 0-1.321.187-1.852.562a3.82 3.82 0 00-1.242 1.477V476h-2.168v-18h2.168v6.855zm-115.84-31.828h-6.75V440h-3.516v-17.062h11.11v2.847h-7.594v4.406h6.75v2.836zm8.238 7.207c-1.859 0-3.375-.57-4.547-1.711-1.164-1.14-1.746-2.66-1.746-4.558v-.328c0-1.274.246-2.41.739-3.41.492-1.008 1.187-1.782 2.086-2.321.906-.547 1.937-.82 3.093-.82 1.735 0 3.098.547 4.09 1.641 1 1.093 1.5 2.644 1.5 4.652v1.383h-8.074c.109.828.437 1.492.984 1.992.555.5 1.254.75 2.098.75 1.305 0 2.324-.473 3.059-1.418l1.664 1.863c-.508.719-1.196 1.281-2.063 1.688-.867.398-1.828.597-2.883.597zm-.386-10.406c-.672 0-1.219.227-1.641.68-.414.453-.68 1.101-.797 1.945h4.711v-.269c-.016-.75-.219-1.329-.609-1.735-.391-.414-.946-.621-1.664-.621zm12.808 7.676c.625 0 1.133-.172 1.524-.516.39-.343.593-.8.609-1.371h3.176a4.37 4.37 0 01-.703 2.367c-.461.711-1.094 1.266-1.899 1.664-.797.391-1.679.586-2.648.586-1.813 0-3.242-.574-4.289-1.722-1.047-1.157-1.571-2.75-1.571-4.782v-.222c0-1.953.52-3.512 1.559-4.676 1.039-1.164 2.465-1.746 4.277-1.746 1.586 0 2.856.453 3.809 1.359.961.899 1.449 2.098 1.465 3.598h-3.176c-.016-.656-.219-1.188-.609-1.594-.391-.414-.907-.621-1.547-.621-.789 0-1.387.289-1.793.867-.399.571-.598 1.5-.598 2.789v.352c0 1.305.199 2.242.598 2.812.398.571 1.004.856 1.816.856zm10.547-8.801c.899-1.078 2.027-1.617 3.387-1.617 2.75 0 4.144 1.598 4.183 4.793V440h-3.386v-8.027c0-.727-.157-1.262-.469-1.606-.313-.351-.832-.527-1.559-.527-.992 0-1.711.383-2.156 1.148V440h-3.387v-18h3.387v6.703zM211.469 440c-.157-.305-.27-.684-.34-1.137-.82.914-1.887 1.371-3.199 1.371-1.242 0-2.274-.359-3.094-1.078-.813-.718-1.219-1.625-1.219-2.718 0-1.344.496-2.376 1.488-3.094 1-.719 2.442-1.082 4.325-1.09h1.558v-.727c0-.586-.152-1.054-.457-1.406-.297-.351-.769-.527-1.418-.527-.57 0-1.019.136-1.347.41-.321.273-.481.648-.481 1.125h-3.387c0-.734.227-1.414.68-2.039.453-.625 1.094-1.113 1.922-1.465.828-.359 1.758-.539 2.789-.539 1.563 0 2.801.394 3.715 1.184.922.781 1.383 1.882 1.383 3.304v5.496c.008 1.203.175 2.114.504 2.731V440h-3.422zm-2.801-2.355c.5 0 .961-.11 1.383-.329.422-.226.734-.527.937-.902v-2.18h-1.265c-1.696 0-2.598.586-2.707 1.758l-.012.199c0 .422.148.77.445 1.043.297.274.703.411 1.219.411zm8.59 1.218c0-.375.109-.687.328-.937.226-.25.562-.375 1.008-.375.445 0 .781.125 1.008.375.234.25.351.562.351.937 0 .36-.117.66-.351.903-.227.242-.563.363-1.008.363-.446 0-.782-.121-1.008-.363a1.297 1.297 0 01-.328-.903zm.012-10.347c0-.375.109-.688.328-.938.226-.25.562-.375 1.007-.375.446 0 .782.125 1.008.375.235.25.352.563.352.938 0 .359-.117.66-.352.902-.226.242-.562.363-1.008.363-.445 0-.781-.121-1.007-.363-.219-.242-.328-.543-.328-.902zm16.007 8.543l3.141-9.739h2.215L234.086 440h-1.652l-4.594-12.68h2.215l3.222 9.739zm9.797 2.941h-2.168v-12.68h2.168V440zm-2.344-16.043c0-.352.106-.648.317-.891.219-.242.539-.363.961-.363.422 0 .742.121.961.363.219.243.328.539.328.891s-.109.645-.328.879c-.219.234-.539.352-.961.352-.422 0-.742-.118-.961-.352-.211-.234-.317-.527-.317-.879zm11.086 16.277c-1.718 0-3.117-.562-4.195-1.687-1.078-1.133-1.617-2.645-1.617-4.535v-.399c0-1.258.238-2.379.715-3.363.484-.992 1.156-1.766 2.015-2.32a5.07 5.07 0 012.813-.844c1.648 0 2.93.543 3.844 1.629.914 1.086 1.371 2.64 1.371 4.664v.902h-8.59c.031 1.25.394 2.262 1.09 3.035.703.766 1.593 1.149 2.672 1.149.765 0 1.414-.156 1.945-.469a4.87 4.87 0 001.394-1.242l1.325 1.031c-1.063 1.633-2.657 2.449-4.782 2.449zm-.269-11.367c-.875 0-1.609.321-2.203.961-.594.633-.961 1.524-1.102 2.672h6.352v-.164c-.063-1.102-.36-1.953-.891-2.555-.531-.609-1.25-.914-2.156-.914zm13.863.399a6.455 6.455 0 00-1.066-.082c-1.422 0-2.387.605-2.895 1.816v9h-2.168v-12.68h2.11l.035 1.465c.711-1.133 1.719-1.699 3.023-1.699.422 0 .742.055.961.164v2.016zm4.055-1.946l.07 1.594c.969-1.219 2.235-1.828 3.797-1.828 2.68 0 4.031 1.512 4.055 4.535V440h-2.168v-8.391c-.008-.914-.219-1.589-.633-2.027-.406-.437-1.043-.656-1.91-.656-.703 0-1.321.187-1.852.562a3.82 3.82 0 00-1.242 1.477V440h-2.168v-12.68h2.051zm16.453 12.914c-1.719 0-3.117-.562-4.195-1.687-1.078-1.133-1.618-2.645-1.618-4.535v-.399c0-1.258.239-2.379.715-3.363.485-.992 1.157-1.766 2.016-2.32a5.067 5.067 0 012.812-.844c1.649 0 2.93.543 3.844 1.629.914 1.086 1.371 2.64 1.371 4.664v.902h-8.59c.032 1.25.395 2.262 1.09 3.035.703.766 1.594 1.149 2.672 1.149.766 0 1.414-.156 1.945-.469a4.86 4.86 0 001.395-1.242l1.324 1.031c-1.062 1.633-2.656 2.449-4.781 2.449zm-.27-11.367c-.875 0-1.609.321-2.203.961-.593.633-.961 1.524-1.101 2.672h6.351v-.164c-.062-1.102-.359-1.953-.89-2.555-.532-.609-1.25-.914-2.157-.914zm15.118 7.77c0-.586-.223-1.039-.668-1.36-.438-.328-1.207-.609-2.309-.843-1.094-.235-1.965-.516-2.613-.844-.641-.328-1.117-.719-1.43-1.172-.305-.453-.457-.992-.457-1.617 0-1.039.438-1.918 1.313-2.637.882-.719 2.007-1.078 3.375-1.078 1.437 0 2.601.371 3.492 1.113.898.742 1.347 1.692 1.347 2.848h-2.179c0-.594-.254-1.106-.762-1.535-.5-.43-1.133-.645-1.898-.645-.789 0-1.407.172-1.852.516-.445.344-.668.793-.668 1.347 0 .524.207.918.621 1.184.414.266 1.16.52 2.238.762 1.086.242 1.965.531 2.637.867.672.336 1.168.742 1.488 1.219.329.468.493 1.043.493 1.722 0 1.133-.454 2.043-1.36 2.731-.906.68-2.082 1.019-3.527 1.019-1.016 0-1.914-.179-2.695-.539-.782-.359-1.395-.859-1.84-1.5a3.673 3.673 0 01-.657-2.097h2.168c.039.726.329 1.304.868 1.734.547.422 1.265.633 2.156.633.82 0 1.476-.164 1.969-.492.5-.336.75-.782.75-1.336zm4.922 6.761l-1.231-.843c.734-1.024 1.117-2.078 1.148-3.164v-1.957h2.122v1.699c0 .789-.196 1.578-.586 2.367-.383.789-.868 1.422-1.453 1.898zM323.324 440h-2.179v-14.449l-4.372 1.605v-1.968l6.211-2.333h.34V440zm12-6.445c0-1.946.461-3.508 1.383-4.688.922-1.187 2.129-1.781 3.621-1.781 1.484 0 2.66.508 3.527 1.523V422h2.168v18h-1.992l-.105-1.359c-.867 1.062-2.074 1.593-3.621 1.593-1.469 0-2.668-.601-3.598-1.804-.922-1.203-1.383-2.774-1.383-4.711v-.164zm2.168.246c0 1.437.297 2.562.891 3.375.594.812 1.414 1.219 2.461 1.219 1.375 0 2.379-.618 3.011-1.852v-5.824c-.648-1.196-1.644-1.793-2.988-1.793-1.062 0-1.89.41-2.484 1.23-.594.821-.891 2.035-.891 3.645zm17.168 6.433c-1.719 0-3.117-.562-4.195-1.687-1.078-1.133-1.617-2.645-1.617-4.535v-.399c0-1.258.238-2.379.714-3.363.485-.992 1.157-1.766 2.016-2.32a5.068 5.068 0 012.813-.844c1.648 0 2.929.543 3.843 1.629.914 1.086 1.371 2.64 1.371 4.664v.902h-8.589c.031 1.25.394 2.262 1.089 3.035.704.766 1.594 1.149 2.672 1.149.766 0 1.414-.156 1.946-.469a4.87 4.87 0 001.394-1.242l1.324 1.031c-1.062 1.633-2.656 2.449-4.781 2.449zm-.269-11.367c-.875 0-1.61.321-2.203.961-.594.633-.961 1.524-1.102 2.672h6.352v-.164c-.063-1.102-.36-1.953-.891-2.555-.531-.609-1.25-.914-2.156-.914zm18.949 11.367c-1.719 0-3.117-.562-4.195-1.687-1.079-1.133-1.618-2.645-1.618-4.535v-.399c0-1.258.239-2.379.715-3.363.485-.992 1.156-1.766 2.016-2.32a5.064 5.064 0 012.812-.844c1.649 0 2.93.543 3.844 1.629.914 1.086 1.371 2.64 1.371 4.664v.902h-8.59c.032 1.25.395 2.262 1.09 3.035.703.766 1.594 1.149 2.672 1.149.766 0 1.414-.156 1.945-.469a4.873 4.873 0 001.395-1.242l1.324 1.031c-1.062 1.633-2.656 2.449-4.781 2.449zm-.27-11.367c-.875 0-1.609.321-2.203.961-.594.633-.961 1.524-1.101 2.672h6.351v-.164c-.062-1.102-.359-1.953-.89-2.555-.532-.609-1.25-.914-2.157-.914zm9.785-1.547l.071 1.594c.969-1.219 2.234-1.828 3.797-1.828 2.679 0 4.031 1.512 4.054 4.535V440h-2.168v-8.391c-.007-.914-.218-1.589-.632-2.027-.407-.437-1.043-.656-1.911-.656-.703 0-1.32.187-1.851.562a3.82 3.82 0 00-1.242 1.477V440h-2.168v-12.68h2.05zm16.454 12.914c-1.719 0-3.118-.562-4.196-1.687-1.078-1.133-1.617-2.645-1.617-4.535v-.399c0-1.258.238-2.379.715-3.363.484-.992 1.156-1.766 2.016-2.32a5.064 5.064 0 012.812-.844c1.649 0 2.93.543 3.844 1.629.914 1.086 1.371 2.64 1.371 4.664v.902h-8.59c.031 1.25.395 2.262 1.09 3.035.703.766 1.594 1.149 2.672 1.149.765 0 1.414-.156 1.945-.469a4.886 4.886 0 001.395-1.242l1.324 1.031c-1.063 1.633-2.656 2.449-4.781 2.449zm-.27-11.367c-.875 0-1.609.321-2.203.961-.594.633-.961 1.524-1.102 2.672h6.352v-.164c-.063-1.102-.359-1.953-.891-2.555-.531-.609-1.25-.914-2.156-.914zm13.863.399a6.455 6.455 0 00-1.066-.082c-1.422 0-2.387.605-2.895 1.816v9h-2.168v-12.68h2.11l.035 1.465c.711-1.133 1.719-1.699 3.023-1.699.422 0 .743.055.961.164v2.016zm1.196 4.277c0-1.242.242-2.359.726-3.352.492-.992 1.172-1.757 2.039-2.296.875-.54 1.871-.809 2.989-.809 1.726 0 3.121.598 4.183 1.793 1.07 1.195 1.606 2.785 1.606 4.769v.153c0 1.234-.239 2.344-.715 3.328-.469.976-1.145 1.738-2.028 2.285-.875.547-1.882.82-3.023.82-1.719 0-3.113-.597-4.184-1.793-1.062-1.195-1.593-2.777-1.593-4.746v-.152zm2.179.258c0 1.406.325 2.535.973 3.387.656.851 1.531 1.277 2.625 1.277 1.102 0 1.977-.43 2.625-1.289.648-.867.973-2.078.973-3.633 0-1.391-.332-2.516-.996-3.375-.657-.867-1.532-1.301-2.625-1.301-1.071 0-1.934.426-2.59 1.278-.657.851-.985 2.07-.985 3.656zm17.508-.246c0-1.946.461-3.508 1.383-4.688.922-1.187 2.129-1.781 3.621-1.781 1.484 0 2.66.508 3.527 1.523V422h2.168v18h-1.992l-.105-1.359c-.867 1.062-2.075 1.593-3.621 1.593-1.469 0-2.668-.601-3.598-1.804-.922-1.203-1.383-2.774-1.383-4.711v-.164zm2.168.246c0 1.437.297 2.562.891 3.375.594.812 1.414 1.219 2.461 1.219 1.375 0 2.379-.618 3.011-1.852v-5.824c-.648-1.196-1.644-1.793-2.988-1.793-1.062 0-1.89.41-2.484 1.23-.594.821-.891 2.035-.891 3.645zm17.168 6.433c-1.719 0-3.117-.562-4.195-1.687-1.078-1.133-1.617-2.645-1.617-4.535v-.399c0-1.258.238-2.379.714-3.363.485-.992 1.157-1.766 2.016-2.32a5.068 5.068 0 012.813-.844c1.648 0 2.929.543 3.843 1.629.914 1.086 1.371 2.64 1.371 4.664v.902h-8.589c.031 1.25.394 2.262 1.089 3.035.704.766 1.594 1.149 2.672 1.149.766 0 1.414-.156 1.946-.469a4.87 4.87 0 001.394-1.242l1.324 1.031c-1.062 1.633-2.656 2.449-4.781 2.449zm-.269-11.367c-.875 0-1.61.321-2.204.961-.593.633-.96 1.524-1.101 2.672h6.351v-.164c-.062-1.102-.359-1.953-.89-2.555-.531-.609-1.25-.914-2.156-.914zM477.496 440h-11.18v-1.559l5.907-6.562c.875-.992 1.476-1.797 1.804-2.414.336-.625.504-1.27.504-1.934 0-.89-.269-1.621-.808-2.191-.539-.57-1.258-.856-2.157-.856-1.078 0-1.918.309-2.519.926-.594.61-.891 1.461-.891 2.555h-2.168c0-1.57.504-2.84 1.512-3.809 1.016-.968 2.371-1.453 4.066-1.453 1.586 0 2.84.418 3.762 1.254.922.828 1.383 1.934 1.383 3.316 0 1.68-1.07 3.68-3.211 6l-4.57 4.957h8.566V440zm12.996-7.277c0 2.539-.433 4.425-1.301 5.66-.867 1.234-2.222 1.851-4.066 1.851-1.82 0-3.168-.601-4.043-1.804-.875-1.211-1.328-3.016-1.359-5.414v-2.895c0-2.508.433-4.371 1.3-5.59.868-1.219 2.227-1.828 4.079-1.828 1.836 0 3.187.59 4.054 1.77.867 1.172 1.313 2.984 1.336 5.437v2.813zm-2.168-2.965c0-1.836-.258-3.172-.773-4.008-.516-.844-1.332-1.266-2.449-1.266-1.11 0-1.918.418-2.426 1.254-.508.836-.77 2.121-.785 3.856v3.468c0 1.844.265 3.208.797 4.09.539.875 1.351 1.313 2.437 1.313 1.07 0 1.863-.414 2.379-1.242.523-.828.797-2.133.82-3.914v-3.551zM504.449 440H493.27v-1.559l5.906-6.562c.875-.992 1.476-1.797 1.804-2.414.336-.625.504-1.27.504-1.934 0-.89-.269-1.621-.808-2.191-.539-.57-1.258-.856-2.156-.856-1.079 0-1.918.309-2.52.926-.594.61-.891 1.461-.891 2.555h-2.168c0-1.57.504-2.84 1.512-3.809 1.016-.968 2.371-1.453 4.067-1.453 1.585 0 2.839.418 3.761 1.254.922.828 1.383 1.934 1.383 3.316 0 1.68-1.07 3.68-3.211 6l-4.57 4.957h8.566V440zm9.422 0h-2.18v-14.449l-4.371 1.605v-1.968l6.211-2.333h.34V440z" fill="#333"/>
  <path d="M317.937 711.919c0 .697-.199 1.23-.595 1.6-.392.364-.948.546-1.668.546-.716 0-1.29-.239-1.723-.717-.428-.483-.642-1.14-.642-1.969v-.752c0-.802.216-1.442.649-1.921.438-.483 1.009-.725 1.716-.725.729 0 1.29.187 1.681.561.392.374.588.9.588 1.579h-.998c0-.451-.109-.772-.328-.964-.214-.196-.528-.294-.943-.294-.429 0-.766.158-1.012.472-.246.314-.369.752-.369 1.312v.773c0 .547.123.977.369 1.292.246.314.583.472 1.012.472.419 0 .734-.096.943-.288.214-.191.321-.517.321-.977h.999zm-6.242-.902c0 .783.183 1.51.547 2.18a4.09 4.09 0 001.484 1.566 3.882 3.882 0 002.037.567c.729 0 1.406-.189 2.03-.567a4.088 4.088 0 001.483-1.566c.365-.67.547-1.397.547-2.18 0-.775-.18-1.493-.54-2.154a4.028 4.028 0 00-1.483-1.558 3.827 3.827 0 00-2.037-.575c-.729 0-1.409.19-2.037.568a4.028 4.028 0 00-1.491 1.558 4.472 4.472 0 00-.54 2.161zm-.786 0c0-.921.212-1.775.636-2.564a4.79 4.79 0 011.77-1.859 4.661 4.661 0 012.448-.684 4.62 4.62 0 012.44.684 4.747 4.747 0 011.764 1.859 5.29 5.29 0 01.642 2.564c0 .897-.205 1.738-.615 2.522a4.886 4.886 0 01-1.75 1.894 4.56 4.56 0 01-2.481.711 4.615 4.615 0 01-2.482-.705 4.905 4.905 0 01-1.75-1.886 5.35 5.35 0 01-.622-2.536zM325.921 716v-9.953h2.809c.866 0 1.632.191 2.297.574a3.862 3.862 0 011.538 1.634c.365.706.55 1.517.554 2.433v.636c0 .939-.182 1.762-.547 2.468a3.798 3.798 0 01-1.551 1.627c-.67.378-1.452.572-2.345.581h-2.755zm1.312-8.873v7.8h1.381c1.012 0 1.798-.315 2.359-.944.565-.629.847-1.524.847-2.686v-.581c0-1.13-.266-2.008-.799-2.632-.529-.629-1.281-.948-2.256-.957h-1.532zm10.746 9.01c-1.002 0-1.818-.328-2.447-.985-.629-.66-.943-1.542-.943-2.645v-.233c0-.733.139-1.387.417-1.962a3.281 3.281 0 011.176-1.353 2.957 2.957 0 011.64-.492c.962 0 1.709.317 2.242.95.534.633.8 1.54.8 2.721v.526h-5.01c.018.729.23 1.319.635 1.771.41.446.93.669 1.559.669.446 0 .825-.091 1.135-.273.31-.182.581-.424.813-.725l.773.602c-.62.952-1.55 1.429-2.79 1.429zm-.157-6.631c-.51 0-.939.187-1.285.56-.346.37-.56.889-.642 1.559h3.705v-.096c-.037-.642-.21-1.139-.52-1.49-.31-.355-.729-.533-1.258-.533zm5.708-.902l.041.929c.565-.711 1.304-1.066 2.215-1.066 1.563 0 2.352.882 2.365 2.645V716h-1.264v-4.895c-.005-.533-.128-.927-.369-1.182-.237-.255-.609-.383-1.115-.383-.41 0-.77.109-1.08.328-.31.219-.551.506-.724.861V716h-1.265v-7.396h1.196zm8.244-1.792v1.792h1.381v.977h-1.381v4.587c0 .296.062.52.185.67.123.146.333.219.629.219.146 0 .346-.028.601-.082V716a3.667 3.667 0 01-.97.137c-.565 0-.991-.171-1.279-.513-.287-.342-.43-.827-.43-1.456v-4.587h-1.347v-.977h1.347v-1.792h1.264zm4.239 9.188h-1.265v-7.396h1.265V716zm-1.367-9.358c0-.205.061-.379.184-.52.128-.141.315-.212.561-.212.246 0 .433.071.56.212a.746.746 0 01.192.52.718.718 0 01-.192.512c-.127.137-.314.205-.56.205-.246 0-.433-.068-.561-.205a.735.735 0 01-.184-.512zm3.062 5.591c0-.724.141-1.376.424-1.955.287-.578.683-1.025 1.189-1.34.511-.314 1.092-.471 1.743-.471 1.008 0 1.821.348 2.441 1.046.624.697.936 1.624.936 2.782v.089c0 .72-.139 1.367-.417 1.941a3.109 3.109 0 01-1.182 1.333c-.511.319-1.099.479-1.764.479-1.002 0-1.816-.349-2.44-1.046-.62-.697-.93-1.62-.93-2.769v-.089zm1.271.151c0 .82.19 1.479.568 1.975.383.497.893.745 1.531.745.643 0 1.153-.25 1.531-.751.379-.506.568-1.213.568-2.12 0-.811-.194-1.467-.581-1.968-.383-.506-.894-.759-1.532-.759-.624 0-1.127.248-1.51.745s-.575 1.208-.575 2.133zm8.245-3.78l.041.929c.565-.711 1.303-1.066 2.214-1.066 1.564 0 2.352.882 2.366 2.645V716h-1.265v-4.895c-.004-.533-.128-.927-.369-1.182-.237-.255-.608-.383-1.114-.383-.41 0-.771.109-1.08.328a2.23 2.23 0 00-.725.861V716h-1.265v-7.396h1.197zM383.616 716h-6.521v-.909l3.445-3.828c.51-.579.861-1.048 1.053-1.409a2.35 2.35 0 00.294-1.127c0-.52-.158-.946-.472-1.279-.314-.332-.734-.499-1.258-.499-.629 0-1.119.18-1.469.54-.347.356-.52.852-.52 1.49h-1.265c0-.916.294-1.656.882-2.221.593-.565 1.383-.848 2.372-.848.925 0 1.657.244 2.195.732.537.483.806 1.128.806 1.934 0 .98-.624 2.147-1.873 3.5l-2.666 2.892h4.997V716zm7.581-4.245c0 1.481-.253 2.582-.759 3.302-.505.72-1.296 1.08-2.372 1.08-1.061 0-1.848-.351-2.358-1.053-.51-.706-.775-1.759-.793-3.158v-1.689c0-1.463.253-2.549.759-3.26.506-.711 1.299-1.067 2.379-1.067 1.071 0 1.859.344 2.365 1.032.506.684.766 1.741.779 3.172v1.641zm-1.264-1.73c0-1.071-.151-1.85-.452-2.337-.3-.493-.777-.739-1.428-.739-.647 0-1.119.244-1.415.732-.297.487-.449 1.237-.458 2.249v2.023c0 1.076.155 1.871.465 2.386.314.51.788.765 1.421.765.625 0 1.087-.241 1.388-.724.305-.483.465-1.244.479-2.283v-2.072zm9.406 5.975h-6.522v-.909l3.446-3.828c.51-.579.861-1.048 1.052-1.409a2.35 2.35 0 00.294-1.127c0-.52-.157-.946-.471-1.279-.315-.332-.734-.499-1.258-.499-.629 0-1.119.18-1.47.54-.346.356-.519.852-.519 1.49h-1.265c0-.916.294-1.656.882-2.221.592-.565 1.383-.848 2.372-.848.925 0 1.656.244 2.194.732.538.483.807 1.128.807 1.934 0 .98-.624 2.147-1.873 3.5l-2.666 2.892h4.997V716zm5.496 0h-1.272v-8.429l-2.549.937v-1.149l3.623-1.36h.198V716z" fill="#828282"/>
  <rect x="120" y="89" width="41" height="17" rx="4" fill="#BDBDBD"/>
  <path d="M132.199 100h-.75v-5.688h.75V100zm1.946-4.227l.023.532a1.54 1.54 0 011.266-.61c.893 0 1.343.504 1.351 1.512V100h-.723v-2.797c-.002-.305-.072-.53-.21-.676-.136-.145-.348-.218-.637-.218-.235 0-.44.062-.617.187s-.315.29-.414.492V100h-.723v-4.227h.684zm7.308 2.16c0 .646-.148 1.166-.445 1.56-.297.39-.696.585-1.196.585-.533 0-.946-.189-1.238-.566l-.035.488h-.664v-6h.723v2.238c.291-.362.694-.543 1.207-.543.513 0 .915.194 1.207.582.294.388.441.92.441 1.594v.063zm-.723-.081c0-.493-.095-.873-.285-1.141-.19-.268-.463-.402-.82-.402-.477 0-.819.22-1.027.664V98.8c.221.442.566.664 1.035.664.346 0 .616-.134.808-.403.193-.268.289-.671.289-1.21zm1.446-.004c0-.414.081-.787.242-1.117a1.84 1.84 0 01.68-.766c.291-.18.623-.27.996-.27.575 0 1.04.2 1.394.598.357.398.535.928.535 1.59v.05c0 .412-.079.782-.238 1.11-.156.325-.381.58-.676.762a1.857 1.857 0 01-1.007.273c-.573 0-1.038-.2-1.395-.597-.354-.399-.531-.926-.531-1.583v-.05zm.726.086c0 .468.108.845.325 1.129.218.283.51.425.875.425.367 0 .658-.143.875-.43.216-.289.324-.692.324-1.21 0-.464-.111-.839-.332-1.125a1.044 1.044 0 00-.875-.434 1.04 1.04 0 00-.864.426c-.218.284-.328.69-.328 1.219zm5.36-.618l.937-1.543h.844l-1.383 2.09 1.426 2.137h-.836l-.977-1.582-.976 1.582h-.84l1.426-2.137-1.383-2.09h.836l.926 1.543z" fill="#333"/>
  <defs>
    <linearGradient id="paint0_linear_2126:6632" x1="349.5" y1="22" x2="349.5" y2="736" gradientUnits="userSpaceOnUse">
      <stop stop-color="#fff"/>
      <stop offset="1" stop-color="#fff" stop-opacity="0"/>
    </linearGradient>
  </defs>
</svg>
