<svg width="32" height="32" viewBox="0 0 32 32" fill="none"
  xmlns="http://www.w3.org/2000/svg">
  <circle cx="16" cy="16" r="16" fill="#CAFEE0"/>
  <path d="M25 10.1426H7C6.4375 10.1426 6 10.6113 6 11.1426V21.1426C6 21.7051 6.4375 22.1426 7 22.1426H25C25.5312 22.1426 26 21.7051 26 21.1426V11.1426C26 10.6113 25.5312 10.1426 25 10.1426ZM7.5 20.6426V18.6426C8.59375 18.6426 9.5 19.5488 9.5 20.6426H7.5ZM7.5 13.6426V11.6426H9.5C9.5 12.7676 8.59375 13.6426 7.5 13.6426ZM16 19.1426C14.5938 19.1426 13.5 17.8301 13.5 16.1426C13.5 14.4863 14.5938 13.1426 16 13.1426C17.375 13.1426 18.5 14.4863 18.5 16.1426C18.5 17.8301 17.375 19.1426 16 19.1426ZM24.5 20.6426H22.5C22.5 19.5488 23.375 18.6426 24.5 18.6426V20.6426ZM24.5 13.6426C23.375 13.6426 22.5 12.7676 22.5 11.6426H24.5V13.6426Z" fill="#27AE60"/>
</svg>
