<svg width="32" height="32" viewBox="0 0 32 32" fill="none"
  xmlns="http://www.w3.org/2000/svg">
  <circle cx="16" cy="16" r="15" fill="#B8E0E3"/>
  <g clip-path="url(#clip0_3065_20512)">
    <path d="M23.4286 9.71387H8.57143C8.25536 9.71387 8 9.96922 8 10.2853V21.7139C8 22.0299 8.25536 22.2853 8.57143 22.2853H23.4286C23.7446 22.2853 24 22.0299 24 21.7139V10.2853C24 9.96922 23.7446 9.71387 23.4286 9.71387ZM22.7143 20.9996H9.28571V20.2871L11.7589 17.3532L14.4393 20.5317L18.6089 15.5889L22.7143 20.4567V20.9996ZM22.7143 18.6817L18.7179 13.9424C18.6607 13.8746 18.5571 13.8746 18.5 13.9424L14.4393 18.7567L11.8679 15.7085C11.8107 15.6407 11.7071 15.6407 11.65 15.7085L9.28571 18.5121V10.9996H22.7143V18.6817ZM12.2857 14.9996C12.4921 14.9996 12.6964 14.9589 12.8871 14.88C13.0777 14.801 13.251 14.6852 13.3969 14.5393C13.5428 14.3934 13.6586 14.2202 13.7375 14.0295C13.8165 13.8389 13.8571 13.6345 13.8571 13.4282C13.8571 13.2218 13.8165 13.0174 13.7375 12.8268C13.6586 12.6361 13.5428 12.4629 13.3969 12.317C13.251 12.1711 13.0777 12.0553 12.8871 11.9763C12.6964 11.8974 12.4921 11.8567 12.2857 11.8567C11.8689 11.8567 11.4692 12.0223 11.1745 12.317C10.8798 12.6117 10.7143 13.0114 10.7143 13.4282C10.7143 13.8449 10.8798 14.2446 11.1745 14.5393C11.4692 14.834 11.8689 14.9996 12.2857 14.9996V14.9996ZM12.2857 12.9282C12.5625 12.9282 12.7857 13.1514 12.7857 13.4282C12.7857 13.7049 12.5625 13.9282 12.2857 13.9282C12.0089 13.9282 11.7857 13.7049 11.7857 13.4282C11.7857 13.1514 12.0089 12.9282 12.2857 12.9282Z" fill="#408389"/>
  </g>
  <defs>
    <clipPath id="clip0_3065_20512">
      <rect width="16" height="16" fill="white" transform="translate(8 8)"/>
    </clipPath>
  </defs>
</svg>
