<svg width="152" height="152" viewBox="0 0 152 152" fill="none"
  xmlns="http://www.w3.org/2000/svg">
  <circle cx="76" cy="76" r="76" fill="#E6FAFF"/>
  <path d="M76.2 8C62.7113 8 49.5256 11.9999 38.3101 19.4938C27.0947 26.9877 18.3534 37.6391 13.1915 50.101C8.02956 62.5629 6.67896 76.2757 9.31047 89.5052C11.942 102.735 18.4374 114.887 27.9754 124.425C37.5133 133.963 49.6654 140.458 62.8949 143.09C76.1244 145.721 89.8371 144.37 102.299 139.209C114.761 134.047 125.412 125.305 132.906 114.09C140.4 102.874 144.4 89.6887 144.4 76.2C144.392 58.1148 137.204 40.7727 124.415 27.9846C111.627 15.1964 94.2852 8.00837 76.2 8ZM62.56 106.89V45.51L103.48 76.2L62.56 106.89Z" fill="#007D9E"/>
</svg>
