<svg width="32" height="32" viewBox="0 0 32 32" fill="none"
  xmlns="http://www.w3.org/2000/svg">
  <circle cx="16" cy="16" r="16" fill="#C5EAFF"/>
  <path d="M9 22.6426C9 23.4863 9.65625 24.1426 10.5 24.1426H21.5C22.3125 24.1426 23 23.4863 23 22.6426V14.1426H9V22.6426ZM19 16.5176C19 16.3301 19.1562 16.1426 19.375 16.1426H20.625C20.8125 16.1426 21 16.3301 21 16.5176V17.7676C21 17.9863 20.8125 18.1426 20.625 18.1426H19.375C19.1562 18.1426 19 17.9863 19 17.7676V16.5176ZM19 20.5176C19 20.3301 19.1562 20.1426 19.375 20.1426H20.625C20.8125 20.1426 21 20.3301 21 20.5176V21.7676C21 21.9863 20.8125 22.1426 20.625 22.1426H19.375C19.1562 22.1426 19 21.9863 19 21.7676V20.5176ZM15 16.5176C15 16.3301 15.1562 16.1426 15.375 16.1426H16.625C16.8125 16.1426 17 16.3301 17 16.5176V17.7676C17 17.9863 16.8125 18.1426 16.625 18.1426H15.375C15.1562 18.1426 15 17.9863 15 17.7676V16.5176ZM15 20.5176C15 20.3301 15.1562 20.1426 15.375 20.1426H16.625C16.8125 20.1426 17 20.3301 17 20.5176V21.7676C17 21.9863 16.8125 22.1426 16.625 22.1426H15.375C15.1562 22.1426 15 21.9863 15 21.7676V20.5176ZM11 16.5176C11 16.3301 11.1562 16.1426 11.375 16.1426H12.625C12.8125 16.1426 13 16.3301 13 16.5176V17.7676C13 17.9863 12.8125 18.1426 12.625 18.1426H11.375C11.1562 18.1426 11 17.9863 11 17.7676V16.5176ZM11 20.5176C11 20.3301 11.1562 20.1426 11.375 20.1426H12.625C12.8125 20.1426 13 20.3301 13 20.5176V21.7676C13 21.9863 12.8125 22.1426 12.625 22.1426H11.375C11.1562 22.1426 11 21.9863 11 21.7676V20.5176ZM21.5 10.1426H20V8.64258C20 8.39258 19.75 8.14258 19.5 8.14258H18.5C18.2188 8.14258 18 8.39258 18 8.64258V10.1426H14V8.64258C14 8.39258 13.75 8.14258 13.5 8.14258H12.5C12.2188 8.14258 12 8.39258 12 8.64258V10.1426H10.5C9.65625 10.1426 9 10.8301 9 11.6426V13.1426H23V11.6426C23 10.8301 22.3125 10.1426 21.5 10.1426Z" fill="#2D9CDB"/>
</svg>
