<svg width="32" height="32" viewBox="0 0 32 32" fill="none"
  xmlns="http://www.w3.org/2000/svg">
  <circle cx="16" cy="16" r="16" fill="#FFDCDC"/>
  <path d="M16.1426 16C18.3301 16 20.1426 14.2188 20.1426 12C20.1426 9.8125 18.3301 8 16.1426 8C13.9238 8 12.1426 9.8125 12.1426 12C12.1426 14.2188 13.9238 16 16.1426 16ZM18.9238 17H18.3926C17.7051 17.3438 16.9551 17.5 16.1426 17.5C15.3301 17.5 14.5488 17.3438 13.8613 17H13.3301C11.0176 17 9.14258 18.9062 9.14258 21.2188V22.5C9.14258 23.3438 9.79883 24 10.6426 24H21.6426C22.4551 24 23.1426 23.3438 23.1426 22.5V21.2188C23.1426 18.9062 21.2363 17 18.9238 17Z" fill="#EB5757"/>
</svg>
