<svg width="32" height="32" viewBox="0 0 32 32" fill="none"
  xmlns="http://www.w3.org/2000/svg">
  <circle cx="16" cy="16" r="16" fill="#FFF4D3"/>
  <path d="M17 12.3926V8.14258H10.75C10.3125 8.14258 10 8.48633 10 8.89258V23.3926C10 23.8301 10.3125 24.1426 10.75 24.1426H21.25C21.6562 24.1426 22 23.8301 22 23.3926V13.1426H17.75C17.3125 13.1426 17 12.8301 17 12.3926ZM19 19.7676C19 19.9863 18.8125 20.1426 18.625 20.1426H13.375C13.1562 20.1426 13 19.9863 13 19.7676V19.5176C13 19.3301 13.1562 19.1426 13.375 19.1426H18.625C18.8125 19.1426 19 19.3301 19 19.5176V19.7676ZM19 17.7676C19 17.9863 18.8125 18.1426 18.625 18.1426H13.375C13.1562 18.1426 13 17.9863 13 17.7676V17.5176C13 17.3301 13.1562 17.1426 13.375 17.1426H18.625C18.8125 17.1426 19 17.3301 19 17.5176V17.7676ZM19 15.5176V15.7676C19 15.9863 18.8125 16.1426 18.625 16.1426H13.375C13.1562 16.1426 13 15.9863 13 15.7676V15.5176C13 15.3301 13.1562 15.1426 13.375 15.1426H18.625C18.8125 15.1426 19 15.3301 19 15.5176ZM22 11.9551C22 11.7676 21.9062 11.5801 21.7812 11.4238L18.7188 8.36133C18.5625 8.23633 18.375 8.14258 18.1875 8.14258H18V12.1426H22V11.9551Z" fill="#F2C94C"/>
</svg>
