<svg width="400" height="370" viewBox="0 0 400 370" fill="none"
  xmlns="http://www.w3.org/2000/svg">
  <path d="M200.468 311.465C170.385 311.465 141.232 300.929 117.977 281.651C94.7221 262.373 78.8041 235.546 72.9352 205.742C67.0663 175.938 71.6095 145 85.7908 118.2C99.9722 91.4005 122.914 70.3967 150.708 58.7678C178.501 47.1388 209.427 45.6042 238.215 54.4254C267.003 63.2466 291.873 81.8778 308.586 107.145C325.3 132.411 332.823 162.75 329.874 192.992C326.926 223.234 313.687 251.507 292.415 272.994C280.368 285.229 266.039 294.929 250.256 301.533C234.474 308.137 217.551 311.512 200.468 311.465V311.465ZM200.468 49.7789C129.32 49.7789 71.436 108.249 71.436 180.117C71.436 251.986 129.32 310.455 200.468 310.455C271.617 310.455 329.5 251.986 329.5 180.117C329.5 108.249 271.617 49.7789 200.468 49.7789V49.7789Z" fill="#CCCCCC"/>
  <path d="M248.75 331.162V198.836H151.25V331.162H248.75Z" fill="#2F2E41"/>
  <path d="M265.5 194.795H134.5V247.321H265.5V194.795Z" fill="#3F3D56"/>
  <path d="M265.5 253.381H134.5V305.907H265.5V253.381Z" fill="#3F3D56"/>
  <path d="M265.5 311.969H134.5V364.495H265.5V311.969Z" fill="#3F3D56"/>
  <path d="M265.5 217.066H134.5V225.147H265.5V217.066Z" fill="#007D9E"/>
  <path d="M265.5 275.652H134.5V283.733H265.5V275.652Z" fill="#007D9E"/>
  <path d="M265.5 334.24H134.5V342.321H265.5V334.24Z" fill="#007D9E"/>
  <path d="M240 205.401C241.657 205.401 243 204.044 243 202.37C243 200.697 241.657 199.34 240 199.34C238.343 199.34 237 200.697 237 202.37C237 204.044 238.343 205.401 240 205.401Z" fill="#007D9E"/>
  <path d="M250.5 205.401C252.157 205.401 253.5 204.044 253.5 202.37C253.5 200.697 252.157 199.34 250.5 199.34C248.843 199.34 247.5 200.697 247.5 202.37C247.5 204.044 248.843 205.401 250.5 205.401Z" fill="#007D9E"/>
  <path d="M261 205.401C262.657 205.401 264 204.044 264 202.37C264 200.697 262.657 199.34 261 199.34C259.343 199.34 258 200.697 258 202.37C258 204.044 259.343 205.401 261 205.401Z" fill="#007D9E"/>
  <path d="M240 262.977C241.657 262.977 243 261.62 243 259.946C243 258.273 241.657 256.916 240 256.916C238.343 256.916 237 258.273 237 259.946C237 261.62 238.343 262.977 240 262.977Z" fill="#007D9E"/>
  <path d="M250.5 262.977C252.157 262.977 253.5 261.62 253.5 259.946C253.5 258.273 252.157 256.916 250.5 256.916C248.843 256.916 247.5 258.273 247.5 259.946C247.5 261.62 248.843 262.977 250.5 262.977Z" fill="#007D9E"/>
  <path d="M261 262.977C262.657 262.977 264 261.62 264 259.946C264 258.273 262.657 256.916 261 256.916C259.343 256.916 258 258.273 258 259.946C258 261.62 259.343 262.977 261 262.977Z" fill="#007D9E"/>
  <path d="M240 320.557C241.657 320.557 243 319.2 243 317.526C243 315.853 241.657 314.496 240 314.496C238.343 314.496 237 315.853 237 317.526C237 319.2 238.343 320.557 240 320.557Z" fill="#007D9E"/>
  <path d="M250.5 320.557C252.157 320.557 253.5 319.2 253.5 317.526C253.5 315.853 252.157 314.496 250.5 314.496C248.843 314.496 247.5 315.853 247.5 317.526C247.5 319.2 248.843 320.557 250.5 320.557Z" fill="#007D9E"/>
  <path d="M261 320.557C262.657 320.557 264 319.2 264 317.526C264 315.853 262.657 314.496 261 314.496C259.343 314.496 258 315.853 258 317.526C258 319.2 259.343 320.557 261 320.557Z" fill="#007D9E"/>
  <path d="M278 364H121V365H278V364Z" fill="#3F3D56"/>
  <path d="M98.9396 142.906V236.844C98.9392 238.809 98.1661 240.693 96.7904 242.083C95.4147 243.473 93.549 244.254 91.6034 244.254H55.4642C53.5182 244.254 51.6517 243.474 50.2754 242.084C48.8991 240.694 48.1256 238.809 48.125 236.844V142.906C48.1256 140.941 48.8991 139.056 50.2754 137.666C51.6517 136.276 53.5182 135.496 55.4642 135.496H59.8481C59.6329 136.031 59.551 136.611 59.6096 137.185C59.6682 137.759 59.8655 138.31 60.1842 138.789C60.503 139.268 60.9333 139.661 61.4375 139.933C61.9417 140.205 62.5042 140.347 63.0757 140.348H83.6799C84.2514 140.347 84.8139 140.205 85.3181 139.933C85.8222 139.661 86.2526 139.268 86.5713 138.789C86.8901 138.31 87.0874 137.759 87.146 137.185C87.2046 136.611 87.1227 136.031 86.9074 135.496H91.6034C93.549 135.496 95.4147 136.277 96.7904 137.667C98.1661 139.057 98.9392 140.941 98.9396 142.906V142.906Z" fill="#E6E6E6"/>
  <path d="M96.5322 153.432H50.5322V218.079H96.5322V153.432Z" fill="white"/>
  <path d="M81.9527 197.887H63.5928V198.946H81.9527V197.887Z" fill="#E6E6E6"/>
  <path d="M91.9828 201.775H63.5742V202.835H91.9828V201.775Z" fill="#007D9E"/>
  <path d="M85.8684 205.445H63.5742V206.505H85.8684V205.445Z" fill="#E6E6E6"/>
  <path d="M76.6884 209.107H63.5742V210.167H76.6884V209.107Z" fill="#E6E6E6"/>
  <path d="M83.2455 212.775H63.5742V213.835H83.2455V212.775Z" fill="#E6E6E6"/>
  <path d="M57.3649 197.584H55.2666V199.704H57.3649V197.584Z" fill="#E6E6E6"/>
  <path d="M57.3649 201.246H55.2666V203.366H57.3649V201.246Z" fill="#007D9E"/>
  <path d="M57.3649 204.914H55.2666V207.034H57.3649V204.914Z" fill="#E6E6E6"/>
  <path d="M57.3649 208.58H55.2666V210.7H57.3649V208.58Z" fill="#E6E6E6"/>
  <path d="M57.3649 212.246H55.2666V214.366H57.3649V212.246Z" fill="#E6E6E6"/>
  <path d="M82.8738 161.514H64.375V180.2H82.8738V161.514Z" fill="#E6E6E6"/>
  <path d="M342.707 216.825H320.101L320.867 206.637H341.941L342.707 216.825Z" fill="#E6E6E6"/>
  <path d="M344.241 215.65H318.952V218.002H344.241V215.65Z" fill="#E6E6E6"/>
  <path d="M374.701 141H288.299C287.689 141 287.104 141.248 286.673 141.689C286.242 142.13 286 142.728 286 143.351V143.351V197.232H377V143.351C377 143.042 376.941 142.737 376.825 142.451C376.709 142.166 376.54 141.907 376.327 141.689C376.113 141.47 375.86 141.297 375.581 141.179C375.302 141.061 375.003 141 374.701 141H374.701Z" fill="#3F3D56"/>
  <path d="M286 197.232V206.049C286 206.358 286.059 206.664 286.175 206.949C286.291 207.234 286.46 207.493 286.673 207.712C286.887 207.93 287.14 208.103 287.419 208.221C287.698 208.34 287.997 208.4 288.299 208.4H374.701C375.311 208.4 375.896 208.153 376.327 207.712C376.758 207.271 377 206.673 377 206.049V197.232H286Z" fill="#E6E6E6"/>
  <path d="M372.593 145.898H290.598V192.921H372.593V145.898Z" fill="#E6E6E6"/>
  <path d="M331.596 205.069C332.865 205.069 333.895 204.017 333.895 202.718C333.895 201.42 332.865 200.367 331.596 200.367C330.326 200.367 329.297 201.42 329.297 202.718C329.297 204.017 330.326 205.069 331.596 205.069Z" fill="#3F3D56"/>
  <path d="M293.155 147.885C293.396 147.885 293.591 147.685 293.591 147.438C293.591 147.192 293.396 146.992 293.155 146.992C292.914 146.992 292.719 147.192 292.719 147.438C292.719 147.685 292.914 147.885 293.155 147.885Z" fill="white"/>
  <path d="M294.81 147.885C295.051 147.885 295.247 147.685 295.247 147.438C295.247 147.192 295.051 146.992 294.81 146.992C294.569 146.992 294.374 147.192 294.374 147.438C294.374 147.685 294.569 147.885 294.81 147.885Z" fill="white"/>
  <path d="M296.467 147.885C296.708 147.885 296.903 147.685 296.903 147.438C296.903 147.192 296.708 146.992 296.467 146.992C296.226 146.992 296.03 147.192 296.03 147.438C296.03 147.685 296.226 147.885 296.467 147.885Z" fill="white"/>
  <path d="M370.231 148.955H292.719V188.447H370.231V148.955Z" fill="white"/>
  <path d="M297.871 154.961C297.798 154.961 297.728 154.991 297.677 155.043C297.626 155.096 297.597 155.167 297.597 155.241V169.407C297.597 169.481 297.626 169.552 297.677 169.605C297.728 169.657 297.798 169.687 297.871 169.687H313.866C313.939 169.687 314.009 169.657 314.06 169.605C314.111 169.552 314.14 169.481 314.14 169.407V155.241C314.14 155.167 314.111 155.096 314.06 155.043C314.009 154.991 313.939 154.961 313.866 154.961H297.871Z" fill="#E6E6E6"/>
  <path d="M323.553 155.008C323.481 155.008 323.411 155.037 323.36 155.09C323.308 155.142 323.279 155.214 323.279 155.288V169.408C323.279 169.482 323.308 169.554 323.36 169.606C323.411 169.659 323.481 169.688 323.553 169.688H339.498C339.571 169.688 339.64 169.659 339.692 169.606C339.743 169.554 339.772 169.482 339.772 169.408V155.288C339.772 155.214 339.743 155.143 339.692 155.09C339.64 155.037 339.571 155.008 339.498 155.008H323.553Z" fill="#E6E6E6"/>
  <path d="M348.967 154.859C348.895 154.859 348.825 154.889 348.774 154.942C348.722 154.994 348.693 155.065 348.693 155.14V169.408C348.693 169.482 348.722 169.553 348.774 169.606C348.825 169.658 348.895 169.688 348.967 169.688H365.078C365.15 169.688 365.22 169.658 365.271 169.606C365.323 169.553 365.352 169.482 365.352 169.408V155.14C365.352 155.065 365.323 154.994 365.271 154.942C365.22 154.889 365.15 154.859 365.078 154.859H348.967Z" fill="#E6E6E6"/>
  <path d="M298.163 176.701C298.013 176.701 297.869 176.763 297.763 176.871C297.657 176.98 297.598 177.127 297.598 177.281C297.598 177.434 297.657 177.581 297.763 177.69C297.869 177.798 298.013 177.86 298.163 177.86H313.202C313.352 177.86 313.496 177.798 313.602 177.69C313.708 177.581 313.768 177.434 313.768 177.281C313.768 177.127 313.708 176.98 313.602 176.871C313.496 176.763 313.352 176.701 313.202 176.701H298.163Z" fill="#E6E6E6"/>
  <path d="M298.163 179.453C298.013 179.453 297.869 179.515 297.763 179.623C297.657 179.732 297.598 179.879 297.598 180.033C297.598 180.186 297.657 180.333 297.763 180.442C297.869 180.551 298.013 180.612 298.163 180.612H304.934C305.085 180.612 305.228 180.551 305.334 180.442C305.44 180.333 305.5 180.186 305.5 180.033C305.5 179.879 305.44 179.732 305.334 179.623C305.228 179.515 305.085 179.453 304.934 179.453H298.163Z" fill="#007D9E"/>
  <path d="M324.122 176.701C323.972 176.701 323.828 176.763 323.722 176.871C323.616 176.98 323.557 177.127 323.557 177.281C323.557 177.434 323.616 177.581 323.722 177.69C323.828 177.798 323.972 177.86 324.122 177.86H339.161C339.311 177.86 339.455 177.798 339.561 177.69C339.667 177.581 339.727 177.434 339.727 177.281C339.727 177.127 339.667 176.98 339.561 176.871C339.455 176.763 339.311 176.701 339.161 176.701H324.122Z" fill="#E6E6E6"/>
  <path d="M324.122 179.453C323.972 179.453 323.828 179.515 323.722 179.623C323.616 179.732 323.557 179.879 323.557 180.033C323.557 180.186 323.616 180.333 323.722 180.442C323.828 180.551 323.972 180.612 324.122 180.612H330.894C331.044 180.612 331.187 180.551 331.293 180.442C331.399 180.333 331.459 180.186 331.459 180.033C331.459 179.879 331.399 179.732 331.293 179.623C331.187 179.515 331.044 179.453 330.894 179.453H324.122Z" fill="#007D9E"/>
  <path d="M349.433 176.701C349.283 176.701 349.139 176.763 349.033 176.871C348.927 176.98 348.867 177.127 348.867 177.281C348.867 177.434 348.927 177.581 349.033 177.69C349.139 177.798 349.283 177.86 349.433 177.86H364.472C364.622 177.86 364.766 177.798 364.872 177.69C364.978 177.581 365.037 177.434 365.037 177.281C365.037 177.127 364.978 176.98 364.872 176.871C364.766 176.763 364.622 176.701 364.472 176.701H349.433Z" fill="#E6E6E6"/>
  <path d="M298.163 173.852C298.013 173.852 297.869 173.913 297.763 174.022C297.657 174.13 297.598 174.277 297.598 174.431C297.598 174.584 297.657 174.732 297.763 174.84C297.869 174.949 298.013 175.01 298.163 175.01H313.202C313.352 175.01 313.496 174.949 313.602 174.84C313.708 174.732 313.768 174.584 313.768 174.431C313.768 174.277 313.708 174.13 313.602 174.022C313.496 173.913 313.352 173.852 313.202 173.852H298.163Z" fill="#E6E6E6"/>
  <path d="M324.122 173.852C323.972 173.852 323.828 173.913 323.722 174.022C323.616 174.13 323.557 174.277 323.557 174.431C323.557 174.584 323.616 174.732 323.722 174.84C323.828 174.949 323.972 175.01 324.122 175.01H339.161C339.311 175.01 339.455 174.949 339.561 174.84C339.667 174.732 339.727 174.584 339.727 174.431C339.727 174.277 339.667 174.13 339.561 174.022C339.455 173.913 339.311 173.852 339.161 173.852H324.122Z" fill="#E6E6E6"/>
  <path d="M349.433 173.852C349.283 173.852 349.139 173.913 349.033 174.022C348.927 174.13 348.867 174.277 348.867 174.431C348.867 174.584 348.927 174.732 349.033 174.84C349.139 174.949 349.283 175.01 349.433 175.01H364.472C364.622 175.01 364.766 174.949 364.872 174.84C364.978 174.732 365.037 174.584 365.037 174.431C365.037 174.277 364.978 174.13 364.872 174.022C364.766 173.913 364.622 173.852 364.472 173.852H349.433Z" fill="#E6E6E6"/>
  <path d="M349.433 179.453C349.283 179.453 349.139 179.515 349.033 179.623C348.927 179.732 348.867 179.879 348.867 180.033C348.867 180.186 348.927 180.333 349.033 180.442C349.139 180.551 349.283 180.612 349.433 180.612H356.204C356.354 180.612 356.498 180.551 356.604 180.442C356.71 180.333 356.769 180.186 356.769 180.033C356.769 179.879 356.71 179.732 356.604 179.623C356.498 179.515 356.354 179.453 356.204 179.453H349.433Z" fill="#007D9E"/>
  <path d="M199.753 99.9988C198.324 99.994 196.901 99.8084 195.518 99.4464L195.245 99.3703L194.993 99.2425C185.849 94.6199 178.136 88.5141 172.066 81.0947C167.041 74.9169 163.124 67.9027 160.49 60.3674C157.34 51.3458 155.825 41.8265 156.016 32.2641C156.02 32.0634 156.023 31.9084 156.023 31.8016C156.023 27.1532 158.582 23.0747 162.542 21.4108C165.573 20.1374 193.091 8.74001 195.079 7.91652C198.824 6.02462 202.818 7.60371 203.458 7.87985C204.891 8.471 230.33 18.9629 235.828 21.6025C241.493 24.3229 243.005 29.2101 243.005 31.6689C243.005 42.8008 241.093 53.2044 237.322 62.5909C234.277 70.1885 229.961 77.2026 224.562 83.3275C214.145 95.148 203.726 99.3384 203.625 99.3753C202.38 99.8074 201.07 100.018 199.753 99.9988ZM197.303 93.8785C198.206 94.0827 200.286 94.389 201.641 93.8904C203.363 93.2571 212.084 88.697 220.234 79.4494C231.493 66.6723 237.207 50.6105 237.215 31.71C237.195 31.3271 236.925 28.596 233.338 26.8739C227.948 24.2853 201.506 13.3829 201.24 13.2731L201.167 13.2418C200.612 13.0077 198.849 12.5145 197.633 13.1568L197.39 13.2713C197.095 13.3933 167.884 25.4912 164.769 26.8001C162.59 27.7158 161.813 29.9841 161.813 31.8016C161.813 31.9345 161.81 32.1277 161.805 32.3774C161.556 45.3098 164.524 77.1324 197.303 93.8785Z" fill="#3F3D56"/>
  <path d="M196.29 10.5725C196.29 10.5725 166.814 22.7802 163.656 24.1071C160.498 25.4341 158.918 28.6187 158.918 31.8033C158.918 34.9879 156.55 76.5428 196.29 96.6345C196.29 96.6345 199.897 97.6409 202.634 96.6345C205.37 95.6282 240.11 78.6436 240.11 31.6706C240.11 31.6706 240.11 26.8937 234.583 24.2398C229.056 21.586 202.335 10.5725 202.335 10.5725C202.335 10.5725 199.054 9.11293 196.29 10.5725Z" fill="#007D9E"/>
  <path opacity="0.1" d="M199.448 20.125V85.2486C199.448 85.2486 169.708 70.8134 169.971 32.8634L199.448 20.125Z" fill="black"/>
  <path d="M199.836 66.9282L190.362 54.6453L195.872 50.3246L200.357 56.1402L215.511 40.0098L220.578 44.851L199.836 66.9282Z" fill="white"/>
  <path d="M306.86 59.721C307.006 59.7025 307.154 59.7457 307.271 59.8411C307.388 59.9366 307.465 60.0765 307.485 60.2301L309.094 72.7901C309.113 72.9438 309.074 73.0985 308.985 73.2204C308.895 73.3423 308.763 73.4213 308.617 73.4402L296.933 74.937C296.787 74.9556 296.639 74.9124 296.522 74.8169C296.405 74.7215 296.328 74.5816 296.308 74.428L294.699 61.868C294.679 61.7143 294.719 61.5596 294.808 61.4377C294.897 61.3158 295.029 61.2368 295.175 61.2179L306.86 59.721L306.86 59.721ZM306.786 59.1414L295.101 60.6383C294.809 60.6757 294.545 60.8337 294.366 61.0775C294.187 61.3214 294.109 61.6311 294.149 61.9385L295.757 74.4985C295.797 74.8059 295.951 75.0859 296.185 75.2769C296.419 75.4678 296.715 75.5541 297.007 75.5167L308.692 74.0198C308.984 73.9824 309.248 73.8244 309.427 73.5806C309.605 73.3367 309.683 73.027 309.644 72.7196L308.035 60.1596C307.996 59.8522 307.842 59.5722 307.608 59.3812C307.373 59.1903 307.078 59.104 306.786 59.1414L306.786 59.1414Z" fill="#007D9E"/>
  <path d="M305.461 63.2564L297.665 64.2551C297.628 64.26 297.591 64.2572 297.556 64.2471C297.521 64.2369 297.487 64.2195 297.458 64.1959C297.429 64.1723 297.404 64.1428 297.386 64.1094C297.368 64.0759 297.355 64.039 297.351 64.0007C297.346 63.9625 297.348 63.9238 297.357 63.8867C297.367 63.8497 297.383 63.815 297.405 63.7848C297.428 63.7546 297.456 63.7293 297.487 63.7106C297.519 63.6918 297.554 63.6799 297.59 63.6755L305.386 62.6768C305.459 62.6679 305.533 62.6898 305.591 62.7375C305.649 62.7852 305.687 62.855 305.697 62.9315C305.707 63.0081 305.687 63.0852 305.643 63.1461C305.599 63.2069 305.533 63.2466 305.461 63.2564V63.2564Z" fill="#007D9E"/>
  <path d="M305.724 65.3093L297.928 66.308C297.855 66.3174 297.781 66.2958 297.722 66.2481C297.664 66.2003 297.625 66.1303 297.615 66.0535C297.605 65.9766 297.625 65.8992 297.67 65.8382C297.714 65.7773 297.78 65.7378 297.853 65.7284L305.649 64.7297C305.722 64.7204 305.796 64.7419 305.855 64.7897C305.913 64.8374 305.952 64.9074 305.962 64.9843C305.971 65.0611 305.952 65.1386 305.907 65.1995C305.863 65.2605 305.797 65.3 305.724 65.3093V65.3093Z" fill="#007D9E"/>
  <path d="M305.987 67.3599L298.191 68.3586C298.154 68.3635 298.118 68.3607 298.082 68.3505C298.047 68.3403 298.014 68.3229 297.984 68.2993C297.955 68.2757 297.931 68.2463 297.912 68.2128C297.894 68.1793 297.882 68.1424 297.877 68.1043C297.872 68.0661 297.874 68.0274 297.884 67.9903C297.893 67.9533 297.91 67.9186 297.932 67.8884C297.954 67.8582 297.982 67.833 298.013 67.8142C298.045 67.7954 298.08 67.7835 298.116 67.779L305.912 66.7803C305.985 66.7715 306.059 66.7933 306.117 66.841C306.175 66.8888 306.213 66.9585 306.223 67.0351C306.233 67.1116 306.214 67.1888 306.169 67.2496C306.125 67.3105 306.059 67.3501 305.987 67.3599V67.3599Z" fill="#007D9E"/>
  <path d="M306.249 69.4126L298.453 70.4113C298.416 70.4162 298.38 70.4135 298.344 70.4033C298.309 70.3932 298.275 70.3758 298.246 70.3521C298.217 70.3285 298.193 70.2991 298.174 70.2656C298.156 70.2321 298.144 70.1952 298.139 70.157C298.134 70.1188 298.136 70.08 298.146 70.043C298.155 70.0059 298.171 69.9713 298.194 69.941C298.216 69.9108 298.244 69.8856 298.275 69.8668C298.307 69.8481 298.342 69.8361 298.378 69.8317L306.174 68.833C306.247 68.8242 306.321 68.846 306.379 68.8937C306.437 68.9415 306.475 69.0112 306.485 69.0878C306.495 69.1643 306.476 69.2415 306.431 69.3023C306.387 69.3632 306.321 69.4028 306.249 69.4126V69.4126Z" fill="#007D9E"/>
  <path d="M306.512 71.4654L298.716 72.464C298.68 72.4689 298.643 72.4662 298.608 72.4561C298.572 72.4459 298.539 72.4285 298.51 72.4049C298.481 72.3812 298.456 72.3518 298.438 72.3183C298.419 72.2848 298.407 72.2479 298.402 72.2097C298.397 72.1715 298.4 72.1328 298.409 72.0957C298.419 72.0586 298.435 72.024 298.457 71.9938C298.48 71.9635 298.507 71.9383 298.539 71.9196C298.571 71.9008 298.606 71.8889 298.642 71.8845L306.438 70.8858C306.511 70.8769 306.584 70.8987 306.643 70.9465C306.701 70.9942 306.739 71.064 306.749 71.1405C306.759 71.2171 306.739 71.2942 306.695 71.3551C306.651 71.4159 306.585 71.4556 306.512 71.4654V71.4654Z" fill="#007D9E"/>
  <path d="M317.229 78.6444C317.331 78.6472 317.428 78.6931 317.498 78.7719C317.569 78.8508 317.607 78.9562 317.604 79.0651L317.372 87.9628C317.369 88.0716 317.325 88.1749 317.251 88.25C317.177 88.3251 317.078 88.3658 316.975 88.3633L308.783 88.1496C308.681 88.1468 308.584 88.1009 308.513 88.0221C308.443 87.9432 308.405 87.8378 308.408 87.7289L308.64 78.8313C308.643 78.7224 308.686 78.6191 308.761 78.544C308.835 78.4689 308.934 78.4282 309.037 78.4307L317.229 78.6444L317.229 78.6444ZM317.239 78.2338L309.047 78.0201C308.843 78.0148 308.644 78.0962 308.495 78.2464C308.346 78.3967 308.26 78.6034 308.254 78.8212L308.022 87.7189C308.016 87.9367 308.092 88.1477 308.233 88.3055C308.374 88.4632 308.568 88.5549 308.772 88.5602L316.964 88.7739C317.169 88.7793 317.368 88.6979 317.517 88.5476C317.665 88.3974 317.752 88.1906 317.758 87.9728L317.99 79.0752C317.996 78.8574 317.92 78.6464 317.779 78.4886C317.638 78.3308 317.444 78.2392 317.239 78.2338L317.239 78.2338Z" fill="#007D9E"/>
  <path d="M315.89 80.9508L310.425 80.8082C310.399 80.8077 310.374 80.8019 310.351 80.791C310.328 80.7802 310.307 80.7645 310.289 80.745C310.271 80.7254 310.258 80.7024 310.249 80.6771C310.239 80.6519 310.235 80.6249 310.236 80.5979C310.237 80.5708 310.242 80.5441 310.253 80.5194C310.263 80.4947 310.278 80.4724 310.297 80.4538C310.315 80.4351 310.337 80.4206 310.361 80.411C310.385 80.4013 310.41 80.3968 310.435 80.3976L315.901 80.5402C315.952 80.5419 316 80.5649 316.035 80.6043C316.07 80.6437 316.089 80.6963 316.088 80.7505C316.086 80.8048 316.065 80.8563 316.028 80.8938C315.991 80.9313 315.941 80.9518 315.89 80.9508V80.9508Z" fill="#007D9E"/>
  <path d="M315.852 82.4039L310.386 82.2613C310.335 82.26 310.287 82.2371 310.251 82.1976C310.216 82.1582 310.197 82.1055 310.199 82.051C310.2 81.9966 310.222 81.9449 310.259 81.9073C310.296 81.8698 310.346 81.8494 310.397 81.8507L315.863 81.9933C315.914 81.9946 315.963 82.0176 315.998 82.057C316.033 82.0964 316.052 82.1492 316.05 82.2036C316.049 82.2581 316.027 82.3098 315.99 82.3473C315.953 82.3849 315.903 82.4052 315.852 82.4039V82.4039Z" fill="#007D9E"/>
  <path d="M315.815 83.8571L310.349 83.7145C310.324 83.714 310.299 83.7081 310.275 83.6972C310.252 83.6863 310.231 83.6707 310.214 83.6511C310.196 83.6316 310.182 83.6085 310.173 83.5833C310.164 83.5581 310.16 83.5312 310.161 83.5041C310.161 83.4771 310.167 83.4504 310.177 83.4257C310.188 83.401 310.203 83.3787 310.221 83.3601C310.24 83.3415 310.262 83.3269 310.285 83.3173C310.309 83.3076 310.335 83.3031 310.36 83.3039L315.826 83.4465C315.877 83.4481 315.925 83.4712 315.96 83.5106C315.995 83.55 316.014 83.6025 316.012 83.6568C316.011 83.711 315.989 83.7625 315.952 83.8C315.915 83.8376 315.866 83.8581 315.815 83.8571V83.8571Z" fill="#007D9E"/>
  <path d="M315.776 85.3121L310.31 85.1696C310.285 85.1691 310.26 85.1632 310.237 85.1524C310.213 85.1415 310.192 85.1259 310.175 85.1063C310.157 85.0868 310.143 85.0637 310.134 85.0385C310.125 85.0132 310.121 84.9863 310.122 84.9592C310.122 84.9321 310.128 84.9055 310.138 84.8807C310.149 84.856 310.164 84.8337 310.182 84.8151C310.201 84.7965 310.223 84.7819 310.246 84.7723C310.27 84.7627 310.296 84.7581 310.321 84.759L315.787 84.9015C315.838 84.9032 315.886 84.9263 315.921 84.9657C315.956 85.0051 315.975 85.0576 315.973 85.1118C315.972 85.1661 315.95 85.2176 315.913 85.2551C315.876 85.2926 315.827 85.3131 315.776 85.3121V85.3121Z" fill="#007D9E"/>
  <path d="M315.738 86.7653L310.272 86.6227C310.247 86.6222 310.222 86.6164 310.198 86.6055C310.175 86.5946 310.154 86.579 310.137 86.5594C310.119 86.5399 310.105 86.5168 310.096 86.4916C310.087 86.4663 310.083 86.4394 310.084 86.4123C310.084 86.3853 310.09 86.3586 310.1 86.3339C310.111 86.3091 310.126 86.2868 310.144 86.2682C310.163 86.2496 310.185 86.2351 310.208 86.2254C310.232 86.2158 310.258 86.2113 310.283 86.2121L315.749 86.3547C315.8 86.3563 315.848 86.3794 315.883 86.4188C315.918 86.4582 315.937 86.5107 315.935 86.565C315.934 86.6192 315.912 86.6707 315.875 86.7082C315.838 86.7458 315.789 86.7663 315.738 86.7653V86.7653Z" fill="#007D9E"/>
  <path d="M320.991 93.1102C321.032 93.1323 321.059 93.1727 321.069 93.2226C321.079 93.2724 321.069 93.3277 321.042 93.3763L318.868 97.3428C318.841 97.3913 318.8 97.4291 318.753 97.4479C318.706 97.4666 318.657 97.4648 318.616 97.4429L315.403 95.6816C315.363 95.6596 315.335 95.6192 315.326 95.5693C315.316 95.5195 315.326 95.4642 315.352 95.4156L317.527 91.4491C317.553 91.4006 317.595 91.3628 317.642 91.344C317.689 91.3253 317.738 91.3271 317.779 91.349L320.991 93.1103L320.991 93.1102ZM321.092 92.9272L317.879 91.1659C317.799 91.1219 317.7 91.1183 317.606 91.1558C317.512 91.1934 317.429 91.269 317.375 91.3661L315.201 95.3327C315.148 95.4298 315.129 95.5404 315.148 95.6401C315.167 95.7399 315.223 95.8207 315.303 95.8647L318.516 97.626C318.596 97.67 318.694 97.6736 318.789 97.6361C318.883 97.5985 318.966 97.5229 319.019 97.4258L321.194 93.4592C321.247 93.3621 321.266 93.2515 321.247 93.1518C321.228 93.052 321.172 92.9712 321.092 92.9272L321.092 92.9272Z" fill="#007D9E"/>
  <path d="M319.919 93.8784L317.776 92.7033C317.766 92.6979 317.757 92.6902 317.75 92.6805C317.743 92.6709 317.739 92.6596 317.736 92.6472C317.734 92.6348 317.734 92.6216 317.736 92.6084C317.738 92.5951 317.743 92.5821 317.75 92.57C317.756 92.558 317.765 92.5471 317.775 92.5381C317.785 92.529 317.796 92.522 317.808 92.5174C317.819 92.5127 317.831 92.5106 317.843 92.5111C317.855 92.5116 317.866 92.5147 317.876 92.5203L320.02 93.6954C320.039 93.7065 320.053 93.7267 320.058 93.7515C320.063 93.7764 320.058 93.8039 320.045 93.8281C320.031 93.8523 320.011 93.8711 319.987 93.8806C319.964 93.89 319.939 93.8892 319.919 93.8784V93.8784Z" fill="#007D9E"/>
  <path d="M319.563 94.5266L317.42 93.3515C317.4 93.3405 317.386 93.3203 317.381 93.2953C317.376 93.2704 317.381 93.2428 317.394 93.2185C317.407 93.1942 317.428 93.1753 317.452 93.1659C317.475 93.1565 317.5 93.1574 317.52 93.1684L319.664 94.3435C319.684 94.3545 319.698 94.3747 319.702 94.3997C319.707 94.4246 319.702 94.4523 319.689 94.4765C319.676 94.5008 319.655 94.5197 319.632 94.5291C319.608 94.5385 319.583 94.5376 319.563 94.5266V94.5266Z" fill="#007D9E"/>
  <path d="M319.208 95.1733L317.065 93.9982C317.055 93.9928 317.046 93.985 317.039 93.9754C317.033 93.9658 317.028 93.9544 317.025 93.9421C317.023 93.9297 317.023 93.9165 317.025 93.9033C317.028 93.89 317.032 93.877 317.039 93.865C317.045 93.8529 317.054 93.842 317.064 93.833C317.074 93.824 317.085 93.8169 317.097 93.8123C317.108 93.8077 317.12 93.8055 317.132 93.806C317.144 93.8065 317.155 93.8096 317.165 93.8151L319.309 94.9902C319.328 95.0013 319.342 95.0215 319.347 95.0464C319.352 95.0713 319.347 95.0988 319.334 95.123C319.32 95.1472 319.3 95.166 319.276 95.1754C319.253 95.1849 319.228 95.1841 319.208 95.1733V95.1733Z" fill="#007D9E"/>
  <path d="M318.853 95.8218L316.709 94.6467C316.699 94.6413 316.691 94.6335 316.684 94.6239C316.677 94.6143 316.672 94.6029 316.67 94.5906C316.668 94.5782 316.667 94.565 316.67 94.5517C316.672 94.5385 316.677 94.5255 316.683 94.5134C316.69 94.5013 316.698 94.4905 316.708 94.4814C316.718 94.4724 316.729 94.4654 316.741 94.4607C316.753 94.4561 316.765 94.454 316.777 94.4545C316.788 94.455 316.8 94.4581 316.81 94.4636L318.953 95.6387C318.973 95.6498 318.987 95.67 318.992 95.6949C318.996 95.7198 318.991 95.7473 318.978 95.7715C318.965 95.7956 318.944 95.8145 318.921 95.8239C318.897 95.8333 318.873 95.8326 318.853 95.8218V95.8218Z" fill="#007D9E"/>
  <path d="M318.497 96.4702L316.354 95.2951C316.344 95.2897 316.335 95.282 316.328 95.2723C316.322 95.2627 316.317 95.2514 316.315 95.239C316.312 95.2266 316.312 95.2134 316.314 95.2002C316.317 95.1869 316.321 95.1739 316.328 95.1618C316.334 95.1498 316.343 95.1389 316.353 95.1299C316.363 95.1208 316.374 95.1138 316.386 95.1092C316.397 95.1045 316.409 95.1024 316.421 95.1029C316.433 95.1034 316.444 95.1065 316.454 95.1121L318.598 96.2872C318.618 96.2983 318.631 96.3185 318.636 96.3433C318.641 96.3682 318.636 96.3957 318.623 96.4199C318.609 96.4441 318.589 96.4629 318.565 96.4724C318.542 96.4818 318.517 96.481 318.497 96.4702V96.4702Z" fill="#007D9E"/>
  <path d="M323.889 101.538C323.917 101.543 323.941 101.559 323.957 101.583C323.973 101.606 323.979 101.636 323.974 101.664L323.558 103.999C323.553 104.027 323.537 104.053 323.514 104.069C323.491 104.086 323.463 104.093 323.435 104.088L321.228 103.694C321.2 103.689 321.176 103.673 321.16 103.65C321.144 103.626 321.138 103.597 321.143 103.568L321.559 101.234C321.564 101.205 321.58 101.18 321.603 101.163C321.626 101.147 321.654 101.14 321.682 101.145L323.889 101.538L323.889 101.538ZM323.909 101.43L321.701 101.037C321.646 101.027 321.589 101.041 321.543 101.074C321.497 101.107 321.465 101.158 321.455 101.215L321.039 103.55C321.029 103.607 321.041 103.665 321.073 103.713C321.104 103.76 321.153 103.792 321.208 103.802L323.416 104.195C323.471 104.205 323.528 104.192 323.574 104.159C323.62 104.125 323.652 104.074 323.662 104.017L324.078 101.683C324.088 101.626 324.076 101.567 324.044 101.52C324.013 101.472 323.964 101.44 323.909 101.43L323.909 101.43Z" fill="#007D9E"/>
  <path d="M323.437 102.09L321.964 101.828C321.957 101.827 321.95 101.824 321.945 101.82C321.939 101.817 321.934 101.812 321.93 101.806C321.926 101.8 321.923 101.793 321.921 101.786C321.92 101.779 321.92 101.772 321.921 101.765C321.922 101.758 321.925 101.751 321.929 101.745C321.933 101.739 321.937 101.733 321.943 101.729C321.949 101.725 321.955 101.722 321.962 101.721C321.969 101.719 321.976 101.719 321.983 101.72L323.456 101.983C323.469 101.985 323.482 101.993 323.489 102.005C323.497 102.017 323.5 102.032 323.498 102.046C323.495 102.06 323.487 102.073 323.476 102.081C323.464 102.089 323.45 102.093 323.437 102.09V102.09Z" fill="#007D9E"/>
  <path d="M323.368 102.471L321.895 102.209C321.881 102.206 321.869 102.198 321.861 102.186C321.853 102.175 321.85 102.16 321.853 102.146C321.855 102.131 321.863 102.119 321.875 102.11C321.886 102.102 321.901 102.099 321.914 102.101L323.387 102.363C323.401 102.366 323.413 102.374 323.421 102.386C323.429 102.398 323.432 102.412 323.429 102.427C323.427 102.441 323.419 102.454 323.407 102.462C323.396 102.47 323.382 102.474 323.368 102.471V102.471Z" fill="#007D9E"/>
  <path d="M323.3 102.852L321.827 102.59C321.82 102.588 321.814 102.586 321.808 102.582C321.802 102.578 321.797 102.573 321.793 102.567C321.789 102.562 321.786 102.555 321.785 102.548C321.783 102.541 321.783 102.534 321.784 102.527C321.786 102.519 321.788 102.513 321.792 102.507C321.796 102.5 321.801 102.495 321.806 102.491C321.812 102.487 321.819 102.484 321.826 102.482C321.832 102.481 321.839 102.481 321.846 102.482L323.319 102.744C323.333 102.747 323.345 102.755 323.353 102.767C323.361 102.779 323.364 102.793 323.361 102.807C323.359 102.822 323.351 102.834 323.339 102.843C323.328 102.851 323.314 102.854 323.3 102.852V102.852Z" fill="#007D9E"/>
  <path d="M323.232 103.235L321.76 102.973C321.753 102.971 321.746 102.969 321.74 102.965C321.735 102.961 321.729 102.956 321.726 102.95C321.722 102.944 321.719 102.938 321.717 102.931C321.716 102.924 321.716 102.916 321.717 102.909C321.718 102.902 321.721 102.895 321.725 102.889C321.728 102.883 321.733 102.878 321.739 102.874C321.745 102.87 321.751 102.867 321.758 102.865C321.765 102.864 321.772 102.864 321.779 102.865L323.252 103.127C323.265 103.13 323.278 103.138 323.285 103.15C323.293 103.161 323.296 103.176 323.294 103.19C323.291 103.205 323.283 103.217 323.272 103.226C323.26 103.234 323.246 103.237 323.232 103.235V103.235Z" fill="#007D9E"/>
  <path d="M323.164 103.616L321.691 103.353C321.684 103.352 321.678 103.35 321.672 103.346C321.666 103.342 321.661 103.337 321.657 103.331C321.653 103.325 321.65 103.319 321.649 103.312C321.647 103.305 321.647 103.297 321.649 103.29C321.65 103.283 321.652 103.276 321.656 103.27C321.66 103.264 321.665 103.259 321.671 103.255C321.677 103.251 321.683 103.248 321.69 103.246C321.697 103.245 321.704 103.244 321.711 103.246L323.183 103.508C323.197 103.511 323.209 103.519 323.217 103.53C323.225 103.542 323.228 103.557 323.225 103.571C323.223 103.585 323.215 103.598 323.204 103.606C323.192 103.615 323.178 103.618 323.164 103.616V103.616Z" fill="#007D9E"/>
  <path d="M118.86 291.721C119.006 291.703 119.154 291.746 119.271 291.841C119.388 291.937 119.465 292.076 119.485 292.23L121.094 304.79C121.113 304.944 121.074 305.099 120.985 305.22C120.895 305.342 120.763 305.421 120.617 305.44L108.933 306.937C108.787 306.956 108.639 306.912 108.522 306.817C108.405 306.721 108.328 306.582 108.308 306.428L106.699 293.868C106.679 293.714 106.719 293.56 106.808 293.438C106.897 293.316 107.029 293.237 107.175 293.218L118.86 291.721L118.86 291.721ZM118.786 291.141L107.101 292.638C106.809 292.676 106.545 292.834 106.366 293.078C106.187 293.321 106.109 293.631 106.149 293.939L107.757 306.498C107.797 306.806 107.951 307.086 108.185 307.277C108.419 307.468 108.715 307.554 109.007 307.517L120.692 306.02C120.984 305.982 121.248 305.824 121.427 305.581C121.605 305.337 121.683 305.027 121.644 304.72L120.035 292.16C119.996 291.852 119.842 291.572 119.608 291.381C119.373 291.19 119.078 291.104 118.786 291.141L118.786 291.141Z" fill="#007D9E"/>
  <path d="M117.461 295.256L109.665 296.255C109.628 296.26 109.591 296.257 109.556 296.247C109.521 296.237 109.487 296.22 109.458 296.196C109.429 296.172 109.404 296.143 109.386 296.109C109.368 296.076 109.355 296.039 109.351 296.001C109.346 295.963 109.348 295.924 109.357 295.887C109.367 295.85 109.383 295.815 109.405 295.785C109.428 295.755 109.456 295.729 109.487 295.711C109.519 295.692 109.554 295.68 109.59 295.675L117.386 294.677C117.459 294.668 117.533 294.69 117.591 294.738C117.649 294.785 117.687 294.855 117.697 294.932C117.707 295.008 117.687 295.085 117.643 295.146C117.599 295.207 117.533 295.247 117.461 295.256V295.256Z" fill="#007D9E"/>
  <path d="M117.724 297.309L109.928 298.308C109.855 298.317 109.781 298.296 109.722 298.248C109.664 298.2 109.625 298.13 109.615 298.053C109.605 297.977 109.625 297.899 109.67 297.838C109.714 297.777 109.78 297.738 109.853 297.728L117.649 296.73C117.722 296.72 117.796 296.742 117.855 296.79C117.913 296.837 117.952 296.907 117.962 296.984C117.971 297.061 117.952 297.139 117.907 297.2C117.863 297.26 117.797 297.3 117.724 297.309V297.309Z" fill="#007D9E"/>
  <path d="M117.987 299.36L110.191 300.359C110.154 300.363 110.118 300.361 110.082 300.351C110.047 300.34 110.014 300.323 109.984 300.299C109.955 300.276 109.931 300.246 109.912 300.213C109.894 300.179 109.882 300.142 109.877 300.104C109.872 300.066 109.874 300.027 109.884 299.99C109.893 299.953 109.91 299.919 109.932 299.888C109.954 299.858 109.982 299.833 110.013 299.814C110.045 299.795 110.08 299.783 110.116 299.779L117.912 298.78C117.985 298.771 118.059 298.793 118.117 298.841C118.175 298.889 118.213 298.959 118.223 299.035C118.233 299.112 118.214 299.189 118.169 299.25C118.125 299.31 118.059 299.35 117.987 299.36V299.36Z" fill="#007D9E"/>
  <path d="M118.249 301.413L110.453 302.411C110.416 302.416 110.38 302.413 110.344 302.403C110.309 302.393 110.275 302.376 110.246 302.352C110.217 302.328 110.193 302.299 110.174 302.266C110.156 302.232 110.144 302.195 110.139 302.157C110.134 302.119 110.136 302.08 110.146 302.043C110.155 302.006 110.171 301.971 110.194 301.941C110.216 301.911 110.244 301.886 110.275 301.867C110.307 301.848 110.342 301.836 110.378 301.832L118.174 300.833C118.247 300.824 118.321 300.846 118.379 300.894C118.437 300.941 118.475 301.011 118.485 301.088C118.495 301.164 118.476 301.241 118.431 301.302C118.387 301.363 118.321 301.403 118.249 301.413V301.413Z" fill="#007D9E"/>
  <path d="M118.512 303.465L110.716 304.464C110.68 304.469 110.643 304.466 110.608 304.456C110.572 304.446 110.539 304.429 110.51 304.405C110.481 304.381 110.456 304.352 110.438 304.318C110.419 304.285 110.407 304.248 110.402 304.21C110.397 304.172 110.4 304.133 110.409 304.096C110.419 304.059 110.435 304.024 110.457 303.994C110.48 303.964 110.507 303.938 110.539 303.92C110.571 303.901 110.606 303.889 110.642 303.884L118.438 302.886C118.511 302.877 118.584 302.899 118.643 302.946C118.701 302.994 118.739 303.064 118.749 303.141C118.759 303.217 118.739 303.294 118.695 303.355C118.651 303.416 118.585 303.456 118.512 303.465V303.465Z" fill="#007D9E"/>
  <path d="M103.229 281.644C103.331 281.647 103.428 281.693 103.498 281.772C103.569 281.851 103.607 281.956 103.604 282.065L103.372 290.963C103.369 291.072 103.325 291.175 103.251 291.25C103.177 291.325 103.078 291.366 102.975 291.363L94.783 291.15C94.6807 291.147 94.5837 291.101 94.5134 291.022C94.4431 290.943 94.4051 290.838 94.4078 290.729L94.6399 281.831C94.6429 281.722 94.6863 281.619 94.7606 281.544C94.835 281.469 94.9342 281.428 95.0365 281.431L103.229 281.644L103.229 281.644ZM103.239 281.234L95.0472 281.02C94.8425 281.015 94.644 281.096 94.4952 281.246C94.3464 281.397 94.2597 281.603 94.254 281.821L94.0219 290.719C94.0162 290.937 94.0921 291.148 94.2328 291.305C94.3735 291.463 94.5676 291.555 94.7723 291.56L102.964 291.774C103.169 291.779 103.368 291.698 103.517 291.548C103.665 291.397 103.752 291.191 103.758 290.973L103.99 282.075C103.996 281.857 103.92 281.646 103.779 281.489C103.638 281.331 103.444 281.239 103.239 281.234L103.239 281.234Z" fill="#007D9E"/>
  <path d="M101.89 283.951L96.4247 283.808C96.3992 283.808 96.3741 283.802 96.3508 283.791C96.3276 283.78 96.3065 283.765 96.289 283.745C96.2715 283.725 96.2577 283.702 96.2486 283.677C96.2395 283.652 96.2351 283.625 96.2359 283.598C96.2366 283.571 96.2423 283.544 96.2527 283.519C96.2631 283.495 96.2781 283.472 96.2966 283.454C96.3151 283.435 96.3369 283.421 96.3608 283.411C96.3846 283.401 96.4099 283.397 96.4354 283.398L101.901 283.54C101.952 283.542 102 283.565 102.035 283.604C102.07 283.644 102.089 283.696 102.088 283.751C102.086 283.805 102.065 283.856 102.028 283.894C101.991 283.931 101.941 283.952 101.89 283.951V283.951Z" fill="#007D9E"/>
  <path d="M101.852 285.404L96.3864 285.261C96.3352 285.26 96.2867 285.237 96.2515 285.198C96.2163 285.158 96.1973 285.105 96.1987 285.051C96.2002 284.997 96.2219 284.945 96.2591 284.907C96.2962 284.87 96.3459 284.849 96.3971 284.851L101.863 284.993C101.914 284.995 101.963 285.018 101.998 285.057C102.033 285.096 102.052 285.149 102.05 285.204C102.049 285.258 102.027 285.31 101.99 285.347C101.953 285.385 101.903 285.405 101.852 285.404V285.404Z" fill="#007D9E"/>
  <path d="M101.815 286.857L96.3492 286.714C96.3238 286.714 96.2988 286.708 96.2755 286.697C96.2522 286.686 96.2313 286.671 96.2137 286.651C96.1962 286.632 96.1825 286.609 96.1734 286.583C96.1643 286.558 96.16 286.531 96.1607 286.504C96.1614 286.477 96.1671 286.45 96.1775 286.426C96.1879 286.401 96.2028 286.379 96.2213 286.36C96.2398 286.341 96.2616 286.327 96.2854 286.317C96.3092 286.308 96.3345 286.303 96.36 286.304L101.826 286.446C101.877 286.448 101.925 286.471 101.96 286.511C101.995 286.55 102.014 286.603 102.012 286.657C102.011 286.711 101.989 286.762 101.952 286.8C101.915 286.838 101.866 286.858 101.815 286.857V286.857Z" fill="#007D9E"/>
  <path d="M101.776 288.312L96.3104 288.17C96.285 288.169 96.2599 288.163 96.2366 288.152C96.2133 288.142 96.1923 288.126 96.1747 288.106C96.1572 288.087 96.1435 288.064 96.1343 288.038C96.1252 288.013 96.1209 287.986 96.1216 287.959C96.1223 287.932 96.128 287.905 96.1385 287.881C96.1489 287.856 96.1638 287.834 96.1823 287.815C96.2009 287.796 96.2227 287.782 96.2465 287.772C96.2703 287.763 96.2957 287.758 96.3211 287.759L101.787 287.902C101.838 287.903 101.886 287.926 101.921 287.966C101.956 288.005 101.975 288.058 101.973 288.112C101.972 288.166 101.95 288.218 101.913 288.255C101.876 288.293 101.827 288.313 101.776 288.312V288.312Z" fill="#007D9E"/>
  <path d="M101.738 289.765L96.2723 289.623C96.2469 289.622 96.2218 289.616 96.1985 289.605C96.1752 289.595 96.1542 289.579 96.1367 289.559C96.1191 289.54 96.1054 289.517 96.0963 289.492C96.0871 289.466 96.0828 289.439 96.0835 289.412C96.0842 289.385 96.0899 289.359 96.1004 289.334C96.1108 289.309 96.1257 289.287 96.1442 289.268C96.1628 289.25 96.1846 289.235 96.2084 289.225C96.2322 289.216 96.2576 289.211 96.283 289.212L101.749 289.355C101.8 289.356 101.848 289.379 101.883 289.419C101.918 289.458 101.937 289.511 101.935 289.565C101.934 289.619 101.912 289.671 101.875 289.708C101.838 289.746 101.789 289.766 101.738 289.765V289.765Z" fill="#007D9E"/>
  <path d="M92.9915 274.11C93.0316 274.132 93.0594 274.173 93.069 274.223C93.0786 274.272 93.069 274.328 93.0425 274.376L90.8681 278.343C90.8414 278.391 90.8 278.429 90.7528 278.448C90.7056 278.467 90.6565 278.465 90.6164 278.443L87.4035 276.682C87.3634 276.66 87.3355 276.619 87.3259 276.569C87.3164 276.519 87.3259 276.464 87.3525 276.416L89.5268 272.449C89.5535 272.401 89.595 272.363 89.6421 272.344C89.6893 272.325 89.7384 272.327 89.7785 272.349L92.9915 274.11L92.9915 274.11ZM93.0918 273.927L89.8789 272.166C89.7986 272.122 89.7005 272.118 89.6061 272.156C89.5116 272.193 89.4287 272.269 89.3755 272.366L87.2011 276.333C87.1479 276.43 87.1287 276.54 87.1478 276.64C87.167 276.74 87.2228 276.821 87.3031 276.865L90.516 278.626C90.5963 278.67 90.6945 278.674 90.7889 278.636C90.8833 278.599 90.9662 278.523 91.0194 278.426L93.1938 274.459C93.2471 274.362 93.2662 274.252 93.2471 274.152C93.2279 274.052 93.1721 273.971 93.0918 273.927L93.0918 273.927Z" fill="#007D9E"/>
  <path d="M91.9192 274.878L89.7756 273.703C89.7656 273.698 89.757 273.69 89.7502 273.681C89.7435 273.671 89.7388 273.66 89.7364 273.647C89.734 273.635 89.7339 273.622 89.7362 273.608C89.7384 273.595 89.743 273.582 89.7496 273.57C89.7562 273.558 89.7648 273.547 89.7747 273.538C89.7846 273.529 89.7958 273.522 89.8075 273.517C89.8193 273.513 89.8314 273.511 89.8431 273.511C89.8549 273.512 89.866 273.515 89.8759 273.52L92.0196 274.695C92.0395 274.706 92.0533 274.727 92.058 274.752C92.0627 274.776 92.0579 274.804 92.0446 274.828C92.0314 274.852 92.0107 274.871 91.9873 274.881C91.9638 274.89 91.9393 274.889 91.9192 274.878V274.878Z" fill="#007D9E"/>
  <path d="M91.5633 275.527L89.4197 274.351C89.3996 274.34 89.3856 274.32 89.3809 274.295C89.3761 274.27 89.3809 274.243 89.3942 274.218C89.4075 274.194 89.4282 274.175 89.4518 274.166C89.4754 274.157 89.4999 274.157 89.52 274.168L91.6636 275.344C91.6837 275.355 91.6977 275.375 91.7025 275.4C91.7072 275.425 91.7025 275.452 91.6892 275.477C91.6758 275.501 91.6551 275.52 91.6315 275.529C91.6079 275.538 91.5834 275.538 91.5633 275.527V275.527Z" fill="#007D9E"/>
  <path d="M91.2082 276.173L89.0646 274.998C89.0546 274.993 89.046 274.985 89.0393 274.975C89.0325 274.966 89.0278 274.954 89.0254 274.942C89.023 274.93 89.023 274.916 89.0252 274.903C89.0275 274.89 89.0321 274.877 89.0387 274.865C89.0453 274.853 89.0538 274.842 89.0638 274.833C89.0737 274.824 89.0848 274.817 89.0966 274.812C89.1083 274.808 89.1204 274.806 89.1321 274.806C89.1438 274.807 89.155 274.81 89.1649 274.815L91.3086 275.99C91.3285 276.001 91.3423 276.022 91.347 276.046C91.3517 276.071 91.3469 276.099 91.3336 276.123C91.3203 276.147 91.2997 276.166 91.2762 276.175C91.2527 276.185 91.2283 276.184 91.2082 276.173V276.173Z" fill="#007D9E"/>
  <path d="M90.8528 276.822L88.7092 275.647C88.6992 275.641 88.6906 275.634 88.6838 275.624C88.6771 275.614 88.6724 275.603 88.67 275.591C88.6676 275.578 88.6675 275.565 88.6698 275.552C88.672 275.538 88.6766 275.525 88.6832 275.513C88.6898 275.501 88.6984 275.49 88.7083 275.481C88.7182 275.472 88.7294 275.465 88.7411 275.461C88.7529 275.456 88.765 275.454 88.7767 275.454C88.7884 275.455 88.7996 275.458 88.8095 275.464L90.9532 276.639C90.9731 276.65 90.9869 276.67 90.9916 276.695C90.9963 276.72 90.9915 276.747 90.9782 276.771C90.965 276.796 90.9443 276.815 90.9208 276.824C90.8974 276.833 90.8729 276.833 90.8528 276.822V276.822Z" fill="#007D9E"/>
  <path d="M90.4974 277.47L88.3537 276.295C88.3437 276.29 88.3351 276.282 88.3284 276.272C88.3216 276.263 88.3169 276.251 88.3145 276.239C88.3121 276.227 88.312 276.213 88.3143 276.2C88.3166 276.187 88.3211 276.174 88.3278 276.162C88.3344 276.15 88.3429 276.139 88.3528 276.13C88.3628 276.121 88.3739 276.114 88.3857 276.109C88.3974 276.105 88.4095 276.102 88.4212 276.103C88.433 276.103 88.4441 276.107 88.4541 276.112L90.5977 277.287C90.6176 277.298 90.6314 277.318 90.6361 277.343C90.6408 277.368 90.636 277.396 90.6227 277.42C90.6095 277.444 90.5889 277.463 90.5654 277.472C90.5419 277.482 90.5174 277.481 90.4974 277.47V277.47Z" fill="#007D9E"/>
  <path d="M86.8894 266.538C86.917 266.543 86.9414 266.559 86.9573 266.583C86.9732 266.606 86.9792 266.636 86.9742 266.664L86.5583 268.999C86.5531 269.027 86.5373 269.053 86.5142 269.069C86.4911 269.086 86.4627 269.093 86.4351 269.088L84.2276 268.694C84.2001 268.689 84.1757 268.673 84.1598 268.65C84.1439 268.626 84.1378 268.597 84.1429 268.568L84.5588 266.234C84.5639 266.205 84.5797 266.18 84.6028 266.163C84.6259 266.147 84.6544 266.14 84.682 266.145L86.8894 266.538L86.8894 266.538ZM86.9086 266.43L84.7011 266.037C84.646 266.027 84.589 266.041 84.5428 266.074C84.4966 266.107 84.465 266.158 84.4548 266.215L84.0389 268.55C84.0287 268.607 84.0408 268.665 84.0726 268.713C84.1044 268.76 84.1533 268.792 84.2085 268.802L86.4159 269.195C86.4711 269.205 86.528 269.192 86.5742 269.159C86.6204 269.125 86.6521 269.074 86.6623 269.017L87.0782 266.683C87.0884 266.626 87.0762 266.567 87.0444 266.52C87.0126 266.472 86.9637 266.44 86.9086 266.43L86.9086 266.43Z" fill="#007D9E"/>
  <path d="M86.4366 267.09L84.9638 266.828C84.9569 266.827 84.9504 266.824 84.9445 266.82C84.9386 266.817 84.9336 266.812 84.9296 266.806C84.9256 266.8 84.9228 266.793 84.9214 266.786C84.9199 266.779 84.9198 266.772 84.9211 266.765C84.9223 266.758 84.9249 266.751 84.9287 266.745C84.9325 266.739 84.9375 266.733 84.9432 266.729C84.949 266.725 84.9554 266.722 84.9623 266.721C84.9691 266.719 84.9761 266.719 84.983 266.72L86.4558 266.983C86.4695 266.985 86.4816 266.993 86.4895 267.005C86.4974 267.017 86.5004 267.032 86.4978 267.046C86.4953 267.06 86.4874 267.073 86.476 267.081C86.4645 267.089 86.4503 267.093 86.4366 267.09V267.09Z" fill="#007D9E"/>
  <path d="M86.3679 267.471L84.8951 267.209C84.8813 267.206 84.8691 267.198 84.8612 267.186C84.8532 267.175 84.8502 267.16 84.8527 267.146C84.8553 267.131 84.8632 267.119 84.8747 267.11C84.8863 267.102 84.9005 267.099 84.9143 267.101L86.3871 267.363C86.4009 267.366 86.4131 267.374 86.421 267.386C86.429 267.398 86.432 267.412 86.4295 267.427C86.4269 267.441 86.419 267.454 86.4075 267.462C86.3959 267.47 86.3817 267.474 86.3679 267.471V267.471Z" fill="#007D9E"/>
  <path d="M86.2998 267.852L84.827 267.59C84.8202 267.588 84.8136 267.586 84.8077 267.582C84.8019 267.578 84.7968 267.573 84.7929 267.567C84.7889 267.562 84.7861 267.555 84.7846 267.548C84.7832 267.541 84.7831 267.534 84.7843 267.527C84.7856 267.519 84.7882 267.513 84.792 267.507C84.7958 267.5 84.8007 267.495 84.8065 267.491C84.8122 267.487 84.8187 267.484 84.8255 267.482C84.8323 267.481 84.8394 267.481 84.8462 267.482L86.319 267.744C86.3327 267.747 86.3448 267.755 86.3527 267.767C86.3606 267.779 86.3636 267.793 86.3611 267.807C86.3585 267.822 86.3507 267.834 86.3392 267.843C86.3277 267.851 86.3135 267.854 86.2998 267.852V267.852Z" fill="#007D9E"/>
  <path d="M86.2325 268.235L84.7597 267.973C84.7528 267.971 84.7463 267.969 84.7404 267.965C84.7345 267.961 84.7295 267.956 84.7255 267.95C84.7215 267.944 84.7187 267.938 84.7173 267.931C84.7158 267.924 84.7157 267.916 84.717 267.909C84.7182 267.902 84.7208 267.895 84.7246 267.889C84.7284 267.883 84.7334 267.878 84.7391 267.874C84.7449 267.87 84.7513 267.867 84.7582 267.865C84.765 267.864 84.772 267.864 84.7789 267.865L86.2517 268.127C86.2654 268.13 86.2775 268.138 86.2854 268.15C86.2933 268.161 86.2963 268.176 86.2937 268.19C86.2912 268.205 86.2833 268.217 86.2719 268.226C86.2604 268.234 86.2462 268.237 86.2325 268.235V268.235Z" fill="#007D9E"/>
  <path d="M86.1641 268.616L84.6913 268.353C84.6845 268.352 84.6779 268.35 84.672 268.346C84.6662 268.342 84.6611 268.337 84.6571 268.331C84.6532 268.325 84.6504 268.319 84.6489 268.312C84.6474 268.305 84.6473 268.297 84.6486 268.29C84.6499 268.283 84.6525 268.276 84.6563 268.27C84.6601 268.264 84.665 268.259 84.6708 268.255C84.6765 268.251 84.683 268.248 84.6898 268.246C84.6966 268.245 84.7037 268.244 84.7105 268.246L86.1833 268.508C86.197 268.511 86.2091 268.519 86.217 268.53C86.2249 268.542 86.2279 268.557 86.2254 268.571C86.2228 268.585 86.215 268.598 86.2035 268.606C86.192 268.615 86.1779 268.618 86.1641 268.616V268.616Z" fill="#007D9E"/>
</svg>
