<svg width="28" height="28" viewBox="0 0 28 28" fill="none"
  xmlns="http://www.w3.org/2000/svg">
  <g clip-path="url(#clip0)">
    <path d="M14 21C10.1395 21 7 17.8605 7 14C7 10.1395 10.1395 7 14 7C17.8605 7 21 10.1395 21 14C21 17.8605 17.8605 21 14 21ZM14 8.16667C10.7835 8.16667 8.16667 10.7835 8.16667 14C8.16667 17.2165 10.7835 19.8333 14 19.8333C17.2165 19.8333 19.8333 17.2165 19.8333 14C19.8333 10.7835 17.2165 8.16667 14 8.16667Z" fill="#FF602F"/>
    <path d="M16.3337 16.9167C16.2123 16.9167 16.0887 16.8782 15.9837 16.8L13.6503 15.05C13.5033 14.9403 13.417 14.7665 13.417 14.5833V11.0833C13.417 10.7613 13.6783 10.5 14.0003 10.5C14.3223 10.5 14.5837 10.7613 14.5837 11.0833V14.2917L16.6837 15.8667C16.9415 16.0603 16.994 16.4255 16.8015 16.6833C16.686 16.8362 16.5098 16.9167 16.3337 16.9167V16.9167Z" fill="#FF602F"/>
    <path d="M0.898333 17.5C0.631167 17.5 0.389667 17.3157 0.329 17.0438C0.110833 16.0743 0 15.0488 0 14C0 6.28017 6.28017 0 14 0C18.3797 0 22.4233 1.99617 25.0915 5.47867C25.2875 5.73417 25.2397 6.1005 24.983 6.2965C24.7298 6.49133 24.3612 6.44467 24.1663 6.188C21.7187 2.99717 18.0133 1.16667 14 1.16667C6.92417 1.16667 1.16667 6.92417 1.16667 14C1.16667 14.9637 1.26817 15.9017 1.46767 16.7895C1.53883 17.1033 1.3405 17.416 1.0255 17.486C0.982333 17.4953 0.940333 17.5 0.898333 17.5V17.5Z" fill="#FF602F"/>
    <path d="M14.0001 27.9997C9.62046 27.9997 5.57679 26.0035 2.90863 22.521C2.71263 22.2655 2.76046 21.8992 3.01713 21.7032C3.26796 21.5083 3.63896 21.555 3.83379 21.8117C6.28146 25.0025 9.98679 26.833 14.0001 26.833C21.076 26.833 26.8335 21.0755 26.8335 13.9997C26.8335 13.0208 26.7285 12.0852 26.522 11.2183C26.4473 10.9045 26.641 10.5907 26.9536 10.516C27.2698 10.4413 27.5813 10.635 27.6571 10.9488C27.8846 11.9032 28.0001 12.9298 28.0001 13.9997C28.0001 21.7195 21.72 27.9997 14.0001 27.9997V27.9997Z" fill="#FF602F"/>
    <path d="M2.97469 28C2.65502 28 2.39486 27.7422 2.39136 27.4225L2.33302 21.5892C2.33186 21.434 2.39252 21.2835 2.50219 21.1738C2.61069 21.0618 2.76002 21 2.91636 21H8.74969C9.07169 21 9.33303 21.2613 9.33303 21.5833C9.33303 21.9053 9.07169 22.1667 8.74969 22.1667H3.50552L3.55802 27.4108C3.56152 27.7328 3.30252 27.9965 2.98052 28C2.97819 28 2.97702 28 2.97469 28V28Z" fill="#FF602F"/>
    <path d="M25.0837 7H19.2503C18.9283 7 18.667 6.73867 18.667 6.41667C18.667 6.09467 18.9283 5.83333 19.2503 5.83333H24.5003V0.583333C24.5003 0.261333 24.7617 0 25.0837 0C25.4057 0 25.667 0.261333 25.667 0.583333V6.41667C25.667 6.73867 25.4057 7 25.0837 7Z" fill="#FF602F"/>
  </g>
  <defs>
    <clipPath id="clip0">
      <rect width="28" height="28" fill="white"/>
    </clipPath>
  </defs>
</svg>
