<svg width="32" height="32" viewBox="0 0 32 32" fill="none"
  xmlns="http://www.w3.org/2000/svg">
  <circle cx="16" cy="16" r="16" fill="#EDDAFF"/>
  <path d="M23.554 21.6251H9.73256V9.08943C9.73256 9.00103 9.66024 8.92871 9.57185 8.92871H8.44685C8.35845 8.92871 8.28613 9.00103 8.28613 9.08943V22.9109C8.28613 22.9992 8.35845 23.0716 8.44685 23.0716H23.554C23.6424 23.0716 23.7147 22.9992 23.7147 22.9109V21.7859C23.7147 21.6975 23.6424 21.6251 23.554 21.6251ZM11.179 20.3394H21.9468C22.0352 20.3394 22.1076 20.2671 22.1076 20.1787V11.4198C22.1076 11.2751 21.9328 11.2048 21.8323 11.3053L17.6076 15.5301L15.0884 13.039C15.0582 13.0091 15.0174 12.9923 14.9749 12.9923C14.9324 12.9923 14.8916 13.0091 14.8614 13.039L11.0645 16.8479C11.0497 16.8627 11.0381 16.8802 11.0301 16.8995C11.0222 16.9188 11.0182 16.9395 11.0183 16.9604V20.1787C11.0183 20.2671 11.0906 20.3394 11.179 20.3394Z" fill="#BB6BD9"/>
</svg>
