<svg width="14" height="14" viewBox="0 0 14 14" fill="none"
  xmlns="http://www.w3.org/2000/svg">
  <g clip-path="url(#clip0_2110:11159)">
    <path d="M7.94141 5.57812C7.58047 5.57812 7.30078 5.85781 7.30078 6.20312C7.30078 6.54844 7.58047 6.82812 7.94141 6.82812C8.27109 6.82812 8.55078 6.54844 8.55078 6.20312C8.55078 5.85781 8.27109 5.57812 7.94141 5.57812ZM3.56641 5.57812C3.20547 5.57812 2.92578 5.85781 2.92578 6.20312C2.92578 6.54844 3.20547 6.82812 3.56641 6.82812C3.89609 6.82812 4.17578 6.54844 4.17578 6.20312C4.17578 5.85781 3.89609 5.57812 3.56641 5.57812Z" fill="currentColor"/>
    <path d="M12.9685 4.38937C12.2456 3.39428 11.2032 2.67729 10.0154 2.35812V2.35968C9.74823 2.06281 9.44667 1.78937 9.10917 1.54562C6.55135 -0.313754 2.96073 0.253433 1.09354 2.81125C-0.411146 4.88937 -0.347083 7.68468 1.18729 9.67062L1.19979 11.7425C1.19979 11.7925 1.2076 11.8425 1.22323 11.8894C1.24288 11.952 1.27469 12.0101 1.31683 12.0604C1.35896 12.1107 1.41061 12.1522 1.4688 12.1826C1.527 12.2129 1.5906 12.2315 1.65597 12.2372C1.72135 12.2429 1.78721 12.2357 1.84979 12.2159L3.82792 11.5925C4.35135 11.7784 4.89198 11.8847 5.42948 11.9144L5.42167 11.9206C6.81385 12.9347 8.63885 13.2394 10.3123 12.6862L12.2982 13.3331C12.3482 13.3487 12.3998 13.3581 12.4529 13.3581C12.7295 13.3581 12.9529 13.1347 12.9529 12.8581V10.7644C14.3295 8.89562 14.3654 6.31281 12.9685 4.38937ZM4.04667 10.4831L3.85917 10.405L2.31229 10.8894L2.29667 9.26437L2.17167 9.12375C0.849792 7.51125 0.762292 5.18781 1.99979 3.48312C3.50604 1.4175 6.39354 0.961246 8.45292 2.45187C10.5185 3.95343 10.9764 6.83625 9.48417 8.88937C8.2326 10.6066 5.99198 11.2409 4.04667 10.4831ZM11.9373 10.2175L11.8123 10.3737L11.8279 11.9987L10.2967 11.4831L10.1092 11.5612C9.23417 11.8862 8.30136 11.9128 7.43729 11.6706L7.43417 11.6691C8.62172 11.3049 9.65906 10.5652 10.3904 9.56125C11.5842 7.91593 11.7779 5.84875 11.0842 4.08625L11.0935 4.0925C11.4529 4.35031 11.7826 4.67218 12.0623 5.06125C13.1967 6.6175 13.1326 8.73625 11.9373 10.2175Z" fill="currentColor"/>
    <path d="M5.75391 5.57812C5.39297 5.57812 5.11328 5.85781 5.11328 6.20312C5.11328 6.54844 5.39297 6.82812 5.75391 6.82812C6.08359 6.82812 6.36328 6.54844 6.36328 6.20312C6.36328 5.85781 6.08359 5.57812 5.75391 5.57812Z" fill="currentColor"/>
  </g>
  <defs>
    <clipPath id="clip0_2110:11159">
      <rect width="14" height="14" fill="white"/>
    </clipPath>
  </defs>
</svg>
