<svg width="74" height="32" viewBox="0 0 74 32" fill="none"
  xmlns="http://www.w3.org/2000/svg">
  <path d="M71.0157 24.3984V15.5823C72.6634 15.2098 73.9278 13.1524 73.9278 10.6772V4.9656C73.9278 2.22765 72.3805 0 70.4786 0L61.569 0C60.9709 0 60.4861 0.697999 60.4861 1.55896C60.4861 2.41992 60.9709 3.11792 61.569 3.11792L70.4786 3.11792C71.1863 3.11792 71.7619 3.94667 71.7619 4.9656V10.6774C71.7619 11.6962 71.1863 12.5251 70.4786 12.5251C67.8211 12.5251 47.6494 12.5251 45.1284 12.5251C40.0588 12.5251 37.5731 17.4922 37.1775 17.8985C34.0198 22.4443 29.8215 24.9477 25.3558 24.9477L3.89363 24.9477C2.94094 24.9477 2.16585 23.8319 2.16585 22.4605L2.16585 18.0278C2.16585 16.6564 2.94094 15.5406 3.89363 15.5406L25.3556 15.5406C30.4248 15.5406 32.911 10.5735 33.3066 10.1671C36.4643 5.6214 40.6626 3.11792 45.1283 3.11792L57.2373 3.11792C57.8354 3.11792 58.3202 2.41992 58.3202 1.55896C58.3202 0.697999 57.8354 0 57.2373 0L45.1283 0C36.1282 0 31.407 8.66096 31.0254 9.04176C29.5109 11.2218 27.4974 12.4224 25.3558 12.4224L3.89363 12.4224C1.74669 12.4226 0 14.9371 0 18.0278L0 22.4603C0 25.551 1.74669 28.0655 3.89363 28.0655L25.3556 28.0655C30.3999 28.0655 35.1421 25.2377 38.7089 20.1031C39.2028 19.4878 40.1656 17.5639 42.2457 16.4117V24.3984C42.2457 26.8505 42.9916 29.1655 44.292 30.7496C45.6607 32.4168 47.6476 32.4168 49.0164 30.7496C49.5745 30.0697 50.3847 30.0697 50.9429 30.7496C51.6273 31.5831 52.4662 32.0001 53.3051 32.0001C54.1442 32.0001 54.9831 31.5833 55.6675 30.7496C56.2256 30.0697 57.0357 30.0697 57.5939 30.7496C58.9626 32.4168 60.9496 32.4168 62.3184 30.7496C62.8765 30.0697 63.6868 30.0697 64.245 30.7496C65.6137 32.4168 67.6006 32.4168 68.9694 30.7496C70.2698 29.1655 71.0157 26.8505 71.0157 24.3984V24.3984ZM68.8499 24.3984C68.8499 25.9315 68.3836 27.3789 67.5706 28.3693C67.0124 29.0493 66.2021 29.0491 65.6441 28.3693C64.2755 26.7021 62.2884 26.7021 60.9195 28.3693C60.3613 29.0493 59.551 29.0491 58.9931 28.3693C57.6243 26.7019 55.6373 26.7021 54.2686 28.3693C53.7106 29.0493 52.9003 29.0491 52.342 28.3693C50.9735 26.7023 48.9867 26.7015 47.6176 28.3693C47.0595 29.0493 46.2492 29.0491 45.691 28.3693C44.8779 27.3789 44.4117 25.9315 44.4117 24.3984V15.6902C45.1362 15.5988 45.5804 15.6676 47.1135 15.6428V22.1391C47.1135 23.0001 47.5984 23.6981 48.1965 23.6981C48.7945 23.6981 49.2794 23.0001 49.2794 22.1391V15.6428H52.7364V22.1391C52.7364 23.0001 53.2212 23.6981 53.8193 23.6981C54.4174 23.6981 54.9022 23.0001 54.9022 22.1391V15.6428H58.3594V22.1391C58.3594 23.0001 58.8442 23.6981 59.4423 23.6981C60.0404 23.6981 60.5252 23.0001 60.5252 22.1391V15.6428L63.9822 15.6428V22.1391C63.9822 23.0001 64.4671 23.6981 65.0651 23.6981C65.6632 23.6981 66.1481 23.0001 66.1481 22.1391V15.6428H68.8499V24.3984Z" fill="white"/>
</svg>
