<svg width="28" height="28" viewBox="0 0 28 28" fill="none"
  xmlns="http://www.w3.org/2000/svg">
  <path d="M13.298 8.59838H13.3375C14.6039 8.5047 15.8609 8.31147 17.0969 8.02048C17.3412 7.95676 17.4882 7.70763 17.4258 7.46293C17.3635 7.21823 17.1151 7.06987 16.8701 7.1309C15.6829 7.40902 14.4756 7.5932 13.2595 7.68172C13.006 7.69237 12.8091 7.90651 12.8197 8.16002C12.8304 8.41352 13.0445 8.6104 13.298 8.59975V8.59838Z" fill="#FF602F"/>
  <path d="M2.29495 5.73639C2.54846 5.73639 2.75397 5.53088 2.75397 5.27738C2.75397 5.02387 2.54846 4.81836 2.29495 4.81836C2.04145 4.81836 1.83594 5.02387 1.83594 5.27738C1.83594 5.53088 2.04145 5.73639 2.29495 5.73639Z" fill="#FF602F"/>
  <path d="M2.29495 6.6543C2.04145 6.6543 1.83594 6.85981 1.83594 7.11331V8.03135C1.83594 8.28485 2.04145 8.49036 2.29495 8.49036C2.54846 8.49036 2.75397 8.28485 2.75397 8.03135V7.11331C2.75397 6.85981 2.54846 6.6543 2.29495 6.6543Z" fill="#FF602F"/>
  <path d="M2.29495 11.7032C2.54846 11.7032 2.75397 11.4977 2.75397 11.2442C2.75397 10.9907 2.54846 10.7852 2.29495 10.7852C2.04145 10.7852 1.83594 10.9907 1.83594 11.2442C1.83594 11.4977 2.04145 11.7032 2.29495 11.7032Z" fill="#FF602F"/>
  <path d="M2.29495 12.6211C2.04145 12.6211 1.83594 12.8266 1.83594 13.0801V13.9981C1.83594 14.2516 2.04145 14.4572 2.29495 14.4572C2.54846 14.4572 2.75397 14.2516 2.75397 13.9981V13.0801C2.75397 12.8266 2.54846 12.6211 2.29495 12.6211Z" fill="#FF602F"/>
  <path d="M2.29495 17.6719C2.54846 17.6719 2.75397 17.4664 2.75397 17.2129C2.75397 16.9594 2.54846 16.7539 2.29495 16.7539C2.04145 16.7539 1.83594 16.9594 1.83594 17.2129C1.83594 17.4664 2.04145 17.6719 2.29495 17.6719Z" fill="#FF602F"/>
  <path d="M2.29495 18.5879C2.04145 18.5879 1.83594 18.7934 1.83594 19.0469V19.9649C1.83594 20.2184 2.04145 20.424 2.29495 20.424C2.54846 20.424 2.75397 20.2184 2.75397 19.9649V19.0469C2.75397 18.7934 2.54846 18.5879 2.29495 18.5879Z" fill="#FF602F"/>
  <path d="M23.8308 17.4481C23.4204 15.089 21.6196 13.2149 19.2787 12.711V2.5236C19.2787 0.25468 10.0327 0.228516 9.63934 0.228516C9.24597 0.228516 0 0.25468 0 2.5236V20.8843C0 21.8229 1.55239 22.4936 4.60944 22.881C4.59705 23.0223 4.59016 23.1656 4.59016 23.3102C4.59016 25.7691 6.44826 27.7695 8.73187 27.7695H22.7153C25.3905 27.7695 27.5671 25.4235 27.5671 22.5367C27.6311 20.1859 26.0929 18.0909 23.8308 17.4481V17.4481ZM18.335 12.622C16.4963 12.6367 14.7885 13.5755 13.7907 15.1199C12.6143 14.8696 11.3869 15.1264 10.4096 15.8273C10.1571 15.8309 9.90098 15.8351 9.63934 15.8351C4.23213 15.8351 1.14754 14.9473 0.918033 14.4438V9.57501C3.26315 10.768 9.32216 10.7859 9.63934 10.7859C9.95652 10.7859 16.0155 10.768 18.3607 9.57501V12.622C18.3519 12.622 18.3437 12.622 18.335 12.622V12.622ZM18.3607 8.47337C18.1431 8.97599 15.058 9.86786 9.63934 9.86786C4.20597 9.86786 1.1177 8.97094 0.918033 8.49081V3.60779C3.26315 4.80078 9.32216 4.81868 9.63934 4.81868C9.95652 4.81868 16.0155 4.80078 18.3607 3.60779V8.47337ZM9.63934 1.14655C14.9938 1.14655 18.0715 2.01868 18.3533 2.5236C18.0715 3.02852 14.9938 3.90065 9.63934 3.90065C4.22295 3.90065 1.13561 3.00878 0.918033 2.54976V2.54104C1.13561 2.03842 4.22295 1.14655 9.63934 1.14655V1.14655ZM0.918033 20.8696V15.5422C3.05705 16.6305 8.28295 16.7412 9.42544 16.7531C8.93 17.3688 8.58557 18.0919 8.41974 18.8646C6.67921 19.0487 5.23238 20.2869 4.78157 21.9781C1.90125 21.6155 1.00984 21.0559 0.918033 20.8696ZM22.7153 26.8515H8.73187C6.9541 26.8515 5.5082 25.2628 5.5082 23.3102C5.5082 21.3575 6.9541 19.7688 8.73187 19.7688H8.79797H8.80669C9.0358 19.7687 9.22973 19.5997 9.26111 19.3727C9.53148 17.4178 11.0972 15.9434 12.8997 15.9434C13.2287 15.9434 13.5559 15.9915 13.871 16.0862C14.0732 16.1468 14.2906 16.0617 14.398 15.8801C15.1991 14.4537 16.6992 13.5621 18.335 13.54C20.63 13.54 22.6258 15.4123 22.9747 17.8947C23.0021 18.0913 23.1529 18.248 23.3483 18.283C25.261 18.6236 26.6491 20.4138 26.6491 22.539C26.6491 24.9172 24.8847 26.8515 22.7153 26.8515V26.8515Z" fill="#FF602F"/>
</svg>
