<svg width="500" height="500" viewBox="0 0 500 500" fill="none"
  xmlns="http://www.w3.org/2000/svg">
  <rect width="500" height="500" rx="8" fill="#408389"/>
  <circle cx="99.5" cy="133.5" r="75.5" stroke="white" stroke-width="14"/>
  <circle cx="111.5" cy="345.5" r="75.5" stroke="white" stroke-width="14"/>
  <circle cx="278" cy="184" r="60" stroke="white" stroke-width="10"/>
  <circle cx="417" cy="253" r="60" stroke="white" stroke-width="10"/>
  <circle cx="347" cy="383" r="60" stroke="white" stroke-width="10"/>
  <line x1="99.9945" y1="209.79" x2="102.994" y2="266.79" stroke="white" stroke-width="8"/>
  <line x1="275" y1="241" x2="275" y2="292" stroke="white" stroke-width="8"/>
  <line x1="279.35" y1="290.815" x2="309.35" y2="336.815" stroke="white" stroke-width="8"/>
  <line x1="362.133" y1="263.836" x2="186.133" y2="315.836" stroke="white" stroke-width="8"/>
  <rect x="246" y="152" width="63" height="63" rx="3" fill="white" stroke="#4F4F4F" stroke-width="2"/>
  <path d="M285.642 173.119L285.642 173.12C285.746 175.861 284.893 178.549 283.274 180.605C282.14 181.999 281.349 183.7 280.978 185.534L280.978 185.535C280.744 186.717 280.658 187.927 280.723 189.13L280.723 189.13L280.723 189.134C281.009 193.463 280.375 197.256 279.308 200.027C278.774 201.412 278.134 202.535 277.453 203.34C276.77 204.148 276.063 204.618 275.396 204.741L275.438 204.987L275.396 204.741C275.258 204.767 275.166 204.736 275.086 204.666C274.992 204.583 274.899 204.432 274.813 204.188C274.642 203.698 274.538 202.957 274.427 202.028C274.411 201.894 274.395 201.756 274.379 201.616C274.17 199.831 273.901 197.539 273.048 195.402L273.048 195.402C272.903 195.039 272.768 194.65 272.631 194.256C272.607 194.187 272.583 194.119 272.559 194.05C272.398 193.589 272.232 193.127 272.048 192.717C271.864 192.309 271.655 191.935 271.401 191.661C271.143 191.382 270.823 191.191 270.428 191.191C270.033 191.191 269.708 191.383 269.444 191.662C269.182 191.937 268.964 192.312 268.771 192.721C268.576 193.132 268.399 193.595 268.226 194.057C268.201 194.124 268.176 194.191 268.151 194.259C268.003 194.655 267.858 195.046 267.703 195.41C266.797 197.544 266.468 199.832 266.211 201.613C266.191 201.756 266.171 201.895 266.151 202.031C266.015 202.959 265.892 203.699 265.707 204.188C265.615 204.433 265.517 204.583 265.422 204.666C265.339 204.736 265.246 204.767 265.109 204.741C264.445 204.618 263.75 204.148 263.087 203.34C262.427 202.535 261.816 201.412 261.317 200.027C260.32 197.256 259.783 193.463 260.18 189.134L260.18 189.13C260.274 187.927 260.219 186.717 260.016 185.535L260.016 185.534C259.692 183.7 258.944 181.999 257.845 180.605C256.36 178.649 255.576 176.12 255.652 173.512C255.729 170.903 256.66 168.411 258.259 166.52C259.857 164.631 262.004 163.48 264.278 163.282C266.552 163.084 268.802 163.851 270.589 165.443L270.752 165.588L270.919 165.443C272.26 164.274 273.848 163.542 275.511 163.321C277.174 163.1 278.854 163.397 280.369 164.183C281.884 164.969 283.179 166.215 284.11 167.791C285.041 169.366 285.572 171.209 285.642 173.119Z" fill="#E0E0E0" stroke="black" stroke-width="0.5"/>
  <line x1="290" y1="184" x2="302" y2="184" stroke="#4F4F4F" stroke-width="2"/>
  <line x1="290" y1="193" x2="302" y2="193" stroke="#4F4F4F" stroke-width="2"/>
  <line x1="290" y1="201" x2="302" y2="201" stroke="#4F4F4F" stroke-width="2"/>
  <rect x="385" y="222" width="63" height="63" rx="3" fill="white" stroke="#4F4F4F" stroke-width="2"/>
  <path d="M424.642 243.119L424.642 243.12C424.746 245.861 423.893 248.549 422.274 250.605C421.14 251.999 420.349 253.7 419.978 255.534L419.978 255.535C419.744 256.717 419.658 257.927 419.723 259.13L419.723 259.13L419.723 259.134C420.009 263.463 419.375 267.256 418.308 270.027C417.774 271.412 417.134 272.535 416.453 273.34C415.77 274.148 415.063 274.618 414.396 274.741L414.438 274.987L414.396 274.741C414.258 274.767 414.166 274.736 414.086 274.666C413.992 274.583 413.899 274.432 413.813 274.188C413.642 273.698 413.538 272.957 413.427 272.028C413.411 271.894 413.395 271.756 413.379 271.616C413.17 269.831 412.901 267.539 412.048 265.402L412.048 265.402C411.903 265.039 411.768 264.65 411.631 264.256C411.607 264.187 411.583 264.119 411.559 264.05C411.398 263.589 411.232 263.127 411.048 262.717C410.864 262.309 410.655 261.935 410.401 261.661C410.143 261.382 409.823 261.191 409.428 261.191C409.033 261.191 408.708 261.383 408.444 261.662C408.182 261.937 407.964 262.312 407.771 262.721C407.576 263.132 407.399 263.595 407.226 264.057C407.201 264.124 407.176 264.191 407.151 264.259C407.003 264.655 406.858 265.046 406.703 265.41C405.797 267.544 405.468 269.832 405.211 271.613C405.191 271.756 405.171 271.895 405.151 272.031C405.015 272.959 404.892 273.699 404.707 274.188C404.615 274.433 404.517 274.583 404.422 274.666C404.339 274.736 404.246 274.767 404.109 274.741C403.445 274.618 402.75 274.148 402.087 273.34C401.427 272.535 400.816 271.412 400.317 270.027C399.32 267.256 398.783 263.463 399.18 259.134L399.18 259.13C399.274 257.927 399.219 256.717 399.016 255.535L399.016 255.534C398.692 253.7 397.944 251.999 396.845 250.605C395.36 248.649 394.576 246.12 394.652 243.512C394.729 240.903 395.66 238.411 397.259 236.52C398.857 234.631 401.004 233.48 403.278 233.282C405.552 233.084 407.802 233.851 409.589 235.443L409.752 235.588L409.919 235.443C411.26 234.274 412.848 233.542 414.511 233.321C416.174 233.1 417.854 233.397 419.369 234.183C420.884 234.969 422.179 236.215 423.11 237.791C424.041 239.366 424.572 241.209 424.642 243.119Z" fill="#E0E0E0" stroke="black" stroke-width="0.5"/>
  <line x1="429" y1="254" x2="441" y2="254" stroke="#4F4F4F" stroke-width="2"/>
  <line x1="429" y1="263" x2="441" y2="263" stroke="#4F4F4F" stroke-width="2"/>
  <line x1="429" y1="271" x2="441" y2="271" stroke="#4F4F4F" stroke-width="2"/>
  <rect x="315" y="351" width="63" height="63" rx="3" fill="white" stroke="#4F4F4F" stroke-width="2"/>
  <path d="M354.642 372.119L354.642 372.12C354.746 374.861 353.893 377.549 352.274 379.605C351.14 380.999 350.349 382.7 349.978 384.534L349.978 384.535C349.744 385.717 349.658 386.927 349.723 388.13L349.723 388.13L349.723 388.134C350.009 392.463 349.375 396.256 348.308 399.027C347.774 400.412 347.134 401.535 346.453 402.34C345.77 403.148 345.063 403.618 344.396 403.741L344.438 403.987L344.396 403.741C344.258 403.767 344.166 403.736 344.086 403.666C343.992 403.583 343.899 403.432 343.813 403.188C343.642 402.698 343.538 401.957 343.427 401.028C343.411 400.894 343.395 400.756 343.379 400.616C343.17 398.831 342.901 396.539 342.048 394.402L342.048 394.402C341.903 394.039 341.768 393.65 341.631 393.256C341.607 393.187 341.583 393.119 341.559 393.05C341.398 392.589 341.232 392.127 341.048 391.717C340.864 391.309 340.655 390.935 340.401 390.661C340.143 390.382 339.823 390.191 339.428 390.191C339.033 390.191 338.708 390.383 338.444 390.662C338.182 390.937 337.964 391.312 337.771 391.721C337.576 392.132 337.399 392.595 337.226 393.057C337.201 393.124 337.176 393.191 337.151 393.259C337.003 393.655 336.858 394.046 336.703 394.41C335.797 396.544 335.468 398.832 335.211 400.613C335.191 400.756 335.171 400.895 335.151 401.031C335.015 401.959 334.892 402.699 334.707 403.188C334.615 403.433 334.517 403.583 334.422 403.666C334.339 403.736 334.246 403.767 334.109 403.741C333.445 403.618 332.75 403.148 332.087 402.34C331.427 401.535 330.816 400.412 330.317 399.027C329.32 396.256 328.783 392.463 329.18 388.134L329.18 388.13C329.274 386.927 329.219 385.717 329.016 384.535L329.016 384.534C328.692 382.7 327.944 380.999 326.845 379.605C325.36 377.649 324.576 375.12 324.652 372.512C324.729 369.903 325.66 367.411 327.259 365.52C328.857 363.631 331.004 362.48 333.278 362.282C335.552 362.084 337.802 362.851 339.589 364.443L339.752 364.588L339.919 364.443C341.26 363.274 342.848 362.542 344.511 362.321C346.174 362.1 347.854 362.397 349.369 363.183C350.884 363.969 352.179 365.215 353.11 366.791C354.041 368.366 354.572 370.209 354.642 372.119Z" fill="#E0E0E0" stroke="black" stroke-width="0.5"/>
  <line x1="359" y1="383" x2="371" y2="383" stroke="#4F4F4F" stroke-width="2"/>
  <line x1="359" y1="392" x2="371" y2="392" stroke="#4F4F4F" stroke-width="2"/>
  <line x1="359" y1="400" x2="371" y2="400" stroke="#4F4F4F" stroke-width="2"/>
  <rect x="53" y="90" width="94" height="87" rx="3" fill="white" stroke="#4F4F4F" stroke-width="2"/>
  <path d="M71.5974 147.81C87.4979 161.438 98.5974 153.31 100.597 149.81C97.3976 140.21 100.597 141.81 102.597 143.81C107.797 139.011 110.097 143.477 110.597 146.31L113.097 149.81C117.097 149.81 119.097 147.477 119.597 146.31V140.31C127.597 136.31 129.597 128.31 129.597 124.81C130.397 113.21 127.097 108.909 123.097 105.31C113.097 96.3105 102.874 90.8476 85.5974 93.81C68.0967 96.8109 50.5968 129.81 71.5974 147.81Z" fill="#F2F2F2" stroke="black"/>
  <path d="M102.597 143.811C97.3968 139.011 99.0968 145.811 100.597 149.811C101.797 166.212 107.43 170.644 110.097 170.811C114.097 169.811 118.097 170.311 125.597 173.311C131.597 175.711 134.43 173.311 135.097 171.811V163.811H136.597V155.811H135.097V148.811C132.697 146.411 133.097 143.144 133.597 141.811L137.097 137.311L129.597 125.811C128.597 133.811 123.597 138.311 119.597 140.311V146.311C117.997 149.111 114.597 149.811 113.097 149.811L110.597 146.311C107.797 151.111 104.097 146.644 102.597 143.811Z" fill="#F2F2F2" stroke="black"/>
  <path d="M117.597 163.811C113.997 163.011 113.097 160.144 113.097 158.811V156.311H136.597V163.811H117.597Z" fill="#F2F2F2"/>
  <path d="M113.097 149.811V156.311M113.097 156.311V158.811C113.097 160.144 113.997 163.011 117.597 163.811H136.597V156.311H113.097Z" stroke="black"/>
  <path d="M117.597 156.311V163.811" stroke="black"/>
  <path d="M117.597 159.811H136.597" stroke="black"/>
  <path d="M129.278 126.679C129.753 120.501 123.104 118.604 122.154 126.678C121.427 132.853 127.853 138.553 129.278 126.679Z" fill="#F2F2F2" stroke="black"/>
  <path d="M89.0967 133.811C94.93 136.811 108.697 140.811 117.097 132.811V123.811C118.763 122.144 121.097 117.911 117.097 114.311" stroke="black"/>
  <path d="M102.597 143.811C104.097 146.478 107.989 151.526 110.597 146.311C111.597 144.311 107.597 138.811 102.597 143.811Z" fill="#F2F2F2" stroke="black"/>
  <rect x="65" y="310" width="94" height="72" rx="3" fill="white" stroke="#4F4F4F" stroke-width="2"/>
  <path d="M157.16 310H67C69.2881 317.719 73.9448 324.388 76.4872 326.758H89.8343C89.8343 333.258 90.7877 337.93 91.2644 339.453C109.569 354.078 125.903 345.547 131.783 339.453C132.927 335.391 133.53 329.297 133.689 326.758H146.083C153.329 320.664 156.206 313.047 157.16 310Z" fill="#F2F2F2" stroke="black"/>
  <path d="M103.658 314.062C103.181 325.742 118.435 329.297 119.865 314.062" stroke="black"/>
  <path d="M89.834 326.758C89.834 329.128 90.12 334.984 91.264 339.453C97.7787 345.378 115.003 353.672 131.782 339.453C132.259 337.253 133.308 331.633 133.689 326.758H139.409H146.083V349.102C142.905 356.719 132.736 372.562 117.482 375C115.734 373.984 110.999 372.562 106.041 375C99.3676 373.815 84.1138 366.977 76.4868 349.102V326.758H84.1138H89.834Z" fill="#F2F2F2"/>
  <path d="M84.1138 326.758H76.4868V349.102C84.1138 366.977 99.3676 373.815 106.041 375C110.999 372.562 115.734 373.984 117.482 375C132.736 372.562 142.905 356.719 146.083 349.102V326.758H139.409M84.1138 326.758H89.834C89.834 329.128 90.12 334.984 91.264 339.453C97.7787 345.378 115.003 353.672 131.782 339.453C132.259 337.253 133.308 331.633 133.689 326.758H139.409M84.1138 326.758V335.391C85.3849 340.807 90.978 352.859 103.181 357.734H119.865C125.109 356.042 136.358 349.203 139.409 335.391V326.758" stroke="black"/>
  <path d="M91.2642 339.453V349.102" stroke="black"/>
  <path d="M98.4146 344.531V355.195" stroke="black"/>
  <path d="M105.088 346.562V357.734" stroke="black"/>
  <path d="M111.762 347.578V357.734" stroke="black"/>
  <path d="M118.435 347.07V357.734" stroke="black"/>
  <path d="M125.108 344.531V355.195" stroke="black"/>
  <path d="M131.782 339.961V349.609" stroke="black"/>
  <path d="M98.4146 344.023V338.945" stroke="black"/>
  <path d="M105.088 346.562V338.945" stroke="black"/>
  <path d="M111.762 347.578V337.93" stroke="black"/>
  <path d="M118.435 346.562V338.945" stroke="black"/>
  <path d="M125.108 344.531V338.945" stroke="black"/>
  <path d="M91.7408 339.961L91.2641 349.102C87.8068 345.529 84.6075 339.471 84.1136 335.897C83.7185 333.038 83.9492 328.289 84.1138 326.758C86.4846 325.124 89.3228 326.076 90.3106 326.757C90.3106 331.658 91.2469 337.919 91.7408 339.961Z" fill="white" stroke="black"/>
  <path d="M131.782 339.585V349.61C134.166 348.085 138.915 340.304 139.409 336.406C139.804 333.287 139.574 328.428 139.409 326.758C137.039 324.975 134.2 326.015 133.212 326.757C133.212 332.104 132.276 337.358 131.782 339.585Z" fill="white" stroke="black"/>
  <path d="M66.5 310H157.5" stroke="#4F4F4F" stroke-width="1.2" stroke-linecap="round"/>
</svg>
