<svg width="32" height="32" viewBox="0 0 32 32" fill="none"
  xmlns="http://www.w3.org/2000/svg">
  <circle cx="16" cy="16" r="16" fill="#F9D8BA"/>
  <g clip-path="url(#clip0_2120:4758)">
    <path d="M15.8178 21.2388C15.7256 21.0538 15.565 21.035 15.5 21.035C15.435 21.035 15.2744 21.0534 15.1869 21.2284L14.9472 21.7078C14.7481 22.1072 14.165 22.0631 14.0259 21.6425L13.5 20.0653L13.1684 21.0616C12.9844 21.6134 12.4691 21.9844 11.8872 21.9844H11.5C11.2238 21.9844 11 21.7606 11 21.4844C11 21.2081 11.2238 20.9844 11.5 20.9844H11.8872C12.0381 20.9844 12.1719 20.8881 12.2197 20.745L12.7881 19.0375C12.8913 18.7309 13.1769 18.5247 13.5 18.5247C13.8231 18.5247 14.1088 18.7306 14.2116 19.0375L14.6453 20.3387C15.2625 19.8328 16.3347 20.0356 16.7078 20.7812C16.7669 20.8994 16.8794 20.9672 17.0003 20.9769V18.4106L21.0003 14.4391V12.9844H16.75C16.3375 12.9844 16 12.6469 16 12.2344V7.98438H9.75C9.33438 7.98438 9 8.31875 9 8.73438V23.2344C9 23.65 9.33438 23.9844 9.75 23.9844H20.25C20.6656 23.9844 21 23.65 21 23.2344V21.9844L17 21.9809C16.4963 21.9713 16.0444 21.6909 15.8178 21.2388V21.2388ZM21 11.7938C21 11.5969 20.9219 11.4062 20.7813 11.2656L17.7219 8.20312C17.5813 8.0625 17.3906 7.98438 17.1906 7.98438H17V11.9844H21V11.7938ZM18 18.8269V20.9844H20.1559L25.2084 15.8975L23.0872 13.7762L18 18.8269V18.8269ZM26.7669 13.2134L25.7709 12.2175C25.4603 11.9069 24.9563 11.9069 24.6456 12.2175L23.7941 13.0691L25.9153 15.1903L26.7669 14.3387C27.0778 14.0281 27.0778 13.5241 26.7669 13.2134Z" fill="#F2994A"/>
  </g>
  <defs>
    <clipPath id="clip0_2120:4758">
      <rect width="18" height="18" fill="white" transform="translate(9 7)"/>
    </clipPath>
  </defs>
</svg>
