<svg width="26" height="31" viewBox="0 0 26 31" fill="none"
  xmlns="http://www.w3.org/2000/svg">
  <path d="M24.9993 7.45431C24.9211 6.01592 24.4584 4.62702 23.6615 3.43799C22.8645 2.24895 21.7635 1.3051 20.4779 0.708627C19.1922 0.112154 17.7707 -0.114211 16.3675 0.0540445C14.9642 0.2223 13.6325 0.778763 12.5167 1.66318C10.9968 0.457831 9.09053 -0.126491 7.17003 0.0242494C5.24952 0.17499 3.45254 1.04998 2.12979 2.47845C0.807036 3.90692 0.0534245 5.78637 0.0160261 7.75002C-0.0213724 9.71367 0.660126 11.6206 1.92752 13.0987C2.82065 14.1022 3.43744 15.3288 3.71531 16.6543C3.89066 17.5105 3.94692 18.3877 3.88243 19.26C3.31498 25.693 5.80397 30.5591 8.24489 30.9669C9.6124 31.1953 8.97021 27.3211 10.5046 23.9735C11.0881 22.7003 11.506 20.9761 12.5063 20.9761C13.5066 20.9761 13.9233 22.6945 14.5059 23.9676C16.0361 27.3155 15.3819 31.1955 16.7497 30.9669C19.1907 30.5591 21.6863 25.693 21.1269 19.26C21.0635 18.3877 21.1209 17.5105 21.2973 16.6543C21.5768 15.3288 22.1951 14.102 23.0896 13.0984C24.4282 11.5453 25.1142 9.51794 24.9993 7.45431Z" fill="white"/>
</svg>
