<svg width="729" height="599" viewBox="0 0 729 599" fill="none"
  xmlns="http://www.w3.org/2000/svg">
  <g clip-path="url(#clip0_2051:7652)">
    <path d="M592.675 60.1965C597.328 41.218 592.903 19.0845 577.87 6.60107C577.576 27.8489 569.776 48.308 555.85 64.3584C550.457 70.529 543.816 76.8305 543.554 85.0216C543.392 90.1183 545.88 95.0136 549.308 98.7883C552.737 102.563 557.062 105.388 561.335 108.17L561.963 109.277C575.72 95.4001 588.021 79.1751 592.675 60.1965Z" fill="#F0F0F0"/>
    <path d="M577.568 6.87815C583.333 21.9898 584.191 38.5339 580.018 54.1605C579.18 57.5406 577.814 60.7673 575.97 63.7219C574.082 66.5421 571.472 68.805 568.413 70.2756C565.589 71.7042 562.534 72.8383 560.106 74.9286C558.879 76.017 557.896 77.3525 557.221 78.8475C556.546 80.3426 556.195 81.9633 556.191 83.6036C556.073 87.6902 557.432 91.5753 558.892 95.3284C560.513 99.4956 562.263 103.798 561.888 108.361C561.843 108.913 562.703 108.952 562.748 108.4C563.4 100.462 558.009 93.7569 557.154 86.0576C556.755 82.465 557.437 78.7304 560.093 76.111C562.416 73.8205 565.565 72.6483 568.437 71.2266C571.442 69.8357 574.061 67.7301 576.065 65.0937C578.053 62.2425 579.541 59.0738 580.466 55.7233C582.668 48.2134 583.675 40.404 583.451 32.5812C583.246 23.6516 581.514 14.8231 578.331 6.47755C578.133 5.96109 577.372 6.36506 577.568 6.87814V6.87815Z" fill="white"/>
    <path d="M581.659 49.2082C584.376 49.5523 587.127 48.9195 589.42 47.4228C591.714 45.926 593.4 43.6628 594.179 41.0373C594.335 40.5055 593.516 40.2385 593.36 40.771C592.639 43.2172 591.068 45.3252 588.929 46.7147C586.791 48.1041 584.226 48.6833 581.698 48.3478C581.149 48.2756 581.113 49.1363 581.659 49.2082V49.2082Z" fill="white"/>
    <path d="M569.942 69.7403C566.473 65.3466 564.788 59.8068 565.222 54.2255C565.265 53.6725 564.405 53.6342 564.361 54.1865C563.921 59.9954 565.686 65.7568 569.307 70.3211C569.652 70.7559 570.286 70.1727 569.942 69.7403V69.7403Z" fill="white"/>
    <path d="M582.21 24.1295C581.131 24.2154 580.047 24.032 579.057 23.5957C578.066 23.1594 577.2 22.4839 576.535 21.6299C576.195 21.1909 575.561 21.7746 575.899 22.2107C576.638 23.1508 577.596 23.8957 578.689 24.3801C579.783 24.8646 580.978 25.0739 582.171 24.9899C582.284 24.9914 582.393 24.9497 582.477 24.8735C582.56 24.7972 582.612 24.692 582.62 24.5792C582.625 24.4652 582.585 24.3541 582.508 24.2699C582.431 24.1857 582.324 24.1352 582.21 24.1295V24.1295Z" fill="white"/>
    <path d="M512.861 18.8872C513.066 19.1673 513.27 19.4475 513.472 19.7345C516.199 23.5148 518.615 27.5105 520.695 31.682C520.861 32.002 521.024 32.3287 521.18 32.6528C526.085 42.7564 529.07 53.6826 529.986 64.8762C530.346 69.3307 530.367 73.8061 530.048 78.2637C529.608 84.4199 528.64 91.0598 530.213 96.832C530.37 97.4361 530.564 98.0298 530.795 98.6098L560.564 109.957C560.645 109.949 560.723 109.947 560.804 109.939L561.972 110.447C562.004 110.218 562.033 109.98 562.066 109.751C562.085 109.619 562.098 109.484 562.117 109.351C562.128 109.262 562.139 109.172 562.154 109.093C562.157 109.063 562.161 109.033 562.162 109.01C562.177 108.93 562.182 108.854 562.194 108.781C562.359 107.452 562.514 106.119 562.661 104.782C562.664 104.775 562.664 104.775 562.659 104.766C563.873 94.5921 563.875 84.3103 562.667 74.1359C562.626 73.8328 562.589 73.523 562.535 73.2147C561.91 68.6764 560.914 64.1968 559.559 59.8207C558.809 57.4268 557.938 55.0725 556.95 52.7667C554.386 46.8138 550.901 41.3013 546.623 36.4313C538.095 26.7242 526.557 19.8527 513.834 18.9468C513.509 18.9239 513.189 18.9033 512.861 18.8872Z" fill="#F0F0F0"/>
    <path d="M512.784 19.2906C526.486 27.8852 537.131 40.5786 543.208 55.5677C544.573 58.7713 545.425 62.1701 545.732 65.639C545.922 69.0279 545.201 72.4057 543.644 75.4217C542.249 78.2629 540.493 81.0076 539.812 84.1385C539.488 85.7464 539.507 87.4046 539.869 89.0045C540.23 90.6045 540.925 92.1099 541.909 93.4222C544.276 96.7558 547.7 99.0401 551.125 101.158C554.929 103.509 558.916 105.891 561.364 109.759C561.661 110.228 562.37 109.74 562.074 109.272C557.816 102.542 549.474 100.434 544.156 94.8014C541.675 92.1731 539.97 88.7811 540.514 85.0904C540.99 81.8631 542.798 79.0312 544.236 76.1666C545.798 73.2467 546.621 69.9888 546.634 66.6774C546.504 63.204 545.785 59.7781 544.506 56.5462C541.742 49.2242 537.845 42.3822 532.957 36.2708C527.416 29.2651 520.718 23.2587 513.152 18.5117C512.683 18.2181 512.319 18.999 512.784 19.2907V19.2906Z" fill="white"/>
    <path d="M541.535 50.6261C543.911 49.2651 545.727 47.1037 546.656 44.5279C547.586 41.9521 547.57 39.1296 546.611 36.5644C546.416 36.0461 545.601 36.326 545.797 36.8451C546.694 39.2321 546.709 41.8613 545.838 44.2581C544.967 46.6549 543.268 48.6615 541.048 49.9157C540.566 50.1888 541.055 50.8977 541.535 50.6261Z" fill="white"/>
    <path d="M544.541 74.074C539.125 72.6546 534.444 69.2462 531.43 64.5286C531.132 64.0609 530.422 64.5484 530.72 65.0154C533.865 69.9189 538.744 73.4559 544.383 74.9206C544.92 75.0599 545.075 74.2125 544.541 74.074V74.074Z" fill="white"/>
    <path d="M526.876 30.2708C526.066 30.989 525.09 31.4949 524.037 31.7429C522.983 31.9909 521.884 31.9734 520.839 31.6918C520.304 31.5458 520.149 32.3934 520.681 32.5384C521.837 32.8441 523.051 32.862 524.215 32.5906C525.38 32.3191 526.461 31.7666 527.362 30.9813C527.454 30.9144 527.516 30.8152 527.537 30.7041C527.557 30.5929 527.535 30.4779 527.474 30.3826C527.409 30.2889 527.31 30.2246 527.198 30.2036C527.086 30.1827 526.97 30.2069 526.876 30.2709V30.2708Z" fill="white"/>
    <path d="M473.5 447.586C373.696 447.586 292.5 366.39 292.5 266.586C292.5 166.783 373.696 85.5864 473.5 85.5864C484.051 85.5851 494.583 86.4977 504.977 88.314C505.107 88.3363 505.23 88.3841 505.342 88.4544C505.453 88.5247 505.549 88.6163 505.625 88.7239C505.7 88.8314 505.754 88.9529 505.783 89.0812C505.811 89.2096 505.815 89.3423 505.792 89.4719C505.769 89.6014 505.721 89.7252 505.65 89.8362C505.58 89.9472 505.488 90.0431 505.38 90.1185C505.272 90.1939 505.151 90.2473 505.022 90.2757C504.894 90.304 504.761 90.3067 504.632 90.2837C494.352 88.4878 483.936 87.5853 473.5 87.5864C374.799 87.5864 294.5 167.885 294.5 266.586C294.5 365.288 374.799 445.586 473.5 445.586C572.201 445.586 652.5 365.288 652.5 266.586C652.544 221.975 635.886 178.962 605.805 146.018C605.628 145.821 605.536 145.563 605.549 145.299C605.562 145.035 605.679 144.787 605.874 144.609C606.069 144.431 606.327 144.337 606.591 144.349C606.855 144.36 607.104 144.476 607.283 144.67C637.7 177.983 654.545 221.476 654.5 266.586C654.5 366.39 573.304 447.586 473.5 447.586Z" fill="#E4E4E4"/>
    <path d="M553.307 147.663C573.085 147.663 589.118 131.63 589.118 111.852C589.118 92.0742 573.085 76.041 553.307 76.041C533.529 76.041 517.496 92.0742 517.496 111.852C517.496 131.63 533.529 147.663 553.307 147.663Z" fill="#007D9E"/>
    <path d="M548.423 130.49C547.804 130.49 547.194 130.346 546.641 130.07C546.088 129.793 545.607 129.391 545.236 128.897L535.467 115.87C535.153 115.452 534.924 114.975 534.795 114.469C534.665 113.962 534.636 113.435 534.71 112.917C534.784 112.399 534.959 111.901 535.226 111.451C535.492 111 535.845 110.607 536.263 110.293C536.682 109.98 537.158 109.751 537.665 109.621C538.172 109.492 538.699 109.463 539.217 109.537C539.735 109.611 540.233 109.786 540.683 110.053C541.133 110.319 541.526 110.672 541.84 111.09L548.232 119.612L564.648 94.9877C565.236 94.1122 566.146 93.5054 567.181 93.3003C568.215 93.0951 569.288 93.3083 570.165 93.8932C571.043 94.478 571.652 95.3868 571.861 96.4204C572.069 97.4539 571.859 98.528 571.277 99.407L551.738 128.716C551.384 129.246 550.909 129.684 550.351 129.993C549.794 130.301 549.17 130.471 548.534 130.489C548.497 130.49 548.46 130.49 548.423 130.49Z" fill="white"/>
    <path d="M468.844 238.498L413.62 84.8667L415.02 84.3633L404.864 56.1065L403.464 56.6104L386.508 9.44093C385.875 7.6792 384.9 6.05944 383.641 4.67414C382.382 3.28885 380.862 2.16514 379.169 1.36718C377.475 0.569223 375.641 0.112631 373.771 0.0234935C371.901 -0.0656444 370.032 0.214412 368.27 0.847667L268.438 36.7329C266.676 37.3661 265.056 38.3401 263.671 39.5993C262.286 40.8585 261.162 42.3783 260.364 44.0717C259.566 45.7652 259.109 47.5993 259.02 49.4693C258.931 51.3393 259.211 53.2085 259.844 54.9702L271.666 87.8596L269.454 88.7117L277 108.309L278.772 107.627L280.339 111.986L278.454 112.712L286.001 132.309L287.444 131.753L342.18 284.027C342.81 285.791 343.783 287.413 345.041 288.8C346.3 290.187 347.82 291.312 349.515 292.111C351.209 292.909 353.044 293.365 354.915 293.453C356.786 293.54 358.656 293.257 360.418 292.621L460.25 256.735C463.805 255.453 466.707 252.812 468.318 249.393C469.929 245.974 470.118 242.056 468.844 238.498Z" fill="#3F3D56"/>
    <path d="M355.166 287.557C353.76 287.554 352.39 287.118 351.24 286.309C350.091 285.499 349.218 284.355 348.742 283.033L265.537 51.5588C264.925 49.8539 265.014 47.9755 265.786 46.3367C266.559 44.6979 267.95 43.4329 269.655 42.82L290.896 35.1847L290.864 35.9279C290.81 37.218 291.073 38.5017 291.632 39.6659C292.19 40.8301 293.027 41.8391 294.067 42.604C295.107 43.3688 296.32 43.8662 297.597 44.0521C298.875 44.238 300.179 44.1068 301.394 43.6701L348.535 26.7253C349.673 26.204 350.672 25.4221 351.452 24.4429C352.231 23.4638 352.769 22.3148 353.023 21.0891C353.273 19.8838 353.235 18.6363 352.912 17.4484C352.588 16.2606 351.989 15.166 351.162 14.2541L350.664 13.7009L372.605 5.81367C374.31 5.20338 376.188 5.29418 377.826 6.06617C379.464 6.83816 380.73 8.22832 381.344 9.93181L460.729 230.778C462.349 235.302 462.109 240.284 460.06 244.631C458.012 248.978 454.323 252.335 449.802 253.966L357.481 287.151C356.739 287.419 355.955 287.556 355.166 287.557V287.557Z" fill="white"/>
    <path d="M347.033 123.377C361.945 123.377 374.033 111.289 374.033 96.377C374.033 81.4653 361.945 69.377 347.033 69.377C332.122 69.377 320.033 81.4653 320.033 96.377C320.033 111.289 332.122 123.377 347.033 123.377Z" fill="#007D9E"/>
    <path d="M413.939 135.642L320.437 169.252C320.145 169.357 319.835 169.405 319.525 169.39C319.215 169.376 318.91 169.301 318.629 169.169C318.348 169.037 318.096 168.85 317.887 168.621C317.677 168.391 317.516 168.122 317.411 167.83C317.306 167.538 317.259 167.227 317.274 166.917C317.289 166.607 317.365 166.303 317.498 166.022C317.631 165.741 317.817 165.489 318.048 165.281C318.278 165.072 318.547 164.911 318.839 164.807L412.342 131.197C412.931 130.987 413.579 131.019 414.144 131.286C414.71 131.553 415.146 132.034 415.357 132.622C415.569 133.211 415.538 133.859 415.273 134.425C415.007 134.991 414.527 135.429 413.939 135.642V135.642Z" fill="#E6E6E6"/>
    <path d="M386.173 156.952L355.417 168.007C355.125 168.113 354.815 168.16 354.505 168.145C354.195 168.131 353.89 168.055 353.609 167.923C353.328 167.791 353.076 167.605 352.867 167.375C352.658 167.146 352.496 166.877 352.391 166.585C352.286 166.293 352.24 165.982 352.255 165.672C352.27 165.362 352.346 165.058 352.478 164.777C352.611 164.496 352.798 164.244 353.028 164.036C353.258 163.827 353.527 163.666 353.819 163.562L384.575 152.506C385.164 152.295 385.814 152.325 386.38 152.592C386.947 152.859 387.384 153.341 387.596 153.93C387.808 154.52 387.777 155.169 387.51 155.736C387.243 156.302 386.762 156.74 386.173 156.952V156.952Z" fill="#E6E6E6"/>
    <path d="M393.487 177.303L362.731 188.358C362.439 188.463 362.13 188.509 361.82 188.495C361.51 188.48 361.206 188.404 360.925 188.272C360.645 188.14 360.393 187.954 360.184 187.724C359.976 187.495 359.814 187.226 359.71 186.934C359.605 186.642 359.558 186.333 359.573 186.023C359.588 185.713 359.663 185.409 359.796 185.129C359.928 184.848 360.114 184.596 360.343 184.388C360.573 184.179 360.841 184.018 361.133 183.913L391.889 172.857C392.478 172.646 393.128 172.677 393.694 172.944C394.261 173.211 394.698 173.692 394.91 174.281C395.122 174.871 395.091 175.52 394.824 176.087C394.557 176.653 394.076 177.091 393.487 177.303V177.303Z" fill="#E6E6E6"/>
    <path d="M397.234 187.726L366.479 198.781C366.187 198.887 365.877 198.934 365.566 198.92C365.256 198.906 364.951 198.831 364.67 198.699C364.389 198.567 364.137 198.38 363.928 198.151C363.719 197.921 363.557 197.652 363.452 197.36C363.347 197.068 363.3 196.757 363.315 196.447C363.33 196.137 363.406 195.832 363.539 195.552C363.672 195.271 363.859 195.019 364.089 194.81C364.319 194.602 364.588 194.441 364.881 194.336L395.637 183.281C395.929 183.175 396.239 183.128 396.549 183.143C396.859 183.157 397.164 183.232 397.445 183.364C397.726 183.496 397.978 183.683 398.187 183.912C398.396 184.142 398.558 184.411 398.663 184.703C398.768 184.995 398.814 185.305 398.8 185.616C398.785 185.926 398.709 186.23 398.576 186.511C398.443 186.792 398.256 187.044 398.026 187.252C397.796 187.461 397.527 187.622 397.234 187.726L397.234 187.726Z" fill="#E6E6E6"/>
    <path d="M407.028 160.784L341.775 184.24C341.483 184.346 341.173 184.393 340.863 184.378C340.552 184.364 340.248 184.289 339.967 184.157C339.686 184.025 339.433 183.838 339.224 183.609C339.015 183.379 338.854 183.11 338.749 182.818C338.644 182.526 338.597 182.216 338.612 181.905C338.627 181.595 338.703 181.291 338.836 181.01C338.969 180.729 339.155 180.477 339.386 180.269C339.616 180.06 339.885 179.899 340.177 179.795L405.43 156.339C405.722 156.234 406.032 156.186 406.343 156.201C406.653 156.215 406.957 156.29 407.238 156.422C407.519 156.554 407.772 156.741 407.981 156.97C408.19 157.2 408.352 157.469 408.457 157.761C408.562 158.053 408.608 158.364 408.593 158.674C408.578 158.984 408.502 159.288 408.369 159.569C408.237 159.85 408.05 160.102 407.82 160.31C407.59 160.519 407.32 160.68 407.028 160.784V160.784Z" fill="#E6E6E6"/>
    <path d="M393.883 213.029L382.716 217.043C381.714 217.403 380.61 217.35 379.647 216.896C378.684 216.441 377.941 215.624 377.581 214.622C377.22 213.62 377.273 212.516 377.726 211.553C378.18 210.589 378.997 209.846 379.999 209.485L391.166 205.471C392.168 205.111 393.272 205.164 394.235 205.619C395.198 206.073 395.941 206.891 396.301 207.892C396.661 208.894 396.609 209.998 396.155 210.961C395.702 211.925 394.885 212.669 393.883 213.029V213.029Z" fill="#007D9E"/>
    <path d="M305.883 35.9331C306.741 35.9331 307.436 35.2378 307.436 34.3801C307.436 33.5224 306.741 32.8271 305.883 32.8271C305.025 32.8271 304.33 33.5224 304.33 34.3801C304.33 35.2378 305.025 35.9331 305.883 35.9331Z" fill="white"/>
    <path d="M127.283 121.724C144.688 101.235 172.93 88.3234 198.966 95.0176C175.516 112.476 158.997 137.666 152.332 166.131C149.801 177.118 148.13 189.602 139.21 196.497C133.659 200.788 126.196 201.961 119.224 201.182C112.252 200.403 105.615 197.859 99.0688 195.338L97.3281 195.531C101.707 169.006 109.877 142.212 127.283 121.724Z" fill="#F0F0F0"/>
    <path d="M198.901 95.578C177.407 101.334 158.272 113.716 144.216 130.967C141.124 134.626 138.628 138.751 136.82 143.188C135.199 147.567 134.78 152.3 135.607 156.896C136.292 161.197 137.49 165.516 137.117 169.909C136.893 172.154 136.197 174.327 135.075 176.284C133.952 178.242 132.428 179.94 130.603 181.267C126.142 184.693 120.716 186.311 115.355 187.709C109.402 189.261 103.195 190.779 98.4106 194.875C97.831 195.372 97.0948 194.443 97.6735 193.948C105.997 186.821 117.818 187.426 127.091 182.171C131.417 179.72 135.031 175.949 135.81 170.876C136.491 166.44 135.259 161.985 134.528 157.636C133.655 153.165 133.891 148.547 135.215 144.188C136.791 139.673 139.123 135.46 142.113 131.728C148.71 123.218 156.603 115.799 165.504 109.742C175.625 102.772 186.863 97.5849 198.733 94.4049C199.468 94.2084 199.631 95.3827 198.901 95.578H198.901Z" fill="white"/>
    <path d="M148.414 125.145C145.84 122.394 144.328 118.818 144.147 115.054C143.967 111.291 145.13 107.586 147.429 104.601C147.896 103.999 148.854 104.697 148.386 105.3C146.24 108.075 145.157 111.527 145.332 115.031C145.507 118.535 146.929 121.861 149.341 124.408C149.865 124.963 148.934 125.697 148.414 125.145H148.414Z" fill="white"/>
    <path d="M134.973 154.761C142.668 155.086 150.203 152.499 156.075 147.515C156.656 147.021 157.392 147.949 156.812 148.443C150.691 153.618 142.845 156.294 134.838 155.938C134.075 155.904 134.214 154.727 134.973 154.761V154.761Z" fill="white"/>
    <path d="M175.928 104.313C176.702 105.585 177.78 106.645 179.065 107.397C180.35 108.15 181.801 108.572 183.289 108.624C184.053 108.649 183.913 109.826 183.155 109.801C181.511 109.736 179.908 109.268 178.487 108.44C177.065 107.611 175.868 106.448 175 105.05C174.907 104.925 174.865 104.77 174.883 104.615C174.901 104.46 174.977 104.318 175.095 104.218C175.219 104.121 175.375 104.076 175.531 104.094C175.687 104.112 175.829 104.191 175.928 104.313V104.313Z" fill="white"/>
    <path d="M237.682 177.396C237.205 177.394 236.728 177.392 236.245 177.398C229.832 177.406 223.43 177.934 217.103 178.979C216.613 179.052 216.117 179.133 215.629 179.22C200.412 181.899 185.824 187.379 172.608 195.383C167.351 198.573 162.345 202.158 157.633 206.107C151.125 211.561 144.503 217.993 136.801 220.894C136 221.205 135.182 221.467 134.349 221.678L97.6987 197.639C97.6428 197.543 97.5811 197.455 97.5248 197.358L96.0176 196.465C96.2464 196.244 96.4884 196.02 96.7173 195.8C96.8495 195.671 96.9898 195.548 97.122 195.419C97.2127 195.335 97.3039 195.252 97.381 195.171C97.411 195.143 97.4415 195.115 97.4662 195.095C97.5432 195.014 97.6234 194.947 97.695 194.874C99.0446 193.619 100.405 192.371 101.777 191.13C101.783 191.122 101.783 191.122 101.796 191.119C112.274 181.69 123.63 173.054 135.937 166.416C136.307 166.216 136.683 166.008 137.07 165.82C142.633 162.858 148.43 160.357 154.401 158.34C157.674 157.246 161.001 156.318 164.368 155.561C173.072 153.62 182.026 153.06 190.904 153.902C208.601 155.584 225.564 162.906 236.831 176.36C237.119 176.704 237.4 177.043 237.682 177.396Z" fill="#F0F0F0"/>
    <path d="M237.296 177.807C216.668 169.461 193.935 167.828 172.326 173.138C167.654 174.199 163.178 175.989 159.063 178.443C155.132 180.964 151.948 184.491 149.841 188.658C147.798 192.504 146.154 196.675 143.212 199.957C141.682 201.615 139.818 202.931 137.743 203.818C135.668 204.705 133.429 205.143 131.173 205.104C125.548 205.154 120.241 203.179 115.119 201.067C109.432 198.723 103.561 196.198 97.2754 196.588C96.5138 196.635 96.485 195.451 97.2454 195.403C108.182 194.725 117.257 202.324 127.823 203.712C132.754 204.359 137.91 203.525 141.586 199.943C144.8 196.811 146.499 192.511 148.533 188.599C150.529 184.504 153.497 180.959 157.179 178.275C161.155 175.62 165.555 173.66 170.189 172.48C180.579 169.657 191.348 168.486 202.103 169.008C214.38 169.537 226.476 172.161 237.868 176.769C238.573 177.054 237.996 178.09 237.296 177.807L237.296 177.807Z" fill="white"/>
    <path d="M179.183 171.019C178.784 167.272 179.73 163.506 181.852 160.393C183.974 157.279 187.133 155.022 190.766 154.022C191.502 153.823 191.846 154.957 191.11 155.157C187.725 156.081 184.782 158.184 182.812 161.087C180.843 163.991 179.975 167.502 180.367 170.989C180.452 171.747 179.267 171.772 179.183 171.019V171.019Z" fill="white"/>
    <path d="M150.619 186.572C156.567 191.464 164.141 193.935 171.83 193.491C172.592 193.447 172.621 194.631 171.86 194.676C163.858 195.123 155.982 192.535 149.803 187.431C149.214 186.944 150.034 186.088 150.619 186.572H150.619Z" fill="white"/>
    <path d="M213.694 170.95C213.547 172.432 213.769 173.927 214.342 175.302C214.915 176.676 215.82 177.887 216.977 178.825C217.571 179.304 216.751 180.16 216.16 179.684C214.887 178.641 213.889 177.303 213.253 175.786C212.617 174.269 212.361 172.619 212.51 170.98C212.511 170.825 212.571 170.675 212.678 170.563C212.786 170.45 212.932 170.382 213.087 170.373C213.244 170.37 213.396 170.429 213.509 170.537C213.623 170.645 213.69 170.794 213.694 170.95V170.95Z" fill="white"/>
    <path d="M649.649 515.514C668.628 520.167 690.761 515.743 703.244 500.71C681.997 500.416 661.538 492.616 645.487 478.69C639.317 473.296 633.015 466.655 624.824 466.394C619.727 466.231 614.832 468.719 611.057 472.147C607.282 475.576 604.458 479.901 601.676 484.175L600.568 484.802C614.445 498.56 630.67 510.861 649.649 515.514Z" fill="#F0F0F0"/>
    <path d="M702.968 500.408C687.856 506.173 671.312 507.03 655.685 502.858C652.305 502.019 649.078 500.653 646.124 498.81C643.304 496.921 641.041 494.312 639.57 491.253C638.142 488.428 637.007 485.374 634.917 482.945C633.829 481.718 632.493 480.735 630.998 480.06C629.503 479.386 627.882 479.035 626.242 479.03C622.155 478.913 618.27 480.271 614.517 481.731C610.35 483.352 606.047 485.102 601.485 484.728C600.932 484.682 600.894 485.543 601.446 485.588C609.384 486.24 616.089 480.849 623.788 479.994C627.381 479.595 631.115 480.276 633.735 482.932C636.025 485.255 637.197 488.404 638.619 491.277C640.01 494.282 642.116 496.901 644.752 498.905C647.603 500.892 650.772 502.381 654.122 503.305C661.632 505.507 669.442 506.515 677.264 506.291C686.194 506.085 695.023 504.353 703.368 501.17C703.885 500.973 703.481 500.212 702.967 500.408H702.968Z" fill="white"/>
    <path d="M660.638 504.498C660.294 507.214 660.927 509.965 662.424 512.259C663.921 514.552 666.184 516.238 668.809 517.017C669.341 517.173 669.608 516.354 669.076 516.198C666.629 515.477 664.521 513.906 663.132 511.768C661.743 509.629 661.163 507.065 661.499 504.537C661.571 503.987 660.71 503.951 660.638 504.498V504.498Z" fill="white"/>
    <path d="M640.105 492.781C644.499 489.311 650.039 487.626 655.62 488.06C656.173 488.103 656.211 487.243 655.659 487.199C649.85 486.759 644.089 488.525 639.525 492.145C639.09 492.49 639.673 493.124 640.105 492.781H640.105Z" fill="white"/>
    <path d="M685.716 505.048C685.63 503.969 685.814 502.886 686.25 501.895C686.686 500.904 687.362 500.038 688.216 499.373C688.655 499.033 688.071 498.399 687.635 498.737C686.695 499.476 685.95 500.434 685.466 501.527C684.981 502.621 684.772 503.816 684.856 505.009C684.855 505.122 684.896 505.231 684.972 505.315C685.049 505.399 685.154 505.45 685.267 505.459C685.381 505.463 685.492 505.423 685.576 505.346C685.66 505.269 685.711 505.162 685.716 505.048V505.048Z" fill="white"/>
    <path d="M690.958 435.7C690.678 435.904 690.398 436.108 690.111 436.31C686.33 439.037 682.335 441.453 678.163 443.533C677.843 443.699 677.517 443.862 677.192 444.019C667.089 448.923 656.163 451.909 644.969 452.824C640.515 453.184 636.039 453.205 631.582 452.886C625.425 452.446 618.786 451.478 613.013 453.051C612.409 453.208 611.815 453.403 611.235 453.633L599.888 483.403C599.897 483.483 599.898 483.562 599.906 483.642L599.398 484.81C599.627 484.843 599.865 484.872 600.094 484.904C600.226 484.924 600.362 484.936 600.494 484.956C600.583 484.967 600.673 484.977 600.753 484.992C600.782 484.996 600.812 484.999 600.835 485C600.915 485.015 600.991 485.02 601.064 485.033C602.394 485.197 603.727 485.353 605.063 485.499C605.07 485.502 605.07 485.502 605.079 485.498C615.253 486.711 625.535 486.714 635.709 485.505C636.012 485.465 636.322 485.427 636.631 485.374C641.169 484.748 645.648 483.752 650.025 482.397C652.418 481.647 654.773 480.776 657.079 479.788C663.031 477.224 668.544 473.739 673.414 469.462C683.121 460.934 689.993 449.396 690.898 436.672C690.921 436.347 690.942 436.028 690.958 435.7Z" fill="#F0F0F0"/>
    <path d="M690.555 435.623C681.961 449.324 669.267 459.969 654.278 466.046C651.075 467.412 647.676 468.264 644.207 468.571C640.818 468.761 637.44 468.04 634.424 466.483C631.583 465.088 628.838 463.331 625.707 462.651C624.1 462.327 622.441 462.346 620.841 462.707C619.241 463.069 617.736 463.764 616.424 464.748C613.09 467.115 610.806 470.538 608.688 473.964C606.337 477.767 603.955 481.755 600.087 484.203C599.618 484.499 600.106 485.209 600.574 484.913C607.304 480.654 609.412 472.313 615.044 466.995C617.673 464.513 621.065 462.809 624.755 463.353C627.983 463.828 630.815 465.637 633.679 467.074C636.599 468.636 639.857 469.46 643.169 469.472C646.642 469.343 650.068 468.623 653.3 467.344C660.622 464.581 667.464 460.684 673.575 455.795C680.581 450.255 686.587 443.556 691.334 435.99C691.628 435.522 690.847 435.157 690.555 435.623H690.555Z" fill="white"/>
    <path d="M659.219 464.374C660.58 466.75 662.741 468.565 665.317 469.495C667.893 470.425 670.716 470.409 673.281 469.45C673.799 469.255 673.519 468.44 673 468.636C670.613 469.533 667.984 469.548 665.587 468.677C663.19 467.806 661.184 466.107 659.929 463.887C659.656 463.405 658.948 463.894 659.219 464.374Z" fill="white"/>
    <path d="M635.772 467.38C637.192 461.965 640.6 457.284 645.318 454.27C645.785 453.971 645.298 453.261 644.831 453.559C639.927 456.705 636.39 461.584 634.926 467.222C634.786 467.759 635.634 467.915 635.772 467.38Z" fill="white"/>
    <path d="M679.575 449.714C678.857 448.904 678.351 447.929 678.103 446.875C677.855 445.822 677.873 444.723 678.154 443.678C678.3 443.142 677.453 442.988 677.308 443.52C677.002 444.676 676.984 445.889 677.256 447.054C677.527 448.219 678.08 449.299 678.865 450.201C678.932 450.292 679.031 450.355 679.142 450.375C679.253 450.396 679.368 450.374 679.464 450.313C679.557 450.248 679.622 450.149 679.643 450.036C679.663 449.924 679.639 449.809 679.575 449.714V449.714Z" fill="white"/>
    <path d="M725.697 333.101L696.757 381.801L697.857 382.381L688.057 400.961L686.017 399.881L679.577 410.711L681.177 411.631L670.677 429.811L668.857 428.761L574.427 587.681C571.951 591.84 567.925 594.847 563.235 596.041C558.544 597.235 553.571 596.52 549.407 594.051L373.857 489.741C369.698 487.265 366.691 483.24 365.497 478.549C364.302 473.858 365.018 468.885 367.487 464.721L518.757 210.141C521.234 205.983 525.259 202.976 529.95 201.782C534.64 200.588 539.613 201.303 543.777 203.771L719.327 308.081C723.485 310.559 726.49 314.584 727.684 319.275C728.878 323.965 728.164 328.937 725.697 333.101V333.101Z" fill="#3F3D56"/>
    <path d="M555.663 584.224L379.495 479.548C378.213 478.784 377.286 477.543 376.918 476.097C376.55 474.652 376.771 473.119 377.531 471.835L529.805 215.562C530.569 214.28 531.81 213.353 533.255 212.985C534.701 212.617 536.234 212.838 537.518 213.598L713.686 318.275C714.968 319.038 715.894 320.279 716.262 321.725C716.63 323.171 716.41 324.704 715.649 325.987L563.376 582.261C562.612 583.543 561.371 584.469 559.925 584.837C558.479 585.205 556.947 584.985 555.663 584.224Z" fill="white"/>
    <path d="M628.028 261.886C628.885 261.886 629.581 261.191 629.581 260.333C629.581 259.476 628.885 258.78 628.028 258.78C627.17 258.78 626.475 259.476 626.475 260.333C626.475 261.191 627.17 261.886 628.028 261.886Z" fill="white"/>
    <path d="M618.417 445.465L471.36 358.086C470.899 357.814 470.496 357.454 470.174 357.027C469.852 356.599 469.618 356.112 469.485 355.593C469.352 355.075 469.323 354.535 469.399 354.005C469.475 353.475 469.655 352.966 469.928 352.506C470.201 352.045 470.563 351.644 470.992 351.324C471.421 351.004 471.909 350.771 472.428 350.64C472.947 350.509 473.487 350.482 474.016 350.56C474.546 350.638 475.055 350.82 475.514 351.095L622.571 438.474C623.032 438.746 623.435 439.106 623.757 439.533C624.078 439.961 624.312 440.448 624.445 440.967C624.579 441.485 624.608 442.025 624.532 442.555C624.456 443.085 624.276 443.594 624.003 444.054C623.729 444.515 623.368 444.916 622.939 445.236C622.51 445.556 622.022 445.789 621.503 445.92C620.984 446.051 620.444 446.078 619.914 446C619.385 445.922 618.876 445.74 618.417 445.465H618.417Z" fill="#E6E6E6"/>
    <path d="M559.699 431.925L511.328 403.184C510.869 402.911 510.468 402.551 510.148 402.123C509.828 401.695 509.595 401.209 509.464 400.691C509.332 400.174 509.303 399.636 509.38 399.107C509.456 398.578 509.636 398.07 509.908 397.611C510.181 397.152 510.542 396.751 510.97 396.431C511.397 396.111 511.884 395.879 512.401 395.747C512.919 395.616 513.457 395.587 513.986 395.664C514.514 395.74 515.023 395.92 515.482 396.193L563.853 424.934C564.312 425.207 564.713 425.567 565.032 425.995C565.352 426.423 565.585 426.909 565.716 427.427C565.848 427.944 565.876 428.482 565.8 429.011C565.724 429.539 565.544 430.048 565.271 430.507C564.999 430.966 564.638 431.367 564.21 431.686C563.783 432.006 563.296 432.238 562.779 432.37C562.261 432.502 561.723 432.53 561.195 432.454C560.666 432.378 560.158 432.198 559.699 431.925V431.925Z" fill="#E6E6E6"/>
    <path d="M540.68 463.932L492.309 435.191C491.382 434.64 490.712 433.744 490.446 432.699C490.18 431.654 490.34 430.546 490.891 429.619C491.442 428.692 492.338 428.022 493.383 427.755C494.428 427.489 495.536 427.649 496.463 428.2L544.834 456.941C545.293 457.214 545.694 457.574 546.013 458.002C546.333 458.43 546.566 458.916 546.697 459.434C546.829 459.951 546.858 460.489 546.781 461.018C546.705 461.546 546.525 462.055 546.252 462.514C545.98 462.973 545.619 463.374 545.192 463.693C544.764 464.013 544.277 464.245 543.76 464.377C543.242 464.509 542.704 464.537 542.176 464.461C541.647 464.385 541.139 464.205 540.68 463.932V463.932Z" fill="#E6E6E6"/>
    <path d="M530.939 480.326L482.568 451.584C482.107 451.312 481.705 450.952 481.384 450.524C481.063 450.097 480.83 449.61 480.697 449.092C480.565 448.574 480.536 448.035 480.612 447.505C480.688 446.976 480.868 446.467 481.141 446.007C481.414 445.547 481.775 445.146 482.204 444.826C482.632 444.506 483.12 444.274 483.638 444.143C484.156 444.011 484.696 443.983 485.225 444.061C485.754 444.138 486.262 444.319 486.722 444.594L535.093 473.335C535.554 473.606 535.957 473.966 536.279 474.394C536.601 474.822 536.835 475.309 536.968 475.828C537.101 476.346 537.131 476.886 537.055 477.416C536.979 477.946 536.799 478.455 536.525 478.916C536.252 479.376 535.89 479.778 535.461 480.098C535.032 480.418 534.544 480.65 534.025 480.781C533.506 480.912 532.966 480.939 532.436 480.861C531.907 480.783 531.398 480.601 530.939 480.326V480.326Z" fill="#E6E6E6"/>
    <path d="M577.452 463.823L474.825 402.844C473.902 402.291 473.236 401.395 472.973 400.352C472.71 399.309 472.871 398.204 473.42 397.28C473.97 396.355 474.863 395.686 475.905 395.418C476.946 395.151 478.052 395.307 478.979 395.853L581.605 456.832C582.067 457.104 582.47 457.464 582.792 457.892C583.114 458.32 583.348 458.807 583.481 459.325C583.614 459.844 583.643 460.383 583.567 460.913C583.491 461.443 583.312 461.953 583.038 462.413C582.765 462.873 582.403 463.275 581.974 463.595C581.545 463.915 581.057 464.148 580.538 464.279C580.019 464.41 579.479 464.437 578.949 464.359C578.42 464.28 577.911 464.099 577.452 463.823V463.823Z" fill="#E6E6E6"/>
    <path d="M557.89 541.755L540.327 531.319C538.753 530.381 537.615 528.857 537.164 527.081C536.713 525.305 536.985 523.423 537.921 521.847C538.857 520.272 540.38 519.133 542.156 518.68C543.931 518.227 545.814 518.497 547.39 519.431L564.954 529.867C566.53 530.804 567.67 532.328 568.122 534.105C568.575 535.882 568.303 537.766 567.366 539.343C566.429 540.919 564.905 542.059 563.128 542.511C561.35 542.964 559.467 542.692 557.89 541.755Z" fill="#007D9E"/>
    <path d="M590.658 372.314C610.54 372.314 626.658 356.197 626.658 336.314C626.658 316.432 610.54 300.314 590.658 300.314C570.776 300.314 554.658 316.432 554.658 336.314C554.658 356.197 570.776 372.314 590.658 372.314Z" fill="#007D9E"/>
    <path d="M0.423828 482.605H487.605V200.557C487.602 198.444 486.762 196.418 485.267 194.924C483.773 193.429 481.747 192.589 479.634 192.586H8.39482C6.28155 192.589 4.25551 193.429 2.76118 194.924C1.26685 196.418 0.426268 198.444 0.423828 200.557V482.605Z" fill="#CACACA"/>
    <path d="M472.553 203.611H15.4766V463.101H472.553V203.611Z" fill="white"/>
    <path d="M6.55376e-10 474.973V509.778C-1.57581e-05 511.221 0.284166 512.65 0.836319 513.983C1.38847 515.316 2.19779 516.527 3.21805 517.548C4.23831 518.568 5.44955 519.377 6.78259 519.929C8.11564 520.482 9.54438 520.766 10.9873 520.766H190.802V589.455H188.413C188.226 589.455 188.04 589.491 187.867 589.563C187.694 589.635 187.536 589.74 187.404 589.872C187.271 590.005 187.166 590.162 187.094 590.336C187.023 590.509 186.986 590.694 186.986 590.882V595.659C186.986 595.847 187.023 596.032 187.094 596.206C187.166 596.379 187.271 596.536 187.404 596.669C187.536 596.801 187.694 596.906 187.867 596.978C188.04 597.05 188.226 597.087 188.413 597.087H300.04C300.227 597.087 300.413 597.05 300.586 596.978C300.759 596.906 300.916 596.801 301.049 596.669C301.182 596.536 301.287 596.379 301.358 596.206C301.43 596.032 301.467 595.847 301.467 595.659V590.882C301.467 590.694 301.43 590.509 301.358 590.336C301.287 590.162 301.182 590.005 301.049 589.872C300.916 589.74 300.759 589.635 300.586 589.563C300.413 589.491 300.227 589.455 300.04 589.455H297.651V520.766H477.466C478.908 520.766 480.337 520.482 481.67 519.93C483.003 519.377 484.215 518.568 485.235 517.548C486.255 516.527 487.064 515.316 487.617 513.983C488.169 512.65 488.453 511.221 488.453 509.778V474.973L6.55376e-10 474.973Z" fill="#3F3D56"/>
    <path d="M406.413 290.394H189.959C188.595 290.394 187.286 289.852 186.321 288.887C185.357 287.922 184.814 286.614 184.814 285.249C184.814 283.885 185.357 282.576 186.321 281.611C187.286 280.646 188.595 280.104 189.959 280.104H406.413C407.778 280.104 409.086 280.646 410.051 281.611C411.016 282.576 411.558 283.885 411.558 285.249C411.558 286.614 411.016 287.922 410.051 288.887C409.086 289.852 407.778 290.394 406.413 290.394V290.394Z" fill="#E6E6E6"/>
    <path d="M333.784 313.62H262.587C261.222 313.62 259.913 313.078 258.948 312.113C257.984 311.148 257.441 309.839 257.441 308.475C257.441 307.11 257.984 305.801 258.948 304.836C259.913 303.871 261.222 303.329 262.587 303.329H333.784C335.149 303.329 336.458 303.871 337.423 304.836C338.388 305.801 338.93 307.11 338.93 308.475C338.93 309.839 338.388 311.148 337.423 312.113C336.458 313.078 335.149 313.62 333.784 313.62V313.62Z" fill="#E6E6E6"/>
    <path d="M333.784 360.731H262.587C261.222 360.731 259.913 360.189 258.948 359.224C257.984 358.259 257.441 356.951 257.441 355.586C257.441 354.221 257.984 352.913 258.948 351.948C259.913 350.983 261.222 350.441 262.587 350.441H333.784C335.149 350.441 336.458 350.983 337.423 351.948C338.388 352.913 338.93 354.221 338.93 355.586C338.93 356.951 338.388 358.259 337.423 359.224C336.458 360.189 335.149 360.731 333.784 360.731Z" fill="#E6E6E6"/>
    <path d="M333.784 384.861H262.586C261.911 384.861 261.242 384.728 260.617 384.469C259.993 384.211 259.426 383.832 258.948 383.354C258.471 382.876 258.092 382.309 257.833 381.685C257.574 381.061 257.441 380.392 257.441 379.716C257.441 379.04 257.574 378.371 257.833 377.747C258.092 377.123 258.471 376.556 258.948 376.078C259.426 375.6 259.993 375.221 260.617 374.963C261.242 374.704 261.911 374.571 262.586 374.571H333.784C334.46 374.571 335.129 374.704 335.753 374.963C336.377 375.221 336.944 375.6 337.422 376.078C337.9 376.556 338.279 377.123 338.538 377.747C338.796 378.371 338.929 379.04 338.929 379.716C338.929 380.392 338.796 381.061 338.538 381.685C338.279 382.309 337.9 382.876 337.422 383.354C336.944 383.832 336.377 384.211 335.753 384.469C335.129 384.728 334.46 384.861 333.784 384.861V384.861Z" fill="#E6E6E6"/>
    <path d="M373.714 336.845H222.657C221.292 336.845 219.984 336.303 219.019 335.338C218.054 334.373 217.512 333.064 217.512 331.7C217.512 330.335 218.054 329.027 219.019 328.062C219.984 327.097 221.292 326.555 222.657 326.555H373.714C375.079 326.555 376.388 327.097 377.352 328.062C378.317 329.027 378.859 330.335 378.859 331.7C378.859 333.064 378.317 334.373 377.352 335.338C376.388 336.303 375.079 336.845 373.714 336.845V336.845Z" fill="#E6E6E6"/>
    <path d="M402.81 434.266H376.958C374.638 434.266 372.412 433.344 370.772 431.703C369.131 430.063 368.209 427.837 368.209 425.517C368.209 423.196 369.131 420.971 370.772 419.33C372.412 417.69 374.638 416.768 376.958 416.768H402.81C405.13 416.768 407.355 417.69 408.996 419.33C410.637 420.971 411.559 423.196 411.559 425.517C411.559 427.837 410.637 430.063 408.996 431.703C407.355 433.344 405.13 434.266 402.81 434.266V434.266Z" fill="#007D9E"/>
    <path d="M121.895 370.766C146.747 370.766 166.895 350.619 166.895 325.766C166.895 300.913 146.747 280.766 121.895 280.766C97.0417 280.766 76.8945 300.913 76.8945 325.766C76.8945 350.619 97.0417 370.766 121.895 370.766Z" fill="#007D9E"/>
    <path d="M648.485 598.943H1.19115C0.875955 598.942 0.573992 598.816 0.35144 598.593C0.128889 598.37 0.00390625 598.067 0.00390625 597.752C0.00390625 597.437 0.128889 597.134 0.35144 596.911C0.573992 596.688 0.875955 596.562 1.19115 596.561H648.485C648.8 596.562 649.102 596.688 649.325 596.911C649.547 597.134 649.672 597.437 649.672 597.752C649.672 598.067 649.547 598.37 649.325 598.593C649.102 598.816 648.8 598.942 648.485 598.943V598.943Z" fill="#CACACA"/>
    <path d="M243.801 198.099C244.738 198.099 245.498 197.339 245.498 196.403C245.498 195.466 244.738 194.707 243.801 194.707C242.865 194.707 242.105 195.466 242.105 196.403C242.105 197.339 242.865 198.099 243.801 198.099Z" fill="white"/>
  </g>
  <defs>
    <clipPath id="clip0_2051:7652">
      <rect width="728.252" height="598.943" fill="white"/>
    </clipPath>
  </defs>
</svg>
