<svg width="46" height="43" viewBox="0 0 46 43" fill="none"
  xmlns="http://www.w3.org/2000/svg">
  <path d="M43.5685 1.37401C43.564 1.36975 43.5623 1.36385 43.5579 1.35959C42.7481 0.609216 41.7035 0.132675 40.5832 0.0023475C40.4353 0.00339364 40.2908 0.0421381 40.1641 0.114969L37.1236 1.96879C34.6922 0.935863 32.25 0.994922 30.5885 2.1335C30.4928 2.16239 30.4039 2.20996 30.3283 2.27327L0.262827 27.4104C0.106598 27.541 0.0141869 27.7275 0.00689505 27.9252C-5.36822e-05 28.1232 0.0791535 28.3153 0.225658 28.4552L15.2158 42.7718C15.3564 42.9062 15.5469 42.9815 15.746 42.9814L15.7707 42.9814C15.978 42.9744 16.1734 42.8858 16.3107 42.7369L42.6288 14.0205C42.6944 13.9477 42.7439 13.8631 42.7745 13.7713C43.9679 12.1802 44.029 9.84642 42.9464 7.53015L44.8876 4.62546C44.9673 4.5061 45.0082 4.36709 45.0055 4.2258C44.8676 3.15584 44.3679 2.15848 43.5819 1.38548C43.5819 1.37958 43.5737 1.37827 43.5685 1.37401ZM40.7549 1.45322C41.1712 1.54156 41.5645 1.70858 41.9118 1.9448L40.0222 3.74928C39.5878 3.38263 39.1246 3.04747 38.6369 2.74739L40.7549 1.45322ZM36.8642 3.42149C38.8374 4.37069 40.4383 5.90193 41.4295 7.78781C42.275 9.17972 42.4448 10.8545 41.8947 12.3768L32.0528 2.97441C33.6491 2.44856 35.405 2.61172 36.8642 3.42149V3.42149ZM17.9538 38.7738L4.41155 25.844L15.8661 16.2693C15.5282 17.4778 15.5781 18.7546 16.0091 19.9353C16.8329 22.3339 18.9905 24.6104 20.9912 26.5214C23.3538 28.7778 23.8049 30.9603 23.7335 32.4644L17.9538 38.7738ZM12.6842 38.3279L14.0237 37.0495L15.2112 38.1836L13.8727 39.463L12.6842 38.3279ZM8.9365 34.7487L10.2764 33.4696L12.9625 36.036L11.6244 37.3157L8.9365 34.7487ZM5.1888 31.1695L6.52866 29.8907L9.21584 32.4568L7.87665 33.7365L5.1888 31.1695ZM25.1343 30.8883C24.7377 28.8241 23.6573 26.937 22.0519 25.5047C20.1782 23.7153 18.1612 21.5977 17.4341 19.4849C16.7848 17.5966 17.2262 15.8884 18.8017 14.1582C18.5567 17.3159 21.5104 20.1391 24.5901 23.0804C27.6002 25.9587 26.0751 29.374 25.1343 30.8883V30.8883ZM3.28018 26.7896L5.46814 28.8779L4.1293 30.1573L1.95541 28.0814C1.93242 28.0559 1.90737 28.0319 1.88061 28.01L1.85282 27.9834L3.28018 26.7896ZM15.71 41.2174L14.9325 40.4752L16.2724 39.1971L16.9614 39.8541L15.71 41.2174ZM27.7688 28.0597C28.1497 25.8493 27.3568 23.6034 25.6525 22.066C21.0056 17.6279 18.5323 14.9405 21.7465 11.3504L30.7866 3.79188L41.0378 13.5816L27.7688 28.0597ZM42.1342 6.08446C41.8196 5.61909 41.469 5.177 41.0851 4.76148L42.9737 2.95765C43.2207 3.2893 43.3959 3.66459 43.4891 4.06154L42.1342 6.08446Z" fill="white"/>
  <path d="M30.0012 21.5865C30.3124 21.847 30.7861 21.817 31.0591 21.5195L36.5181 15.5623C36.7132 15.3731 36.783 15.0963 36.699 14.8433C36.615 14.5899 36.3909 14.4022 36.1174 14.3554C35.8439 14.3083 35.5654 14.4097 35.3937 14.619L29.934 20.5759C29.6607 20.873 29.6907 21.3254 30.0012 21.5865V21.5865Z" fill="white"/>
  <path d="M19.0125 32.4908L17.6471 33.9797C17.3741 34.2775 17.4055 34.7302 17.717 34.9906C18.0289 35.2511 18.503 35.2208 18.776 34.923L20.1403 33.4334C20.4078 33.1353 20.374 32.6872 20.0649 32.429C19.7557 32.1708 19.2865 32.1982 19.0125 32.4908V32.4908Z" fill="white"/>
</svg>
