<svg width="14" height="14" viewBox="0 0 14 14" fill="none"
  xmlns="http://www.w3.org/2000/svg">
  <path d="M12.1008 3.34385C12.0682 3.24355 12.0046 3.15613 11.9193 3.09411C11.834 3.03209 11.7313 2.99863 11.6258 2.99854H10.4883V1.24854C10.4883 0.971973 10.2648 0.748535 9.98828 0.748535H3.98828C3.71172 0.748535 3.48828 0.971973 3.48828 1.24854V2.99854H2.35078C2.24525 2.99839 2.14239 3.03175 2.05703 3.09381C1.97167 3.15587 1.9082 3.24342 1.87578 3.34385L0.738281 6.84229V12.7485C0.738281 13.0251 0.961719 13.2485 1.23828 13.2485H12.7383C13.0148 13.2485 13.2383 13.0251 13.2383 12.7485V6.84229L12.1008 3.34385ZM4.61328 1.87354H9.36328V2.99854H4.61328V1.87354ZM12.1133 12.1235H1.86328V7.02041L2.80547 4.12354H11.1711L12.1133 7.02041V12.1235ZM9.17578 7.93604H7.48828V6.24854C7.48828 6.17979 7.43203 6.12354 7.36328 6.12354H6.61328C6.54453 6.12354 6.48828 6.17979 6.48828 6.24854V7.93604H4.80078C4.73203 7.93604 4.67578 7.99229 4.67578 8.06104V8.81104C4.67578 8.87979 4.73203 8.93604 4.80078 8.93604H6.48828V10.6235C6.48828 10.6923 6.54453 10.7485 6.61328 10.7485H7.36328C7.43203 10.7485 7.48828 10.6923 7.48828 10.6235V8.93604H9.17578C9.24453 8.93604 9.30078 8.87979 9.30078 8.81104V8.06104C9.30078 7.99229 9.24453 7.93604 9.17578 7.93604Z" fill="currentColor"/>
</svg>
