<svg fill="none" xmlns="http://www.w3.org/2000/svg" viewBox="0 0 584 382">
  <g clip-path="url(#clip0_2551_47039)">
    <circle cx="291.5" cy="191.5" r="187.5" fill="#FFFAEB"/>
    <circle cx="291.5" cy="191.5" r="187.5" stroke="#FFF4D3" stroke-width="7" stroke-linecap="round" stroke-linejoin="round" stroke-dasharray="16 32 48 64"/>
    <rect x="118" y="91" width="347" height="201" rx="2" fill="#fff"/>
    <path d="M253.797 276.488h-2.387V279h-.75v-5.688h3.524v.618h-2.774v1.945h2.387v.613zm1.957 2.512h-.723v-4.227h.723V279zm-.781-5.348c0-.117.035-.216.105-.297.073-.08.18-.121.32-.121.141 0 .248.041.321.121.073.081.109.18.109.297a.41.41 0 01-.109.293c-.073.078-.18.117-.321.117-.14 0-.247-.039-.32-.117a.421.421 0 01-.105-.293zm2.625 1.121l.023.532a1.54 1.54 0 011.266-.61c.893 0 1.343.504 1.351 1.512V279h-.722v-2.797c-.003-.305-.073-.53-.211-.676-.136-.145-.348-.218-.637-.218-.234 0-.44.062-.617.187a1.274 1.274 0 00-.414.492V279h-.723v-4.227h.684zm6.34 4.227c-.042-.083-.076-.232-.102-.445a1.612 1.612 0 01-1.203.523c-.417 0-.759-.117-1.028-.351a1.155 1.155 0 01-.398-.899c0-.44.167-.781.5-1.023.336-.245.807-.367 1.414-.367h.703v-.333c0-.252-.075-.453-.226-.601-.151-.151-.374-.227-.668-.227-.258 0-.474.065-.649.196-.174.13-.261.287-.261.472h-.727a.99.99 0 01.223-.609c.151-.198.354-.354.609-.469.258-.114.54-.172.848-.172.487 0 .868.123 1.144.367.276.243.419.577.43 1.004v1.946c0 .388.049.696.148.926V279h-.757zm-1.2-.551c.227 0 .442-.058.645-.176.203-.117.35-.269.441-.457v-.867h-.566c-.886 0-1.328.259-1.328.778 0 .226.075.403.226.531a.874.874 0 00.582.191zm3.727.551h-.723v-6h.723v6zm1.945 0h-.722v-4.227h.722V279zm-.781-5.348c0-.117.035-.216.105-.297.073-.08.18-.121.321-.121.14 0 .247.041.32.121.073.081.109.18.109.297a.41.41 0 01-.109.293c-.073.078-.18.117-.32.117-.141 0-.248-.039-.321-.117a.421.421 0 01-.105-.293zm2.621 4.758h2.473v.59h-3.356v-.531l2.332-3.098h-2.297v-.598h3.203v.512l-2.355 3.125zm5.898.59c-.041-.083-.075-.232-.101-.445a1.612 1.612 0 01-1.203.523c-.417 0-.759-.117-1.028-.351a1.155 1.155 0 01-.398-.899c0-.44.167-.781.5-1.023.336-.245.807-.367 1.414-.367h.703v-.333c0-.252-.075-.453-.226-.601-.151-.151-.374-.227-.668-.227-.258 0-.474.065-.649.196-.174.13-.262.287-.262.472h-.726a.99.99 0 01.223-.609c.151-.198.354-.354.609-.469.258-.114.54-.172.848-.172.487 0 .868.123 1.144.367.276.243.419.577.43 1.004v1.946c0 .388.049.696.148.926V279h-.758zm-1.199-.551c.227 0 .442-.058.645-.176.203-.117.35-.269.441-.457v-.867h-.566c-.886 0-1.328.259-1.328.778 0 .226.075.403.226.531a.874.874 0 00.582.191zm2.766-1.597c0-.649.153-1.17.461-1.563a1.455 1.455 0 011.207-.594c.495 0 .887.17 1.176.508V273h.722v6h-.664l-.035-.453c-.289.354-.691.531-1.207.531-.49 0-.889-.2-1.199-.601-.308-.401-.461-.925-.461-1.571v-.054zm.723.082c0 .479.098.854.296 1.125.198.27.472.406.821.406.458 0 .793-.206 1.004-.617v-1.942c-.217-.398-.549-.597-.997-.597-.354 0-.63.136-.828.41-.198.273-.296.678-.296 1.215zm6.578 2.066c-.042-.083-.076-.232-.102-.445a1.612 1.612 0 01-1.203.523c-.417 0-.759-.117-1.027-.351a1.153 1.153 0 01-.399-.899c0-.44.167-.781.5-1.023.336-.245.807-.367 1.414-.367h.703v-.333c0-.252-.075-.453-.226-.601-.151-.151-.374-.227-.668-.227-.258 0-.474.065-.649.196-.174.13-.261.287-.261.472h-.727a.99.99 0 01.223-.609c.151-.198.354-.354.609-.469.258-.114.54-.172.848-.172.487 0 .868.123 1.144.367.276.243.42.577.43 1.004v1.946c0 .388.049.696.148.926V279h-.757zm-1.2-.551c.227 0 .442-.058.645-.176.203-.117.35-.269.441-.457v-.867h-.566c-.885 0-1.328.259-1.328.778 0 .226.075.403.226.531a.874.874 0 00.582.191zm5.403-.57a.525.525 0 00-.223-.453c-.146-.11-.402-.203-.769-.281a3.702 3.702 0 01-.872-.282 1.256 1.256 0 01-.476-.39.94.94 0 01-.152-.539c0-.347.145-.64.437-.879.294-.24.669-.36 1.125-.36.479 0 .867.124 1.164.371.3.248.449.564.449.95h-.726a.652.652 0 00-.254-.512.94.94 0 00-.633-.215c-.263 0-.469.057-.617.172a.54.54 0 00-.223.449.44.44 0 00.207.395c.138.088.387.173.746.254.362.08.655.177.879.289.224.112.39.247.496.406.11.156.164.348.164.574 0 .378-.151.681-.453.91-.302.227-.694.34-1.176.34-.338 0-.638-.06-.898-.18a1.47 1.47 0 01-.613-.5 1.224 1.224 0 01-.219-.699h.723a.755.755 0 00.289.578c.182.141.422.211.718.211.274 0 .493-.054.657-.164a.515.515 0 00.25-.445z" fill="#333"/>
    <path fill="#FFEDB8" d="M238 273h8v6h-8z"/>
    <path d="M317.797 276.488h-2.387V279h-.75v-5.688h3.524v.618h-2.774v1.945h2.387v.613zm3.648 2.512c-.041-.083-.075-.232-.101-.445a1.612 1.612 0 01-1.203.523c-.417 0-.759-.117-1.028-.351a1.155 1.155 0 01-.398-.899c0-.44.167-.781.5-1.023.336-.245.807-.367 1.414-.367h.703v-.333c0-.252-.075-.453-.227-.601-.151-.151-.373-.227-.667-.227-.258 0-.474.065-.649.196-.174.13-.262.287-.262.472h-.726c0-.211.074-.414.222-.609a1.55 1.55 0 01.61-.469c.258-.114.54-.172.847-.172.487 0 .869.123 1.145.367.276.243.419.577.43 1.004v1.946c0 .388.049.696.148.926V279h-.758zm-1.199-.551c.227 0 .442-.058.645-.176.203-.117.35-.269.441-.457v-.867h-.566c-.886 0-1.328.259-1.328.778 0 .226.075.403.226.531a.874.874 0 00.582.191zm3.727.551h-.723v-6h.723v6zm1.945 0h-.723v-6h.723v6zm3.77 0c-.042-.083-.076-.232-.102-.445a1.612 1.612 0 01-1.203.523c-.417 0-.759-.117-1.028-.351a1.155 1.155 0 01-.398-.899c0-.44.167-.781.5-1.023.336-.245.807-.367 1.414-.367h.703v-.333c0-.252-.075-.453-.226-.601-.151-.151-.374-.227-.668-.227-.258 0-.474.065-.649.196-.174.13-.261.287-.261.472h-.727a.99.99 0 01.223-.609c.151-.198.354-.354.609-.469.258-.114.54-.172.848-.172.487 0 .868.123 1.144.367.276.243.419.577.43 1.004v1.946c0 .388.049.696.148.926V279h-.757zm-1.2-.551c.227 0 .442-.058.645-.176.203-.117.35-.269.441-.457v-.867h-.566c-.886 0-1.328.259-1.328.778 0 .226.075.403.226.531a.874.874 0 00.582.191zm2.766-1.597c0-.649.154-1.17.461-1.563a1.455 1.455 0 011.207-.594c.495 0 .887.17 1.176.508V273h.722v6h-.664l-.035-.453c-.289.354-.691.531-1.207.531-.49 0-.889-.2-1.199-.601-.307-.401-.461-.925-.461-1.571v-.054zm.723.082c0 .479.099.854.296 1.125.198.27.472.406.821.406.458 0 .793-.206 1.004-.617v-1.942c-.216-.398-.549-.597-.996-.597-.355 0-.631.136-.829.41-.197.273-.296.678-.296 1.215zm6.578 2.066c-.042-.083-.076-.232-.102-.445a1.612 1.612 0 01-1.203.523c-.417 0-.759-.117-1.027-.351a1.153 1.153 0 01-.399-.899c0-.44.167-.781.5-1.023.336-.245.808-.367 1.414-.367h.703v-.333c0-.252-.075-.453-.226-.601-.151-.151-.374-.227-.668-.227-.258 0-.474.065-.649.196-.174.13-.261.287-.261.472h-.727a.99.99 0 01.223-.609c.151-.198.354-.354.609-.469.258-.114.541-.172.848-.172.487 0 .868.123 1.144.367.276.243.42.577.43 1.004v1.946c0 .388.05.696.148.926V279h-.757zm-1.2-.551c.227 0 .442-.058.645-.176.203-.117.35-.269.441-.457v-.867h-.566c-.885 0-1.328.259-1.328.778 0 .226.075.403.226.531a.874.874 0 00.582.191zm5.403-.57a.525.525 0 00-.223-.453c-.146-.11-.402-.203-.769-.281-.365-.079-.655-.172-.871-.282a1.252 1.252 0 01-.477-.39.94.94 0 01-.152-.539c0-.347.145-.64.437-.879.294-.24.669-.36 1.125-.36.479 0 .867.124 1.164.371.3.248.449.564.449.95h-.726a.652.652 0 00-.254-.512.94.94 0 00-.633-.215c-.263 0-.469.057-.617.172a.54.54 0 00-.223.449.44.44 0 00.207.395c.138.088.387.173.746.254.362.08.655.177.879.289.224.112.39.247.496.406.11.156.164.348.164.574 0 .378-.151.681-.453.91-.302.227-.694.34-1.175.34-.339 0-.638-.06-.899-.18a1.47 1.47 0 01-.613-.5 1.224 1.224 0 01-.219-.699h.723a.755.755 0 00.289.578c.182.141.422.211.719.211.273 0 .492-.054.656-.164a.515.515 0 00.25-.445z" fill="#333"/>
    <path fill="#F99191" d="M302 273h8v6h-8zM183 139h21v4h-21z"/>
    <rect x="365.25" y="99.25" width="82.5" height="12.5" rx=".75" fill="#fff" stroke="#E0E0E0" stroke-width=".5"/>
    <path d="M372.801 106.516h-2.383l-.535 1.484h-.774l2.172-5.688h.657l2.175 5.688h-.769l-.543-1.484zm-2.156-.618h1.933l-.969-2.66-.964 2.66zm4.804-2.125l.024.532c.323-.407.744-.61 1.265-.61.894 0 1.344.504 1.352 1.512V108h-.723v-2.797c-.002-.305-.073-.53-.211-.676-.135-.145-.347-.218-.636-.218-.235 0-.441.062-.618.187a1.274 1.274 0 00-.414.492V108h-.722v-4.227h.683zm2.391-1.648c0 .281-.081.509-.242.684a.776.776 0 01-.598.261.877.877 0 01-.277-.039 1.531 1.531 0 01-.309-.16 1.139 1.139 0 00-.273-.144.589.589 0 00-.192-.028.355.355 0 00-.273.125.438.438 0 00-.114.313l-.484-.028c0-.278.078-.509.234-.691a.766.766 0 01.602-.273.73.73 0 01.246.039c.073.026.172.076.297.152.125.075.22.125.285.148a.664.664 0 00.223.036.345.345 0 00.277-.133.46.46 0 00.113-.309l.485.047zm1.148 3.723c0-.414.081-.787.242-1.118a1.85 1.85 0 01.68-.765c.292-.18.624-.27.996-.27.576 0 1.041.2 1.395.598.357.398.535.928.535 1.59v.051c0 .411-.079.781-.238 1.109a1.795 1.795 0 01-1.684 1.035c-.573 0-1.038-.199-1.394-.598-.355-.398-.532-.925-.532-1.582v-.05zm.727.086c0 .468.108.845.324 1.128.219.284.51.426.875.426.367 0 .659-.143.875-.429.216-.289.324-.693.324-1.211 0-.464-.11-.839-.332-1.125a1.043 1.043 0 00-.875-.434c-.357 0-.644.142-.863.426-.219.284-.328.69-.328 1.219zm8.621 2.066c-.042-.083-.076-.232-.102-.445a1.612 1.612 0 01-1.203.523c-.416 0-.759-.117-1.027-.351a1.153 1.153 0 01-.399-.899c0-.44.167-.781.5-1.023.336-.245.808-.367 1.415-.367h.703v-.333c0-.252-.076-.453-.227-.601-.151-.151-.374-.227-.668-.227-.258 0-.474.065-.648.196-.175.13-.262.287-.262.472h-.727c0-.211.075-.414.223-.609.151-.198.354-.354.609-.469.258-.114.541-.172.848-.172.487 0 .869.123 1.145.367.276.243.419.577.429 1.004v1.946c0 .388.05.696.149.926V108h-.758zm-1.199-.551c.226 0 .441-.058.644-.176a1.06 1.06 0 00.442-.457v-.867h-.567c-.885 0-1.328.259-1.328.778 0 .226.076.403.227.531a.874.874 0 00.582.191zm4.636.039c.258 0 .484-.078.676-.234a.825.825 0 00.321-.586h.683a1.304 1.304 0 01-.25.691 1.64 1.64 0 01-.617.524c-.255.13-.526.195-.813.195-.575 0-1.033-.191-1.375-.574-.338-.386-.507-.912-.507-1.578v-.121c0-.412.075-.778.226-1.098.151-.32.367-.569.649-.746a1.855 1.855 0 011.004-.266c.473 0 .867.142 1.179.426.315.284.483.652.504 1.106h-.683a.982.982 0 00-.313-.672.956.956 0 00-.687-.266c-.368 0-.653.133-.856.399-.2.263-.301.644-.301 1.144v.137c0 .487.101.862.301 1.125.201.263.487.394.859.394zm3.473-4.738v1.023h.789v.559h-.789v2.621c0 .169.035.297.106.383.07.083.19.125.359.125.083 0 .198-.016.344-.047V108c-.19.052-.375.078-.555.078-.323 0-.566-.098-.73-.293-.165-.195-.247-.473-.247-.832v-2.621h-.769v-.559h.769v-1.023h.723zm4.246 4.832c-.281.331-.694.496-1.238.496-.451 0-.794-.13-1.031-.39-.235-.264-.353-.652-.356-1.165v-2.75h.723v2.731c0 .641.26.961.781.961.552 0 .919-.206 1.102-.617v-3.075h.722V108h-.687l-.016-.418zm4.414.418c-.041-.083-.075-.232-.101-.445a1.612 1.612 0 01-1.203.523c-.417 0-.76-.117-1.028-.351a1.155 1.155 0 01-.398-.899c0-.44.166-.781.5-1.023.336-.245.807-.367 1.414-.367h.703v-.333c0-.252-.076-.453-.227-.601-.151-.151-.373-.227-.668-.227-.257 0-.474.065-.648.196-.174.13-.262.287-.262.472h-.726c0-.211.074-.414.222-.609a1.55 1.55 0 01.61-.469c.258-.114.54-.172.847-.172.487 0 .869.123 1.145.367.276.243.419.577.43 1.004v1.946c0 .388.049.696.148.926V108h-.758zm-1.199-.551c.227 0 .441-.058.645-.176.203-.117.35-.269.441-.457v-.867h-.566c-.886 0-1.329.259-1.329.778 0 .226.076.403.227.531a.874.874 0 00.582.191zm3.727.551h-.723v-6h.723v6z" fill="#333"/>
    <path d="M409.551 105.707a7.496 7.496 0 01.476-1.758c.235-.57.521-1.056.86-1.457a3.515 3.515 0 011.133-.914l.105.484c-.409.305-.76.704-1.055 1.196-.291.489-.517 1.073-.675 1.75a8.396 8.396 0 00-.231 1.996c0 .539.069 1.013.207 1.422.141.411.343.735.606.972l-.176.438c-.435-.302-.768-.749-1-1.34-.229-.591-.334-1.268-.313-2.031.005-.25.024-.488.055-.715l.008-.043zm5.887 2.293h-3.622l.086-.551L414 105.41l.383-.379c.44-.44.683-.846.73-1.219.034-.286-.022-.519-.168-.699-.146-.182-.351-.278-.617-.289-.341-.01-.626.09-.855.301-.23.208-.369.495-.418.859l-.7.004a1.98 1.98 0 01.321-.926c.182-.27.42-.477.715-.621.297-.145.618-.214.964-.207.472.011.846.154 1.122.43.278.274.398.629.359 1.066-.044.5-.332 1.027-.863 1.579l-.36.363-1.828 1.738h2.746l-.093.59zm2.531.078c-.479-.01-.839-.18-1.078-.508-.24-.33-.349-.806-.329-1.425a6.31 6.31 0 01.043-.571l.141-.949c.125-.81.363-1.414.715-1.813.351-.398.815-.591 1.391-.578.484.011.845.177 1.082.5.239.321.35.787.332 1.399a7.088 7.088 0 01-.047.574l-.137.918c-.138.857-.381 1.483-.73 1.879-.349.396-.81.587-1.383.574zm1.566-3.5c.037-.315.054-.56.051-.734-.013-.662-.27-1.002-.77-1.02a1.03 1.03 0 00-.886.406c-.224.282-.381.724-.469 1.329l-.168 1.132a5.981 5.981 0 00-.051.739c.013.69.268 1.044.766 1.062a.997.997 0 00.855-.383c.227-.27.388-.7.485-1.289l.187-1.242zm4.699 3.422h-3.621l.086-.551 2.098-2.039.383-.379c.44-.44.683-.846.73-1.219.034-.286-.022-.519-.168-.699-.146-.182-.351-.278-.617-.289-.341-.01-.626.09-.855.301-.23.208-.369.495-.418.859l-.7.004a1.98 1.98 0 01.321-.926c.182-.27.42-.477.715-.621.296-.145.618-.214.964-.207.472.011.845.154 1.121.43.279.274.399.629.36 1.066-.044.5-.332 1.027-.863 1.579l-.36.363-1.828 1.738h2.746l-.094.59zm4.399 0h-3.621l.086-.551 2.097-2.039.383-.379c.44-.44.684-.846.731-1.219.033-.286-.023-.519-.168-.699-.146-.182-.352-.278-.618-.289-.341-.01-.626.09-.855.301-.229.208-.369.495-.418.859l-.699.004a1.98 1.98 0 01.32-.926c.182-.27.421-.477.715-.621a2.07 2.07 0 01.965-.207c.471.011.845.154 1.121.43.279.274.398.629.359 1.066-.044.5-.332 1.027-.863 1.579l-.359.363-1.829 1.738h2.747l-.094.59zm2.824-2.285a7.265 7.265 0 01-.496 1.805 5.37 5.37 0 01-.863 1.429 3.544 3.544 0 01-1.11.891l-.109-.449c.893-.672 1.489-1.752 1.789-3.239.12-.599.177-1.175.172-1.73-.013-1.117-.284-1.918-.813-2.402l.184-.438c.292.203.538.474.738.813.203.335.352.727.446 1.175.096.446.139.908.128 1.387a6.53 6.53 0 01-.058.715l-.008.043z" fill="#828282"/>
    <path d="M443.491 104.286h-.502a.108.108 0 00-.087.044L441 106.952l-1.903-2.622a.108.108 0 00-.086-.044h-.502a.054.054 0 00-.044.085l2.361 3.255a.214.214 0 00.347 0l2.361-3.255a.053.053 0 00-.043-.085z" fill="#BDBDBD"/>
    <path stroke="#4F4F4F" stroke-width=".5" d="M158.25 120v132m-3.25-.25h293m-278.75.25v3m24.5-3v3m24.5-3v3m23-3v3m26-3v3m23-3v3m24-3v3m24-3v3m24-3v3m25-3v3m23-3v3"/>
    <path d="M164.852 262.078c-.573 0-1.04-.187-1.399-.562-.359-.378-.539-.882-.539-1.512v-.133c0-.419.079-.793.238-1.121.162-.331.386-.589.672-.773.289-.188.602-.282.938-.282.549 0 .976.181 1.281.543.305.362.457.88.457 1.555v.301h-2.863c.01.416.131.754.363 1.011.234.256.531.383.891.383.255 0 .471-.052.648-.156.177-.104.332-.242.465-.414l.441.344c-.354.544-.885.816-1.593.816zm-.09-3.789a.964.964 0 00-.735.32c-.198.211-.32.508-.367.891h2.117v-.055c-.02-.367-.119-.651-.297-.851-.177-.203-.416-.305-.718-.305zm3.261-.516l.024.532c.323-.407.745-.61 1.265-.61.894 0 1.344.504 1.352 1.512V262h-.723v-2.797c-.002-.305-.073-.53-.211-.676-.135-.145-.347-.218-.636-.218-.235 0-.44.062-.617.187a1.268 1.268 0 00-.415.492V262h-.722v-4.227h.683zm5.485 4.305c-.573 0-1.039-.187-1.399-.562-.359-.378-.539-.882-.539-1.512v-.133c0-.419.08-.793.239-1.121.161-.331.385-.589.671-.773a1.69 1.69 0 01.938-.282c.549 0 .977.181 1.281.543.305.362.457.88.457 1.555v.301h-2.863c.01.416.131.754.363 1.011.235.256.532.383.891.383.255 0 .471-.052.648-.156.177-.104.332-.242.465-.414l.442.344c-.355.544-.886.816-1.594.816zm-.09-3.789a.962.962 0 00-.734.32c-.198.211-.321.508-.368.891h2.118v-.055c-.021-.367-.12-.651-.297-.851-.177-.203-.417-.305-.719-.305zM189.191 262v-3.668h-.668v-.559h.668v-.433c0-.453.121-.804.364-1.051.242-.247.584-.371 1.027-.371.167 0 .332.022.496.066l-.039.586a2.114 2.114 0 00-.391-.035c-.234 0-.415.069-.543.207-.127.136-.191.331-.191.586v.445h.902v.559h-.902V262h-.723zm4.086.078c-.573 0-1.039-.187-1.398-.562-.359-.378-.539-.882-.539-1.512v-.133c0-.419.079-.793.238-1.121.162-.331.386-.589.672-.773.289-.188.602-.282.938-.282.549 0 .976.181 1.281.543.304.362.457.88.457 1.555v.301h-2.864c.011.416.132.754.364 1.011.234.256.531.383.89.383.256 0 .472-.052.649-.156.177-.104.332-.242.465-.414l.441.344c-.354.544-.885.816-1.594.816zm-.089-3.789a.964.964 0 00-.735.32c-.198.211-.32.508-.367.891h2.117v-.055c-.021-.367-.12-.651-.297-.851-.177-.203-.416-.305-.718-.305zm6.156 1.645c0 .645-.149 1.165-.446 1.558-.296.391-.695.586-1.195.586-.534 0-.946-.189-1.238-.566l-.035.488h-.664v-6h.722v2.238c.292-.362.694-.543 1.207-.543.513 0 .916.194 1.207.582.295.388.442.92.442 1.594v.063zm-.723-.082c0-.493-.095-.873-.285-1.141-.19-.268-.464-.402-.82-.402-.477 0-.819.221-1.028.664v1.828c.222.442.567.664 1.035.664.347 0 .616-.134.809-.403.193-.268.289-.671.289-1.21zm13.567-2.079l.019.469c.31-.364.728-.547 1.254-.547.591 0 .993.227 1.207.68a1.61 1.61 0 01.547-.492 1.63 1.63 0 01.801-.188c.927 0 1.398.491 1.414 1.473V262h-.723v-2.789c0-.302-.069-.527-.207-.676-.138-.151-.37-.226-.695-.226a.95.95 0 00-.668.242.968.968 0 00-.309.644V262h-.726v-2.77c0-.614-.301-.921-.903-.921-.474 0-.798.201-.972.605V262h-.723v-4.227h.684zm8.945 4.227c-.042-.083-.076-.232-.102-.445a1.612 1.612 0 01-1.203.523c-.417 0-.759-.117-1.027-.351a1.153 1.153 0 01-.399-.899c0-.44.167-.781.5-1.023.336-.245.808-.367 1.414-.367h.704v-.333c0-.252-.076-.453-.227-.601-.151-.151-.374-.227-.668-.227-.258 0-.474.065-.648.196-.175.13-.262.287-.262.472h-.727a.99.99 0 01.223-.609c.151-.198.354-.354.609-.469.258-.114.541-.172.848-.172.487 0 .868.123 1.144.367.277.243.42.577.43 1.004v1.946c0 .388.05.696.149.926V262h-.758zm-1.199-.551c.226 0 .441-.058.644-.176.203-.117.35-.269.442-.457v-.867h-.567c-.885 0-1.328.259-1.328.778 0 .226.076.403.227.531a.874.874 0 00.582.191zm4.984-3.027a2.192 2.192 0 00-.356-.027c-.473 0-.795.201-.964.605v3h-.723v-4.227h.703l.012.489c.237-.378.573-.567 1.008-.567.14 0 .247.019.32.055v.672zM238.379 262c-.042-.083-.076-.232-.102-.445a1.612 1.612 0 01-1.203.523c-.416 0-.759-.117-1.027-.351a1.153 1.153 0 01-.399-.899c0-.44.167-.781.5-1.023.336-.245.808-.367 1.414-.367h.704v-.333c0-.252-.076-.453-.227-.601-.151-.151-.374-.227-.668-.227-.258 0-.474.065-.648.196-.175.13-.262.287-.262.472h-.727c0-.211.075-.414.223-.609.151-.198.354-.354.609-.469.258-.114.541-.172.848-.172.487 0 .869.123 1.145.367.276.243.419.577.429 1.004v1.946c0 .388.05.696.149.926V262h-.758zm-1.199-.551c.226 0 .441-.058.644-.176.203-.117.35-.269.442-.457v-.867h-.567c-.885 0-1.328.259-1.328.778 0 .226.076.403.227.531a.874.874 0 00.582.191zm6.519-1.515c0 .645-.148 1.165-.445 1.558-.297.391-.695.586-1.195.586-.534 0-.947-.189-1.239-.566l-.035.488h-.664v-6h.723v2.238c.291-.362.694-.543 1.207-.543.513 0 .915.194 1.207.582.294.388.441.92.441 1.594v.063zm-.722-.082c0-.493-.095-.873-.286-1.141-.19-.268-.463-.402-.82-.402-.476 0-.819.221-1.027.664v1.828c.221.442.566.664 1.035.664.346 0 .616-.134.809-.403.192-.268.289-.671.289-1.21zm3.679-1.43a2.189 2.189 0 00-.355-.027c-.474 0-.796.201-.965.605v3h-.723v-4.227h.703l.012.489c.237-.378.573-.567 1.008-.567.141 0 .247.019.32.055v.672zm14.024-.649l.019.469c.31-.364.728-.547 1.254-.547.591 0 .994.227 1.207.68a1.61 1.61 0 01.547-.492c.227-.125.494-.188.801-.188.927 0 1.398.491 1.414 1.473V262h-.723v-2.789c0-.302-.069-.527-.207-.676-.138-.151-.37-.226-.695-.226a.951.951 0 00-.668.242.968.968 0 00-.309.644V262h-.726v-2.77c0-.614-.301-.921-.903-.921-.474 0-.798.201-.972.605V262h-.723v-4.227h.684zm8.945 4.227c-.042-.083-.076-.232-.102-.445a1.61 1.61 0 01-1.203.523c-.416 0-.759-.117-1.027-.351a1.152 1.152 0 01-.398-.899c0-.44.166-.781.5-1.023.335-.245.807-.367 1.414-.367h.703v-.333c0-.252-.076-.453-.227-.601-.151-.151-.374-.227-.668-.227-.258 0-.474.065-.648.196-.175.13-.262.287-.262.472h-.727c0-.211.075-.414.223-.609.151-.198.354-.354.609-.469.258-.114.541-.172.848-.172.487 0 .869.123 1.145.367.276.243.419.577.429 1.004v1.946c0 .388.05.696.149.926V262h-.758zm-1.199-.551c.226 0 .441-.058.644-.176a1.06 1.06 0 00.442-.457v-.867h-.567c-.885 0-1.328.259-1.328.778 0 .226.076.403.227.531a.874.874 0 00.582.191zm4.262-.508l.984-3.168h.773l-1.699 4.879c-.263.703-.681 1.055-1.254 1.055l-.137-.012-.269-.05v-.586l.195.015c.245 0 .435-.049.571-.148.138-.099.251-.28.339-.543l.161-.43-1.508-4.18h.789l1.055 3.168zm13.234-3.168v4.715c0 .813-.369 1.219-1.106 1.219-.158 0-.306-.023-.441-.07v-.578c.083.02.193.031.328.031.162 0 .284-.044.367-.133.086-.086.129-.237.129-.453v-4.731h.723zm-.797-1.121c0-.114.035-.212.105-.293.073-.083.179-.125.317-.125.141 0 .247.041.32.121.073.081.11.18.11.297a.411.411 0 01-.11.293c-.073.078-.179.117-.32.117-.141 0-.246-.039-.317-.117a.421.421 0 01-.105-.293zm4.574 4.93c-.281.331-.694.496-1.238.496-.451 0-.794-.13-1.031-.39-.235-.264-.353-.652-.356-1.165v-2.75h.723v2.731c0 .641.26.961.781.961.552 0 .919-.206 1.102-.617v-3.075h.722V262h-.687l-.016-.418zm2.489-3.809l.023.532a1.54 1.54 0 011.266-.61c.893 0 1.343.504 1.351 1.512V262h-.723v-2.797c-.002-.305-.072-.53-.21-.676-.136-.145-.348-.218-.637-.218-.235 0-.44.062-.617.187a1.274 1.274 0 00-.414.492V262h-.723v-4.227h.684zm18.968 0v4.715c0 .813-.368 1.219-1.105 1.219-.159 0-.306-.023-.442-.07v-.578c.084.02.193.031.329.031.161 0 .283-.044.367-.133.086-.086.129-.237.129-.453v-4.731h.722zm-.797-1.121c0-.114.036-.212.106-.293.073-.083.178-.125.316-.125.141 0 .248.041.321.121.072.081.109.18.109.297a.415.415 0 01-.109.293c-.073.078-.18.117-.321.117-.14 0-.246-.039-.316-.117a.422.422 0 01-.106-.293zm4.575 4.93c-.282.331-.694.496-1.239.496-.45 0-.794-.13-1.031-.39-.234-.264-.353-.652-.355-1.165v-2.75h.722v2.731c0 .641.261.961.781.961.553 0 .92-.206 1.102-.617v-3.075h.723V262h-.688l-.015-.418zm2.589.418h-.722v-6h.722v6zm16.93 0c-.042-.083-.075-.232-.101-.445a1.612 1.612 0 01-1.204.523c-.416 0-.759-.117-1.027-.351a1.152 1.152 0 01-.398-.899c0-.44.166-.781.5-1.023.336-.245.807-.367 1.414-.367h.703v-.333c0-.252-.076-.453-.227-.601-.151-.151-.373-.227-.668-.227-.257 0-.474.065-.648.196-.175.13-.262.287-.262.472h-.726c0-.211.074-.414.222-.609.151-.198.354-.354.61-.469.257-.114.54-.172.847-.172.487 0 .869.123 1.145.367.276.243.419.577.429 1.004v1.946c0 .388.05.696.149.926V262h-.758zm-1.199-.551c.226 0 .441-.058.644-.176.204-.117.351-.269.442-.457v-.867h-.567c-.885 0-1.328.259-1.328.778 0 .226.076.403.227.531a.874.874 0 00.582.191zm2.769-1.597c0-.659.153-1.183.457-1.571.305-.39.709-.586 1.211-.586.516 0 .918.183 1.207.547l.036-.469h.66v4.125c0 .547-.163.978-.489 1.293-.322.316-.757.473-1.304.473-.305 0-.603-.065-.895-.195a1.548 1.548 0 01-.668-.535l.375-.434c.31.383.689.574 1.137.574.352 0 .625-.099.82-.297.198-.198.297-.476.297-.836v-.363c-.289.333-.683.5-1.183.5a1.45 1.45 0 01-1.204-.598c-.304-.398-.457-.941-.457-1.628zm.727.082c0 .476.098.851.293 1.125.195.27.469.406.82.406.456 0 .791-.207 1.004-.621v-1.93c-.221-.404-.553-.605-.996-.605a.96.96 0 00-.824.41c-.198.273-.297.678-.297 1.215zm3.746-.086c0-.414.081-.787.242-1.118.164-.33.391-.585.68-.765.292-.18.624-.27.996-.27.576 0 1.04.2 1.395.598.356.398.535.928.535 1.59v.051c0 .411-.08.781-.239 1.109a1.786 1.786 0 01-.675.762 1.866 1.866 0 01-1.008.273c-.573 0-1.038-.199-1.395-.598-.354-.398-.531-.925-.531-1.582v-.05zm.727.086c0 .468.108.845.324 1.128.219.284.51.426.875.426.367 0 .659-.143.875-.429.216-.289.324-.693.324-1.211 0-.464-.111-.839-.332-1.125a1.043 1.043 0 00-.875-.434c-.357 0-.644.142-.863.426-.219.284-.328.69-.328 1.219zm16.047.945a.527.527 0 00-.223-.453c-.146-.11-.402-.203-.77-.281-.364-.079-.655-.172-.871-.282a1.256 1.256 0 01-.476-.39.94.94 0 01-.153-.539c0-.347.146-.64.438-.879.294-.24.669-.36 1.125-.36.479 0 .867.124 1.164.371.299.248.449.564.449.95h-.726a.652.652 0 00-.254-.512.94.94 0 00-.633-.215c-.263 0-.469.057-.617.172a.54.54 0 00-.223.449.44.44 0 00.207.395c.138.088.387.173.746.254.362.08.655.177.879.289.224.112.389.247.496.406.11.156.164.348.164.574 0 .378-.151.681-.453.91-.302.227-.694.34-1.176.34-.338 0-.638-.06-.898-.18a1.464 1.464 0 01-.613-.5 1.224 1.224 0 01-.219-.699h.722c.013.242.11.435.29.578.182.141.421.211.718.211.274 0 .492-.054.657-.164a.515.515 0 00.25-.445zm3.418 1.199c-.573 0-1.04-.187-1.399-.562-.359-.378-.539-.882-.539-1.512v-.133c0-.419.079-.793.238-1.121.162-.331.386-.589.672-.773.289-.188.602-.282.938-.282.549 0 .976.181 1.281.543.305.362.457.88.457 1.555v.301h-2.863c.01.416.131.754.363 1.011.234.256.531.383.891.383.255 0 .471-.052.648-.156.177-.104.332-.242.465-.414l.441.344c-.354.544-.885.816-1.593.816zm-.09-3.789a.964.964 0 00-.735.32c-.198.211-.32.508-.367.891h2.117v-.055c-.021-.367-.12-.651-.297-.851-.177-.203-.416-.305-.718-.305zm6.148 1.645c0 .643-.147 1.161-.441 1.554-.295.394-.693.59-1.196.59-.513 0-.916-.163-1.211-.488v2.035h-.722v-5.852h.66l.035.469c.294-.364.703-.547 1.227-.547.507 0 .909.192 1.203.575.297.382.445.915.445 1.597v.067zm-.723-.082c0-.477-.101-.853-.304-1.129a.982.982 0 00-.836-.414c-.438 0-.766.194-.985.582v2.019c.217.386.547.578.993.578a.972.972 0 00.824-.41c.206-.276.308-.685.308-1.226zm2.625-3.102v1.023h.79v.559h-.79v2.621c0 .169.036.297.106.383.07.083.19.125.359.125.084 0 .198-.016.344-.047V262c-.19.052-.375.078-.555.078-.323 0-.566-.098-.73-.293-.164-.195-.246-.473-.246-.832v-2.621h-.77v-.559h.77v-1.023h.722zm13.024 3.098c0-.414.081-.787.242-1.118.164-.33.391-.585.68-.765.291-.18.623-.27.996-.27.575 0 1.04.2 1.394.598.357.398.536.928.536 1.59v.051c0 .411-.08.781-.239 1.109a1.782 1.782 0 01-.676.762 1.86 1.86 0 01-1.007.273c-.573 0-1.038-.199-1.395-.598-.354-.398-.531-.925-.531-1.582v-.05zm.726.086c0 .468.109.845.325 1.128.218.284.51.426.875.426.367 0 .659-.143.875-.429.216-.289.324-.693.324-1.211 0-.464-.111-.839-.332-1.125a1.044 1.044 0 00-.875-.434c-.357 0-.645.142-.863.426-.219.284-.329.69-.329 1.219zm5.723 1.554c.258 0 .483-.078.676-.234a.824.824 0 00.32-.586h.684a1.313 1.313 0 01-.25.691c-.154.219-.36.394-.617.524-.256.13-.526.195-.813.195-.575 0-1.034-.191-1.375-.574-.338-.386-.508-.912-.508-1.578v-.121c0-.412.076-.778.227-1.098.151-.32.367-.569.648-.746a1.86 1.86 0 011.004-.266c.474 0 .867.142 1.18.426.315.284.483.652.504 1.106h-.684a.985.985 0 00-.312-.672.956.956 0 00-.688-.266c-.367 0-.652.133-.855.399-.201.263-.301.644-.301 1.144v.137c0 .487.1.862.301 1.125.2.263.487.394.859.394zm3.473-4.738v1.023h.789v.559h-.789v2.621c0 .169.035.297.105.383.071.083.19.125.36.125.083 0 .198-.016.343-.047V262c-.19.052-.375.078-.554.078-.323 0-.567-.098-.731-.293-.164-.195-.246-.473-.246-.832v-2.621h-.769v-.559h.769v-1.023h.723zm13.242 1.023l.023.532a1.54 1.54 0 011.266-.61c.893 0 1.344.504 1.352 1.512V262h-.723v-2.797c-.003-.305-.073-.53-.211-.676-.135-.145-.348-.218-.637-.218-.234 0-.44.062-.617.187a1.274 1.274 0 00-.414.492V262h-.723v-4.227h.684zm3.539 2.075c0-.414.081-.787.242-1.118.164-.33.391-.585.68-.765.292-.18.624-.27.996-.27.575 0 1.04.2 1.395.598.356.398.535.928.535 1.59v.051c0 .411-.08.781-.239 1.109a1.786 1.786 0 01-.675.762 1.866 1.866 0 01-1.008.273c-.573 0-1.038-.199-1.395-.598-.354-.398-.531-.925-.531-1.582v-.05zm.727.086c0 .468.108.845.324 1.128.219.284.51.426.875.426.367 0 .659-.143.875-.429.216-.289.324-.693.324-1.211 0-.464-.111-.839-.332-1.125a1.043 1.043 0 00-.875-.434c-.357 0-.645.142-.863.426-.219.284-.328.69-.328 1.219zm5.359 1.086l1.047-3.247h.738L414.73 262h-.55l-1.532-4.227h.739l1.074 3.247zM147.863 222h-.726v-4.816l-1.457.535v-.657l2.07-.777h.113V222zm5.684-2.426c0 .847-.145 1.475-.434 1.887-.289.411-.741.617-1.355.617-.607 0-1.056-.2-1.348-.601-.292-.404-.443-1.006-.453-1.805v-.965c0-.836.145-1.457.434-1.863.289-.406.742-.61 1.359-.61.612 0 1.062.197 1.352.59.289.391.437.995.445 1.813v.937zm-.723-.988c0-.612-.086-1.057-.258-1.336-.171-.281-.444-.422-.816-.422-.37 0-.639.139-.809.418-.169.279-.256.707-.261 1.285v1.157c0 .614.088 1.069.265 1.363.18.291.451.437.813.437.357 0 .621-.138.793-.414.174-.276.265-.711.273-1.304v-1.184zm.723 33.988c0 .847-.145 1.475-.434 1.887-.289.411-.741.617-1.355.617-.607 0-1.056-.2-1.348-.601-.292-.404-.443-1.006-.453-1.805v-.965c0-.836.145-1.457.434-1.863.289-.406.742-.61 1.359-.61.612 0 1.062.197 1.352.59.289.391.437.995.445 1.813v.937zm-.723-.988c0-.612-.086-1.057-.258-1.336-.171-.281-.444-.422-.816-.422-.37 0-.639.139-.809.418-.169.279-.256.707-.261 1.285v1.157c0 .614.088 1.069.265 1.363.18.291.451.437.813.437.357 0 .621-.138.793-.414.174-.276.265-.711.273-1.304v-1.184zM149.215 189h-3.727v-.52l1.969-2.187c.292-.331.492-.599.602-.805.112-.208.168-.423.168-.644 0-.297-.09-.541-.27-.731-.18-.19-.419-.285-.719-.285-.359 0-.639.103-.84.309-.197.203-.296.487-.296.851h-.723c0-.523.168-.946.504-1.269.338-.323.79-.485 1.355-.485.529 0 .947.14 1.254.418.307.276.461.645.461 1.106 0 .56-.357 1.226-1.07 2l-1.524 1.652h2.856v.59zm1.097-2.852l.29-2.836h2.914v.668h-2.301l-.172 1.551c.279-.164.595-.246.949-.246.518 0 .93.172 1.235.516.304.341.457.803.457 1.387 0 .585-.159 1.048-.477 1.386-.315.336-.756.504-1.324.504-.503 0-.913-.139-1.231-.418-.317-.278-.498-.664-.543-1.156h.684c.044.325.16.572.348.738.187.164.435.246.742.246.336 0 .599-.114.789-.343.193-.23.289-.546.289-.95 0-.38-.104-.685-.313-.914-.205-.232-.48-.347-.824-.347-.315 0-.562.069-.742.207l-.191.156-.579-.149zm-4.492-33l.289-2.836h2.914v.668h-2.3l-.172 1.551c.278-.164.595-.246.949-.246.518 0 .93.172 1.234.516.305.341.457.803.457 1.387 0 .585-.158 1.048-.476 1.386-.315.336-.757.504-1.324.504-.503 0-.913-.139-1.231-.418-.318-.278-.499-.664-.543-1.156h.684c.044.325.16.572.347.738.188.164.435.246.743.246.336 0 .599-.114.789-.343.192-.23.289-.546.289-.95 0-.38-.104-.685-.313-.914-.205-.232-.48-.347-.824-.347-.315 0-.562.069-.742.207l-.192.156-.578-.149zm7.727.426c0 .847-.145 1.475-.434 1.887-.289.411-.741.617-1.355.617-.607 0-1.056-.2-1.348-.601-.292-.404-.443-1.006-.453-1.805v-.965c0-.836.145-1.457.434-1.863.289-.406.742-.61 1.359-.61.612 0 1.062.197 1.352.59.289.391.437.995.445 1.813v.937zm-.723-.988c0-.612-.086-1.057-.258-1.336-.171-.281-.444-.422-.816-.422-.37 0-.639.139-.809.418-.169.279-.256.707-.261 1.285v1.157c0 .614.088 1.069.265 1.363.18.291.451.437.813.437.357 0 .621-.138.793-.414.174-.276.265-.711.273-1.304v-1.184zM143.371 127h-.726v-4.816l-1.457.535v-.657l2.07-.777h.113V127zm5.684-2.426c0 .847-.145 1.475-.434 1.887-.289.411-.741.617-1.355.617-.607 0-1.056-.2-1.348-.601-.292-.404-.443-1.006-.453-1.805v-.965c0-.836.144-1.457.433-1.863.29-.406.743-.61 1.36-.61.612 0 1.062.197 1.351.59.289.391.438.995.446 1.813v.937zm-.723-.988c0-.612-.086-1.057-.258-1.336-.172-.281-.444-.422-.816-.422-.37 0-.64.139-.809.418-.169.279-.256.707-.261 1.285v1.157c0 .614.088 1.069.265 1.363.18.291.451.437.813.437.356 0 .621-.138.793-.414.174-.276.265-.711.273-1.304v-1.184zm5.215.988c0 .847-.145 1.475-.434 1.887-.289.411-.741.617-1.355.617-.607 0-1.056-.2-1.348-.601-.292-.404-.443-1.006-.453-1.805v-.965c0-.836.145-1.457.434-1.863.289-.406.742-.61 1.359-.61.612 0 1.062.197 1.352.59.289.391.437.995.445 1.813v.937zm-.723-.988c0-.612-.086-1.057-.258-1.336-.171-.281-.444-.422-.816-.422-.37 0-.639.139-.809.418-.169.279-.256.707-.261 1.285v1.157c0 .614.088 1.069.265 1.363.18.291.451.437.813.437.357 0 .621-.138.793-.414.174-.276.265-.711.273-1.304v-1.184z" fill="#828282"/>
    <path stroke="#BDBDBD" stroke-width=".5" stroke-dasharray="2 0" d="M155 218.75h293m-293-33h293m-293-33h293m-293-33h293"/>
    <path fill="#FFEDB8" d="M160 176h18v75h-18zm72-37h18v112h-18zm-49 4h21v108h-21zm26 6h18v102h-18zm49-16h18v118h-18zm23 3h18v115h-18zm72 36h18v79h-18zm-49-45h20v124h-20zm25 62h18v62h-18zm49-33h18v95h-18zm23-17h18v112h-18zm23 4h21v108h-21z"/>
    <path stroke="#4F4F4F" stroke-width=".5" d="M435.25 252v3"/>
    <path d="M430.047 259.852c0-.649.154-1.17.461-1.563a1.455 1.455 0 011.207-.594c.495 0 .887.17 1.176.508V256h.722v6h-.664l-.035-.453c-.289.354-.691.531-1.207.531-.49 0-.889-.2-1.199-.601-.307-.401-.461-.925-.461-1.571v-.054zm.723.082c0 .479.098.854.296 1.125.198.27.472.406.821.406.458 0 .793-.206 1.004-.617v-1.942c-.217-.398-.549-.597-.996-.597-.355 0-.631.136-.829.41-.198.273-.296.678-.296 1.215zm4.753 2.066h-.722v-4.227h.722V262zm-.781-5.348c0-.117.035-.216.106-.297.073-.08.179-.121.32-.121.141 0 .247.041.32.121.073.081.11.18.11.297a.411.411 0 01-.11.293c-.073.078-.179.117-.32.117-.141 0-.247-.039-.32-.117a.417.417 0 01-.106-.293zm3.637 4.836c.258 0 .483-.078.676-.234a.828.828 0 00.32-.586h.684a1.313 1.313 0 01-.25.691c-.154.219-.36.394-.618.524-.255.13-.526.195-.812.195-.576 0-1.034-.191-1.375-.574-.339-.386-.508-.912-.508-1.578v-.121c0-.412.076-.778.227-1.098.151-.32.367-.569.648-.746a1.86 1.86 0 011.004-.266c.474 0 .867.142 1.18.426.315.284.483.652.504 1.106h-.684a.982.982 0 00-.313-.672.954.954 0 00-.687-.266c-.367 0-.652.133-.855.399-.201.263-.301.644-.301 1.144v.137c0 .487.1.862.301 1.125.2.263.487.394.859.394z" fill="#828282"/>
    <path fill="#F99191" d="M160 159h18v17h-18zm49-13h18v4h-18zm23-9h18v2h-18zm26-9h18v5h-18zm23 4h18v4h-18zm48 24h18v33h-18zm-25-31h20v2h-20zm49 32h18v15h-18zm25-5h18v4h-18zm23-15h18v2h-18zm23-8h21v14h-21z"/>
  </g>
  <defs>
    <clipPath id="clip0_2551_47039">
      <path fill="#fff" d="M0 0h584v382H0z"/>
    </clipPath>
  </defs>
</svg>
