<svg fill="none" xmlns="http://www.w3.org/2000/svg" viewBox="0 0 584 382">
  <g clip-path="url(#clip0_2551_46994)">
    <circle cx="291.5" cy="191.5" r="187.5" fill="#F1FFF7"/>
    <circle cx="291.5" cy="191.5" r="187.5" stroke="#D6FBE6" stroke-width="7" stroke-linecap="round" stroke-linejoin="round" stroke-dasharray="16 32 48 64"/>
    <rect x="118" y="91" width="347" height="201" rx="2" fill="#fff"/>
    <path stroke="#4F4F4F" stroke-width=".5" d="M156.25 120v132m-3.25-.25h293m-284.25.25v3m28-3v3m28-3v3m29-3v3m28-3v3m28-3v3m28-3v3m28-3v3m28-3v3m29-3v3m27.5-3v3"/>
    <path d="M152.711 259.852c0-.649.154-1.17.461-1.563.307-.396.71-.594 1.207-.594.495 0 .887.17 1.176.508V256h.722v6h-.664l-.035-.453c-.289.354-.691.531-1.207.531-.489 0-.889-.2-1.199-.601-.307-.401-.461-.925-.461-1.571v-.054zm.723.082c0 .479.099.854.296 1.125.198.27.472.406.821.406.458 0 .793-.206 1.004-.617v-1.942c-.216-.398-.548-.597-.996-.597-.355 0-.631.136-.829.41-.197.273-.296.678-.296 1.215zm4.754 2.066h-.727v-4.227h.727V262zm.007-5.996h.875l-1.047 1.148h-.582l.754-1.148zm3.793 5.996c-.041-.083-.075-.232-.101-.445a1.612 1.612 0 01-1.203.523c-.417 0-.76-.117-1.028-.351a1.155 1.155 0 01-.398-.899c0-.44.166-.781.5-1.023.336-.245.807-.367 1.414-.367h.703v-.333c0-.252-.076-.453-.227-.601-.151-.151-.373-.227-.668-.227a1.05 1.05 0 00-.648.196c-.174.13-.262.287-.262.472h-.726c0-.211.074-.414.222-.609a1.55 1.55 0 01.61-.469c.258-.114.54-.172.847-.172.487 0 .869.123 1.145.367.276.243.419.577.43 1.004v1.946c0 .388.049.696.148.926V262h-.758zm-1.199-.551c.227 0 .441-.058.645-.176.203-.117.35-.269.441-.457v-.867h-.566c-.886 0-1.329.259-1.329.778 0 .226.076.403.227.531a.874.874 0 00.582.191zm7.227.551h-.727v-4.816l-1.457.535v-.657l2.07-.777h.114V262zm13.695-2.148c0-.649.154-1.17.461-1.563.307-.396.71-.594 1.207-.594.495 0 .887.17 1.176.508V256h.722v6h-.664l-.035-.453c-.289.354-.691.531-1.207.531-.489 0-.889-.2-1.199-.601-.307-.401-.461-.925-.461-1.571v-.054zm.723.082c0 .479.099.854.296 1.125.198.27.472.406.821.406.458 0 .793-.206 1.004-.617v-1.942c-.216-.398-.548-.597-.996-.597-.355 0-.631.136-.829.41-.197.273-.296.678-.296 1.215zm4.754 2.066h-.727v-4.227h.727V262zm.007-5.996h.875l-1.047 1.148h-.582l.754-1.148zm3.793 5.996c-.041-.083-.075-.232-.101-.445a1.612 1.612 0 01-1.203.523c-.417 0-.76-.117-1.028-.351a1.155 1.155 0 01-.398-.899c0-.44.166-.781.5-1.023.336-.245.807-.367 1.414-.367h.703v-.333c0-.252-.076-.453-.227-.601-.151-.151-.373-.227-.668-.227a1.05 1.05 0 00-.648.196c-.174.13-.262.287-.262.472h-.726c0-.211.074-.414.222-.609a1.55 1.55 0 01.61-.469c.258-.114.54-.172.847-.172.487 0 .869.123 1.145.367.276.243.419.577.43 1.004v1.946c0 .388.049.696.148.926V262h-.758zm-1.199-.551c.227 0 .441-.058.645-.176.203-.117.35-.269.441-.457v-.867h-.566c-.886 0-1.329.259-1.329.778 0 .226.076.403.227.531a.874.874 0 00.582.191zm7.902-1.359h.789v.59h-.789V262h-.726v-1.32h-2.59v-.426l2.547-3.942h.769v3.778zm-2.496 0h1.77v-2.789l-.086.156-1.684 2.633zm14.516-.238c0-.649.154-1.17.461-1.563.307-.396.71-.594 1.207-.594.495 0 .887.17 1.176.508V256h.722v6h-.664l-.035-.453c-.289.354-.691.531-1.207.531-.489 0-.889-.2-1.199-.601-.307-.401-.461-.925-.461-1.571v-.054zm.723.082c0 .479.099.854.296 1.125.198.27.472.406.821.406.458 0 .793-.206 1.004-.617v-1.942c-.216-.398-.548-.597-.996-.597-.355 0-.631.136-.829.41-.197.273-.296.678-.296 1.215zm4.754 2.066h-.727v-4.227h.727V262zm.007-5.996h.875l-1.047 1.148h-.582l.754-1.148zm3.793 5.996c-.041-.083-.075-.232-.101-.445a1.612 1.612 0 01-1.203.523c-.417 0-.76-.117-1.028-.351a1.155 1.155 0 01-.398-.899c0-.44.166-.781.5-1.023.336-.245.807-.367 1.414-.367h.703v-.333c0-.252-.076-.453-.227-.601-.151-.151-.373-.227-.668-.227a1.05 1.05 0 00-.648.196c-.174.13-.262.287-.262.472h-.726c0-.211.074-.414.222-.609a1.55 1.55 0 01.61-.469c.258-.114.54-.172.847-.172.487 0 .869.123 1.145.367.276.243.419.577.43 1.004v1.946c0 .388.049.696.148.926V262h-.758zm-1.199-.551c.227 0 .441-.058.645-.176.203-.117.35-.269.441-.457v-.867h-.566c-.886 0-1.329.259-1.329.778 0 .226.076.403.227.531a.874.874 0 00.582.191zm8.523-4.73L223.957 262h-.758l2.348-5.094h-3.078v-.594h3.843v.407zm9.153 3.133c0-.649.153-1.17.461-1.563a1.455 1.455 0 011.207-.594c.495 0 .887.17 1.176.508V256h.722v6h-.664l-.035-.453c-.289.354-.691.531-1.207.531-.49 0-.889-.2-1.199-.601-.308-.401-.461-.925-.461-1.571v-.054zm.723.082c0 .479.098.854.296 1.125.198.27.472.406.821.406.458 0 .793-.206 1.004-.617v-1.942c-.217-.398-.549-.597-.997-.597-.354 0-.63.136-.828.41-.198.273-.296.678-.296 1.215zm4.753 2.066h-.726v-4.227h.726V262zm.008-5.996h.875l-1.047 1.148h-.582l.754-1.148zm3.793 5.996c-.041-.083-.075-.232-.101-.445a1.612 1.612 0 01-1.203.523c-.417 0-.76-.117-1.028-.351a1.155 1.155 0 01-.398-.899c0-.44.166-.781.5-1.023.336-.245.807-.367 1.414-.367h.703v-.333c0-.252-.076-.453-.227-.601-.151-.151-.373-.227-.668-.227-.257 0-.474.065-.648.196-.175.13-.262.287-.262.472h-.726c0-.211.074-.414.222-.609.151-.198.354-.354.61-.469.258-.114.54-.172.847-.172.487 0 .869.123 1.145.367.276.243.419.577.43 1.004v1.946c0 .388.049.696.148.926V262h-.758zm-1.199-.551c.227 0 .441-.058.645-.176.203-.117.35-.269.441-.457v-.867h-.567c-.885 0-1.328.259-1.328.778 0 .226.076.403.227.531a.874.874 0 00.582.191zm7.227.551h-.727v-4.816l-1.457.535v-.657l2.07-.777h.114V262zm5.683-2.426c0 .847-.144 1.475-.433 1.887-.29.411-.741.617-1.356.617-.607 0-1.056-.2-1.348-.601-.291-.404-.442-1.006-.453-1.805v-.965c0-.836.145-1.457.434-1.863.289-.406.742-.61 1.359-.61.612 0 1.063.197 1.352.59.289.391.437.995.445 1.813v.937zm-.723-.988c0-.612-.085-1.057-.257-1.336-.172-.281-.444-.422-.817-.422-.37 0-.639.139-.808.418-.17.279-.257.707-.262 1.285v1.157c0 .614.088 1.069.266 1.363.179.291.45.437.812.437.357 0 .621-.138.793-.414.175-.276.266-.711.273-1.304v-1.184zm7.735 1.266c0-.649.153-1.17.461-1.563a1.455 1.455 0 011.207-.594c.495 0 .887.17 1.176.508V256h.722v6h-.664l-.035-.453c-.289.354-.691.531-1.207.531-.49 0-.889-.2-1.199-.601-.308-.401-.461-.925-.461-1.571v-.054zm.723.082c0 .479.098.854.296 1.125.198.27.472.406.821.406.458 0 .793-.206 1.004-.617v-1.942c-.217-.398-.549-.597-.997-.597-.354 0-.63.136-.828.41-.198.273-.296.678-.296 1.215zm4.753 2.066h-.726v-4.227h.726V262zm.008-5.996h.875l-1.047 1.148h-.582l.754-1.148zm3.793 5.996c-.041-.083-.075-.232-.101-.445a1.612 1.612 0 01-1.203.523c-.417 0-.76-.117-1.028-.351a1.155 1.155 0 01-.398-.899c0-.44.166-.781.5-1.023.336-.245.807-.367 1.414-.367h.703v-.333c0-.252-.076-.453-.227-.601-.151-.151-.373-.227-.668-.227-.257 0-.474.065-.648.196-.175.13-.262.287-.262.472h-.726c0-.211.074-.414.222-.609.151-.198.354-.354.61-.469.258-.114.54-.172.847-.172.487 0 .869.123 1.145.367.276.243.419.577.43 1.004v1.946c0 .388.049.696.148.926V262h-.758zm-1.199-.551c.227 0 .441-.058.645-.176.203-.117.35-.269.441-.457v-.867h-.567c-.885 0-1.328.259-1.328.778 0 .226.076.403.227.531a.874.874 0 00.582.191zm7.227.551h-.727v-4.816l-1.457.535v-.657l2.07-.777h.114V262zm3.168-3.195h.542c.342-.006.61-.095.805-.27.195-.174.293-.41.293-.707 0-.667-.332-1-.996-1-.312 0-.562.09-.75.27-.185.177-.277.412-.277.707h-.723c0-.451.164-.825.492-1.121.331-.3.75-.45 1.258-.45.536 0 .957.142 1.262.426.304.284.457.679.457 1.184 0 .247-.081.487-.242.718a1.443 1.443 0 01-.653.52c.313.099.554.263.723.492.172.229.258.509.258.84 0 .51-.167.915-.5 1.215-.334.299-.767.449-1.301.449-.534 0-.969-.144-1.305-.433-.333-.29-.5-.671-.5-1.145h.727c0 .299.097.539.293.719.195.179.457.269.785.269.349 0 .616-.091.801-.273.185-.182.277-.444.277-.785 0-.331-.102-.585-.305-.762-.203-.177-.496-.268-.879-.273h-.542v-.59zm9.527 1.047c0-.649.153-1.17.461-1.563a1.455 1.455 0 011.207-.594c.495 0 .887.17 1.176.508V256h.722v6h-.664l-.035-.453c-.289.354-.691.531-1.207.531-.49 0-.889-.2-1.199-.601-.308-.401-.461-.925-.461-1.571v-.054zm.723.082c0 .479.098.854.296 1.125.198.27.472.406.821.406.458 0 .793-.206 1.004-.617v-1.942c-.217-.398-.549-.597-.997-.597-.354 0-.63.136-.828.41-.198.273-.296.678-.296 1.215zm4.753 2.066h-.726v-4.227h.726V262zm.008-5.996h.875l-1.047 1.148h-.582l.754-1.148zm3.793 5.996c-.041-.083-.075-.232-.101-.445a1.612 1.612 0 01-1.203.523c-.417 0-.76-.117-1.028-.351a1.155 1.155 0 01-.398-.899c0-.44.166-.781.5-1.023.336-.245.807-.367 1.414-.367h.703v-.333c0-.252-.076-.453-.227-.601-.151-.151-.373-.227-.668-.227-.257 0-.474.065-.648.196-.175.13-.262.287-.262.472h-.726c0-.211.074-.414.222-.609.151-.198.354-.354.61-.469.258-.114.54-.172.847-.172.487 0 .869.123 1.145.367.276.243.419.577.43 1.004v1.946c0 .388.049.696.148.926V262h-.758zm-1.199-.551c.227 0 .441-.058.645-.176.203-.117.35-.269.441-.457v-.867h-.567c-.885 0-1.328.259-1.328.778 0 .226.076.403.227.531a.874.874 0 00.582.191zm7.227.551h-.727v-4.816l-1.457.535v-.657l2.07-.777h.114V262zm4.953-5.691v.613h-.133c-.563.01-1.011.177-1.344.5-.333.323-.526.777-.578 1.363.299-.344.708-.515 1.227-.515.494 0 .889.174 1.183.523.297.349.445.799.445 1.352 0 .585-.16 1.054-.48 1.406-.318.351-.745.527-1.281.527-.545 0-.986-.208-1.324-.625-.339-.419-.508-.958-.508-1.617v-.277c0-1.047.222-1.847.668-2.399.448-.555 1.113-.838 1.996-.851h.129zm-.95 2.562c-.247 0-.475.074-.683.223a1.161 1.161 0 00-.434.558v.266c0 .469.106.846.317 1.133.211.286.474.429.789.429.325 0 .58-.119.765-.359.188-.239.282-.553.282-.941 0-.391-.095-.706-.286-.946a.9.9 0 00-.75-.363zm8.692.981c0-.649.153-1.17.461-1.563a1.455 1.455 0 011.207-.594c.495 0 .887.17 1.176.508V256h.722v6h-.664l-.035-.453c-.289.354-.691.531-1.207.531-.49 0-.889-.2-1.199-.601-.308-.401-.461-.925-.461-1.571v-.054zm.723.082c0 .479.098.854.296 1.125.198.27.472.406.821.406.458 0 .793-.206 1.004-.617v-1.942c-.217-.398-.549-.597-.997-.597-.354 0-.63.136-.828.41-.198.273-.296.678-.296 1.215zm4.753 2.066h-.726v-4.227h.726V262zm.008-5.996h.875l-1.047 1.148h-.582l.754-1.148zm3.793 5.996c-.041-.083-.075-.232-.101-.445a1.612 1.612 0 01-1.203.523c-.417 0-.76-.117-1.028-.351a1.155 1.155 0 01-.398-.899c0-.44.166-.781.5-1.023.336-.245.807-.367 1.414-.367h.703v-.333c0-.252-.076-.453-.227-.601-.151-.151-.373-.227-.668-.227-.257 0-.474.065-.648.196-.175.13-.262.287-.262.472h-.726c0-.211.074-.414.222-.609.151-.198.354-.354.61-.469.258-.114.54-.172.847-.172.487 0 .869.123 1.145.367.276.243.419.577.43 1.004v1.946c0 .388.049.696.148.926V262h-.758zm-1.199-.551c.227 0 .441-.058.645-.176.203-.117.35-.269.441-.457v-.867h-.567c-.885 0-1.328.259-1.328.778 0 .226.076.403.227.531a.874.874 0 00.582.191zm7.227.551h-.727v-4.816l-1.457.535v-.657l2.07-.777h.114V262zm4.886-2.5c-.151.18-.332.324-.543.434a1.458 1.458 0 01-.687.164c-.328 0-.615-.081-.86-.243a1.582 1.582 0 01-.562-.679 2.335 2.335 0 01-.199-.973c0-.38.071-.723.215-1.027.145-.305.351-.538.617-.699.265-.162.575-.243.929-.243.563 0 1.006.211 1.329.633.325.419.488.992.488 1.719v.211c0 1.107-.219 1.915-.656 2.426-.438.507-1.098.768-1.981.781h-.141v-.609h.153c.596-.011 1.054-.166 1.375-.465.32-.302.495-.779.523-1.43zm-1.113 0c.242 0 .465-.074.668-.223.206-.148.355-.332.449-.55v-.289c0-.474-.103-.86-.308-1.157-.206-.297-.467-.445-.782-.445a.924.924 0 00-.765.367c-.193.242-.289.563-.289.961 0 .388.092.708.277.961a.89.89 0 00.75.375zm8.922.352c0-.649.153-1.17.461-1.563a1.455 1.455 0 011.207-.594c.495 0 .887.17 1.176.508V256h.722v6h-.664l-.035-.453c-.289.354-.691.531-1.207.531-.49 0-.889-.2-1.199-.601-.308-.401-.461-.925-.461-1.571v-.054zm.723.082c0 .479.098.854.296 1.125.198.27.472.406.821.406.458 0 .793-.206 1.004-.617v-1.942c-.217-.398-.549-.597-.997-.597-.354 0-.63.136-.828.41-.198.273-.296.678-.296 1.215zm4.753 2.066h-.726v-4.227h.726V262zm.008-5.996h.875l-1.047 1.148h-.582l.754-1.148zm3.793 5.996c-.041-.083-.075-.232-.101-.445a1.612 1.612 0 01-1.203.523c-.417 0-.76-.117-1.028-.351a1.155 1.155 0 01-.398-.899c0-.44.166-.781.5-1.023.336-.245.807-.367 1.414-.367h.703v-.333c0-.252-.076-.453-.227-.601-.151-.151-.373-.227-.668-.227-.257 0-.474.065-.648.196-.175.13-.262.287-.262.472h-.726c0-.211.074-.414.222-.609.151-.198.354-.354.61-.469.258-.114.54-.172.847-.172.487 0 .869.123 1.145.367.276.243.419.577.43 1.004v1.946c0 .388.049.696.148.926V262h-.758zm-1.199-.551c.227 0 .441-.058.645-.176.203-.117.35-.269.441-.457v-.867h-.567c-.885 0-1.328.259-1.328.778 0 .226.076.403.227.531a.874.874 0 00.582.191zm8.578.551h-3.726v-.52l1.968-2.187c.292-.331.492-.599.602-.805.112-.208.168-.423.168-.644 0-.297-.09-.541-.27-.731-.179-.19-.419-.285-.718-.285-.36 0-.64.103-.84.309-.198.203-.297.487-.297.851h-.723c0-.523.168-.946.504-1.269.339-.323.79-.485 1.356-.485.528 0 .946.14 1.253.418.308.276.461.645.461 1.106 0 .56-.356 1.226-1.07 2l-1.523 1.652h2.855v.59zm4.492 0h-3.726v-.52l1.968-2.187c.292-.331.493-.599.602-.805.112-.208.168-.423.168-.644 0-.297-.09-.541-.27-.731-.179-.19-.419-.285-.718-.285-.36 0-.64.103-.84.309-.198.203-.297.487-.297.851h-.723c0-.523.168-.946.504-1.269.339-.323.791-.485 1.356-.485.528 0 .946.14 1.254.418.307.276.461.645.461 1.106 0 .56-.357 1.226-1.071 2l-1.523 1.652h2.855v.59zm6.852-2.148c0-.649.153-1.17.461-1.563a1.455 1.455 0 011.207-.594c.495 0 .887.17 1.176.508V256h.722v6h-.664l-.035-.453c-.289.354-.691.531-1.207.531-.49 0-.889-.2-1.199-.601-.308-.401-.461-.925-.461-1.571v-.054zm.723.082c0 .479.098.854.296 1.125.198.27.472.406.821.406.458 0 .793-.206 1.004-.617v-1.942c-.217-.398-.549-.597-.997-.597-.354 0-.63.136-.828.41-.198.273-.296.678-.296 1.215zm4.753 2.066h-.726v-4.227h.726V262zm.008-5.996h.875l-1.047 1.148h-.582l.754-1.148zm3.793 5.996c-.041-.083-.075-.232-.101-.445a1.612 1.612 0 01-1.203.523c-.417 0-.76-.117-1.028-.351a1.155 1.155 0 01-.398-.899c0-.44.166-.781.5-1.023.336-.245.807-.367 1.414-.367h.703v-.333c0-.252-.076-.453-.227-.601-.151-.151-.373-.227-.668-.227-.257 0-.474.065-.648.196-.175.13-.262.287-.262.472h-.726c0-.211.074-.414.222-.609.151-.198.354-.354.61-.469.258-.114.54-.172.847-.172.487 0 .869.123 1.145.367.276.243.419.577.43 1.004v1.946c0 .388.049.696.148.926V262h-.758zm-1.199-.551c.227 0 .441-.058.645-.176.203-.117.35-.269.441-.457v-.867h-.567c-.885 0-1.328.259-1.328.778 0 .226.076.403.227.531a.874.874 0 00.582.191zm8.578.551h-3.726v-.52l1.968-2.187c.292-.331.492-.599.602-.805.112-.208.168-.423.168-.644 0-.297-.09-.541-.27-.731-.179-.19-.419-.285-.718-.285-.36 0-.64.103-.84.309-.198.203-.297.487-.297.851h-.723c0-.523.168-.946.504-1.269.339-.323.79-.485 1.356-.485.528 0 .946.14 1.253.418.308.276.461.645.461 1.106 0 .56-.356 1.226-1.07 2l-1.523 1.652h2.855v.59zm1.098-2.852l.289-2.836h2.914v.668h-2.301l-.172 1.551c.279-.164.595-.246.949-.246.519 0 .93.172 1.235.516.305.341.457.803.457 1.387 0 .585-.159 1.048-.477 1.386-.315.336-.756.504-1.324.504-.503 0-.913-.139-1.23-.418-.318-.278-.499-.664-.543-1.156h.683c.044.325.16.572.348.738.187.164.435.246.742.246.336 0 .599-.114.789-.343.193-.23.289-.546.289-.95 0-.38-.104-.685-.312-.914-.206-.232-.481-.347-.825-.347-.315 0-.562.069-.742.207l-.191.156-.578-.149zm10.246.704c0-.649.153-1.17.461-1.563a1.455 1.455 0 011.207-.594c.495 0 .887.17 1.176.508V256h.722v6h-.664l-.035-.453c-.289.354-.691.531-1.207.531-.49 0-.889-.2-1.199-.601-.308-.401-.461-.925-.461-1.571v-.054zm.723.082c0 .479.098.854.296 1.125.198.27.472.406.821.406.458 0 .793-.206 1.004-.617v-1.942c-.217-.398-.549-.597-.997-.597-.354 0-.63.136-.828.41-.198.273-.296.678-.296 1.215zm4.753 2.066h-.726v-4.227h.726V262zm.008-5.996h.875l-1.047 1.148h-.582l.754-1.148zm3.793 5.996c-.041-.083-.075-.232-.101-.445a1.612 1.612 0 01-1.203.523c-.417 0-.76-.117-1.028-.351a1.155 1.155 0 01-.398-.899c0-.44.166-.781.5-1.023.336-.245.807-.367 1.414-.367h.703v-.333c0-.252-.076-.453-.227-.601-.151-.151-.373-.227-.668-.227-.257 0-.474.065-.648.196-.175.13-.262.287-.262.472h-.726c0-.211.074-.414.222-.609.151-.198.354-.354.61-.469.258-.114.54-.172.847-.172.487 0 .869.123 1.145.367.276.243.419.577.43 1.004v1.946c0 .388.049.696.148.926V262h-.758zm-1.199-.551c.227 0 .441-.058.645-.176.203-.117.35-.269.441-.457v-.867h-.567c-.885 0-1.328.259-1.328.778 0 .226.076.403.227.531a.874.874 0 00.582.191zm8.578.551h-3.726v-.52l1.968-2.187c.292-.331.492-.599.602-.805.112-.208.168-.423.168-.644 0-.297-.09-.541-.27-.731-.179-.19-.419-.285-.718-.285-.36 0-.64.103-.84.309-.198.203-.297.487-.297.851h-.723c0-.523.168-.946.504-1.269.339-.323.79-.485 1.356-.485.528 0 .946.14 1.253.418.308.276.461.645.461 1.106 0 .56-.356 1.226-1.07 2l-1.523 1.652h2.855v.59zm4.215-4.203c0 .284-.076.536-.227.758-.148.221-.35.394-.605.519.297.128.531.314.703.559.175.245.262.522.262.832 0 .492-.167.884-.5 1.176-.331.291-.767.437-1.309.437-.547 0-.986-.146-1.316-.437-.328-.295-.492-.687-.492-1.176 0-.307.083-.585.25-.832.169-.248.402-.435.699-.563a1.492 1.492 0 01-.598-.519 1.34 1.34 0 01-.219-.754c0-.479.154-.859.461-1.141.308-.281.713-.422 1.215-.422.5 0 .904.141 1.211.422.31.282.465.662.465 1.141zm-.59 2.652c0-.317-.101-.577-.305-.777-.2-.201-.463-.301-.789-.301-.325 0-.587.099-.785.297-.195.198-.293.458-.293.781s.095.577.285.762c.193.185.46.277.801.277.339 0 .604-.092.797-.277.193-.188.289-.441.289-.762zm-1.086-3.621c-.284 0-.514.089-.691.266-.175.174-.262.413-.262.715 0 .289.086.523.258.703.174.177.406.265.695.265.289 0 .52-.088.692-.265.174-.18.261-.414.261-.703s-.09-.525-.269-.707a.919.919 0 00-.684-.274zm6.805 3.024c0-.649.153-1.17.461-1.563a1.455 1.455 0 011.207-.594c.495 0 .887.17 1.176.508V256h.722v6h-.664l-.035-.453c-.289.354-.691.531-1.207.531-.49 0-.889-.2-1.199-.601-.308-.401-.461-.925-.461-1.571v-.054zm.723.082c0 .479.098.854.296 1.125.198.27.472.406.821.406.458 0 .793-.206 1.004-.617v-1.942c-.217-.398-.549-.597-.997-.597-.354 0-.63.136-.828.41-.198.273-.296.678-.296 1.215zm4.753 2.066h-.726v-4.227h.726V262zm.008-5.996h.875l-1.047 1.148h-.582l.754-1.148zm3.793 5.996c-.041-.083-.075-.232-.101-.445a1.612 1.612 0 01-1.203.523c-.417 0-.76-.117-1.028-.351a1.155 1.155 0 01-.398-.899c0-.44.166-.781.5-1.023.336-.245.807-.367 1.414-.367h.703v-.333c0-.252-.076-.453-.227-.601-.151-.151-.373-.227-.668-.227-.257 0-.474.065-.648.196-.175.13-.262.287-.262.472h-.726c0-.211.074-.414.222-.609.151-.198.354-.354.61-.469.258-.114.54-.172.847-.172.487 0 .869.123 1.145.367.276.243.419.577.43 1.004v1.946c0 .388.049.696.148.926V262h-.758zm-1.199-.551c.227 0 .441-.058.645-.176.203-.117.35-.269.441-.457v-.867h-.567c-.885 0-1.328.259-1.328.778 0 .226.076.403.227.531a.874.874 0 00.582.191zm5.902-2.644h.543c.341-.006.61-.095.805-.27.195-.174.293-.41.293-.707 0-.667-.332-1-.996-1-.313 0-.563.09-.75.27-.185.177-.278.412-.278.707h-.722c0-.451.164-.825.492-1.121.331-.3.75-.45 1.258-.45.536 0 .957.142 1.262.426.304.284.457.679.457 1.184 0 .247-.081.487-.243.718a1.435 1.435 0 01-.652.52c.313.099.553.263.723.492.172.229.258.509.258.84 0 .51-.167.915-.5 1.215-.334.299-.767.449-1.301.449-.534 0-.969-.144-1.305-.433-.333-.29-.5-.671-.5-1.145h.727c0 .299.097.539.293.719.195.179.457.269.785.269.349 0 .616-.091.801-.273.184-.182.277-.444.277-.785 0-.331-.102-.585-.305-.762-.203-.177-.496-.268-.879-.273h-.543v-.59zm5.817 3.195h-.727v-4.816l-1.457.535v-.657l2.07-.777h.114V262zm-307.891-40h-.726v-4.816l-1.457.535v-.657l2.07-.777h.113V222zm5.684-2.426c0 .847-.145 1.475-.434 1.887-.289.411-.741.617-1.355.617-.607 0-1.056-.2-1.348-.601-.292-.404-.443-1.006-.453-1.805v-.965c0-.836.144-1.457.433-1.863.29-.406.743-.61 1.36-.61.612 0 1.062.197 1.351.59.289.391.438.995.446 1.813v.937zm-.723-.988c0-.612-.086-1.057-.258-1.336-.172-.281-.444-.422-.816-.422-.37 0-.64.139-.809.418-.169.279-.256.707-.261 1.285v1.157c0 .614.088 1.069.265 1.363.18.291.451.437.813.437.356 0 .621-.138.793-.414.174-.276.265-.711.273-1.304v-1.184zm5.215.988c0 .847-.145 1.475-.434 1.887-.289.411-.741.617-1.355.617-.607 0-1.056-.2-1.348-.601-.292-.404-.443-1.006-.453-1.805v-.965c0-.836.145-1.457.434-1.863.289-.406.742-.61 1.359-.61.612 0 1.062.197 1.352.59.289.391.437.995.445 1.813v.937zm-.723-.988c0-.612-.086-1.057-.258-1.336-.171-.281-.444-.422-.816-.422-.37 0-.639.139-.809.418-.169.279-.256.707-.261 1.285v1.157c0 .614.088 1.069.265 1.363.18.291.451.437.813.437.357 0 .621-.138.793-.414.174-.276.265-.711.273-1.304v-1.184zm.723 33.988c0 .847-.145 1.475-.434 1.887-.289.411-.741.617-1.355.617-.607 0-1.056-.2-1.348-.601-.292-.404-.443-1.006-.453-1.805v-.965c0-.836.145-1.457.434-1.863.289-.406.742-.61 1.359-.61.612 0 1.062.197 1.352.59.289.391.437.995.445 1.813v.937zm-.723-.988c0-.612-.086-1.057-.258-1.336-.171-.281-.444-.422-.816-.422-.37 0-.639.139-.809.418-.169.279-.256.707-.261 1.285v1.157c0 .614.088 1.069.265 1.363.18.291.451.437.813.437.357 0 .621-.138.793-.414.174-.276.265-.711.273-1.304v-1.184zM142.723 189h-3.727v-.52l1.969-2.187c.292-.331.492-.599.601-.805.112-.208.168-.423.168-.644 0-.297-.089-.541-.269-.731-.18-.19-.419-.285-.719-.285-.359 0-.639.103-.84.309-.198.203-.297.487-.297.851h-.722c0-.523.168-.946.504-1.269.338-.323.79-.485 1.355-.485.529 0 .947.14 1.254.418.307.276.461.645.461 1.106 0 .56-.357 1.226-1.07 2l-1.524 1.652h2.856v.59zm1.097-2.852l.289-2.836h2.914v.668h-2.3l-.172 1.551c.278-.164.595-.246.949-.246.518 0 .93.172 1.234.516.305.341.457.803.457 1.387 0 .585-.158 1.048-.476 1.386-.315.336-.757.504-1.324.504-.503 0-.913-.139-1.231-.418-.318-.278-.499-.664-.543-1.156h.684c.044.325.16.572.347.738.188.164.435.246.743.246.336 0 .599-.114.789-.343.192-.23.289-.546.289-.95 0-.38-.104-.685-.313-.914-.205-.232-.48-.347-.824-.347-.315 0-.562.069-.742.207l-.192.156-.578-.149zm7.727.426c0 .847-.145 1.475-.434 1.887-.289.411-.741.617-1.355.617-.607 0-1.056-.2-1.348-.601-.292-.404-.443-1.006-.453-1.805v-.965c0-.836.145-1.457.434-1.863.289-.406.742-.61 1.359-.61.612 0 1.062.197 1.352.59.289.391.437.995.445 1.813v.937zm-.723-.988c0-.612-.086-1.057-.258-1.336-.171-.281-.444-.422-.816-.422-.37 0-.639.139-.809.418-.169.279-.256.707-.261 1.285v1.157c0 .614.088 1.069.265 1.363.18.291.451.437.813.437.357 0 .621-.138.793-.414.174-.276.265-.711.273-1.304v-1.184zm-11.496-32.438l.289-2.836h2.914v.668h-2.301l-.171 1.551c.278-.164.595-.246.949-.246.518 0 .93.172 1.234.516.305.341.457.803.457 1.387 0 .585-.159 1.048-.476 1.386-.315.336-.757.504-1.325.504-.502 0-.912-.139-1.23-.418-.318-.278-.499-.664-.543-1.156h.684c.044.325.16.572.347.738.188.164.435.246.742.246.336 0 .599-.114.79-.343.192-.23.289-.546.289-.95 0-.38-.105-.685-.313-.914-.206-.232-.48-.347-.824-.347-.315 0-.563.069-.742.207l-.192.156-.578-.149zm7.727.426c0 .847-.145 1.475-.434 1.887-.289.411-.741.617-1.355.617-.607 0-1.056-.2-1.348-.601-.292-.404-.443-1.006-.453-1.805v-.965c0-.836.144-1.457.433-1.863.29-.406.743-.61 1.36-.61.612 0 1.062.197 1.351.59.289.391.438.995.446 1.813v.937zm-.723-.988c0-.612-.086-1.057-.258-1.336-.172-.281-.444-.422-.816-.422-.37 0-.64.139-.809.418-.169.279-.256.707-.261 1.285v1.157c0 .614.088 1.069.265 1.363.18.291.451.437.813.437.356 0 .621-.138.793-.414.174-.276.265-.711.273-1.304v-1.184zm5.215.988c0 .847-.145 1.475-.434 1.887-.289.411-.741.617-1.355.617-.607 0-1.056-.2-1.348-.601-.292-.404-.443-1.006-.453-1.805v-.965c0-.836.145-1.457.434-1.863.289-.406.742-.61 1.359-.61.612 0 1.062.197 1.352.59.289.391.437.995.445 1.813v.937zm-.723-.988c0-.612-.086-1.057-.258-1.336-.171-.281-.444-.422-.816-.422-.37 0-.639.139-.809.418-.169.279-.256.707-.261 1.285v1.157c0 .614.088 1.069.265 1.363.18.291.451.437.813.437.357 0 .621-.138.793-.414.174-.276.265-.711.273-1.304v-1.184zM136.879 127h-.727v-4.816l-1.457.535v-.657l2.071-.777h.113V127zm5.683-2.426c0 .847-.144 1.475-.433 1.887-.289.411-.741.617-1.356.617-.606 0-1.056-.2-1.347-.601-.292-.404-.443-1.006-.453-1.805v-.965c0-.836.144-1.457.433-1.863.289-.406.742-.61 1.36-.61.612 0 1.062.197 1.351.59.289.391.438.995.445 1.813v.937zm-.722-.988c0-.612-.086-1.057-.258-1.336-.172-.281-.444-.422-.816-.422-.37 0-.64.139-.809.418-.169.279-.256.707-.262 1.285v1.157c0 .614.089 1.069.266 1.363.18.291.45.437.812.437.357 0 .622-.138.793-.414.175-.276.266-.711.274-1.304v-1.184zm5.215.988c0 .847-.145 1.475-.434 1.887-.289.411-.741.617-1.355.617-.607 0-1.056-.2-1.348-.601-.292-.404-.443-1.006-.453-1.805v-.965c0-.836.144-1.457.433-1.863.29-.406.743-.61 1.36-.61.612 0 1.062.197 1.351.59.289.391.438.995.446 1.813v.937zm-.723-.988c0-.612-.086-1.057-.258-1.336-.172-.281-.444-.422-.816-.422-.37 0-.64.139-.809.418-.169.279-.256.707-.261 1.285v1.157c0 .614.088 1.069.265 1.363.18.291.451.437.813.437.356 0 .621-.138.793-.414.174-.276.265-.711.273-1.304v-1.184zm5.215.988c0 .847-.145 1.475-.434 1.887-.289.411-.741.617-1.355.617-.607 0-1.056-.2-1.348-.601-.292-.404-.443-1.006-.453-1.805v-.965c0-.836.145-1.457.434-1.863.289-.406.742-.61 1.359-.61.612 0 1.062.197 1.352.59.289.391.437.995.445 1.813v.937zm-.723-.988c0-.612-.086-1.057-.258-1.336-.171-.281-.444-.422-.816-.422-.37 0-.639.139-.809.418-.169.279-.256.707-.261 1.285v1.157c0 .614.088 1.069.265 1.363.18.291.451.437.813.437.357 0 .621-.138.793-.414.174-.276.265-.711.273-1.304v-1.184z" fill="#828282"/>
    <path stroke="#BDBDBD" stroke-width=".5" stroke-dasharray="2 0" d="M153 218.75h293m-293-33h293m-293-33h293m-293-33h293"/>
    <path fill="#99E9BA" d="M158 131h7v120h-7zm28 18h7v102h-7zm-19 16h8v86h-8zm10-8h7v94h-7zm19 19h7v75h-7zm37-37h7v112h-7zm-9 18h7v94h-7zm19-14h7v108h-7zm9 29h7v79h-7zm9-15h8v94h-8zm28-8h8v102h-8zm10 45h7v57h-7zm28-18h7v75h-7zm-19-53h8v128h-8zm10 16h7v112h-7zm56 0h7v112h-7zm-19-8h7v120h-7zm10 12h7v108h-7zm18 14h8v94h-8zm10-8h7v102h-7zm28 27h7v75h-7zm9 6h8v69h-8zm10-13h7v82h-7z"/>
    <path d="M279.59 273.93h-1.828V279h-.746v-5.07h-1.825v-.618h4.399v.618zm.148 2.918c0-.414.081-.787.242-1.118a1.85 1.85 0 01.68-.765c.292-.18.624-.27.996-.27.576 0 1.041.2 1.395.598.357.398.535.928.535 1.59v.051c0 .411-.079.781-.238 1.109a1.795 1.795 0 01-1.684 1.035c-.573 0-1.038-.199-1.394-.598-.355-.398-.532-.925-.532-1.582v-.05zm.727.086c0 .468.108.845.324 1.128.219.284.51.426.875.426.367 0 .659-.143.875-.429.216-.289.324-.693.324-1.211 0-.464-.11-.839-.332-1.125a1.043 1.043 0 00-.875-.434c-.357 0-.644.142-.863.426-.219.284-.328.69-.328 1.219zm5.008-3.184v1.023h.789v.559h-.789v2.621c0 .169.035.297.105.383.07.083.19.125.36.125.083 0 .197-.016.343-.047V279c-.19.052-.375.078-.554.078-.323 0-.567-.098-.731-.293-.164-.195-.246-.473-.246-.832v-2.621h-.77v-.559h.77v-1.023h.723zm4.246 5.25c-.042-.083-.076-.232-.102-.445a1.612 1.612 0 01-1.203.523c-.417 0-.759-.117-1.027-.351a1.153 1.153 0 01-.399-.899c0-.44.167-.781.5-1.023.336-.245.808-.367 1.414-.367h.703v-.333c0-.252-.075-.453-.226-.601-.151-.151-.374-.227-.668-.227-.258 0-.474.065-.649.196-.174.13-.261.287-.261.472h-.727a.99.99 0 01.223-.609c.151-.198.354-.354.609-.469.258-.114.541-.172.848-.172.487 0 .868.123 1.144.367.276.243.42.577.43 1.004v1.946c0 .388.05.696.149.926V279h-.758zm-1.199-.551c.226 0 .441-.058.644-.176.203-.117.35-.269.441-.457v-.867h-.566c-.885 0-1.328.259-1.328.778 0 .226.075.403.227.531a.874.874 0 00.582.191zm3.726.551h-.723v-6h.723v6zm2.969-2.148c0-.649.153-1.17.461-1.563a1.455 1.455 0 011.207-.594c.495 0 .887.17 1.176.508V273h.722v6h-.664l-.035-.453c-.289.354-.691.531-1.207.531-.49 0-.889-.2-1.199-.601-.308-.401-.461-.925-.461-1.571v-.054zm.723.082c0 .479.098.854.296 1.125.198.27.472.406.821.406.458 0 .793-.206 1.004-.617v-1.942c-.217-.398-.549-.597-.997-.597-.354 0-.63.136-.828.41-.198.273-.296.678-.296 1.215zm4.753 2.066h-.722v-4.227h.722V279zm-.781-5.348c0-.117.035-.216.106-.297.073-.08.179-.121.32-.121.141 0 .247.041.32.121.073.081.11.18.11.297a.411.411 0 01-.11.293c-.073.078-.179.117-.32.117-.141 0-.247-.039-.32-.117a.417.417 0 01-.106-.293zm4.551 5.348c-.042-.083-.076-.232-.102-.445a1.612 1.612 0 01-1.203.523c-.416 0-.759-.117-1.027-.351a1.153 1.153 0 01-.399-.899c0-.44.167-.781.5-1.023.336-.245.808-.367 1.415-.367h.703v-.333c0-.252-.076-.453-.227-.601-.151-.151-.374-.227-.668-.227-.258 0-.474.065-.648.196-.175.13-.262.287-.262.472h-.727c0-.211.075-.414.223-.609.151-.198.354-.354.609-.469.258-.114.541-.172.848-.172.487 0 .869.123 1.145.367.276.243.419.577.429 1.004v1.946c0 .388.05.696.149.926V279h-.758zm-1.199-.551c.226 0 .441-.058.644-.176a1.06 1.06 0 00.442-.457v-.867h-.567c-.885 0-1.328.259-1.328.778 0 .226.076.403.227.531a.874.874 0 00.582.191zm4.984-3.027a2.189 2.189 0 00-.355-.027c-.474 0-.796.201-.965.605v3h-.723v-4.227h.703l.012.489c.237-.378.573-.567 1.008-.567.14 0 .247.019.32.055v.672zm1.453 3.578h-.722v-4.227h.722V279zm-.781-5.348c0-.117.035-.216.105-.297.073-.08.18-.121.321-.121.14 0 .247.041.32.121.073.081.109.18.109.297a.41.41 0 01-.109.293c-.073.078-.18.117-.32.117-.141 0-.248-.039-.321-.117a.421.421 0 01-.105-.293zm1.75 3.196c0-.414.081-.787.242-1.118.164-.33.391-.585.68-.765.292-.18.624-.27.996-.27.575 0 1.04.2 1.394.598.357.398.536.928.536 1.59v.051c0 .411-.08.781-.239 1.109a1.786 1.786 0 01-.675.762 1.866 1.866 0 01-1.008.273c-.573 0-1.038-.199-1.395-.598-.354-.398-.531-.925-.531-1.582v-.05zm.727.086c0 .468.108.845.324 1.128.219.284.51.426.875.426.367 0 .659-.143.875-.429.216-.289.324-.693.324-1.211 0-.464-.111-.839-.332-1.125a1.043 1.043 0 00-.875-.434c-.357 0-.645.142-.863.426-.219.284-.328.69-.328 1.219z" fill="#333"/>
    <path fill="#99E9BA" d="M263 273h8v6h-8z"/>
    <rect x="366.25" y="99.25" width="85.5" height="12.5" rx=".75" fill="#fff" stroke="#E0E0E0" stroke-width=".5"/>
    <path d="M371.629 102.312l1.859 4.641 1.86-4.641h.972V108h-.75v-2.215l.071-2.39-1.868 4.605h-.574l-1.863-4.594.074 2.379V108h-.75v-5.688h.969zm7.656 5.766c-.573 0-1.039-.187-1.398-.562-.36-.378-.539-.882-.539-1.512v-.133c0-.419.079-.793.238-1.121.161-.331.385-.589.672-.773.289-.188.601-.282.937-.282.55 0 .977.181 1.282.543.304.362.457.88.457 1.555v.301h-2.864c.011.416.132.754.364 1.011.234.256.531.383.89.383.255 0 .472-.052.649-.156.177-.104.332-.242.465-.414l.441.344c-.354.544-.886.816-1.594.816zm-.09-3.789a.963.963 0 00-.734.32c-.198.211-.32.508-.367.891h2.117v-.055c-.021-.367-.12-.651-.297-.851-.177-.203-.417-.305-.719-.305zm5.039 2.59a.526.526 0 00-.222-.453c-.146-.11-.403-.203-.77-.281-.364-.079-.655-.172-.871-.282a1.256 1.256 0 01-.476-.39.94.94 0 01-.153-.539c0-.347.146-.64.438-.879.294-.24.669-.36 1.125-.36.479 0 .867.124 1.164.371.299.248.449.564.449.95h-.727a.65.65 0 00-.253-.512.94.94 0 00-.633-.215c-.263 0-.469.057-.617.172a.54.54 0 00-.223.449.44.44 0 00.207.395c.138.088.387.173.746.254.362.08.655.177.879.289.224.112.389.247.496.406a.979.979 0 01.164.574c0 .378-.151.681-.453.91-.302.227-.694.34-1.176.34-.338 0-.638-.06-.898-.18a1.474 1.474 0 01-.614-.5 1.23 1.23 0 01-.218-.699h.722c.013.242.11.435.289.578.183.141.422.211.719.211.274 0 .492-.054.656-.164a.513.513 0 00.25-.445zm6.258 1.121c-.041-.083-.075-.232-.101-.445a1.612 1.612 0 01-1.203.523c-.417 0-.76-.117-1.028-.351a1.155 1.155 0 01-.398-.899c0-.44.166-.781.5-1.023.336-.245.807-.367 1.414-.367h.703v-.333c0-.252-.076-.453-.227-.601-.151-.151-.373-.227-.668-.227-.257 0-.474.065-.648.196-.175.13-.262.287-.262.472h-.726c0-.211.074-.414.222-.609.151-.198.354-.354.61-.469.258-.114.54-.172.847-.172.487 0 .869.123 1.145.367.276.243.419.577.43 1.004v1.946c0 .388.049.696.148.926V108h-.758zm-1.199-.551c.227 0 .441-.058.645-.176.203-.117.35-.269.441-.457v-.867h-.567c-.885 0-1.328.259-1.328.778 0 .226.076.403.227.531a.874.874 0 00.582.191zm4.637.039c.258 0 .483-.078.675-.234a.825.825 0 00.321-.586h.683a1.304 1.304 0 01-.25.691 1.633 1.633 0 01-.617.524c-.255.13-.526.195-.812.195-.576 0-1.034-.191-1.375-.574-.339-.386-.508-.912-.508-1.578v-.121c0-.412.075-.778.226-1.098.151-.32.368-.569.649-.746a1.858 1.858 0 011.004-.266c.474 0 .867.142 1.179.426.316.284.484.652.504 1.106h-.683a.982.982 0 00-.313-.672.956.956 0 00-.687-.266c-.367 0-.653.133-.856.399-.2.263-.3.644-.3 1.144v.137c0 .487.1.862.3 1.125.201.263.487.394.86.394zm3.472-4.738v1.023h.789v.559h-.789v2.621c0 .169.036.297.106.383.07.083.19.125.359.125.084 0 .198-.016.344-.047V108c-.19.052-.375.078-.555.078-.323 0-.566-.098-.73-.293-.164-.195-.246-.473-.246-.832v-2.621h-.77v-.559h.77v-1.023h.722zm4.246 4.832c-.281.331-.694.496-1.238.496-.45 0-.794-.13-1.031-.39-.234-.264-.353-.652-.356-1.165v-2.75h.723v2.731c0 .641.261.961.781.961.552 0 .92-.206 1.102-.617v-3.075h.723V108h-.688l-.016-.418zm4.414.418c-.041-.083-.075-.232-.101-.445a1.612 1.612 0 01-1.203.523c-.417 0-.759-.117-1.028-.351a1.155 1.155 0 01-.398-.899c0-.44.167-.781.5-1.023.336-.245.807-.367 1.414-.367h.703v-.333c0-.252-.075-.453-.226-.601-.151-.151-.374-.227-.668-.227-.258 0-.474.065-.649.196-.174.13-.261.287-.261.472h-.727a.99.99 0 01.223-.609c.151-.198.354-.354.609-.469.258-.114.54-.172.848-.172.487 0 .868.123 1.144.367.276.243.419.577.43 1.004v1.946c0 .388.049.696.148.926V108h-.758zm-1.199-.551c.227 0 .442-.058.645-.176.203-.117.35-.269.441-.457v-.867h-.566c-.886 0-1.328.259-1.328.778 0 .226.075.403.226.531a.874.874 0 00.582.191zm3.727.551h-.723v-6h.723v6z" fill="#333"/>
    <path d="M411.707 105.707a7.45 7.45 0 01.477-1.758c.234-.57.52-1.056.859-1.457a3.526 3.526 0 011.133-.914l.105.484c-.409.305-.76.704-1.054 1.196-.292.489-.517 1.073-.676 1.75a8.396 8.396 0 00-.231 1.996c0 .539.069 1.013.207 1.422.141.411.343.735.606.972l-.176.438c-.435-.302-.768-.749-1-1.34-.229-.591-.333-1.268-.312-2.031.005-.25.023-.488.054-.715l.008-.043zm4.125 2.371c-.526-.01-.937-.204-1.234-.582-.297-.378-.422-.861-.375-1.449l.019-.168c.044-.419.168-.802.371-1.149.206-.346.456-.606.75-.781.295-.177.612-.261.953-.254.435.011.776.155 1.024.434.247.279.383.656.406 1.133a3.2 3.2 0 01-.016.508l-.042.324h-2.762c-.047.383.015.708.187.976.175.269.434.408.778.418.416.011.802-.177 1.156-.562l.406.344a1.873 1.873 0 01-.687.601c-.279.143-.59.212-.934.207zm.449-3.793a1.036 1.036 0 00-.765.297c-.217.206-.388.512-.516.918l2.055.004.015-.063c.042-.328-.011-.6-.16-.816a.737.737 0 00-.629-.34zm3.274-.515l-.102.535c.38-.417.813-.62 1.297-.61.398.011.693.149.883.414.19.266.26.64.211 1.121l-.461 2.77h-.707l.465-2.781c.015-.128.017-.246.004-.356-.045-.364-.26-.551-.645-.558-.424-.008-.797.218-1.117.679l-.524 3.016h-.707l.735-4.227.668-.003zm4.746 4.308c-.526-.01-.938-.204-1.235-.582-.296-.378-.421-.861-.375-1.449l.02-.168c.044-.419.168-.802.371-1.149.206-.346.456-.606.75-.781.294-.177.612-.261.953-.254.435.011.776.155 1.024.434.247.279.382.656.406 1.133.008.169.002.338-.016.508l-.043.324h-2.761c-.047.383.015.708.187.976.175.269.434.408.777.418.417.011.802-.177 1.157-.562l.406.344a1.868 1.868 0 01-.688.601 1.946 1.946 0 01-.933.207zm.449-3.793a1.038 1.038 0 00-.766.297c-.216.206-.388.512-.515.918l2.054.004.016-.063c.042-.328-.012-.6-.16-.816a.739.739 0 00-.629-.34zm4.5.133l-.332-.035c-.453 0-.81.204-1.07.613l-.52 3.004h-.707l.734-4.227.684-.003-.105.492c.299-.394.652-.585 1.058-.574.086 0 .198.019.336.058l-.078.672zm2.305-.723c.354.006.657.102.91.289.252.188.439.447.558.778.123.328.165.687.125 1.078l-.007.086c-.05.411-.172.784-.368 1.117a2.143 2.143 0 01-.757.773c-.31.185-.65.273-1.02.262a1.53 1.53 0 01-.91-.289 1.605 1.605 0 01-.555-.766 2.462 2.462 0 01-.125-1.066c.039-.437.158-.831.356-1.18.198-.349.452-.618.761-.808a1.831 1.831 0 011.032-.274zm-1.438 2.266a2.433 2.433 0 000 .512c.026.307.117.552.274.734a.831.831 0 00.632.285 1.13 1.13 0 00.649-.172c.198-.125.364-.312.5-.562.135-.25.223-.528.262-.832.02-.24.024-.442.011-.606-.031-.315-.126-.563-.285-.746a.849.849 0 00-.633-.289c-.364-.008-.674.136-.929.43-.256.294-.413.68-.473 1.156l-.008.09zm5.574-.246a7.265 7.265 0 01-.496 1.805 5.344 5.344 0 01-.863 1.429 3.54 3.54 0 01-1.109.891l-.11-.449c.894-.672 1.49-1.752 1.789-3.239.12-.599.177-1.175.172-1.73-.013-1.117-.284-1.918-.812-2.402l.183-.438c.292.203.538.474.739.813.203.335.351.727.445 1.175a5.975 5.975 0 01.07 2.102l-.008.043z" fill="#828282"/>
    <path d="M447.491 104.286h-.502a.108.108 0 00-.087.044L445 106.952l-1.903-2.622a.108.108 0 00-.086-.044h-.502a.054.054 0 00-.044.085l2.361 3.255a.214.214 0 00.347 0l2.361-3.255a.053.053 0 00-.043-.085z" fill="#BDBDBD"/>
  </g>
  <defs>
    <clipPath id="clip0_2551_46994">
      <path fill="#fff" d="M0 0h584v382H0z"/>
    </clipPath>
  </defs>
</svg>
